<svg width="375" height="554" viewBox="0 0 375 554" fill="none" xmlns="http://www.w3.org/2000/svg">
<g filter="url(#filter0_f_394_2019)">
<path fill-rule="evenodd" clip-rule="evenodd" d="M-120 364.209L-113.417 348.393C-106.833 332.577 -93.6667 300.946 -81.8167 269.314C-68.65 237.682 -55.4833 206.05 -42.3167 253.498C-30.4667 300.946 -17.3 427.473 -4.13333 482.828C9.03334 538.184 20.8833 522.368 34.05 498.644C47.2167 474.921 60.3833 443.289 72.2333 395.841C85.4 348.393 98.5667 285.13 111.733 300.946C123.583 316.761 136.75 411.657 149.917 443.289C163.083 474.921 174.933 443.289 188.1 443.289C201.267 443.289 214.433 474.921 226.283 435.381C239.45 395.841 252.617 285.13 265.783 229.774C277.633 174.418 290.8 174.418 303.967 206.05C317.133 237.682 328.983 300.946 342.15 356.301C355.317 411.657 368.483 459.105 380.333 443.289C393.5 427.473 406.667 348.393 419.833 348.393C433 348.393 444.85 427.473 458.017 427.473C471.183 427.473 484.35 348.393 496.2 316.761C509.367 285.13 522.533 300.946 535.7 269.314C547.55 237.682 560.717 158.602 573.883 174.418C587.05 190.234 598.9 300.946 612.067 356.301C625.233 411.657 638.4 411.657 650.25 356.301C663.417 300.946 676.583 190.234 689.75 166.51C701.6 142.787 714.767 206.05 727.933 269.314C741.1 332.577 752.95 395.841 766.117 395.841C779.283 395.841 792.45 332.577 804.3 300.946C817.467 269.314 830.633 269.314 843.8 261.406C855.65 253.498 868.817 237.682 881.983 237.682C895.15 237.682 907 253.498 920.167 237.682C933.333 221.866 946.5 174.418 959.667 198.142C971.517 221.866 984.683 316.761 997.85 372.117C1011.02 427.473 1022.87 443.289 1036.03 411.657C1049.2 380.025 1062.37 300.946 1074.22 300.946C1087.38 300.946 1100.55 380.025 1113.72 419.565C1125.57 459.105 1138.73 459.105 1151.9 443.289C1165.07 427.473 1176.92 395.841 1190.08 364.209C1203.25 332.577 1216.42 300.946 1228.27 324.669C1241.43 348.393 1254.6 427.473 1267.77 467.013C1279.62 506.552 1292.78 506.552 1305.95 467.013C1319.12 427.473 1330.97 348.393 1344.13 308.854C1357.3 269.314 1370.47 269.314 1382.32 237.682C1395.48 206.05 1408.65 142.787 1421.82 134.879C1433.67 126.971 1446.83 174.418 1453.42 198.142L1460 221.866V554H1453.42C1446.83 554 1433.67 554 1421.82 554C1408.65 554 1395.48 554 1382.32 554C1370.47 554 1357.3 554 1344.13 554C1330.97 554 1319.12 554 1305.95 554C1292.78 554 1279.62 554 1267.77 554C1254.6 554 1241.43 554 1228.27 554C1216.42 554 1203.25 554 1190.08 554C1176.92 554 1165.07 554 1151.9 554C1138.73 554 1125.57 554 1113.72 554C1100.55 554 1087.38 554 1074.22 554C1062.37 554 1049.2 554 1036.03 554C1022.87 554 1011.02 554 997.85 554C984.683 554 971.517 554 959.667 554C946.5 554 933.333 554 920.167 554C907 554 895.15 554 881.983 554C868.817 554 855.65 554 843.8 554C830.633 554 817.467 554 804.3 554C792.45 554 779.283 554 766.117 554C752.95 554 741.1 554 727.933 554C714.767 554 701.6 554 689.75 554C676.583 554 663.417 554 650.25 554C638.4 554 625.233 554 612.067 554C598.9 554 587.05 554 573.883 554C560.717 554 547.55 554 535.7 554C522.533 554 509.367 554 496.2 554C484.35 554 471.183 554 458.017 554C444.85 554 433 554 419.833 554C406.667 554 393.5 554 380.333 554C368.483 554 355.317 554 342.15 554C328.983 554 317.133 554 303.967 554C290.8 554 277.633 554 265.783 554C252.617 554 239.45 554 226.283 554C214.433 554 201.267 554 188.1 554C174.933 554 163.083 554 149.917 554C136.75 554 123.583 554 111.733 554C98.5667 554 85.4 554 72.2333 554C60.3833 554 47.2167 554 34.05 554C20.8833 554 9.03334 554 -4.13333 554C-17.3 554 -30.4667 554 -42.3167 554C-55.4833 554 -68.65 554 -81.8167 554C-93.6667 554 -106.833 554 -113.417 554H-120V364.209Z" fill="url(#paint0_linear_394_2019)"/>
</g>
<defs>
<filter id="filter0_f_394_2019" x="-254" y="0" width="1848" height="688" filterUnits="userSpaceOnUse" color-interpolation-filters="sRGB">
<feFlood flood-opacity="0" result="BackgroundImageFix"/>
<feBlend mode="normal" in="SourceGraphic" in2="BackgroundImageFix" result="shape"/>
<feGaussianBlur stdDeviation="67" result="effect1_foregroundBlur_394_2019"/>
</filter>
<linearGradient id="paint0_linear_394_2019" x1="-120" y1="344" x2="1460" y2="344" gradientUnits="userSpaceOnUse">
<stop stop-color="#0099FF"/>
<stop offset="0.3125" stop-color="#A005F9"/>
<stop offset="0.644231" stop-color="#E7E015"/>
<stop offset="1" stop-color="#2CDCCE"/>
</linearGradient>
</defs>
</svg>
