<svg width="375" height="812" viewBox="0 0 375 812" fill="none" xmlns="http://www.w3.org/2000/svg">
<g clip-path="url(#clip0_163_3467)">
<rect width="375" height="812" fill="#111111"/>
<path d="M-22 -1.5H57C68.8741 -1.5 78.5 8.12588 78.5 20C78.5 31.8741 68.8741 41.5 57 41.5H-22C-33.8741 41.5 -43.5 31.8741 -43.5 20C-43.5 8.12588 -33.8741 -1.5 -22 -1.5Z" stroke="url(#paint0_linear_163_3467)"/>
<path d="M-21.22 13.84C-19.2 13.84 -17.14 14.46 -15.7 15.4L-17.04 18.18C-18.52 17.32 -20.38 16.72 -21.52 16.72C-22.44 16.72 -23.06 17.06 -23.06 17.74C-23.06 20.16 -15.66 18.78 -15.66 23.84C-15.66 26.64 -18.14 28.12 -21.26 28.12C-23.6 28.12 -26 27.24 -27.66 25.88L-26.28 23.14C-24.84 24.4 -22.68 25.24 -21.22 25.24C-20.1 25.24 -19.4 24.82 -19.4 24.02C-19.4 21.54 -26.8 23.02 -26.8 18.06C-26.8 15.48 -24.58 13.84 -21.22 13.84ZM-2.76891 16.8H-10.1689V19.58H-3.48891V22.38H-10.1689V25.2H-2.54891V28H-13.7289V14H-2.76891V16.8ZM5.12766 13.84C7.14766 13.84 9.20766 14.46 10.6477 15.4L9.30766 18.18C7.82766 17.32 5.96766 16.72 4.82766 16.72C3.90766 16.72 3.28766 17.06 3.28766 17.74C3.28766 20.16 10.6877 18.78 10.6877 23.84C10.6877 26.64 8.20766 28.12 5.08766 28.12C2.74766 28.12 0.347656 27.24 -1.31234 25.88L0.0676563 23.14C1.50766 24.4 3.66766 25.24 5.12766 25.24C6.24766 25.24 6.94766 24.82 6.94766 24.02C6.94766 21.54 -0.452344 23.02 -0.452344 18.06C-0.452344 15.48 1.76766 13.84 5.12766 13.84ZM17.9988 13.84C20.0188 13.84 22.0788 14.46 23.5188 15.4L22.1788 18.18C20.6988 17.32 18.8388 16.72 17.6988 16.72C16.7788 16.72 16.1588 17.06 16.1588 17.74C16.1588 20.16 23.5588 18.78 23.5588 23.84C23.5588 26.64 21.0788 28.12 17.9588 28.12C15.6188 28.12 13.2188 27.24 11.5588 25.88L12.9388 23.14C14.3788 24.4 16.5388 25.24 17.9988 25.24C19.1188 25.24 19.8188 24.82 19.8188 24.02C19.8188 21.54 12.4188 23.02 12.4188 18.06C12.4188 15.48 14.6388 13.84 17.9988 13.84ZM29.0498 28H25.4898V14H29.0498V28ZM38.497 13.88C42.837 13.88 46.077 16.92 46.077 20.98C46.077 25.06 42.837 28.16 38.497 28.16C34.177 28.16 30.937 25.08 30.937 20.98C30.937 16.9 34.177 13.88 38.497 13.88ZM38.537 16.86C36.377 16.86 34.577 18.64 34.577 21C34.577 23.36 36.397 25.18 38.537 25.18C40.697 25.18 42.417 23.36 42.417 21C42.417 18.64 40.697 16.86 38.537 16.86ZM60.8708 28H57.7308L51.2908 19.38V28H47.9508V14H51.0908L57.5508 22.64V14H60.8708V28Z" fill="#B9B9B9"/>
<path d="M121 -1.5H262C273.874 -1.5 283.5 8.12588 283.5 20C283.5 31.8741 273.874 41.5 262 41.5H121C109.126 41.5 99.5 31.8741 99.5 20C99.5 8.12588 109.126 -1.5 121 -1.5Z" stroke="url(#paint1_linear_163_3467)"/>
<path d="M125.7 25.42H119.58L118.56 28H114.9L120.94 14H124.6L130.5 28H126.7L125.7 25.42ZM124.66 22.72L122.66 17.54L120.62 22.72H124.66ZM131.791 14H137.891C141.471 14 143.531 15.76 143.531 18.88C143.531 22.16 141.471 24.06 137.891 24.06H135.351V28H131.791V14ZM135.351 16.8V21.26H137.711C139.271 21.26 140.171 20.48 140.171 19C140.171 17.54 139.271 16.8 137.711 16.8H135.351ZM145.384 14H151.484C155.064 14 157.124 15.76 157.124 18.88C157.124 22.16 155.064 24.06 151.484 24.06H148.944V28H145.384V14ZM148.944 16.8V21.26H151.304C152.864 21.26 153.764 20.48 153.764 19C153.764 17.54 152.864 16.8 151.304 16.8H148.944ZM165.618 13.88C169.958 13.88 173.198 16.92 173.198 20.98C173.198 25.06 169.958 28.16 165.618 28.16C161.298 28.16 158.058 25.08 158.058 20.98C158.058 16.9 161.298 13.88 165.618 13.88ZM165.658 16.86C163.498 16.86 161.698 18.64 161.698 21C161.698 23.36 163.518 25.18 165.658 25.18C167.818 25.18 169.538 23.36 169.538 21C169.538 18.64 167.818 16.86 165.658 16.86ZM178.632 28H175.072V14H178.632V28ZM194.359 28H191.219L184.779 19.38V28H181.439V14H184.579L191.039 22.64V14H194.359V28ZM207.862 16.86H203.642V28H200.082V16.86H195.902V13.98H207.862V16.86ZM224.768 28H221.628L221.608 18.9L218.248 26.6H215.928L212.568 18.9V28H209.388V13.98H213.288L217.088 22.32L220.888 13.98H224.768V28ZM238.551 16.8H231.151V19.58H237.831V22.38H231.151V25.2H238.771V28H227.591V14H238.551V16.8ZM253.988 28H250.848L244.408 19.38V28H241.068V14H244.208L250.668 22.64V14H253.988V28ZM267.491 16.86H263.271V28H259.711V16.86H255.531V13.98H267.491V16.86Z" fill="#B9B9B9"/>
<path d="M326 -1.5H421C432.874 -1.5 442.5 8.12588 442.5 20C442.5 31.8741 432.874 41.5 421 41.5H326C314.126 41.5 304.5 31.8741 304.5 20C304.5 8.31133 313.828 -1.19895 325.445 -1.49316L326 -1.5Z" stroke="url(#paint2_linear_163_3467)"/>
<path d="M321.4 14H327.42C331.82 14 334.86 16.84 334.86 21C334.86 25.14 331.78 28 327.28 28H321.4V14ZM324.96 16.84V25.16H327.5C329.68 25.16 331.24 23.48 331.24 21.02C331.24 18.54 329.6 16.84 327.34 16.84H324.96ZM347.692 16.8H340.292V19.58H346.972V22.38H340.292V25.2H347.912V28H336.732V14H347.692V16.8ZM359.509 25.42H353.389L352.369 28H348.709L354.749 14H358.409L364.309 28H360.509L359.509 25.42ZM358.469 22.72L356.469 17.54L354.429 22.72H358.469ZM365.599 14H371.619C376.019 14 379.059 16.84 379.059 21C379.059 25.14 375.979 28 371.479 28H365.599V14ZM369.159 16.84V25.16H371.699C373.879 25.16 375.439 23.48 375.439 21.02C375.439 18.54 373.799 16.84 371.539 16.84H369.159ZM384.491 25.02H390.431V28H380.931V14H384.491V25.02ZM395.683 28H392.123V14H395.683V28ZM411.41 28H408.27L401.83 19.38V28H398.49V14H401.63L408.09 22.64V14H411.41V28ZM425.173 16.8H417.773V19.58H424.453V22.38H417.773V25.2H425.393V28H414.213V14H425.173V16.8Z" fill="#B9B9B9"/>
<path d="M-47 62.5H21C32.8741 62.5 42.5 72.1259 42.5 84C42.5 95.8741 32.8741 105.5 21 105.5H-47C-58.8741 105.5 -68.5 95.8741 -68.5 84C-68.5 72.1259 -58.8741 62.5 -47 62.5Z" stroke="url(#paint3_linear_163_3467)"/>
<path d="M-51.6 78H-45.5C-41.92 78 -39.86 79.76 -39.86 82.88C-39.86 86.16 -41.92 88.06 -45.5 88.06H-48.04V92H-51.6V78ZM-48.04 80.8V85.26H-45.68C-44.12 85.26 -43.22 84.48 -43.22 83C-43.22 81.54 -44.12 80.8 -45.68 80.8H-48.04ZM-27.0462 80.8H-34.4462V83.58H-27.7662V86.38H-34.4462V89.2H-26.8262V92H-38.0062V78H-27.0462V80.8ZM-16.0897 92L-18.1697 88.06H-18.2697H-20.9697V92H-24.5297V78H-18.2697C-14.5697 78 -12.4497 79.76 -12.4497 82.88C-12.4497 85.02 -13.3497 86.56 -14.9897 87.38L-12.0497 92H-16.0897ZM-20.9697 85.26H-18.2697C-16.7297 85.26 -15.8297 84.48 -15.8297 83C-15.8297 81.54 -16.7297 80.8 -18.2697 80.8H-20.9697V85.26ZM-6.49703 92H-10.057V78H-6.49703V92ZM2.95016 77.88C7.29016 77.88 10.5302 80.92 10.5302 84.98C10.5302 89.06 7.29016 92.16 2.95016 92.16C-1.36984 92.16 -4.60984 89.08 -4.60984 84.98C-4.60984 80.9 -1.36984 77.88 2.95016 77.88ZM2.99016 80.86C0.830156 80.86 -0.969843 82.64 -0.969843 85C-0.969843 87.36 0.850157 89.18 2.99016 89.18C5.15016 89.18 6.87016 87.36 6.87016 85C6.87016 82.64 5.15016 80.86 2.99016 80.86ZM12.4039 78H18.4239C22.8239 78 25.8639 80.84 25.8639 85C25.8639 89.14 22.7839 92 18.2839 92H12.4039V78ZM15.9639 80.84V89.16H18.5039C20.6839 89.16 22.2439 87.48 22.2439 85.02C22.2439 82.54 20.6039 80.84 18.3439 80.84H15.9639Z" fill="#B9B9B9"/>
<path d="M85 62.5H178C189.874 62.5 199.5 72.1259 199.5 84C199.5 95.8741 189.874 105.5 178 105.5H85C73.1259 105.5 63.5 95.8741 63.5 84C63.5 72.1259 73.1259 62.5 85 62.5Z" stroke="url(#paint4_linear_163_3467)"/>
<path d="M83.96 92H80.4V78H83.96V92ZM99.6872 92H96.5472L90.1072 83.38V92H86.7672V78H89.9072L96.3672 86.64V78H99.6872V92ZM107.87 77.84C109.89 77.84 111.95 78.46 113.39 79.4L112.05 82.18C110.57 81.32 108.71 80.72 107.57 80.72C106.65 80.72 106.03 81.06 106.03 81.74C106.03 84.16 113.43 82.78 113.43 87.84C113.43 90.64 110.95 92.12 107.83 92.12C105.49 92.12 103.09 91.24 101.43 89.88L102.81 87.14C104.25 88.4 106.41 89.24 107.87 89.24C108.99 89.24 109.69 88.82 109.69 88.02C109.69 85.54 102.29 87.02 102.29 82.06C102.29 79.48 104.51 77.84 107.87 77.84ZM126.061 80.86H121.841V92H118.281V80.86H114.101V77.98H126.061V80.86ZM135.384 89.42H129.264L128.244 92H124.584L130.624 78H134.284L140.184 92H136.384L135.384 89.42ZM134.344 86.72L132.344 81.54L130.304 86.72H134.344ZM154.394 92H151.254L144.814 83.38V92H141.474V78H144.614L151.074 86.64V78H154.394V92ZM163.757 77.88C165.837 77.88 167.997 78.8 169.397 80.24L167.337 82.68C166.417 81.56 165.057 80.86 163.817 80.86C161.597 80.86 159.917 82.62 159.917 84.92C159.917 87.26 161.597 89.04 163.817 89.04C164.997 89.04 166.357 88.4 167.337 87.4L169.417 89.6C167.917 91.14 165.697 92.16 163.637 92.16C159.417 92.16 156.277 89.06 156.277 84.96C156.277 80.92 159.497 77.88 163.757 77.88ZM182.005 80.8H174.605V83.58H181.285V86.38H174.605V89.2H182.225V92H171.045V78H182.005V80.8Z" fill="#B9B9B9"/>
<path d="M242 62.5H354C365.874 62.5 375.5 72.1259 375.5 84C375.5 95.8741 365.874 105.5 354 105.5H242C230.126 105.5 220.5 95.8741 220.5 84C220.5 72.3113 229.828 62.801 241.445 62.5068L242 62.5Z" stroke="url(#paint5_linear_163_3467)"/>
<path d="M248.1 80.86H243.88V92H240.32V80.86H236.14V77.98H248.1V80.86ZM253.187 92H249.627V78H253.187V92ZM271.374 92H268.234L268.214 82.9L264.854 90.6H262.534L259.174 82.9V92H255.994V77.98H259.894L263.694 86.32L267.494 77.98H271.374V92ZM285.157 80.8H277.757V83.58H284.437V86.38H277.757V89.2H285.377V92H274.197V78H285.157V80.8ZM298.053 80.8H291.233V84.04H297.513V86.84H291.233V92H287.673V78H298.053V80.8ZM308.184 92L306.104 88.06H306.004H303.304V92H299.744V78H306.004C309.704 78 311.824 79.76 311.824 82.88C311.824 85.02 310.924 86.56 309.284 87.38L312.224 92H308.184ZM303.304 85.26H306.004C307.544 85.26 308.444 84.48 308.444 83C308.444 81.54 307.544 80.8 306.004 80.8H303.304V85.26ZM323.516 89.42H317.396L316.376 92H312.716L318.756 78H322.416L328.316 92H324.516L323.516 89.42ZM322.476 86.72L320.476 81.54L318.436 86.72H322.476ZM344.987 92H341.847L341.827 82.9L338.467 90.6H336.147L332.787 82.9V92H329.607V77.98H333.507L337.307 86.32L341.107 77.98H344.987V92ZM358.77 80.8H351.37V83.58H358.05V86.38H351.37V89.2H358.99V92H347.81V78H358.77V80.8Z" fill="#B9B9B9"/>
<path d="M-51 126.5H49C60.8741 126.5 70.5 136.126 70.5 148C70.5 159.874 60.8741 169.5 49 169.5H-51C-62.8741 169.5 -72.5 159.874 -72.5 148C-72.5 136.126 -62.8741 126.5 -51 126.5Z" stroke="url(#paint6_linear_163_3467)"/>
<path d="M-50.22 141.84C-48.2 141.84 -46.14 142.46 -44.7 143.4L-46.04 146.18C-47.52 145.32 -49.38 144.72 -50.52 144.72C-51.44 144.72 -52.06 145.06 -52.06 145.74C-52.06 148.16 -44.66 146.78 -44.66 151.84C-44.66 154.64 -47.14 156.12 -50.26 156.12C-52.6 156.12 -55 155.24 -56.66 153.88L-55.28 151.14C-53.84 152.4 -51.68 153.24 -50.22 153.24C-49.1 153.24 -48.4 152.82 -48.4 152.02C-48.4 149.54 -55.8 151.02 -55.8 146.06C-55.8 143.48 -53.58 141.84 -50.22 141.84ZM-36.1689 141.88C-34.0889 141.88 -31.9289 142.8 -30.5289 144.24L-32.5889 146.68C-33.5089 145.56 -34.8689 144.86 -36.1089 144.86C-38.3289 144.86 -40.0089 146.62 -40.0089 148.92C-40.0089 151.26 -38.3289 153.04 -36.1089 153.04C-34.9289 153.04 -33.5689 152.4 -32.5889 151.4L-30.5089 153.6C-32.0089 155.14 -34.2289 156.16 -36.2889 156.16C-40.5089 156.16 -43.6489 153.06 -43.6489 148.96C-43.6489 144.92 -40.4289 141.88 -36.1689 141.88ZM-15.9612 156H-19.5212V150.56H-25.3212V156H-28.8812V142H-25.3212V147.76H-19.5212V142H-15.9612V156ZM-2.19859 144.8H-9.59859V147.58H-2.91859V150.38H-9.59859V153.2H-1.97859V156H-13.1586V142H-2.19859V144.8ZM0.317969 142H6.33797C10.738 142 13.778 144.84 13.778 149C13.778 153.14 10.698 156 6.19797 156H0.317969V142ZM3.87797 144.84V153.16H6.41797C8.59797 153.16 10.158 151.48 10.158 149.02C10.158 146.54 8.51797 144.84 6.25797 144.84H3.87797ZM28.25 142V150.12C28.25 153.82 25.79 156.16 21.87 156.16C17.93 156.16 15.41 153.82 15.41 150.12V142H18.97V150.12C18.97 152.02 20.19 153.18 21.89 153.18C23.57 153.18 24.71 152.02 24.71 150.12V142H28.25ZM34.3663 153.02H40.3063V156H30.8063V142H34.3663V153.02ZM52.9577 144.8H45.5577V147.58H52.2377V150.38H45.5577V153.2H53.1777V156H41.9977V142H52.9577V144.8Z" fill="#B9B9B9"/>
<path d="M113 126.5H199C210.874 126.5 220.5 136.126 220.5 148C220.5 159.874 210.874 169.5 199 169.5H113C101.126 169.5 91.5 159.874 91.5 148C91.5 136.126 101.126 126.5 113 126.5Z" stroke="url(#paint7_linear_163_3467)"/>
<path d="M119.1 144.86H114.88V156H111.32V144.86H107.14V141.98H119.1V144.86ZM124.187 156H120.627V142H124.187V156ZM142.374 156H139.234L139.214 146.9L135.854 154.6H133.534L130.174 146.9V156H126.994V141.98H130.894L134.694 150.32L138.494 141.98H142.374V156ZM156.157 144.8H148.757V147.58H155.437V150.38H148.757V153.2H156.377V156H145.197V142H156.157V144.8ZM162.233 153.02H168.173V156H158.673V142H162.233V153.02ZM173.425 156H169.865V142H173.425V156ZM189.152 156H186.012L179.572 147.38V156H176.232V142H179.372L185.832 150.64V142H189.152V156ZM202.915 144.8H195.515V147.58H202.195V150.38H195.515V153.2H203.135V156H191.955V142H202.915V144.8Z" fill="#B9B9B9"/>
<path d="M263 126.5H322C333.874 126.5 343.5 136.126 343.5 148C343.5 159.874 333.874 169.5 322 169.5H263C251.126 169.5 241.5 159.874 241.5 148C241.5 136.126 251.126 126.5 263 126.5Z" stroke="url(#paint8_linear_163_3467)"/>
<path d="M258.4 142H264.5C268.08 142 270.14 143.76 270.14 146.88C270.14 150.16 268.08 152.06 264.5 152.06H261.96V156H258.4V142ZM261.96 144.8V149.26H264.32C265.88 149.26 266.78 148.48 266.78 147C266.78 145.54 265.88 144.8 264.32 144.8H261.96ZM284.914 156H281.354V150.56H275.554V156H271.994V142H275.554V147.76H281.354V142H284.914V156ZM297.016 153.42H290.896L289.876 156H286.216L292.256 142H295.916L301.816 156H298.016L297.016 153.42ZM295.976 150.72L293.976 145.54L291.936 150.72H295.976ZM308.428 141.84C310.448 141.84 312.508 142.46 313.948 143.4L312.608 146.18C311.128 145.32 309.268 144.72 308.128 144.72C307.208 144.72 306.588 145.06 306.588 145.74C306.588 148.16 313.988 146.78 313.988 151.84C313.988 154.64 311.508 156.12 308.388 156.12C306.048 156.12 303.648 155.24 301.988 153.88L303.368 151.14C304.808 152.4 306.968 153.24 308.428 153.24C309.548 153.24 310.248 152.82 310.248 152.02C310.248 149.54 302.848 151.02 302.848 146.06C302.848 143.48 305.068 141.84 308.428 141.84ZM326.88 144.8H319.48V147.58H326.16V150.38H319.48V153.2H327.1V156H315.92V142H326.88V144.8Z" fill="#B9B9B9"/>
<path d="M386 126.5H484C495.874 126.5 505.5 136.126 505.5 148C505.5 159.874 495.874 169.5 484 169.5H386C374.126 169.5 364.5 159.874 364.5 148C364.5 136.311 373.828 126.801 385.445 126.507L386 126.5Z" stroke="url(#paint9_linear_163_3467)"/>
<path d="M-74 190.5H17C28.8741 190.5 38.5 200.126 38.5 212C38.5 223.874 28.8741 233.5 17 233.5H-74C-85.8741 233.5 -95.5 223.874 -95.5 212C-95.5 200.126 -85.8741 190.5 -74 190.5Z" stroke="url(#paint10_linear_163_3467)"/>
<path d="M-75.04 220H-78.6V206H-75.04V220ZM-59.3128 220H-62.4528L-68.8928 211.38V220H-72.2328V206H-69.0928L-62.6328 214.64V206H-59.3128V220ZM-45.8102 208.86H-50.0302V220H-53.5902V208.86H-57.7702V205.98H-45.8102V208.86ZM-33.3236 208.8H-40.7236V211.58H-34.0436V214.38H-40.7236V217.2H-33.1036V220H-44.2836V206H-33.3236V208.8ZM-22.367 220L-24.447 216.06H-24.547H-27.247V220H-30.807V206H-24.547C-20.847 206 -18.727 207.76 -18.727 210.88C-18.727 213.02 -19.627 214.56 -21.267 215.38L-18.327 220H-22.367ZM-27.247 213.26H-24.547C-23.007 213.26 -22.107 212.48 -22.107 211C-22.107 209.54 -23.007 208.8 -24.547 208.8H-27.247V213.26ZM-8.77109 220H-12.4511L-17.8911 206H-14.0911L-10.5111 216.3L-6.93109 206H-3.27109L-8.77109 220ZM6.325 217.42H0.205L-0.815 220H-4.475L1.565 206H5.225L11.125 220H7.325L6.325 217.42ZM5.285 214.72L3.285 209.54L1.245 214.72H5.285ZM15.9756 217.02H21.9156V220H12.4156V206H15.9756V217.02Z" fill="#B9B9B9"/>
<path d="M81 190.5H140C151.874 190.5 161.5 200.126 161.5 212C161.5 223.874 151.874 233.5 140 233.5H81C69.1259 233.5 59.5 223.874 59.5 212C59.5 200.126 69.1259 190.5 81 190.5Z" stroke="url(#paint11_linear_163_3467)"/>
<path d="M76.4 206H82.5C86.08 206 88.14 207.76 88.14 210.88C88.14 214.16 86.08 216.06 82.5 216.06H79.96V220H76.4V206ZM79.96 208.8V213.26H82.32C83.88 213.26 84.78 212.48 84.78 211C84.78 209.54 83.88 208.8 82.32 208.8H79.96ZM102.914 220H99.3538V214.56H93.5538V220H89.9938V206H93.5538V211.76H99.3538V206H102.914V220ZM115.016 217.42H108.896L107.876 220H104.216L110.256 206H113.916L119.816 220H116.016L115.016 217.42ZM113.976 214.72L111.976 209.54L109.936 214.72H113.976ZM126.428 205.84C128.448 205.84 130.508 206.46 131.948 207.4L130.608 210.18C129.128 209.32 127.268 208.72 126.128 208.72C125.208 208.72 124.588 209.06 124.588 209.74C124.588 212.16 131.988 210.78 131.988 215.84C131.988 218.64 129.508 220.12 126.388 220.12C124.048 220.12 121.648 219.24 119.988 217.88L121.368 215.14C122.808 216.4 124.968 217.24 126.428 217.24C127.548 217.24 128.248 216.82 128.248 216.02C128.248 213.54 120.848 215.02 120.848 210.06C120.848 207.48 123.068 205.84 126.428 205.84ZM144.88 208.8H137.48V211.58H144.16V214.38H137.48V217.2H145.1V220H133.92V206H144.88V208.8Z" fill="#B9B9B9"/>
<path d="M204 190.5H244C255.874 190.5 265.5 200.126 265.5 212C265.5 223.874 255.874 233.5 244 233.5H204C192.126 233.5 182.5 223.874 182.5 212C182.5 200.126 192.126 190.5 204 190.5Z" stroke="url(#paint12_linear_163_3467)"/>
<path d="M204.78 205.84C206.8 205.84 208.86 206.46 210.3 207.4L208.96 210.18C207.48 209.32 205.62 208.72 204.48 208.72C203.56 208.72 202.94 209.06 202.94 209.74C202.94 212.16 210.34 210.78 210.34 215.84C210.34 218.64 207.86 220.12 204.74 220.12C202.4 220.12 200 219.24 198.34 217.88L199.72 215.14C201.16 216.4 203.32 217.24 204.78 217.24C205.9 217.24 206.6 216.82 206.6 216.02C206.6 213.54 199.2 215.02 199.2 210.06C199.2 207.48 201.42 205.84 204.78 205.84ZM215.831 217.02H221.771V220H212.271V206H215.831V217.02ZM230.103 205.88C234.443 205.88 237.683 208.92 237.683 212.98C237.683 217.06 234.443 220.16 230.103 220.16C225.783 220.16 222.543 217.08 222.543 212.98C222.543 208.9 225.783 205.88 230.103 205.88ZM230.143 208.86C227.983 208.86 226.183 210.64 226.183 213C226.183 215.36 228.003 217.18 230.143 217.18C232.303 217.18 234.023 215.36 234.023 213C234.023 210.64 232.303 208.86 230.143 208.86ZM249.788 208.86H245.568V220H242.008V208.86H237.828V205.98H249.788V208.86Z" fill="#B9B9B9"/>
<path d="M308 190.5H390C401.874 190.5 411.5 200.126 411.5 212C411.5 223.874 401.874 233.5 390 233.5H308C296.126 233.5 286.5 223.874 286.5 212C286.5 200.311 295.828 190.801 307.445 190.507L308 190.5Z" stroke="url(#paint13_linear_163_3467)"/>
<path d="M318.78 220H315.64L315.62 210.9L312.26 218.6H309.94L306.58 210.9V220H303.4V205.98H307.3L311.1 214.32L314.9 205.98H318.78V220ZM328.243 205.88C332.583 205.88 335.823 208.92 335.823 212.98C335.823 217.06 332.583 220.16 328.243 220.16C323.923 220.16 320.683 217.08 320.683 212.98C320.683 208.9 323.923 205.88 328.243 205.88ZM328.283 208.86C326.123 208.86 324.323 210.64 324.323 213C324.323 215.36 326.143 217.18 328.283 217.18C330.443 217.18 332.163 215.36 332.163 213C332.163 210.64 330.443 208.86 328.283 208.86ZM353.077 220H349.937L349.917 210.9L346.557 218.6H344.237L340.877 210.9V220H337.697V205.98H341.597L345.397 214.32L349.197 205.98H353.077V220ZM366.86 208.8H359.46V211.58H366.14V214.38H359.46V217.2H367.08V220H355.9V206H366.86V208.8ZM382.297 220H379.157L372.717 211.38V220H369.377V206H372.517L378.977 214.64V206H382.297V220ZM395.799 208.86H391.579V220H388.019V208.86H383.839V205.98H395.799V208.86Z" fill="#B9B9B9"/>
<path d="M-114 254.5H-19C-7.12588 254.5 2.5 264.126 2.5 276C2.5 287.874 -7.12588 297.5 -19 297.5H-114C-125.874 297.5 -135.5 287.874 -135.5 276C-135.5 264.311 -126.172 254.801 -114.555 254.507L-114 254.5Z" stroke="url(#paint14_linear_163_3467)"/>
<path d="M45 254.5H88C99.8741 254.5 109.5 264.126 109.5 276C109.5 287.874 99.8741 297.5 88 297.5H45C33.1259 297.5 23.5 287.874 23.5 276C23.5 264.126 33.1259 254.5 45 254.5Z" stroke="url(#paint15_linear_163_3467)"/>
<path d="M40.4 270H46.42C50.82 270 53.86 272.84 53.86 277C53.86 281.14 50.78 284 46.28 284H40.4V270ZM43.96 272.84V281.16H46.5C48.68 281.16 50.24 279.48 50.24 277.02C50.24 274.54 48.6 272.84 46.34 272.84H43.96ZM64.6609 281.42H58.5409L57.5209 284H53.8609L59.9009 270H63.5609L69.4609 284H65.6609L64.6609 281.42ZM63.6209 278.72L61.6209 273.54L59.5809 278.72H63.6209ZM79.9477 272.86H75.7277V284H72.1677V272.86H67.9877V269.98H79.9477V272.86ZM92.4342 272.8H85.0342V275.58H91.7142V278.38H85.0342V281.2H92.6542V284H81.4742V270H92.4342V272.8Z" fill="#B9B9B9"/>
<path d="M152 254.5H202C213.874 254.5 223.5 264.126 223.5 276C223.5 287.874 213.874 297.5 202 297.5H152C140.126 297.5 130.5 287.874 130.5 276C130.5 264.126 140.126 254.5 152 254.5Z" stroke="url(#paint16_linear_163_3467)"/>
<path d="M160.32 284H156.76V278.56H150.96V284H147.4V270H150.96V275.76H156.76V270H160.32V284ZM169.763 269.88C174.103 269.88 177.343 272.92 177.343 276.98C177.343 281.06 174.103 284.16 169.763 284.16C165.443 284.16 162.203 281.08 162.203 276.98C162.203 272.9 165.443 269.88 169.763 269.88ZM169.803 272.86C167.643 272.86 165.843 274.64 165.843 277C165.843 279.36 167.663 281.18 169.803 281.18C171.963 281.18 173.683 279.36 173.683 277C173.683 274.64 171.963 272.86 169.803 272.86ZM191.816 270V278.12C191.816 281.82 189.356 284.16 185.436 284.16C181.496 284.16 178.976 281.82 178.976 278.12V270H182.536V278.12C182.536 280.02 183.756 281.18 185.456 281.18C187.136 281.18 188.276 280.02 188.276 278.12V270H191.816ZM202.813 284L200.733 280.06H200.633H197.933V284H194.373V270H200.633C204.333 270 206.453 271.76 206.453 274.88C206.453 277.02 205.553 278.56 203.913 279.38L206.853 284H202.813ZM197.933 277.26H200.633C202.173 277.26 203.073 276.48 203.073 275C203.073 273.54 202.173 272.8 200.633 272.8H197.933V277.26Z" fill="#B9B9B9"/>
<path d="M266 254.5H359C370.874 254.5 380.5 264.126 380.5 276C380.5 287.874 370.874 297.5 359 297.5H266C254.126 297.5 244.5 287.874 244.5 276C244.5 264.126 254.126 254.5 266 254.5Z" stroke="url(#paint17_linear_163_3467)"/>
<path d="M264.96 284H261.4V270H264.96V284ZM280.687 284H277.547L271.107 275.38V284H267.767V270H270.907L277.367 278.64V270H280.687V284ZM288.87 269.84C290.89 269.84 292.95 270.46 294.39 271.4L293.05 274.18C291.57 273.32 289.71 272.72 288.57 272.72C287.65 272.72 287.03 273.06 287.03 273.74C287.03 276.16 294.43 274.78 294.43 279.84C294.43 282.64 291.95 284.12 288.83 284.12C286.49 284.12 284.09 283.24 282.43 281.88L283.81 279.14C285.25 280.4 287.41 281.24 288.87 281.24C289.99 281.24 290.69 280.82 290.69 280.02C290.69 277.54 283.29 279.02 283.29 274.06C283.29 271.48 285.51 269.84 288.87 269.84ZM307.061 272.86H302.841V284H299.281V272.86H295.101V269.98H307.061V272.86ZM316.384 281.42H310.264L309.244 284H305.584L311.624 270H315.284L321.184 284H317.384L316.384 281.42ZM315.344 278.72L313.344 273.54L311.304 278.72H315.344ZM335.394 284H332.254L325.814 275.38V284H322.474V270H325.614L332.074 278.64V270H335.394V284ZM344.757 269.88C346.837 269.88 348.997 270.8 350.397 272.24L348.337 274.68C347.417 273.56 346.057 272.86 344.817 272.86C342.597 272.86 340.917 274.62 340.917 276.92C340.917 279.26 342.597 281.04 344.817 281.04C345.997 281.04 347.357 280.4 348.337 279.4L350.417 281.6C348.917 283.14 346.697 284.16 344.637 284.16C340.417 284.16 337.277 281.06 337.277 276.96C337.277 272.92 340.497 269.88 344.757 269.88ZM363.005 272.8H355.605V275.58H362.285V278.38H355.605V281.2H363.225V284H352.045V270H363.005V272.8Z" fill="#B9B9B9"/>
<path d="M-98 318.5H-16C-4.12588 318.5 5.5 328.126 5.5 340C5.5 351.874 -4.12588 361.5 -16 361.5H-98C-109.874 361.5 -119.5 351.874 -119.5 340C-119.5 328.311 -110.172 318.801 -98.5547 318.507L-98 318.5Z" stroke="url(#paint18_linear_163_3467)"/>
<path d="M48 318.5H110C121.874 318.5 131.5 328.126 131.5 340C131.5 351.874 121.874 361.5 110 361.5H48C36.1259 361.5 26.5 351.874 26.5 340C26.5 328.311 35.8275 318.801 47.4453 318.507L48 318.5Z" stroke="url(#paint19_linear_163_3467)"/>
<path d="M54.1 336.86H49.88V348H46.32V336.86H42.14V333.98H54.1V336.86ZM59.1866 348H55.6266V334H59.1866V348ZM77.3738 348H74.2338L74.2138 338.9L70.8538 346.6H68.5338L65.1738 338.9V348H61.9938V333.98H65.8938L69.6938 342.32L73.4938 333.98H77.3738V348ZM83.7569 348H80.1969V334H83.7569V348ZM99.4841 348H96.3441L89.9041 339.38V348H86.5641V334H89.7041L96.1641 342.64V334H99.4841V348ZM111.587 340.88H114.667V346.34C113.167 347.4 110.807 348.16 108.847 348.16C104.587 348.16 101.367 345.08 101.367 341C101.367 336.94 104.667 333.88 109.087 333.88C111.167 333.88 113.367 334.68 114.807 335.96L112.807 338.38C111.787 337.44 110.367 336.86 109.067 336.86C106.767 336.86 105.007 338.66 105.007 341C105.007 343.38 106.787 345.18 109.107 345.18C109.827 345.18 110.747 344.92 111.587 344.5V340.88Z" fill="#B9B9B9"/>
<path d="M174 318.5H283C294.874 318.5 304.5 328.126 304.5 340C304.5 351.874 294.874 361.5 283 361.5H174C162.126 361.5 152.5 351.874 152.5 340C152.5 328.126 162.126 318.5 174 318.5Z" stroke="url(#paint20_linear_163_3467)"/>
<path d="M175.96 333.88C178.04 333.88 180.2 334.8 181.6 336.24L179.54 338.68C178.62 337.56 177.26 336.86 176.02 336.86C173.8 336.86 172.12 338.62 172.12 340.92C172.12 343.26 173.8 345.04 176.02 345.04C177.2 345.04 178.56 344.4 179.54 343.4L181.62 345.6C180.12 347.14 177.9 348.16 175.84 348.16C171.62 348.16 168.48 345.06 168.48 340.96C168.48 336.92 171.7 333.88 175.96 333.88ZM196.168 348H192.608V342.56H186.808V348H183.248V334H186.808V339.76H192.608V334H196.168V348ZM207.41 348L205.33 344.06H205.23H202.53V348H198.97V334H205.23C208.93 334 211.05 335.76 211.05 338.88C211.05 341.02 210.15 342.56 208.51 343.38L211.45 348H207.41ZM202.53 341.26H205.23C206.77 341.26 207.67 340.48 207.67 339C207.67 337.54 206.77 336.8 205.23 336.8H202.53V341.26ZM220.083 333.88C224.423 333.88 227.663 336.92 227.663 340.98C227.663 345.06 224.423 348.16 220.083 348.16C215.763 348.16 212.523 345.08 212.523 340.98C212.523 336.9 215.763 333.88 220.083 333.88ZM220.123 336.86C217.963 336.86 216.163 338.64 216.163 341C216.163 343.36 217.983 345.18 220.123 345.18C222.283 345.18 224.003 343.36 224.003 341C224.003 338.64 222.283 336.86 220.123 336.86ZM242.457 348H239.317L232.877 339.38V348H229.537V334H232.677L239.137 342.64V334H242.457V348ZM248.819 348H245.259V334H248.819V348ZM258.187 333.88C260.267 333.88 262.427 334.8 263.827 336.24L261.767 338.68C260.847 337.56 259.487 336.86 258.247 336.86C256.027 336.86 254.347 338.62 254.347 340.92C254.347 343.26 256.027 345.04 258.247 345.04C259.427 345.04 260.787 344.4 261.767 343.4L263.847 345.6C262.347 347.14 260.127 348.16 258.067 348.16C253.847 348.16 250.707 345.06 250.707 340.96C250.707 336.92 253.927 333.88 258.187 333.88ZM269.034 345.02H274.974V348H265.474V334H269.034V345.02ZM287.626 336.8H280.226V339.58H286.906V342.38H280.226V345.2H287.846V348H276.666V334H287.626V336.8Z" fill="#B9B9B9"/>
<path d="M347 318.5H379C390.874 318.5 400.5 328.126 400.5 340C400.5 351.874 390.874 361.5 379 361.5H347C335.126 361.5 325.5 351.874 325.5 340C325.5 328.126 335.126 318.5 347 318.5Z" stroke="url(#paint21_linear_163_3467)"/>
<path d="M353.36 336.8H345.96V339.58H352.64V342.38H345.96V345.2H353.58V348H342.4V334H353.36V336.8ZM364.317 348L362.237 344.06H362.137H359.437V348H355.877V334H362.137C365.837 334 367.957 335.76 367.957 338.88C367.957 341.02 367.057 342.56 365.417 343.38L368.357 348H364.317ZM359.437 341.26H362.137C363.677 341.26 364.577 340.48 364.577 339C364.577 337.54 363.677 336.8 362.137 336.8H359.437V341.26ZM379.649 345.42H373.529L372.509 348H368.849L374.889 334H378.549L384.449 348H380.649L379.649 345.42ZM378.609 342.72L376.609 337.54L374.569 342.72H378.609Z" fill="#B9B9B9"/>
<path d="M35 389.5H93C104.874 389.5 114.5 399.126 114.5 411C114.5 422.874 104.874 432.5 93 432.5H35C23.1259 432.5 13.5 422.874 13.5 411C13.5 399.311 22.8275 389.801 34.4453 389.507L35 389.5Z" stroke="url(#paint22_linear_163_3467)"/>
<path d="M41.36 407.8H33.96V410.58H40.64V413.38H33.96V416.2H41.58V419H30.4V405H41.36V407.8ZM51.5766 419H47.8966L42.4566 405H46.2566L49.8366 415.3L53.4166 405H57.0766L51.5766 419ZM69.4069 407.8H62.0069V410.58H68.6869V413.38H62.0069V416.2H69.6269V419H58.4469V405H69.4069V407.8ZM84.8434 419H81.7034L75.2634 410.38V419H71.9234V405H75.0634L81.5234 413.64V405H84.8434V419ZM98.3461 407.86H94.1261V419H90.5661V407.86H86.3861V404.98H98.3461V407.86Z" fill="#B9B9B9"/>
<g filter="url(#filter0_d_163_3467)">
<path d="M164 382.5H210C225.74 382.5 238.5 395.26 238.5 411C238.5 426.74 225.74 439.5 210 439.5H164C148.26 439.5 135.5 426.74 135.5 411C135.5 395.26 148.26 382.5 164 382.5Z" stroke="url(#paint23_linear_163_3467)" shape-rendering="crispEdges"/>
<g filter="url(#filter1_d_163_3467)">
<path d="M164.792 416.768V424H159.128V416.928L150.84 401.6H156.536L161.944 411.36L167.224 401.6H172.92L164.792 416.768ZM185.177 401.408C192.121 401.408 197.305 406.272 197.305 412.768C197.305 419.296 192.121 424.256 185.177 424.256C178.265 424.256 173.081 419.328 173.081 412.768C173.081 406.24 178.265 401.408 185.177 401.408ZM185.241 406.176C181.785 406.176 178.905 409.024 178.905 412.8C178.905 416.576 181.817 419.488 185.241 419.488C188.697 419.488 191.449 416.576 191.449 412.8C191.449 409.024 188.697 406.176 185.241 406.176ZM220.463 401.6V414.592C220.463 420.512 216.527 424.256 210.255 424.256C203.951 424.256 199.919 420.512 199.919 414.592V401.6H205.615V414.592C205.615 417.632 207.567 419.488 210.287 419.488C212.975 419.488 214.799 417.632 214.799 414.592V401.6H220.463Z" fill="white"/>
</g>
</g>
<path d="M281 389.5H360C371.874 389.5 381.5 399.126 381.5 411C381.5 422.874 371.874 432.5 360 432.5H281C269.126 432.5 259.5 422.874 259.5 411C259.5 399.126 269.126 389.5 281 389.5Z" stroke="url(#paint24_linear_163_3467)"/>
<path d="M281.78 404.84C283.8 404.84 285.86 405.46 287.3 406.4L285.96 409.18C284.48 408.32 282.62 407.72 281.48 407.72C280.56 407.72 279.94 408.06 279.94 408.74C279.94 411.16 287.34 409.78 287.34 414.84C287.34 417.64 284.86 419.12 281.74 419.12C279.4 419.12 277 418.24 275.34 416.88L276.72 414.14C278.16 415.4 280.32 416.24 281.78 416.24C282.9 416.24 283.6 415.82 283.6 415.02C283.6 412.54 276.2 414.02 276.2 409.06C276.2 406.48 278.42 404.84 281.78 404.84ZM300.231 407.8H292.831V410.58H299.511V413.38H292.831V416.2H300.451V419H289.271V405H300.231V407.8ZM308.128 404.84C310.148 404.84 312.208 405.46 313.648 406.4L312.308 409.18C310.828 408.32 308.968 407.72 307.828 407.72C306.908 407.72 306.288 408.06 306.288 408.74C306.288 411.16 313.688 409.78 313.688 414.84C313.688 417.64 311.208 419.12 308.088 419.12C305.748 419.12 303.348 418.24 301.688 416.88L303.068 414.14C304.508 415.4 306.668 416.24 308.128 416.24C309.248 416.24 309.948 415.82 309.948 415.02C309.948 412.54 302.548 414.02 302.548 409.06C302.548 406.48 304.768 404.84 308.128 404.84ZM320.999 404.84C323.019 404.84 325.079 405.46 326.519 406.4L325.179 409.18C323.699 408.32 321.839 407.72 320.699 407.72C319.779 407.72 319.159 408.06 319.159 408.74C319.159 411.16 326.559 409.78 326.559 414.84C326.559 417.64 324.079 419.12 320.959 419.12C318.619 419.12 316.219 418.24 314.559 416.88L315.939 414.14C317.379 415.4 319.539 416.24 320.999 416.24C322.119 416.24 322.819 415.82 322.819 415.02C322.819 412.54 315.419 414.02 315.419 409.06C315.419 406.48 317.639 404.84 320.999 404.84ZM332.05 419H328.49V405H332.05V419ZM341.497 404.88C345.837 404.88 349.077 407.92 349.077 411.98C349.077 416.06 345.837 419.16 341.497 419.16C337.177 419.16 333.937 416.08 333.937 411.98C333.937 407.9 337.177 404.88 341.497 404.88ZM341.537 407.86C339.377 407.86 337.577 409.64 337.577 412C337.577 414.36 339.397 416.18 341.537 416.18C343.697 416.18 345.417 414.36 345.417 412C345.417 409.64 343.697 407.86 341.537 407.86ZM363.871 419H360.731L354.291 410.38V419H350.951V405H354.091L360.551 413.64V405H363.871V419Z" fill="#B9B9B9"/>
<path d="M-27 460.5H64C75.8741 460.5 85.5 470.126 85.5 482C85.5 493.874 75.8741 503.5 64 503.5H-27C-38.8741 503.5 -48.5 493.874 -48.5 482C-48.5 470.126 -38.8741 460.5 -27 460.5Z" stroke="url(#paint25_linear_163_3467)"/>
<path d="M-28.04 490H-31.6V476H-28.04V490ZM-12.3128 490H-15.4528L-21.8928 481.38V490H-25.2328V476H-22.0928L-15.6328 484.64V476H-12.3128V490ZM1.18984 478.86H-3.03016V490H-6.59016V478.86H-10.7702V475.98H1.18984V478.86ZM13.6764 478.8H6.27641V481.58H12.9564V484.38H6.27641V487.2H13.8964V490H2.71641V476H13.6764V478.8ZM24.633 490L22.553 486.06H22.453H19.753V490H16.193V476H22.453C26.153 476 28.273 477.76 28.273 480.88C28.273 483.02 27.373 484.56 25.733 485.38L28.673 490H24.633ZM19.753 483.26H22.453C23.993 483.26 24.893 482.48 24.893 481C24.893 479.54 23.993 478.8 22.453 478.8H19.753V483.26ZM38.2289 490H34.5489L29.1089 476H32.9089L36.4889 486.3L40.0689 476H43.7289L38.2289 490ZM53.325 487.42H47.205L46.185 490H42.525L48.565 476H52.225L58.125 490H54.325L53.325 487.42ZM52.285 484.72L50.285 479.54L48.245 484.72H52.285ZM62.9756 487.02H68.9156V490H59.4156V476H62.9756V487.02Z" fill="#B9B9B9"/>
<path d="M128 460.5H207C218.874 460.5 228.5 470.126 228.5 482C228.5 493.874 218.874 503.5 207 503.5H128C116.126 503.5 106.5 493.874 106.5 482C106.5 470.126 116.126 460.5 128 460.5Z" stroke="url(#paint26_linear_163_3467)"/>
<path d="M128.78 475.84C130.8 475.84 132.86 476.46 134.3 477.4L132.96 480.18C131.48 479.32 129.62 478.72 128.48 478.72C127.56 478.72 126.94 479.06 126.94 479.74C126.94 482.16 134.34 480.78 134.34 485.84C134.34 488.64 131.86 490.12 128.74 490.12C126.4 490.12 124 489.24 122.34 487.88L123.72 485.14C125.16 486.4 127.32 487.24 128.78 487.24C129.9 487.24 130.6 486.82 130.6 486.02C130.6 483.54 123.2 485.02 123.2 480.06C123.2 477.48 125.42 475.84 128.78 475.84ZM147.231 478.8H139.831V481.58H146.511V484.38H139.831V487.2H147.451V490H136.271V476H147.231V478.8ZM155.128 475.84C157.148 475.84 159.208 476.46 160.648 477.4L159.308 480.18C157.828 479.32 155.968 478.72 154.828 478.72C153.908 478.72 153.288 479.06 153.288 479.74C153.288 482.16 160.688 480.78 160.688 485.84C160.688 488.64 158.208 490.12 155.088 490.12C152.748 490.12 150.348 489.24 148.688 487.88L150.068 485.14C151.508 486.4 153.668 487.24 155.128 487.24C156.248 487.24 156.948 486.82 156.948 486.02C156.948 483.54 149.548 485.02 149.548 480.06C149.548 477.48 151.768 475.84 155.128 475.84ZM167.999 475.84C170.019 475.84 172.079 476.46 173.519 477.4L172.179 480.18C170.699 479.32 168.839 478.72 167.699 478.72C166.779 478.72 166.159 479.06 166.159 479.74C166.159 482.16 173.559 480.78 173.559 485.84C173.559 488.64 171.079 490.12 167.959 490.12C165.619 490.12 163.219 489.24 161.559 487.88L162.939 485.14C164.379 486.4 166.539 487.24 167.999 487.24C169.119 487.24 169.819 486.82 169.819 486.02C169.819 483.54 162.419 485.02 162.419 480.06C162.419 477.48 164.639 475.84 167.999 475.84ZM179.05 490H175.49V476H179.05V490ZM188.497 475.88C192.837 475.88 196.077 478.92 196.077 482.98C196.077 487.06 192.837 490.16 188.497 490.16C184.177 490.16 180.937 487.08 180.937 482.98C180.937 478.9 184.177 475.88 188.497 475.88ZM188.537 478.86C186.377 478.86 184.577 480.64 184.577 483C184.577 485.36 186.397 487.18 188.537 487.18C190.697 487.18 192.417 485.36 192.417 483C192.417 480.64 190.697 478.86 188.537 478.86ZM210.871 490H207.731L201.291 481.38V490H197.951V476H201.091L207.551 484.64V476H210.871V490Z" fill="#B9B9B9"/>
<path d="M271 460.5H412C423.874 460.5 433.5 470.126 433.5 482C433.5 493.874 423.874 503.5 412 503.5H271C259.126 503.5 249.5 493.874 249.5 482C249.5 470.126 259.126 460.5 271 460.5Z" stroke="url(#paint27_linear_163_3467)"/>
<path d="M275.7 487.42H269.58L268.56 490H264.9L270.94 476H274.6L280.5 490H276.7L275.7 487.42ZM274.66 484.72L272.66 479.54L270.62 484.72H274.66ZM281.791 476H287.891C291.471 476 293.531 477.76 293.531 480.88C293.531 484.16 291.471 486.06 287.891 486.06H285.351V490H281.791V476ZM285.351 478.8V483.26H287.711C289.271 483.26 290.171 482.48 290.171 481C290.171 479.54 289.271 478.8 287.711 478.8H285.351ZM295.384 476H301.484C305.064 476 307.124 477.76 307.124 480.88C307.124 484.16 305.064 486.06 301.484 486.06H298.944V490H295.384V476ZM298.944 478.8V483.26H301.304C302.864 483.26 303.764 482.48 303.764 481C303.764 479.54 302.864 478.8 301.304 478.8H298.944ZM315.618 475.88C319.958 475.88 323.198 478.92 323.198 482.98C323.198 487.06 319.958 490.16 315.618 490.16C311.298 490.16 308.058 487.08 308.058 482.98C308.058 478.9 311.298 475.88 315.618 475.88ZM315.658 478.86C313.498 478.86 311.698 480.64 311.698 483C311.698 485.36 313.518 487.18 315.658 487.18C317.818 487.18 319.538 485.36 319.538 483C319.538 480.64 317.818 478.86 315.658 478.86ZM328.632 490H325.072V476H328.632V490ZM344.359 490H341.219L334.779 481.38V490H331.439V476H334.579L341.039 484.64V476H344.359V490ZM357.862 478.86H353.642V490H350.082V478.86H345.902V475.98H357.862V478.86ZM374.768 490H371.628L371.608 480.9L368.248 488.6H365.928L362.568 480.9V490H359.388V475.98H363.288L367.088 484.32L370.888 475.98H374.768V490ZM388.551 478.8H381.151V481.58H387.831V484.38H381.151V487.2H388.771V490H377.591V476H388.551V478.8ZM403.988 490H400.848L394.408 481.38V490H391.068V476H394.208L400.668 484.64V476H403.988V490ZM417.491 478.86H413.271V490H409.711V478.86H405.531V475.98H417.491V478.86Z" fill="#B9B9B9"/>
<path d="M-89 524.5H9C20.8741 524.5 30.5 534.126 30.5 546C30.5 557.874 20.8741 567.5 9 567.5H-89C-100.874 567.5 -110.5 557.874 -110.5 546C-110.5 534.311 -101.172 524.801 -89.5547 524.507L-89 524.5Z" stroke="url(#paint28_linear_163_3467)"/>
<path d="M-86.96 539.88C-82.62 539.88 -79.38 542.92 -79.38 546.98C-79.38 551.06 -82.62 554.16 -86.96 554.16C-91.28 554.16 -94.52 551.08 -94.52 546.98C-94.52 542.9 -91.28 539.88 -86.96 539.88ZM-86.92 542.86C-89.08 542.86 -90.88 544.64 -90.88 547C-90.88 549.36 -89.06 551.18 -86.92 551.18C-84.76 551.18 -83.04 549.36 -83.04 547C-83.04 544.64 -84.76 542.86 -86.92 542.86ZM-71.2002 539.88C-69.1202 539.88 -66.9602 540.8 -65.5602 542.24L-67.6202 544.68C-68.5402 543.56 -69.9002 542.86 -71.1402 542.86C-73.3602 542.86 -75.0402 544.62 -75.0402 546.92C-75.0402 549.26 -73.3602 551.04 -71.1402 551.04C-69.9602 551.04 -68.6002 550.4 -67.6202 549.4L-65.5402 551.6C-67.0402 553.14 -69.2602 554.16 -71.3202 554.16C-75.5402 554.16 -78.6802 551.06 -78.6802 546.96C-78.6802 542.92 -75.4602 539.88 -71.2002 539.88ZM-57.5869 539.88C-55.5069 539.88 -53.3469 540.8 -51.9469 542.24L-54.0069 544.68C-54.9269 543.56 -56.2869 542.86 -57.5269 542.86C-59.7469 542.86 -61.4269 544.62 -61.4269 546.92C-61.4269 549.26 -59.7469 551.04 -57.5269 551.04C-56.3469 551.04 -54.9869 550.4 -54.0069 549.4L-51.9269 551.6C-53.4269 553.14 -55.6469 554.16 -57.7069 554.16C-61.9269 554.16 -65.0669 551.06 -65.0669 546.96C-65.0669 542.92 -61.8469 539.88 -57.5869 539.88ZM-41.1359 551.42H-47.2559L-48.2759 554H-51.9359L-45.8959 540H-42.2359L-36.3359 554H-40.1359L-41.1359 551.42ZM-42.1759 548.72L-44.1759 543.54L-46.2159 548.72H-42.1759ZM-29.7239 539.84C-27.7039 539.84 -25.6439 540.46 -24.2039 541.4L-25.5439 544.18C-27.0239 543.32 -28.8839 542.72 -30.0239 542.72C-30.9439 542.72 -31.5639 543.06 -31.5639 543.74C-31.5639 546.16 -24.1639 544.78 -24.1639 549.84C-24.1639 552.64 -26.6439 554.12 -29.7639 554.12C-32.1039 554.12 -34.5039 553.24 -36.1639 551.88L-34.7839 549.14C-33.3439 550.4 -31.1839 551.24 -29.7239 551.24C-28.6039 551.24 -27.9039 550.82 -27.9039 550.02C-27.9039 547.54 -35.3039 549.02 -35.3039 544.06C-35.3039 541.48 -33.0839 539.84 -29.7239 539.84ZM-18.6728 554H-22.2328V540H-18.6728V554ZM-9.22562 539.88C-4.88562 539.88 -1.64562 542.92 -1.64562 546.98C-1.64562 551.06 -4.88562 554.16 -9.22562 554.16C-13.5456 554.16 -16.7856 551.08 -16.7856 546.98C-16.7856 542.9 -13.5456 539.88 -9.22562 539.88ZM-9.18562 542.86C-11.3456 542.86 -13.1456 544.64 -13.1456 547C-13.1456 549.36 -11.3256 551.18 -9.18562 551.18C-7.02562 551.18 -5.30562 549.36 -5.30562 547C-5.30562 544.64 -7.02562 542.86 -9.18562 542.86ZM13.1481 554H10.0081L3.56813 545.38V554H0.228125V540H3.36813L9.82813 548.64V540H13.1481V554Z" fill="#B9B9B9"/>
<path d="M73 524.5H116C127.874 524.5 137.5 534.126 137.5 546C137.5 557.874 127.874 567.5 116 567.5H73C61.1259 567.5 51.5 557.874 51.5 546C51.5 534.126 61.1259 524.5 73 524.5Z" stroke="url(#paint29_linear_163_3467)"/>
<path d="M68.4 540H74.42C78.82 540 81.86 542.84 81.86 547C81.86 551.14 78.78 554 74.28 554H68.4V540ZM71.96 542.84V551.16H74.5C76.68 551.16 78.24 549.48 78.24 547.02C78.24 544.54 76.6 542.84 74.34 542.84H71.96ZM92.6609 551.42H86.5409L85.5209 554H81.8609L87.9009 540H91.5609L97.4609 554H93.6609L92.6609 551.42ZM91.6209 548.72L89.6209 543.54L87.5809 548.72H91.6209ZM107.948 542.86H103.728V554H100.168V542.86H95.9877V539.98H107.948V542.86ZM120.434 542.8H113.034V545.58H119.714V548.38H113.034V551.2H120.654V554H109.474V540H120.434V542.8Z" fill="#B9B9B9"/>
<path d="M180 524.5H248C259.874 524.5 269.5 534.126 269.5 546C269.5 557.874 259.874 567.5 248 567.5H180C168.126 567.5 158.5 557.874 158.5 546C158.5 534.126 168.126 524.5 180 524.5Z" stroke="url(#paint30_linear_163_3467)"/>
<path d="M175.4 540H181.5C185.08 540 187.14 541.76 187.14 544.88C187.14 548.16 185.08 550.06 181.5 550.06H178.96V554H175.4V540ZM178.96 542.8V547.26H181.32C182.88 547.26 183.78 546.48 183.78 545C183.78 543.54 182.88 542.8 181.32 542.8H178.96ZM199.954 542.8H192.554V545.58H199.234V548.38H192.554V551.2H200.174V554H188.994V540H199.954V542.8ZM210.91 554L208.83 550.06H208.73H206.03V554H202.47V540H208.73C212.43 540 214.55 541.76 214.55 544.88C214.55 547.02 213.65 548.56 212.01 549.38L214.95 554H210.91ZM206.03 547.26H208.73C210.27 547.26 211.17 546.48 211.17 545C211.17 543.54 210.27 542.8 208.73 542.8H206.03V547.26ZM220.503 554H216.943V540H220.503V554ZM229.95 539.88C234.29 539.88 237.53 542.92 237.53 546.98C237.53 551.06 234.29 554.16 229.95 554.16C225.63 554.16 222.39 551.08 222.39 546.98C222.39 542.9 225.63 539.88 229.95 539.88ZM229.99 542.86C227.83 542.86 226.03 544.64 226.03 547C226.03 549.36 227.85 551.18 229.99 551.18C232.15 551.18 233.87 549.36 233.87 547C233.87 544.64 232.15 542.86 229.99 542.86ZM239.404 540H245.424C249.824 540 252.864 542.84 252.864 547C252.864 551.14 249.784 554 245.284 554H239.404V540ZM242.964 542.84V551.16H245.504C247.684 551.16 249.244 549.48 249.244 547.02C249.244 544.54 247.604 542.84 245.344 542.84H242.964Z" fill="#B9B9B9"/>
<path d="M312 524.5H405C416.874 524.5 426.5 534.126 426.5 546C426.5 557.874 416.874 567.5 405 567.5H312C300.126 567.5 290.5 557.874 290.5 546C290.5 534.126 300.126 524.5 312 524.5Z" stroke="url(#paint31_linear_163_3467)"/>
<path d="M310.96 554H307.4V540H310.96V554ZM326.687 554H323.547L317.107 545.38V554H313.767V540H316.907L323.367 548.64V540H326.687V554ZM334.87 539.84C336.89 539.84 338.95 540.46 340.39 541.4L339.05 544.18C337.57 543.32 335.71 542.72 334.57 542.72C333.65 542.72 333.03 543.06 333.03 543.74C333.03 546.16 340.43 544.78 340.43 549.84C340.43 552.64 337.95 554.12 334.83 554.12C332.49 554.12 330.09 553.24 328.43 551.88L329.81 549.14C331.25 550.4 333.41 551.24 334.87 551.24C335.99 551.24 336.69 550.82 336.69 550.02C336.69 547.54 329.29 549.02 329.29 544.06C329.29 541.48 331.51 539.84 334.87 539.84ZM353.061 542.86H348.841V554H345.281V542.86H341.101V539.98H353.061V542.86ZM362.384 551.42H356.264L355.244 554H351.584L357.624 540H361.284L367.184 554H363.384L362.384 551.42ZM361.344 548.72L359.344 543.54L357.304 548.72H361.344ZM381.394 554H378.254L371.814 545.38V554H368.474V540H371.614L378.074 548.64V540H381.394V554ZM390.757 539.88C392.837 539.88 394.997 540.8 396.397 542.24L394.337 544.68C393.417 543.56 392.057 542.86 390.817 542.86C388.597 542.86 386.917 544.62 386.917 546.92C386.917 549.26 388.597 551.04 390.817 551.04C391.997 551.04 393.357 550.4 394.337 549.4L396.417 551.6C394.917 553.14 392.697 554.16 390.637 554.16C386.417 554.16 383.277 551.06 383.277 546.96C383.277 542.92 386.497 539.88 390.757 539.88ZM409.005 542.8H401.605V545.58H408.285V548.38H401.605V551.2H409.225V554H398.045V540H409.005V542.8Z" fill="#B9B9B9"/>
<path d="M-59 588.5H-1C10.8741 588.5 20.5 598.126 20.5 610C20.5 621.874 10.8741 631.5 -1 631.5H-59C-70.8741 631.5 -80.5 621.874 -80.5 610C-80.5 598.311 -71.1725 588.801 -59.5547 588.507L-59 588.5Z" stroke="url(#paint32_linear_163_3467)"/>
<path d="M-52.64 606.8H-60.04V609.58H-53.36V612.38H-60.04V615.2H-52.42V618H-63.6V604H-52.64V606.8ZM-42.4234 618H-46.1034L-51.5434 604H-47.7434L-44.1634 614.3L-40.5834 604H-36.9234L-42.4234 618ZM-24.5931 606.8H-31.9931V609.58H-25.3131V612.38H-31.9931V615.2H-24.3731V618H-35.5531V604H-24.5931V606.8ZM-9.15656 618H-12.2966L-18.7366 609.38V618H-22.0766V604H-18.9366L-12.4766 612.64V604H-9.15656V618ZM4.34609 606.86H0.126094V618H-3.43391V606.86H-7.61391V603.98H4.34609V606.86Z" fill="#B9B9B9"/>
<path d="M63 588.5H163C174.874 588.5 184.5 598.126 184.5 610C184.5 621.874 174.874 631.5 163 631.5H63C51.1259 631.5 41.5 621.874 41.5 610C41.5 598.126 51.1259 588.5 63 588.5Z" stroke="url(#paint33_linear_163_3467)"/>
<path d="M63.78 603.84C65.8 603.84 67.86 604.46 69.3 605.4L67.96 608.18C66.48 607.32 64.62 606.72 63.48 606.72C62.56 606.72 61.94 607.06 61.94 607.74C61.94 610.16 69.34 608.78 69.34 613.84C69.34 616.64 66.86 618.12 63.74 618.12C61.4 618.12 59 617.24 57.34 615.88L58.72 613.14C60.16 614.4 62.32 615.24 63.78 615.24C64.9 615.24 65.6 614.82 65.6 614.02C65.6 611.54 58.2 613.02 58.2 608.06C58.2 605.48 60.42 603.84 63.78 603.84ZM77.8311 603.88C79.9111 603.88 82.0711 604.8 83.4711 606.24L81.4111 608.68C80.4911 607.56 79.1311 606.86 77.8911 606.86C75.6711 606.86 73.9911 608.62 73.9911 610.92C73.9911 613.26 75.6711 615.04 77.8911 615.04C79.0711 615.04 80.4311 614.4 81.4111 613.4L83.4911 615.6C81.9911 617.14 79.7711 618.16 77.7111 618.16C73.4911 618.16 70.3511 615.06 70.3511 610.96C70.3511 606.92 73.5711 603.88 77.8311 603.88ZM98.0388 618H94.4788V612.56H88.6788V618H85.1188V604H88.6788V609.76H94.4788V604H98.0388V618ZM111.801 606.8H104.401V609.58H111.081V612.38H104.401V615.2H112.021V618H100.841V604H111.801V606.8ZM114.318 604H120.338C124.738 604 127.778 606.84 127.778 611C127.778 615.14 124.698 618 120.198 618H114.318V604ZM117.878 606.84V615.16H120.418C122.598 615.16 124.158 613.48 124.158 611.02C124.158 608.54 122.518 606.84 120.258 606.84H117.878ZM142.25 604V612.12C142.25 615.82 139.79 618.16 135.87 618.16C131.93 618.16 129.41 615.82 129.41 612.12V604H132.97V612.12C132.97 614.02 134.19 615.18 135.89 615.18C137.57 615.18 138.71 614.02 138.71 612.12V604H142.25ZM148.366 615.02H154.306V618H144.806V604H148.366V615.02ZM166.958 606.8H159.558V609.58H166.238V612.38H159.558V615.2H167.178V618H155.998V604H166.958V606.8Z" fill="#B9B9B9"/>
<path d="M227 588.5H313C324.874 588.5 334.5 598.126 334.5 610C334.5 621.874 324.874 631.5 313 631.5H227C215.126 631.5 205.5 621.874 205.5 610C205.5 598.126 215.126 588.5 227 588.5Z" stroke="url(#paint34_linear_163_3467)"/>
<path d="M233.1 606.86H228.88V618H225.32V606.86H221.14V603.98H233.1V606.86ZM238.187 618H234.627V604H238.187V618ZM256.374 618H253.234L253.214 608.9L249.854 616.6H247.534L244.174 608.9V618H240.994V603.98H244.894L248.694 612.32L252.494 603.98H256.374V618ZM270.157 606.8H262.757V609.58H269.437V612.38H262.757V615.2H270.377V618H259.197V604H270.157V606.8ZM276.233 615.02H282.173V618H272.673V604H276.233V615.02ZM287.425 618H283.865V604H287.425V618ZM303.152 618H300.012L293.572 609.38V618H290.232V604H293.372L299.832 612.64V604H303.152V618ZM316.915 606.8H309.515V609.58H316.195V612.38H309.515V615.2H317.135V618H305.955V604H316.915V606.8Z" fill="#B9B9B9"/>
<path d="M377 588.5H436C447.874 588.5 457.5 598.126 457.5 610C457.5 621.874 447.874 631.5 436 631.5H377C365.126 631.5 355.5 621.874 355.5 610C355.5 598.126 365.126 588.5 377 588.5Z" stroke="url(#paint35_linear_163_3467)"/>
<path d="M372.4 604H378.5C382.08 604 384.14 605.76 384.14 608.88C384.14 612.16 382.08 614.06 378.5 614.06H375.96V618H372.4V604ZM375.96 606.8V611.26H378.32C379.88 611.26 380.78 610.48 380.78 609C380.78 607.54 379.88 606.8 378.32 606.8H375.96ZM398.914 618H395.354V612.56H389.554V618H385.994V604H389.554V609.76H395.354V604H398.914V618ZM411.016 615.42H404.896L403.876 618H400.216L406.256 604H409.916L415.816 618H412.016L411.016 615.42ZM409.976 612.72L407.976 607.54L405.936 612.72H409.976ZM422.428 603.84C424.448 603.84 426.508 604.46 427.948 605.4L426.608 608.18C425.128 607.32 423.268 606.72 422.128 606.72C421.208 606.72 420.588 607.06 420.588 607.74C420.588 610.16 427.988 608.78 427.988 613.84C427.988 616.64 425.508 618.12 422.388 618.12C420.048 618.12 417.648 617.24 415.988 615.88L417.368 613.14C418.808 614.4 420.968 615.24 422.428 615.24C423.548 615.24 424.248 614.82 424.248 614.02C424.248 611.54 416.848 613.02 416.848 608.06C416.848 605.48 419.068 603.84 422.428 603.84ZM440.88 606.8H433.48V609.58H440.16V612.38H433.48V615.2H441.1V618H429.92V604H440.88V606.8Z" fill="#B9B9B9"/>
<path d="M-68 652.5H35C46.8741 652.5 56.5 662.126 56.5 674C56.5 685.874 46.8741 695.5 35 695.5H-68C-79.8741 695.5 -89.5 685.874 -89.5 674C-89.5 662.126 -79.8741 652.5 -68 652.5Z" stroke="url(#paint36_linear_163_3467)"/>
<path d="M-67.22 667.84C-65.2 667.84 -63.14 668.46 -61.7 669.4L-63.04 672.18C-64.52 671.32 -66.38 670.72 -67.52 670.72C-68.44 670.72 -69.06 671.06 -69.06 671.74C-69.06 674.16 -61.66 672.78 -61.66 677.84C-61.66 680.64 -64.14 682.12 -67.26 682.12C-69.6 682.12 -72 681.24 -73.66 679.88L-72.28 677.14C-70.84 678.4 -68.68 679.24 -67.22 679.24C-66.1 679.24 -65.4 678.82 -65.4 678.02C-65.4 675.54 -72.8 677.02 -72.8 672.06C-72.8 669.48 -70.58 667.84 -67.22 667.84ZM-48.7689 670.8H-56.1689V673.58H-49.4889V676.38H-56.1689V679.2H-48.5489V682H-59.7289V668H-48.7689V670.8ZM-32.5923 681.56L-31.3323 683.76C-32.4123 684.72 -33.9923 685.3 -35.3923 685.3C-37.3323 685.3 -38.9723 684.1 -39.8923 682.16C-44.0723 682.02 -47.1723 679 -47.1723 674.98C-47.1723 670.9 -43.9323 667.88 -39.6123 667.88C-35.2723 667.88 -32.0323 670.92 -32.0323 674.98C-32.0323 678.08 -33.8923 680.62 -36.6923 681.66C-36.2123 682.26 -35.6323 682.62 -34.9923 682.62C-34.3523 682.62 -33.4523 682.22 -32.5923 681.56ZM-43.5323 675C-43.5323 677.36 -41.7123 679.18 -39.5723 679.18C-37.4123 679.18 -35.6923 677.36 -35.6923 675C-35.6923 672.64 -37.4123 670.86 -39.5723 670.86C-41.7323 670.86 -43.5323 672.64 -43.5323 675ZM-17.4609 668V676.12C-17.4609 679.82 -19.9209 682.16 -23.8409 682.16C-27.7809 682.16 -30.3009 679.82 -30.3009 676.12V668H-26.7409V676.12C-26.7409 678.02 -25.5209 679.18 -23.8209 679.18C-22.1409 679.18 -21.0009 678.02 -21.0009 676.12V668H-17.4609ZM-3.94469 670.8H-11.3447V673.58H-4.66469V676.38H-11.3447V679.2H-3.72469V682H-14.9047V668H-3.94469V670.8ZM11.4919 682H8.35188L1.91188 673.38V682H-1.42812V668H1.71188L8.17188 676.64V668H11.4919V682ZM20.8545 667.88C22.9345 667.88 25.0945 668.8 26.4945 670.24L24.4345 672.68C23.5145 671.56 22.1545 670.86 20.9145 670.86C18.6945 670.86 17.0145 672.62 17.0145 674.92C17.0145 677.26 18.6945 679.04 20.9145 679.04C22.0945 679.04 23.4545 678.4 24.4345 677.4L26.5145 679.6C25.0145 681.14 22.7945 682.16 20.7345 682.16C16.5145 682.16 13.3745 679.06 13.3745 674.96C13.3745 670.92 16.5945 667.88 20.8545 667.88ZM39.1022 670.8H31.7022V673.58H38.3822V676.38H31.7022V679.2H39.3222V682H28.1422V668H39.1022V670.8Z" fill="#B9B9B9"/>
<path d="M99 652.5H190C201.874 652.5 211.5 662.126 211.5 674C211.5 685.874 201.874 695.5 190 695.5H99C87.1259 695.5 77.5 685.874 77.5 674C77.5 662.126 87.1259 652.5 99 652.5Z" stroke="url(#paint37_linear_163_3467)"/>
<path d="M97.96 682H94.4V668H97.96V682ZM113.687 682H110.547L104.107 673.38V682H100.767V668H103.907L110.367 676.64V668H113.687V682ZM127.19 670.86H122.97V682H119.41V670.86H115.23V667.98H127.19V670.86ZM139.676 670.8H132.276V673.58H138.956V676.38H132.276V679.2H139.896V682H128.716V668H139.676V670.8ZM150.633 682L148.553 678.06H148.453H145.753V682H142.193V668H148.453C152.153 668 154.273 669.76 154.273 672.88C154.273 675.02 153.373 676.56 151.733 677.38L154.673 682H150.633ZM145.753 675.26H148.453C149.993 675.26 150.893 674.48 150.893 673C150.893 671.54 149.993 670.8 148.453 670.8H145.753V675.26ZM164.229 682H160.549L155.109 668H158.909L162.489 678.3L166.069 668H169.729L164.229 682ZM179.325 679.42H173.205L172.185 682H168.525L174.565 668H178.225L184.125 682H180.325L179.325 679.42ZM178.285 676.72L176.285 671.54L174.245 676.72H178.285ZM188.976 679.02H194.916V682H185.416V668H188.976V679.02Z" fill="#B9B9B9"/>
<path d="M254 652.5H313C324.874 652.5 334.5 662.126 334.5 674C334.5 685.874 324.874 695.5 313 695.5H254C242.126 695.5 232.5 685.874 232.5 674C232.5 662.126 242.126 652.5 254 652.5Z" stroke="url(#paint38_linear_163_3467)"/>
<path d="M249.4 668H255.5C259.08 668 261.14 669.76 261.14 672.88C261.14 676.16 259.08 678.06 255.5 678.06H252.96V682H249.4V668ZM252.96 670.8V675.26H255.32C256.88 675.26 257.78 674.48 257.78 673C257.78 671.54 256.88 670.8 255.32 670.8H252.96ZM275.914 682H272.354V676.56H266.554V682H262.994V668H266.554V673.76H272.354V668H275.914V682ZM288.016 679.42H281.896L280.876 682H277.216L283.256 668H286.916L292.816 682H289.016L288.016 679.42ZM286.976 676.72L284.976 671.54L282.936 676.72H286.976ZM299.428 667.84C301.448 667.84 303.508 668.46 304.948 669.4L303.608 672.18C302.128 671.32 300.268 670.72 299.128 670.72C298.208 670.72 297.588 671.06 297.588 671.74C297.588 674.16 304.988 672.78 304.988 677.84C304.988 680.64 302.508 682.12 299.388 682.12C297.048 682.12 294.648 681.24 292.988 679.88L294.368 677.14C295.808 678.4 297.968 679.24 299.428 679.24C300.548 679.24 301.248 678.82 301.248 678.02C301.248 675.54 293.848 677.02 293.848 672.06C293.848 669.48 296.068 667.84 299.428 667.84ZM317.88 670.8H310.48V673.58H317.16V676.38H310.48V679.2H318.1V682H306.92V668H317.88V670.8Z" fill="#B9B9B9"/>
</g>
<defs>
<filter id="filter0_d_163_3467" x="115" y="362" width="144" height="98" filterUnits="userSpaceOnUse" color-interpolation-filters="sRGB">
<feFlood flood-opacity="0" result="BackgroundImageFix"/>
<feColorMatrix in="SourceAlpha" type="matrix" values="0 0 0 0 0 0 0 0 0 0 0 0 0 0 0 0 0 0 127 0" result="hardAlpha"/>
<feOffset/>
<feGaussianBlur stdDeviation="10"/>
<feComposite in2="hardAlpha" operator="out"/>
<feColorMatrix type="matrix" values="0 0 0 0 1 0 0 0 0 1 0 0 0 0 1 0 0 0 1 0"/>
<feBlend mode="normal" in2="BackgroundImageFix" result="effect1_dropShadow_163_3467"/>
<feBlend mode="normal" in="SourceGraphic" in2="effect1_dropShadow_163_3467" result="shape"/>
</filter>
<filter id="filter1_d_163_3467" x="146.84" y="397.408" width="77.6226" height="30.8481" filterUnits="userSpaceOnUse" color-interpolation-filters="sRGB">
<feFlood flood-opacity="0" result="BackgroundImageFix"/>
<feColorMatrix in="SourceAlpha" type="matrix" values="0 0 0 0 0 0 0 0 0 0 0 0 0 0 0 0 0 0 127 0" result="hardAlpha"/>
<feOffset/>
<feGaussianBlur stdDeviation="2"/>
<feComposite in2="hardAlpha" operator="out"/>
<feColorMatrix type="matrix" values="0 0 0 0 1 0 0 0 0 1 0 0 0 0 1 0 0 0 0.65 0"/>
<feBlend mode="normal" in2="BackgroundImageFix" result="effect1_dropShadow_163_3467"/>
<feBlend mode="normal" in="SourceGraphic" in2="effect1_dropShadow_163_3467" result="shape"/>
</filter>
<linearGradient id="paint0_linear_163_3467" x1="79" y1="20" x2="-44" y2="20" gradientUnits="userSpaceOnUse">
<stop stop-color="white" stop-opacity="0"/>
<stop offset="0.5" stop-color="white"/>
<stop offset="1" stop-color="white" stop-opacity="0"/>
</linearGradient>
<linearGradient id="paint1_linear_163_3467" x1="284" y1="20" x2="99" y2="20" gradientUnits="userSpaceOnUse">
<stop stop-color="white" stop-opacity="0"/>
<stop offset="0.5" stop-color="white"/>
<stop offset="1" stop-color="white" stop-opacity="0"/>
</linearGradient>
<linearGradient id="paint2_linear_163_3467" x1="443" y1="20" x2="304" y2="20" gradientUnits="userSpaceOnUse">
<stop stop-color="white" stop-opacity="0"/>
<stop offset="0.5" stop-color="white"/>
<stop offset="1" stop-color="white" stop-opacity="0"/>
</linearGradient>
<linearGradient id="paint3_linear_163_3467" x1="43" y1="84" x2="-69" y2="84" gradientUnits="userSpaceOnUse">
<stop stop-color="white" stop-opacity="0"/>
<stop offset="0.5" stop-color="white"/>
<stop offset="1" stop-color="white" stop-opacity="0"/>
</linearGradient>
<linearGradient id="paint4_linear_163_3467" x1="200" y1="84" x2="63" y2="84" gradientUnits="userSpaceOnUse">
<stop stop-color="white" stop-opacity="0"/>
<stop offset="0.5" stop-color="white"/>
<stop offset="1" stop-color="white" stop-opacity="0"/>
</linearGradient>
<linearGradient id="paint5_linear_163_3467" x1="376" y1="84" x2="220" y2="84" gradientUnits="userSpaceOnUse">
<stop stop-color="white" stop-opacity="0"/>
<stop offset="0.5" stop-color="white"/>
<stop offset="1" stop-color="white" stop-opacity="0"/>
</linearGradient>
<linearGradient id="paint6_linear_163_3467" x1="71" y1="148" x2="-73" y2="148" gradientUnits="userSpaceOnUse">
<stop stop-color="white" stop-opacity="0"/>
<stop offset="0.5" stop-color="white"/>
<stop offset="1" stop-color="white" stop-opacity="0"/>
</linearGradient>
<linearGradient id="paint7_linear_163_3467" x1="221" y1="148" x2="91" y2="148" gradientUnits="userSpaceOnUse">
<stop stop-color="white" stop-opacity="0"/>
<stop offset="0.5" stop-color="white"/>
<stop offset="1" stop-color="white" stop-opacity="0"/>
</linearGradient>
<linearGradient id="paint8_linear_163_3467" x1="344" y1="148" x2="241" y2="148" gradientUnits="userSpaceOnUse">
<stop stop-color="white" stop-opacity="0"/>
<stop offset="0.5" stop-color="white"/>
<stop offset="1" stop-color="white" stop-opacity="0"/>
</linearGradient>
<linearGradient id="paint9_linear_163_3467" x1="506" y1="148" x2="364" y2="148" gradientUnits="userSpaceOnUse">
<stop stop-color="white" stop-opacity="0"/>
<stop offset="0.5" stop-color="white"/>
<stop offset="1" stop-color="white" stop-opacity="0"/>
</linearGradient>
<linearGradient id="paint10_linear_163_3467" x1="39" y1="212" x2="-96" y2="212" gradientUnits="userSpaceOnUse">
<stop stop-color="white" stop-opacity="0"/>
<stop offset="0.5" stop-color="white"/>
<stop offset="1" stop-color="white" stop-opacity="0"/>
</linearGradient>
<linearGradient id="paint11_linear_163_3467" x1="162" y1="212" x2="59" y2="212" gradientUnits="userSpaceOnUse">
<stop stop-color="white" stop-opacity="0"/>
<stop offset="0.5" stop-color="white"/>
<stop offset="1" stop-color="white" stop-opacity="0"/>
</linearGradient>
<linearGradient id="paint12_linear_163_3467" x1="266" y1="212" x2="182" y2="212" gradientUnits="userSpaceOnUse">
<stop stop-color="white" stop-opacity="0"/>
<stop offset="0.5" stop-color="white"/>
<stop offset="1" stop-color="white" stop-opacity="0"/>
</linearGradient>
<linearGradient id="paint13_linear_163_3467" x1="412" y1="212" x2="286" y2="212" gradientUnits="userSpaceOnUse">
<stop stop-color="white" stop-opacity="0"/>
<stop offset="0.5" stop-color="white"/>
<stop offset="1" stop-color="white" stop-opacity="0"/>
</linearGradient>
<linearGradient id="paint14_linear_163_3467" x1="3" y1="276" x2="-136" y2="276" gradientUnits="userSpaceOnUse">
<stop stop-color="white" stop-opacity="0"/>
<stop offset="0.5" stop-color="white"/>
<stop offset="1" stop-color="white" stop-opacity="0"/>
</linearGradient>
<linearGradient id="paint15_linear_163_3467" x1="110" y1="276" x2="23" y2="276" gradientUnits="userSpaceOnUse">
<stop stop-color="white" stop-opacity="0"/>
<stop offset="0.5" stop-color="white"/>
<stop offset="1" stop-color="white" stop-opacity="0"/>
</linearGradient>
<linearGradient id="paint16_linear_163_3467" x1="224" y1="276" x2="130" y2="276" gradientUnits="userSpaceOnUse">
<stop stop-color="white" stop-opacity="0"/>
<stop offset="0.5" stop-color="white"/>
<stop offset="1" stop-color="white" stop-opacity="0"/>
</linearGradient>
<linearGradient id="paint17_linear_163_3467" x1="381" y1="276" x2="244" y2="276" gradientUnits="userSpaceOnUse">
<stop stop-color="white" stop-opacity="0"/>
<stop offset="0.5" stop-color="white"/>
<stop offset="1" stop-color="white" stop-opacity="0"/>
</linearGradient>
<linearGradient id="paint18_linear_163_3467" x1="6" y1="340" x2="-120" y2="340" gradientUnits="userSpaceOnUse">
<stop stop-color="white" stop-opacity="0"/>
<stop offset="0.5" stop-color="white"/>
<stop offset="1" stop-color="white" stop-opacity="0"/>
</linearGradient>
<linearGradient id="paint19_linear_163_3467" x1="132" y1="340" x2="26" y2="340" gradientUnits="userSpaceOnUse">
<stop stop-color="white" stop-opacity="0"/>
<stop offset="0.5" stop-color="white"/>
<stop offset="1" stop-color="white" stop-opacity="0"/>
</linearGradient>
<linearGradient id="paint20_linear_163_3467" x1="305" y1="340" x2="152" y2="340" gradientUnits="userSpaceOnUse">
<stop stop-color="white" stop-opacity="0"/>
<stop offset="0.5" stop-color="white"/>
<stop offset="1" stop-color="white" stop-opacity="0"/>
</linearGradient>
<linearGradient id="paint21_linear_163_3467" x1="401" y1="340" x2="325" y2="340" gradientUnits="userSpaceOnUse">
<stop stop-color="white" stop-opacity="0"/>
<stop offset="0.5" stop-color="white"/>
<stop offset="1" stop-color="white" stop-opacity="0"/>
</linearGradient>
<linearGradient id="paint22_linear_163_3467" x1="115" y1="411" x2="13" y2="411" gradientUnits="userSpaceOnUse">
<stop stop-color="white" stop-opacity="0"/>
<stop offset="0.5" stop-color="white"/>
<stop offset="1" stop-color="white" stop-opacity="0"/>
</linearGradient>
<linearGradient id="paint23_linear_163_3467" x1="239" y1="411" x2="135" y2="411" gradientUnits="userSpaceOnUse">
<stop stop-color="white" stop-opacity="0"/>
<stop offset="0.5" stop-color="white"/>
<stop offset="1" stop-color="white" stop-opacity="0"/>
</linearGradient>
<linearGradient id="paint24_linear_163_3467" x1="382" y1="411" x2="259" y2="411" gradientUnits="userSpaceOnUse">
<stop stop-color="white" stop-opacity="0"/>
<stop offset="0.5" stop-color="white"/>
<stop offset="1" stop-color="white" stop-opacity="0"/>
</linearGradient>
<linearGradient id="paint25_linear_163_3467" x1="86" y1="482" x2="-49" y2="482" gradientUnits="userSpaceOnUse">
<stop stop-color="white" stop-opacity="0"/>
<stop offset="0.5" stop-color="white"/>
<stop offset="1" stop-color="white" stop-opacity="0"/>
</linearGradient>
<linearGradient id="paint26_linear_163_3467" x1="229" y1="482" x2="106" y2="482" gradientUnits="userSpaceOnUse">
<stop stop-color="white" stop-opacity="0"/>
<stop offset="0.5" stop-color="white"/>
<stop offset="1" stop-color="white" stop-opacity="0"/>
</linearGradient>
<linearGradient id="paint27_linear_163_3467" x1="434" y1="482" x2="249" y2="482" gradientUnits="userSpaceOnUse">
<stop stop-color="white" stop-opacity="0"/>
<stop offset="0.5" stop-color="white"/>
<stop offset="1" stop-color="white" stop-opacity="0"/>
</linearGradient>
<linearGradient id="paint28_linear_163_3467" x1="31" y1="546" x2="-111" y2="546" gradientUnits="userSpaceOnUse">
<stop stop-color="white" stop-opacity="0"/>
<stop offset="0.5" stop-color="white"/>
<stop offset="1" stop-color="white" stop-opacity="0"/>
</linearGradient>
<linearGradient id="paint29_linear_163_3467" x1="138" y1="546" x2="51" y2="546" gradientUnits="userSpaceOnUse">
<stop stop-color="white" stop-opacity="0"/>
<stop offset="0.5" stop-color="white"/>
<stop offset="1" stop-color="white" stop-opacity="0"/>
</linearGradient>
<linearGradient id="paint30_linear_163_3467" x1="270" y1="546" x2="158" y2="546" gradientUnits="userSpaceOnUse">
<stop stop-color="white" stop-opacity="0"/>
<stop offset="0.5" stop-color="white"/>
<stop offset="1" stop-color="white" stop-opacity="0"/>
</linearGradient>
<linearGradient id="paint31_linear_163_3467" x1="427" y1="546" x2="290" y2="546" gradientUnits="userSpaceOnUse">
<stop stop-color="white" stop-opacity="0"/>
<stop offset="0.5" stop-color="white"/>
<stop offset="1" stop-color="white" stop-opacity="0"/>
</linearGradient>
<linearGradient id="paint32_linear_163_3467" x1="21" y1="610" x2="-81" y2="610" gradientUnits="userSpaceOnUse">
<stop stop-color="white" stop-opacity="0"/>
<stop offset="0.5" stop-color="white"/>
<stop offset="1" stop-color="white" stop-opacity="0"/>
</linearGradient>
<linearGradient id="paint33_linear_163_3467" x1="185" y1="610" x2="41" y2="610" gradientUnits="userSpaceOnUse">
<stop stop-color="white" stop-opacity="0"/>
<stop offset="0.5" stop-color="white"/>
<stop offset="1" stop-color="white" stop-opacity="0"/>
</linearGradient>
<linearGradient id="paint34_linear_163_3467" x1="335" y1="610" x2="205" y2="610" gradientUnits="userSpaceOnUse">
<stop stop-color="white" stop-opacity="0"/>
<stop offset="0.5" stop-color="white"/>
<stop offset="1" stop-color="white" stop-opacity="0"/>
</linearGradient>
<linearGradient id="paint35_linear_163_3467" x1="458" y1="610" x2="355" y2="610" gradientUnits="userSpaceOnUse">
<stop stop-color="white" stop-opacity="0"/>
<stop offset="0.5" stop-color="white"/>
<stop offset="1" stop-color="white" stop-opacity="0"/>
</linearGradient>
<linearGradient id="paint36_linear_163_3467" x1="57" y1="674" x2="-90" y2="674" gradientUnits="userSpaceOnUse">
<stop stop-color="white" stop-opacity="0"/>
<stop offset="0.5" stop-color="white"/>
<stop offset="1" stop-color="white" stop-opacity="0"/>
</linearGradient>
<linearGradient id="paint37_linear_163_3467" x1="212" y1="674" x2="77" y2="674" gradientUnits="userSpaceOnUse">
<stop stop-color="white" stop-opacity="0"/>
<stop offset="0.5" stop-color="white"/>
<stop offset="1" stop-color="white" stop-opacity="0"/>
</linearGradient>
<linearGradient id="paint38_linear_163_3467" x1="335" y1="674" x2="232" y2="674" gradientUnits="userSpaceOnUse">
<stop stop-color="white" stop-opacity="0"/>
<stop offset="0.5" stop-color="white"/>
<stop offset="1" stop-color="white" stop-opacity="0"/>
</linearGradient>
<clipPath id="clip0_163_3467">
<rect width="375" height="812" fill="white"/>
</clipPath>
</defs>
</svg>
