<svg width="375" height="812" viewBox="0 0 375 812" fill="none" xmlns="http://www.w3.org/2000/svg">
<g clip-path="url(#clip0_162_1388)">
<rect width="375" height="812" fill="#111111"/>
<path d="M-67 -20.5H-6C5.87412 -20.5 15.5 -10.8741 15.5 1C15.5 12.8741 5.87412 22.5 -6 22.5H-67C-78.8741 22.5 -88.5 12.8741 -88.5 1C-88.5 -10.8741 -78.8741 -20.5 -67 -20.5Z" stroke="url(#paint0_linear_162_1388)"/>
<path d="M58 -20.5H101C112.874 -20.5 122.5 -10.8741 122.5 1C122.5 12.8741 112.874 22.5 101 22.5H58C46.1259 22.5 36.5 12.8741 36.5 1C36.5 -10.8741 46.1259 -20.5 58 -20.5Z" stroke="url(#paint1_linear_162_1388)"/>
<path d="M53.4 -5H59.42C63.82 -5 66.86 -2.16 66.86 2C66.86 6.14 63.78 9 59.28 9H53.4V-5ZM56.96 -2.16V6.16H59.5C61.68 6.16 63.24 4.48 63.24 2.02C63.24 -0.46 61.6 -2.16 59.34 -2.16H56.96ZM77.6609 6.42H71.5409L70.5209 9H66.8609L72.9009 -5H76.5609L82.4609 9H78.6609L77.6609 6.42ZM76.6209 3.72L74.6209 -1.46L72.5809 3.72H76.6209ZM92.9477 -2.14H88.7277V9H85.1677V-2.14H80.9877V-5.02H92.9477V-2.14ZM105.434 -2.2H98.0342V0.579999H104.714V3.38H98.0342V6.2H105.654V9H94.4742V-5H105.434V-2.2Z" fill="#B9B9B9"/>
<path d="M165 -20.5H215C226.874 -20.5 236.5 -10.8741 236.5 1C236.5 12.8741 226.874 22.5 215 22.5H165C153.126 22.5 143.5 12.8741 143.5 1C143.5 -10.8741 153.126 -20.5 165 -20.5Z" stroke="url(#paint2_linear_162_1388)"/>
<path d="M173.32 9H169.76V3.56H163.96V9H160.4V-5H163.96V0.759999H169.76V-5H173.32V9ZM182.763 -5.12C187.103 -5.12 190.343 -2.08 190.343 1.98C190.343 6.06 187.103 9.16 182.763 9.16C178.443 9.16 175.203 6.08 175.203 1.98C175.203 -2.1 178.443 -5.12 182.763 -5.12ZM182.803 -2.14C180.643 -2.14 178.843 -0.36 178.843 2C178.843 4.36 180.663 6.18 182.803 6.18C184.963 6.18 186.683 4.36 186.683 2C186.683 -0.36 184.963 -2.14 182.803 -2.14ZM204.816 -5V3.12C204.816 6.82 202.356 9.16 198.436 9.16C194.496 9.16 191.976 6.82 191.976 3.12V-5H195.536V3.12C195.536 5.02 196.756 6.18 198.456 6.18C200.136 6.18 201.276 5.02 201.276 3.12V-5H204.816ZM215.813 9L213.733 5.06H213.633H210.933V9H207.373V-5H213.633C217.333 -5 219.453 -3.24 219.453 -0.120001C219.453 2.02 218.553 3.56 216.913 4.38L219.853 9H215.813ZM210.933 2.26H213.633C215.173 2.26 216.073 1.48 216.073 -3.57628e-07C216.073 -1.46 215.173 -2.2 213.633 -2.2H210.933V2.26Z" fill="#B9B9B9"/>
<path d="M279 -20.5H372C383.874 -20.5 393.5 -10.8741 393.5 1C393.5 12.8741 383.874 22.5 372 22.5H279C267.126 22.5 257.5 12.8741 257.5 1C257.5 -10.8741 267.126 -20.5 279 -20.5Z" stroke="url(#paint3_linear_162_1388)"/>
<path d="M277.96 9H274.4V-5H277.96V9ZM293.687 9H290.547L284.107 0.38V9H280.767V-5H283.907L290.367 3.64V-5H293.687V9ZM301.87 -5.16C303.89 -5.16 305.95 -4.54 307.39 -3.6L306.05 -0.820001C304.57 -1.68 302.71 -2.28 301.57 -2.28C300.65 -2.28 300.03 -1.94 300.03 -1.26C300.03 1.16 307.43 -0.220001 307.43 4.84C307.43 7.64 304.95 9.12 301.83 9.12C299.49 9.12 297.09 8.24 295.43 6.88L296.81 4.14C298.25 5.4 300.41 6.24 301.87 6.24C302.99 6.24 303.69 5.82 303.69 5.02C303.69 2.54 296.29 4.02 296.29 -0.94C296.29 -3.52 298.51 -5.16 301.87 -5.16ZM320.061 -2.14H315.841V9H312.281V-2.14H308.101V-5.02H320.061V-2.14ZM329.384 6.42H323.264L322.244 9H318.584L324.624 -5H328.284L334.184 9H330.384L329.384 6.42ZM328.344 3.72L326.344 -1.46L324.304 3.72H328.344ZM348.394 9H345.254L338.814 0.38V9H335.474V-5H338.614L345.074 3.64V-5H348.394V9ZM357.757 -5.12C359.837 -5.12 361.997 -4.2 363.397 -2.76L361.337 -0.32C360.417 -1.44 359.057 -2.14 357.817 -2.14C355.597 -2.14 353.917 -0.38 353.917 1.92C353.917 4.26 355.597 6.04 357.817 6.04C358.997 6.04 360.357 5.4 361.337 4.4L363.417 6.6C361.917 8.14 359.697 9.16 357.637 9.16C353.417 9.16 350.277 6.06 350.277 1.96C350.277 -2.08 353.497 -5.12 357.757 -5.12ZM376.005 -2.2H368.605V0.579999H375.285V3.38H368.605V6.2H376.225V9H365.045V-5H376.005V-2.2Z" fill="#B9B9B9"/>
<path d="M-98 50.5H-16C-4.12588 50.5 5.5 60.1259 5.5 72C5.5 83.8741 -4.12588 93.5 -16 93.5H-98C-109.874 93.5 -119.5 83.8741 -119.5 72C-119.5 60.3113 -110.172 50.801 -98.5547 50.5068L-98 50.5Z" stroke="url(#paint4_linear_162_1388)"/>
<path d="M48 50.5H110C121.874 50.5 131.5 60.1259 131.5 72C131.5 83.8741 121.874 93.5 110 93.5H48C36.1259 93.5 26.5 83.8741 26.5 72C26.5 60.3113 35.8275 50.801 47.4453 50.5068L48 50.5Z" stroke="url(#paint5_linear_162_1388)"/>
<path d="M54.1 68.86H49.88V80H46.32V68.86H42.14V65.98H54.1V68.86ZM59.1866 80H55.6266V66H59.1866V80ZM77.3738 80H74.2338L74.2138 70.9L70.8538 78.6H68.5338L65.1738 70.9V80H61.9938V65.98H65.8938L69.6938 74.32L73.4938 65.98H77.3738V80ZM83.7569 80H80.1969V66H83.7569V80ZM99.4841 80H96.3441L89.9041 71.38V80H86.5641V66H89.7041L96.1641 74.64V66H99.4841V80ZM111.587 72.88H114.667V78.34C113.167 79.4 110.807 80.16 108.847 80.16C104.587 80.16 101.367 77.08 101.367 73C101.367 68.94 104.667 65.88 109.087 65.88C111.167 65.88 113.367 66.68 114.807 67.96L112.807 70.38C111.787 69.44 110.367 68.86 109.067 68.86C106.767 68.86 105.007 70.66 105.007 73C105.007 75.38 106.787 77.18 109.107 77.18C109.827 77.18 110.747 76.92 111.587 76.5V72.88Z" fill="#B9B9B9"/>
<path d="M174 50.5H283C294.874 50.5 304.5 60.1259 304.5 72C304.5 83.8741 294.874 93.5 283 93.5H174C162.126 93.5 152.5 83.8741 152.5 72C152.5 60.1259 162.126 50.5 174 50.5Z" stroke="url(#paint6_linear_162_1388)"/>
<path d="M175.96 65.88C178.04 65.88 180.2 66.8 181.6 68.24L179.54 70.68C178.62 69.56 177.26 68.86 176.02 68.86C173.8 68.86 172.12 70.62 172.12 72.92C172.12 75.26 173.8 77.04 176.02 77.04C177.2 77.04 178.56 76.4 179.54 75.4L181.62 77.6C180.12 79.14 177.9 80.16 175.84 80.16C171.62 80.16 168.48 77.06 168.48 72.96C168.48 68.92 171.7 65.88 175.96 65.88ZM196.168 80H192.608V74.56H186.808V80H183.248V66H186.808V71.76H192.608V66H196.168V80ZM207.41 80L205.33 76.06H205.23H202.53V80H198.97V66H205.23C208.93 66 211.05 67.76 211.05 70.88C211.05 73.02 210.15 74.56 208.51 75.38L211.45 80H207.41ZM202.53 73.26H205.23C206.77 73.26 207.67 72.48 207.67 71C207.67 69.54 206.77 68.8 205.23 68.8H202.53V73.26ZM220.083 65.88C224.423 65.88 227.663 68.92 227.663 72.98C227.663 77.06 224.423 80.16 220.083 80.16C215.763 80.16 212.523 77.08 212.523 72.98C212.523 68.9 215.763 65.88 220.083 65.88ZM220.123 68.86C217.963 68.86 216.163 70.64 216.163 73C216.163 75.36 217.983 77.18 220.123 77.18C222.283 77.18 224.003 75.36 224.003 73C224.003 70.64 222.283 68.86 220.123 68.86ZM242.457 80H239.317L232.877 71.38V80H229.537V66H232.677L239.137 74.64V66H242.457V80ZM248.819 80H245.259V66H248.819V80ZM258.187 65.88C260.267 65.88 262.427 66.8 263.827 68.24L261.767 70.68C260.847 69.56 259.487 68.86 258.247 68.86C256.027 68.86 254.347 70.62 254.347 72.92C254.347 75.26 256.027 77.04 258.247 77.04C259.427 77.04 260.787 76.4 261.767 75.4L263.847 77.6C262.347 79.14 260.127 80.16 258.067 80.16C253.847 80.16 250.707 77.06 250.707 72.96C250.707 68.92 253.927 65.88 258.187 65.88ZM269.034 77.02H274.974V80H265.474V66H269.034V77.02ZM287.626 68.8H280.226V71.58H286.906V74.38H280.226V77.2H287.846V80H276.666V66H287.626V68.8Z" fill="#B9B9B9"/>
<path d="M347 50.5H379C390.874 50.5 400.5 60.1259 400.5 72C400.5 83.8741 390.874 93.5 379 93.5H347C335.126 93.5 325.5 83.8741 325.5 72C325.5 60.1259 335.126 50.5 347 50.5Z" stroke="url(#paint7_linear_162_1388)"/>
<path d="M353.36 68.8H345.96V71.58H352.64V74.38H345.96V77.2H353.58V80H342.4V66H353.36V68.8ZM364.317 80L362.237 76.06H362.137H359.437V80H355.877V66H362.137C365.837 66 367.957 67.76 367.957 70.88C367.957 73.02 367.057 74.56 365.417 75.38L368.357 80H364.317ZM359.437 73.26H362.137C363.677 73.26 364.577 72.48 364.577 71C364.577 69.54 363.677 68.8 362.137 68.8H359.437V73.26ZM379.649 77.42H373.529L372.509 80H368.849L374.889 66H378.549L384.449 80H380.649L379.649 77.42ZM378.609 74.72L376.609 69.54L374.569 74.72H378.609Z" fill="#B9B9B9"/>
<path d="M-44 121.5H42C53.8741 121.5 63.5 131.126 63.5 143C63.5 154.874 53.8741 164.5 42 164.5H-44C-55.8741 164.5 -65.5 154.874 -65.5 143C-65.5 131.126 -55.8741 121.5 -44 121.5Z" stroke="url(#paint8_linear_162_1388)"/>
<path d="M-37.9 139.86H-42.12V151H-45.68V139.86H-49.86V136.98H-37.9V139.86ZM-32.8134 151H-36.3734V137H-32.8134V151ZM-14.6262 151H-17.7662L-17.7862 141.9L-21.1462 149.6H-23.4662L-26.8262 141.9V151H-30.0062V136.98H-26.1062L-22.3062 145.32L-18.5062 136.98H-14.6262V151ZM-0.843124 139.8H-8.24312V142.58H-1.56312V145.38H-8.24312V148.2H-0.623125V151H-11.8031V137H-0.843124V139.8ZM5.23344 148.02H11.1734V151H1.67344V137H5.23344V148.02ZM16.4248 151H12.8648V137H16.4248V151ZM32.152 151H29.012L22.572 142.38V151H19.232V137H22.372L28.832 145.64V137H32.152V151ZM45.9147 139.8H38.5147V142.58H45.1947V145.38H38.5147V148.2H46.1347V151H34.9547V137H45.9147V139.8Z" fill="#B9B9B9"/>
<path d="M106 121.5H165C176.874 121.5 186.5 131.126 186.5 143C186.5 154.874 176.874 164.5 165 164.5H106C94.1259 164.5 84.5 154.874 84.5 143C84.5 131.126 94.1259 121.5 106 121.5Z" stroke="url(#paint9_linear_162_1388)"/>
<path d="M101.4 137H107.5C111.08 137 113.14 138.76 113.14 141.88C113.14 145.16 111.08 147.06 107.5 147.06H104.96V151H101.4V137ZM104.96 139.8V144.26H107.32C108.88 144.26 109.78 143.48 109.78 142C109.78 140.54 108.88 139.8 107.32 139.8H104.96ZM127.914 151H124.354V145.56H118.554V151H114.994V137H118.554V142.76H124.354V137H127.914V151ZM140.016 148.42H133.896L132.876 151H129.216L135.256 137H138.916L144.816 151H141.016L140.016 148.42ZM138.976 145.72L136.976 140.54L134.936 145.72H138.976ZM151.428 136.84C153.448 136.84 155.508 137.46 156.948 138.4L155.608 141.18C154.128 140.32 152.268 139.72 151.128 139.72C150.208 139.72 149.588 140.06 149.588 140.74C149.588 143.16 156.988 141.78 156.988 146.84C156.988 149.64 154.508 151.12 151.388 151.12C149.048 151.12 146.648 150.24 144.988 148.88L146.368 146.14C147.808 147.4 149.968 148.24 151.428 148.24C152.548 148.24 153.248 147.82 153.248 147.02C153.248 144.54 145.848 146.02 145.848 141.06C145.848 138.48 148.068 136.84 151.428 136.84ZM169.88 139.8H162.48V142.58H169.16V145.38H162.48V148.2H170.1V151H158.92V137H169.88V139.8Z" fill="#B9B9B9"/>
<path d="M229 121.5H327C338.874 121.5 348.5 131.126 348.5 143C348.5 154.874 338.874 164.5 327 164.5H229C217.126 164.5 207.5 154.874 207.5 143C207.5 131.311 216.828 121.801 228.445 121.507L229 121.5Z" stroke="url(#paint10_linear_162_1388)"/>
<path d="M224.4 137H230.42C234.82 137 237.86 139.84 237.86 144C237.86 148.14 234.78 151 230.28 151H224.4V137ZM227.96 139.84V148.16H230.5C232.68 148.16 234.24 146.48 234.24 144.02C234.24 141.54 232.6 139.84 230.34 139.84H227.96ZM252.332 137V145.12C252.332 148.82 249.872 151.16 245.952 151.16C242.012 151.16 239.492 148.82 239.492 145.12V137H243.052V145.12C243.052 147.02 244.272 148.18 245.972 148.18C247.652 148.18 248.792 147.02 248.792 145.12V137H252.332ZM263.328 151L261.248 147.06H261.148H258.448V151H254.888V137H261.148C264.848 137 266.968 138.76 266.968 141.88C266.968 144.02 266.068 145.56 264.428 146.38L267.368 151H263.328ZM258.448 144.26H261.148C262.688 144.26 263.588 143.48 263.588 142C263.588 140.54 262.688 139.8 261.148 139.8H258.448V144.26ZM278.661 148.42H272.541L271.521 151H267.861L273.901 137H277.561L283.461 151H279.661L278.661 148.42ZM277.621 145.72L275.621 140.54L273.581 145.72H277.621ZM293.948 139.86H289.728V151H286.168V139.86H281.988V136.98H293.948V139.86ZM299.034 151H295.474V137H299.034V151ZM308.481 136.88C312.821 136.88 316.061 139.92 316.061 143.98C316.061 148.06 312.821 151.16 308.481 151.16C304.161 151.16 300.921 148.08 300.921 143.98C300.921 139.9 304.161 136.88 308.481 136.88ZM308.521 139.86C306.361 139.86 304.561 141.64 304.561 144C304.561 146.36 306.381 148.18 308.521 148.18C310.681 148.18 312.401 146.36 312.401 144C312.401 141.64 310.681 139.86 308.521 139.86ZM330.855 151H327.715L321.275 142.38V151H317.935V137H321.075L327.535 145.64V137H330.855V151Z" fill="#B9B9B9"/>
<path d="M391 121.5H482C493.874 121.5 503.5 131.126 503.5 143C503.5 154.874 493.874 164.5 482 164.5H391C379.126 164.5 369.5 154.874 369.5 143C369.5 131.126 379.126 121.5 391 121.5Z" stroke="url(#paint11_linear_162_1388)"/>
<path d="M-17 185.5H23C34.8741 185.5 44.5 195.126 44.5 207C44.5 218.874 34.8741 228.5 23 228.5H-17C-28.8741 228.5 -38.5 218.874 -38.5 207C-38.5 195.126 -28.8741 185.5 -17 185.5Z" stroke="url(#paint12_linear_162_1388)"/>
<path d="M-16.22 200.84C-14.2 200.84 -12.14 201.46 -10.7 202.4L-12.04 205.18C-13.52 204.32 -15.38 203.72 -16.52 203.72C-17.44 203.72 -18.06 204.06 -18.06 204.74C-18.06 207.16 -10.66 205.78 -10.66 210.84C-10.66 213.64 -13.14 215.12 -16.26 215.12C-18.6 215.12 -21 214.24 -22.66 212.88L-21.28 210.14C-19.84 211.4 -17.68 212.24 -16.22 212.24C-15.1 212.24 -14.4 211.82 -14.4 211.02C-14.4 208.54 -21.8 210.02 -21.8 205.06C-21.8 202.48 -19.58 200.84 -16.22 200.84ZM-5.16891 212.02H0.771094V215H-8.72891V201H-5.16891V212.02ZM9.1025 200.88C13.4425 200.88 16.6825 203.92 16.6825 207.98C16.6825 212.06 13.4425 215.16 9.1025 215.16C4.7825 215.16 1.5425 212.08 1.5425 207.98C1.5425 203.9 4.7825 200.88 9.1025 200.88ZM9.1425 203.86C6.9825 203.86 5.1825 205.64 5.1825 208C5.1825 210.36 7.0025 212.18 9.1425 212.18C11.3025 212.18 13.0225 210.36 13.0225 208C13.0225 205.64 11.3025 203.86 9.1425 203.86ZM28.7875 203.86H24.5675V215H21.0075V203.86H16.8275V200.98H28.7875V203.86Z" fill="#B9B9B9"/>
<path d="M87 185.5H169C180.874 185.5 190.5 195.126 190.5 207C190.5 218.874 180.874 228.5 169 228.5H87C75.1259 228.5 65.5 218.874 65.5 207C65.5 195.311 74.8275 185.801 86.4453 185.507L87 185.5Z" stroke="url(#paint13_linear_162_1388)"/>
<path d="M97.78 215H94.64L94.62 205.9L91.26 213.6H88.94L85.58 205.9V215H82.4V200.98H86.3L90.1 209.32L93.9 200.98H97.78V215ZM107.243 200.88C111.583 200.88 114.823 203.92 114.823 207.98C114.823 212.06 111.583 215.16 107.243 215.16C102.923 215.16 99.6831 212.08 99.6831 207.98C99.6831 203.9 102.923 200.88 107.243 200.88ZM107.283 203.86C105.123 203.86 103.323 205.64 103.323 208C103.323 210.36 105.143 212.18 107.283 212.18C109.443 212.18 111.163 210.36 111.163 208C111.163 205.64 109.443 203.86 107.283 203.86ZM132.077 215H128.937L128.917 205.9L125.557 213.6H123.237L119.877 205.9V215H116.697V200.98H120.597L124.397 209.32L128.197 200.98H132.077V215ZM145.86 203.8H138.46V206.58H145.14V209.38H138.46V212.2H146.08V215H134.9V201H145.86V203.8ZM161.297 215H158.157L151.717 206.38V215H148.377V201H151.517L157.977 209.64V201H161.297V215ZM174.799 203.86H170.579V215H167.019V203.86H162.839V200.98H174.799V203.86Z" fill="#B9B9B9"/>
<path d="M233 185.5H331C342.874 185.5 352.5 195.126 352.5 207C352.5 218.874 342.874 228.5 331 228.5H233C221.126 228.5 211.5 218.874 211.5 207C211.5 195.311 220.828 185.801 232.445 185.507L233 185.5Z" stroke="url(#paint14_linear_162_1388)"/>
<path d="M235.04 200.88C239.38 200.88 242.62 203.92 242.62 207.98C242.62 212.06 239.38 215.16 235.04 215.16C230.72 215.16 227.48 212.08 227.48 207.98C227.48 203.9 230.72 200.88 235.04 200.88ZM235.08 203.86C232.92 203.86 231.12 205.64 231.12 208C231.12 210.36 232.94 212.18 235.08 212.18C237.24 212.18 238.96 210.36 238.96 208C238.96 205.64 237.24 203.86 235.08 203.86ZM250.8 200.88C252.88 200.88 255.04 201.8 256.44 203.24L254.38 205.68C253.46 204.56 252.1 203.86 250.86 203.86C248.64 203.86 246.96 205.62 246.96 207.92C246.96 210.26 248.64 212.04 250.86 212.04C252.04 212.04 253.4 211.4 254.38 210.4L256.46 212.6C254.96 214.14 252.74 215.16 250.68 215.16C246.46 215.16 243.32 212.06 243.32 207.96C243.32 203.92 246.54 200.88 250.8 200.88ZM264.413 200.88C266.493 200.88 268.653 201.8 270.053 203.24L267.993 205.68C267.073 204.56 265.713 203.86 264.473 203.86C262.253 203.86 260.573 205.62 260.573 207.92C260.573 210.26 262.253 212.04 264.473 212.04C265.653 212.04 267.013 211.4 267.993 210.4L270.073 212.6C268.573 214.14 266.353 215.16 264.293 215.16C260.073 215.16 256.933 212.06 256.933 207.96C256.933 203.92 260.153 200.88 264.413 200.88ZM280.864 212.42H274.744L273.724 215H270.064L276.104 201H279.764L285.664 215H281.864L280.864 212.42ZM279.824 209.72L277.824 204.54L275.784 209.72H279.824ZM292.276 200.84C294.296 200.84 296.356 201.46 297.796 202.4L296.456 205.18C294.976 204.32 293.116 203.72 291.976 203.72C291.056 203.72 290.436 204.06 290.436 204.74C290.436 207.16 297.836 205.78 297.836 210.84C297.836 213.64 295.356 215.12 292.236 215.12C289.896 215.12 287.496 214.24 285.836 212.88L287.216 210.14C288.656 211.4 290.816 212.24 292.276 212.24C293.396 212.24 294.096 211.82 294.096 211.02C294.096 208.54 286.696 210.02 286.696 205.06C286.696 202.48 288.916 200.84 292.276 200.84ZM303.327 215H299.767V201H303.327V215ZM312.774 200.88C317.114 200.88 320.354 203.92 320.354 207.98C320.354 212.06 317.114 215.16 312.774 215.16C308.454 215.16 305.214 212.08 305.214 207.98C305.214 203.9 308.454 200.88 312.774 200.88ZM312.814 203.86C310.654 203.86 308.854 205.64 308.854 208C308.854 210.36 310.674 212.18 312.814 212.18C314.974 212.18 316.694 210.36 316.694 208C316.694 205.64 314.974 203.86 312.814 203.86ZM335.148 215H332.008L325.568 206.38V215H322.228V201H325.368L331.828 209.64V201H335.148V215Z" fill="#B9B9B9"/>
<path d="M395 185.5H438C449.874 185.5 459.5 195.126 459.5 207C459.5 218.874 449.874 228.5 438 228.5H395C383.126 228.5 373.5 218.874 373.5 207C373.5 195.126 383.126 185.5 395 185.5Z" stroke="url(#paint15_linear_162_1388)"/>
<path d="M9 249.5H59C70.8741 249.5 80.5 259.126 80.5 271C80.5 282.874 70.8741 292.5 59 292.5H9C-2.87412 292.5 -12.5 282.874 -12.5 271C-12.5 259.126 -2.87412 249.5 9 249.5Z" stroke="url(#paint16_linear_162_1388)"/>
<path d="M17.32 279H13.76V273.56H7.96V279H4.4V265H7.96V270.76H13.76V265H17.32V279ZM26.7627 264.88C31.1027 264.88 34.3427 267.92 34.3427 271.98C34.3427 276.06 31.1027 279.16 26.7627 279.16C22.4427 279.16 19.2027 276.08 19.2027 271.98C19.2027 267.9 22.4427 264.88 26.7627 264.88ZM26.8027 267.86C24.6427 267.86 22.8427 269.64 22.8427 272C22.8427 274.36 24.6627 276.18 26.8027 276.18C28.9627 276.18 30.6827 274.36 30.6827 272C30.6827 269.64 28.9627 267.86 26.8027 267.86ZM48.8164 265V273.12C48.8164 276.82 46.3564 279.16 42.4364 279.16C38.4964 279.16 35.9764 276.82 35.9764 273.12V265H39.5364V273.12C39.5364 275.02 40.7564 276.18 42.4564 276.18C44.1364 276.18 45.2764 275.02 45.2764 273.12V265H48.8164ZM59.8127 279L57.7327 275.06H57.6327H54.9327V279H51.3727V265H57.6327C61.3327 265 63.4527 266.76 63.4527 269.88C63.4527 272.02 62.5527 273.56 60.9127 274.38L63.8527 279H59.8127ZM54.9327 272.26H57.6327C59.1727 272.26 60.0727 271.48 60.0727 270C60.0727 268.54 59.1727 267.8 57.6327 267.8H54.9327V272.26Z" fill="#B9B9B9"/>
<path d="M123 249.5H216C227.874 249.5 237.5 259.126 237.5 271C237.5 282.874 227.874 292.5 216 292.5H123C111.126 292.5 101.5 282.874 101.5 271C101.5 259.126 111.126 249.5 123 249.5Z" stroke="url(#paint17_linear_162_1388)"/>
<path d="M121.96 279H118.4V265H121.96V279ZM137.687 279H134.547L128.107 270.38V279H124.767V265H127.907L134.367 273.64V265H137.687V279ZM145.87 264.84C147.89 264.84 149.95 265.46 151.39 266.4L150.05 269.18C148.57 268.32 146.71 267.72 145.57 267.72C144.65 267.72 144.03 268.06 144.03 268.74C144.03 271.16 151.43 269.78 151.43 274.84C151.43 277.64 148.95 279.12 145.83 279.12C143.49 279.12 141.09 278.24 139.43 276.88L140.81 274.14C142.25 275.4 144.41 276.24 145.87 276.24C146.99 276.24 147.69 275.82 147.69 275.02C147.69 272.54 140.29 274.02 140.29 269.06C140.29 266.48 142.51 264.84 145.87 264.84ZM164.061 267.86H159.841V279H156.281V267.86H152.101V264.98H164.061V267.86ZM173.384 276.42H167.264L166.244 279H162.584L168.624 265H172.284L178.184 279H174.384L173.384 276.42ZM172.344 273.72L170.344 268.54L168.304 273.72H172.344ZM192.394 279H189.254L182.814 270.38V279H179.474V265H182.614L189.074 273.64V265H192.394V279ZM201.757 264.88C203.837 264.88 205.997 265.8 207.397 267.24L205.337 269.68C204.417 268.56 203.057 267.86 201.817 267.86C199.597 267.86 197.917 269.62 197.917 271.92C197.917 274.26 199.597 276.04 201.817 276.04C202.997 276.04 204.357 275.4 205.337 274.4L207.417 276.6C205.917 278.14 203.697 279.16 201.637 279.16C197.417 279.16 194.277 276.06 194.277 271.96C194.277 267.92 197.497 264.88 201.757 264.88ZM220.005 267.8H212.605V270.58H219.285V273.38H212.605V276.2H220.225V279H209.045V265H220.005V267.8Z" fill="#B9B9B9"/>
<path d="M280 249.5H348C359.874 249.5 369.5 259.126 369.5 271C369.5 282.874 359.874 292.5 348 292.5H280C268.126 292.5 258.5 282.874 258.5 271C258.5 259.126 268.126 249.5 280 249.5Z" stroke="url(#paint18_linear_162_1388)"/>
<path d="M275.4 265H281.5C285.08 265 287.14 266.76 287.14 269.88C287.14 273.16 285.08 275.06 281.5 275.06H278.96V279H275.4V265ZM278.96 267.8V272.26H281.32C282.88 272.26 283.78 271.48 283.78 270C283.78 268.54 282.88 267.8 281.32 267.8H278.96ZM299.954 267.8H292.554V270.58H299.234V273.38H292.554V276.2H300.174V279H288.994V265H299.954V267.8ZM310.91 279L308.83 275.06H308.73H306.03V279H302.47V265H308.73C312.43 265 314.55 266.76 314.55 269.88C314.55 272.02 313.65 273.56 312.01 274.38L314.95 279H310.91ZM306.03 272.26H308.73C310.27 272.26 311.17 271.48 311.17 270C311.17 268.54 310.27 267.8 308.73 267.8H306.03V272.26ZM320.503 279H316.943V265H320.503V279ZM329.95 264.88C334.29 264.88 337.53 267.92 337.53 271.98C337.53 276.06 334.29 279.16 329.95 279.16C325.63 279.16 322.39 276.08 322.39 271.98C322.39 267.9 325.63 264.88 329.95 264.88ZM329.99 267.86C327.83 267.86 326.03 269.64 326.03 272C326.03 274.36 327.85 276.18 329.99 276.18C332.15 276.18 333.87 274.36 333.87 272C333.87 269.64 332.15 267.86 329.99 267.86ZM339.404 265H345.424C349.824 265 352.864 267.84 352.864 272C352.864 276.14 349.784 279 345.284 279H339.404V265ZM342.964 267.84V276.16H345.504C347.684 276.16 349.244 274.48 349.244 272.02C349.244 269.54 347.604 267.84 345.344 267.84H342.964Z" fill="#B9B9B9"/>
<path d="M-31 313.5H78C89.8741 313.5 99.5 323.126 99.5 335C99.5 346.874 89.8741 356.5 78 356.5H-31C-42.8741 356.5 -52.5 346.874 -52.5 335C-52.5 323.126 -42.8741 313.5 -31 313.5Z" stroke="url(#paint19_linear_162_1388)"/>
<path d="M-29.04 328.88C-26.96 328.88 -24.8 329.8 -23.4 331.24L-25.46 333.68C-26.38 332.56 -27.74 331.86 -28.98 331.86C-31.2 331.86 -32.88 333.62 -32.88 335.92C-32.88 338.26 -31.2 340.04 -28.98 340.04C-27.8 340.04 -26.44 339.4 -25.46 338.4L-23.38 340.6C-24.88 342.14 -27.1 343.16 -29.16 343.16C-33.38 343.16 -36.52 340.06 -36.52 335.96C-36.52 331.92 -33.3 328.88 -29.04 328.88ZM-8.83234 343H-12.3923V337.56H-18.1923V343H-21.7523V329H-18.1923V334.76H-12.3923V329H-8.83234V343ZM2.41031 343L0.330313 339.06H0.230313H-2.46969V343H-6.02969V329H0.230313C3.93031 329 6.05031 330.76 6.05031 333.88C6.05031 336.02 5.15031 337.56 3.51031 338.38L6.45031 343H2.41031ZM-2.46969 336.26H0.230313C1.77031 336.26 2.67031 335.48 2.67031 334C2.67031 332.54 1.77031 331.8 0.230313 331.8H-2.46969V336.26ZM15.083 328.88C19.423 328.88 22.663 331.92 22.663 335.98C22.663 340.06 19.423 343.16 15.083 343.16C10.763 343.16 7.52297 340.08 7.52297 335.98C7.52297 331.9 10.763 328.88 15.083 328.88ZM15.123 331.86C12.963 331.86 11.163 333.64 11.163 336C11.163 338.36 12.983 340.18 15.123 340.18C17.283 340.18 19.003 338.36 19.003 336C19.003 333.64 17.283 331.86 15.123 331.86ZM37.4567 343H34.3167L27.8767 334.38V343H24.5367V329H27.6767L34.1367 337.64V329H37.4567V343ZM43.8194 343H40.2594V329H43.8194V343ZM53.1866 328.88C55.2666 328.88 57.4266 329.8 58.8266 331.24L56.7666 333.68C55.8466 332.56 54.4866 331.86 53.2466 331.86C51.0266 331.86 49.3466 333.62 49.3466 335.92C49.3466 338.26 51.0266 340.04 53.2466 340.04C54.4266 340.04 55.7866 339.4 56.7666 338.4L58.8466 340.6C57.3466 342.14 55.1266 343.16 53.0666 343.16C48.8466 343.16 45.7066 340.06 45.7066 335.96C45.7066 331.92 48.9266 328.88 53.1866 328.88ZM64.0342 340.02H69.9742V343H60.4742V329H64.0342V340.02ZM82.6256 331.8H75.2256V334.58H81.9056V337.38H75.2256V340.2H82.8456V343H71.6656V329H82.6256V331.8Z" fill="#B9B9B9"/>
<path d="M142 313.5H174C185.874 313.5 195.5 323.126 195.5 335C195.5 346.874 185.874 356.5 174 356.5H142C130.126 356.5 120.5 346.874 120.5 335C120.5 323.126 130.126 313.5 142 313.5Z" stroke="url(#paint20_linear_162_1388)"/>
<path d="M148.36 331.8H140.96V334.58H147.64V337.38H140.96V340.2H148.58V343H137.4V329H148.36V331.8ZM159.317 343L157.237 339.06H157.137H154.437V343H150.877V329H157.137C160.837 329 162.957 330.76 162.957 333.88C162.957 336.02 162.057 337.56 160.417 338.38L163.357 343H159.317ZM154.437 336.26H157.137C158.677 336.26 159.577 335.48 159.577 334C159.577 332.54 158.677 331.8 157.137 331.8H154.437V336.26ZM174.649 340.42H168.529L167.509 343H163.849L169.889 329H173.549L179.449 343H175.649L174.649 340.42ZM173.609 337.72L171.609 332.54L169.569 337.72H173.609Z" fill="#B9B9B9"/>
<path d="M238 313.5H299C310.874 313.5 320.5 323.126 320.5 335C320.5 346.874 310.874 356.5 299 356.5H238C226.126 356.5 216.5 346.874 216.5 335C216.5 323.126 226.126 313.5 238 313.5Z" stroke="url(#paint21_linear_162_1388)"/>
<path d="M244.36 331.8H236.96V334.58H243.64V337.38H236.96V340.2H244.58V343H233.4V329H244.36V331.8ZM246.877 329H252.977C256.557 329 258.617 330.76 258.617 333.88C258.617 337.16 256.557 339.06 252.977 339.06H250.437V343H246.877V329ZM250.437 331.8V336.26H252.797C254.357 336.26 255.257 335.48 255.257 334C255.257 332.54 254.357 331.8 252.797 331.8H250.437ZM267.11 328.88C271.45 328.88 274.69 331.92 274.69 335.98C274.69 340.06 271.45 343.16 267.11 343.16C262.79 343.16 259.55 340.08 259.55 335.98C259.55 331.9 262.79 328.88 267.11 328.88ZM267.15 331.86C264.99 331.86 263.19 333.64 263.19 336C263.19 338.36 265.01 340.18 267.15 340.18C269.31 340.18 271.03 338.36 271.03 336C271.03 333.64 269.31 331.86 267.15 331.86ZM282.87 328.88C284.95 328.88 287.11 329.8 288.51 331.24L286.45 333.68C285.53 332.56 284.17 331.86 282.93 331.86C280.71 331.86 279.03 333.62 279.03 335.92C279.03 338.26 280.71 340.04 282.93 340.04C284.11 340.04 285.47 339.4 286.45 338.4L288.53 340.6C287.03 342.14 284.81 343.16 282.75 343.16C278.53 343.16 275.39 340.06 275.39 335.96C275.39 331.92 278.61 328.88 282.87 328.88ZM303.078 343H299.518V337.56H293.718V343H290.158V329H293.718V334.76H299.518V329H303.078V343Z" fill="#B9B9B9"/>
<path d="M363 313.5H466C477.874 313.5 487.5 323.126 487.5 335C487.5 346.874 477.874 356.5 466 356.5H363C351.126 356.5 341.5 346.874 341.5 335C341.5 323.126 351.126 313.5 363 313.5Z" stroke="url(#paint22_linear_162_1388)"/>
<path d="M363.78 328.84C365.8 328.84 367.86 329.46 369.3 330.4L367.96 333.18C366.48 332.32 364.62 331.72 363.48 331.72C362.56 331.72 361.94 332.06 361.94 332.74C361.94 335.16 369.34 333.78 369.34 338.84C369.34 341.64 366.86 343.12 363.74 343.12C361.4 343.12 359 342.24 357.34 340.88L358.72 338.14C360.16 339.4 362.32 340.24 363.78 340.24C364.9 340.24 365.6 339.82 365.6 339.02C365.6 336.54 358.2 338.02 358.2 333.06C358.2 330.48 360.42 328.84 363.78 328.84ZM382.231 331.8H374.831V334.58H381.511V337.38H374.831V340.2H382.451V343H371.271V329H382.231V331.8ZM398.408 342.56L399.668 344.76C398.588 345.72 397.008 346.3 395.608 346.3C393.668 346.3 392.028 345.1 391.108 343.16C386.928 343.02 383.828 340 383.828 335.98C383.828 331.9 387.068 328.88 391.388 328.88C395.728 328.88 398.968 331.92 398.968 335.98C398.968 339.08 397.108 341.62 394.308 342.66C394.788 343.26 395.368 343.62 396.008 343.62C396.648 343.62 397.548 343.22 398.408 342.56ZM387.468 336C387.468 338.36 389.288 340.18 391.428 340.18C393.588 340.18 395.308 338.36 395.308 336C395.308 333.64 393.588 331.86 391.428 331.86C389.268 331.86 387.468 333.64 387.468 336ZM413.539 329V337.12C413.539 340.82 411.079 343.16 407.159 343.16C403.219 343.16 400.699 340.82 400.699 337.12V329H404.259V337.12C404.259 339.02 405.479 340.18 407.179 340.18C408.859 340.18 409.999 339.02 409.999 337.12V329H413.539ZM427.055 331.8H419.655V334.58H426.335V337.38H419.655V340.2H427.275V343H416.095V329H427.055V331.8ZM442.492 343H439.352L432.912 334.38V343H429.572V329H432.712L439.172 337.64V329H442.492V343ZM451.855 328.88C453.935 328.88 456.095 329.8 457.495 331.24L455.435 333.68C454.515 332.56 453.155 331.86 451.915 331.86C449.695 331.86 448.015 333.62 448.015 335.92C448.015 338.26 449.695 340.04 451.915 340.04C453.095 340.04 454.455 339.4 455.435 338.4L457.515 340.6C456.015 342.14 453.795 343.16 451.735 343.16C447.515 343.16 444.375 340.06 444.375 335.96C444.375 331.92 447.595 328.88 451.855 328.88ZM470.102 331.8H462.702V334.58H469.382V337.38H462.702V340.2H470.322V343H459.142V329H470.102V331.8Z" fill="#B9B9B9"/>
<path d="M0 384.5H82C93.8741 384.5 103.5 394.126 103.5 406C103.5 417.874 93.8741 427.5 82 427.5H0C-11.8741 427.5 -21.5 417.874 -21.5 406C-21.5 394.311 -12.1725 384.801 -0.554688 384.507L0 384.5Z" stroke="url(#paint23_linear_162_1388)"/>
<path d="M10.78 414H7.64L7.62 404.9L4.26 412.6H1.94L-1.42 404.9V414H-4.6V399.98H-0.7L3.1 408.32L6.9 399.98H10.78V414ZM20.2431 399.88C24.5831 399.88 27.8231 402.92 27.8231 406.98C27.8231 411.06 24.5831 414.16 20.2431 414.16C15.9231 414.16 12.6831 411.08 12.6831 406.98C12.6831 402.9 15.9231 399.88 20.2431 399.88ZM20.2831 402.86C18.1231 402.86 16.3231 404.64 16.3231 407C16.3231 409.36 18.1431 411.18 20.2831 411.18C22.4431 411.18 24.1631 409.36 24.1631 407C24.1631 404.64 22.4431 402.86 20.2831 402.86ZM45.0769 414H41.9369L41.9169 404.9L38.5569 412.6H36.2369L32.8769 404.9V414H29.6969V399.98H33.5969L37.3969 408.32L41.1969 399.98H45.0769V414ZM58.86 402.8H51.46V405.58H58.14V408.38H51.46V411.2H59.08V414H47.9V400H58.86V402.8ZM74.2966 414H71.1566L64.7166 405.38V414H61.3766V400H64.5166L70.9766 408.64V400H74.2966V414ZM87.7992 402.86H83.5792V414H80.0192V402.86H75.8392V399.98H87.7992V402.86Z" fill="#B9B9B9"/>
<g filter="url(#filter0_d_162_1388)">
<path d="M153 377.5H229C244.74 377.5 257.5 390.26 257.5 406C257.5 421.74 244.74 434.5 229 434.5H153C137.26 434.5 124.5 421.74 124.5 406C124.5 390.26 137.26 377.5 153 377.5Z" stroke="url(#paint24_linear_162_1388)" shape-rendering="crispEdges"/>
<g filter="url(#filter1_d_162_1388)">
<path d="M167.424 419H161.568L157.408 403.512L153.184 419H147.296L139.968 396.6H146.048L150.432 413.08L154.72 396.6H160.288L164.672 413.08L168.992 396.6H174.816L167.424 419ZM197.506 419H191.81V410.296H182.53V419H176.834V396.6H182.53V405.816H191.81V396.6H197.506V419ZM216.87 414.872H207.078L205.446 419H199.59L209.254 396.6H215.11L224.55 419H218.47L216.87 414.872ZM215.206 410.552L212.006 402.264L208.742 410.552H215.206ZM241.329 401.176H234.577V419H228.881V401.176H222.193V396.568H241.329V401.176Z" fill="white"/>
</g>
</g>
<path d="M300 384.5H441C452.874 384.5 462.5 394.126 462.5 406C462.5 417.874 452.874 427.5 441 427.5H300C288.126 427.5 278.5 417.874 278.5 406C278.5 394.126 288.126 384.5 300 384.5Z" stroke="url(#paint25_linear_162_1388)"/>
<path d="M304.7 411.42H298.58L297.56 414H293.9L299.94 400H303.6L309.5 414H305.7L304.7 411.42ZM303.66 408.72L301.66 403.54L299.62 408.72H303.66ZM310.791 400H316.891C320.471 400 322.531 401.76 322.531 404.88C322.531 408.16 320.471 410.06 316.891 410.06H314.351V414H310.791V400ZM314.351 402.8V407.26H316.711C318.271 407.26 319.171 406.48 319.171 405C319.171 403.54 318.271 402.8 316.711 402.8H314.351ZM324.384 400H330.484C334.064 400 336.124 401.76 336.124 404.88C336.124 408.16 334.064 410.06 330.484 410.06H327.944V414H324.384V400ZM327.944 402.8V407.26H330.304C331.864 407.26 332.764 406.48 332.764 405C332.764 403.54 331.864 402.8 330.304 402.8H327.944ZM344.618 399.88C348.958 399.88 352.198 402.92 352.198 406.98C352.198 411.06 348.958 414.16 344.618 414.16C340.298 414.16 337.058 411.08 337.058 406.98C337.058 402.9 340.298 399.88 344.618 399.88ZM344.658 402.86C342.498 402.86 340.698 404.64 340.698 407C340.698 409.36 342.518 411.18 344.658 411.18C346.818 411.18 348.538 409.36 348.538 407C348.538 404.64 346.818 402.86 344.658 402.86ZM357.632 414H354.072V400H357.632V414ZM373.359 414H370.219L363.779 405.38V414H360.439V400H363.579L370.039 408.64V400H373.359V414ZM386.862 402.86H382.642V414H379.082V402.86H374.902V399.98H386.862V402.86ZM403.768 414H400.628L400.608 404.9L397.248 412.6H394.928L391.568 404.9V414H388.388V399.98H392.288L396.088 408.32L399.888 399.98H403.768V414ZM417.551 402.8H410.151V405.58H416.831V408.38H410.151V411.2H417.771V414H406.591V400H417.551V402.8ZM432.988 414H429.848L423.408 405.38V414H420.068V400H423.208L429.668 408.64V400H432.988V414ZM446.491 402.86H442.271V414H438.711V402.86H434.531V399.98H446.491V402.86Z" fill="#B9B9B9"/>
<path d="M-22 455.5H57C68.8741 455.5 78.5 465.126 78.5 477C78.5 488.874 68.8741 498.5 57 498.5H-22C-33.8741 498.5 -43.5 488.874 -43.5 477C-43.5 465.126 -33.8741 455.5 -22 455.5Z" stroke="url(#paint26_linear_162_1388)"/>
<path d="M-21.22 470.84C-19.2 470.84 -17.14 471.46 -15.7 472.4L-17.04 475.18C-18.52 474.32 -20.38 473.72 -21.52 473.72C-22.44 473.72 -23.06 474.06 -23.06 474.74C-23.06 477.16 -15.66 475.78 -15.66 480.84C-15.66 483.64 -18.14 485.12 -21.26 485.12C-23.6 485.12 -26 484.24 -27.66 482.88L-26.28 480.14C-24.84 481.4 -22.68 482.24 -21.22 482.24C-20.1 482.24 -19.4 481.82 -19.4 481.02C-19.4 478.54 -26.8 480.02 -26.8 475.06C-26.8 472.48 -24.58 470.84 -21.22 470.84ZM-2.76891 473.8H-10.1689V476.58H-3.48891V479.38H-10.1689V482.2H-2.54891V485H-13.7289V471H-2.76891V473.8ZM5.12766 470.84C7.14766 470.84 9.20766 471.46 10.6477 472.4L9.30766 475.18C7.82766 474.32 5.96766 473.72 4.82766 473.72C3.90766 473.72 3.28766 474.06 3.28766 474.74C3.28766 477.16 10.6877 475.78 10.6877 480.84C10.6877 483.64 8.20766 485.12 5.08766 485.12C2.74766 485.12 0.347656 484.24 -1.31234 482.88L0.0676563 480.14C1.50766 481.4 3.66766 482.24 5.12766 482.24C6.24766 482.24 6.94766 481.82 6.94766 481.02C6.94766 478.54 -0.452344 480.02 -0.452344 475.06C-0.452344 472.48 1.76766 470.84 5.12766 470.84ZM17.9988 470.84C20.0188 470.84 22.0788 471.46 23.5188 472.4L22.1788 475.18C20.6988 474.32 18.8388 473.72 17.6988 473.72C16.7788 473.72 16.1588 474.06 16.1588 474.74C16.1588 477.16 23.5588 475.78 23.5588 480.84C23.5588 483.64 21.0788 485.12 17.9588 485.12C15.6188 485.12 13.2188 484.24 11.5588 482.88L12.9388 480.14C14.3788 481.4 16.5388 482.24 17.9988 482.24C19.1188 482.24 19.8188 481.82 19.8188 481.02C19.8188 478.54 12.4188 480.02 12.4188 475.06C12.4188 472.48 14.6388 470.84 17.9988 470.84ZM29.0498 485H25.4898V471H29.0498V485ZM38.497 470.88C42.837 470.88 46.077 473.92 46.077 477.98C46.077 482.06 42.837 485.16 38.497 485.16C34.177 485.16 30.937 482.08 30.937 477.98C30.937 473.9 34.177 470.88 38.497 470.88ZM38.537 473.86C36.377 473.86 34.577 475.64 34.577 478C34.577 480.36 36.397 482.18 38.537 482.18C40.697 482.18 42.417 480.36 42.417 478C42.417 475.64 40.697 473.86 38.537 473.86ZM60.8708 485H57.7308L51.2908 476.38V485H47.9508V471H51.0908L57.5508 479.64V471H60.8708V485Z" fill="#B9B9B9"/>
<path d="M121 455.5H262C273.874 455.5 283.5 465.126 283.5 477C283.5 488.874 273.874 498.5 262 498.5H121C109.126 498.5 99.5 488.874 99.5 477C99.5 465.126 109.126 455.5 121 455.5Z" stroke="url(#paint27_linear_162_1388)"/>
<path d="M125.7 482.42H119.58L118.56 485H114.9L120.94 471H124.6L130.5 485H126.7L125.7 482.42ZM124.66 479.72L122.66 474.54L120.62 479.72H124.66ZM131.791 471H137.891C141.471 471 143.531 472.76 143.531 475.88C143.531 479.16 141.471 481.06 137.891 481.06H135.351V485H131.791V471ZM135.351 473.8V478.26H137.711C139.271 478.26 140.171 477.48 140.171 476C140.171 474.54 139.271 473.8 137.711 473.8H135.351ZM145.384 471H151.484C155.064 471 157.124 472.76 157.124 475.88C157.124 479.16 155.064 481.06 151.484 481.06H148.944V485H145.384V471ZM148.944 473.8V478.26H151.304C152.864 478.26 153.764 477.48 153.764 476C153.764 474.54 152.864 473.8 151.304 473.8H148.944ZM165.618 470.88C169.958 470.88 173.198 473.92 173.198 477.98C173.198 482.06 169.958 485.16 165.618 485.16C161.298 485.16 158.058 482.08 158.058 477.98C158.058 473.9 161.298 470.88 165.618 470.88ZM165.658 473.86C163.498 473.86 161.698 475.64 161.698 478C161.698 480.36 163.518 482.18 165.658 482.18C167.818 482.18 169.538 480.36 169.538 478C169.538 475.64 167.818 473.86 165.658 473.86ZM178.632 485H175.072V471H178.632V485ZM194.359 485H191.219L184.779 476.38V485H181.439V471H184.579L191.039 479.64V471H194.359V485ZM207.862 473.86H203.642V485H200.082V473.86H195.902V470.98H207.862V473.86ZM224.768 485H221.628L221.608 475.9L218.248 483.6H215.928L212.568 475.9V485H209.388V470.98H213.288L217.088 479.32L220.888 470.98H224.768V485ZM238.551 473.8H231.151V476.58H237.831V479.38H231.151V482.2H238.771V485H227.591V471H238.551V473.8ZM253.988 485H250.848L244.408 476.38V485H241.068V471H244.208L250.668 479.64V471H253.988V485ZM267.491 473.86H263.271V485H259.711V473.86H255.531V470.98H267.491V473.86Z" fill="#B9B9B9"/>
<path d="M326 455.5H421C432.874 455.5 442.5 465.126 442.5 477C442.5 488.874 432.874 498.5 421 498.5H326C314.126 498.5 304.5 488.874 304.5 477C304.5 465.311 313.828 455.801 325.445 455.507L326 455.5Z" stroke="url(#paint28_linear_162_1388)"/>
<path d="M321.4 471H327.42C331.82 471 334.86 473.84 334.86 478C334.86 482.14 331.78 485 327.28 485H321.4V471ZM324.96 473.84V482.16H327.5C329.68 482.16 331.24 480.48 331.24 478.02C331.24 475.54 329.6 473.84 327.34 473.84H324.96ZM347.692 473.8H340.292V476.58H346.972V479.38H340.292V482.2H347.912V485H336.732V471H347.692V473.8ZM359.509 482.42H353.389L352.369 485H348.709L354.749 471H358.409L364.309 485H360.509L359.509 482.42ZM358.469 479.72L356.469 474.54L354.429 479.72H358.469ZM365.599 471H371.619C376.019 471 379.059 473.84 379.059 478C379.059 482.14 375.979 485 371.479 485H365.599V471ZM369.159 473.84V482.16H371.699C373.879 482.16 375.439 480.48 375.439 478.02C375.439 475.54 373.799 473.84 371.539 473.84H369.159ZM384.491 482.02H390.431V485H380.931V471H384.491V482.02ZM395.683 485H392.123V471H395.683V485ZM411.41 485H408.27L401.83 476.38V485H398.49V471H401.63L408.09 479.64V471H411.41V485ZM425.173 473.8H417.773V476.58H424.453V479.38H417.773V482.2H425.393V485H414.213V471H425.173V473.8Z" fill="#B9B9B9"/>
<path d="M-47 519.5H21C32.8741 519.5 42.5 529.126 42.5 541C42.5 552.874 32.8741 562.5 21 562.5H-47C-58.8741 562.5 -68.5 552.874 -68.5 541C-68.5 529.126 -58.8741 519.5 -47 519.5Z" stroke="url(#paint29_linear_162_1388)"/>
<path d="M-51.6 535H-45.5C-41.92 535 -39.86 536.76 -39.86 539.88C-39.86 543.16 -41.92 545.06 -45.5 545.06H-48.04V549H-51.6V535ZM-48.04 537.8V542.26H-45.68C-44.12 542.26 -43.22 541.48 -43.22 540C-43.22 538.54 -44.12 537.8 -45.68 537.8H-48.04ZM-27.0462 537.8H-34.4462V540.58H-27.7662V543.38H-34.4462V546.2H-26.8262V549H-38.0062V535H-27.0462V537.8ZM-16.0897 549L-18.1697 545.06H-18.2697H-20.9697V549H-24.5297V535H-18.2697C-14.5697 535 -12.4497 536.76 -12.4497 539.88C-12.4497 542.02 -13.3497 543.56 -14.9897 544.38L-12.0497 549H-16.0897ZM-20.9697 542.26H-18.2697C-16.7297 542.26 -15.8297 541.48 -15.8297 540C-15.8297 538.54 -16.7297 537.8 -18.2697 537.8H-20.9697V542.26ZM-6.49703 549H-10.057V535H-6.49703V549ZM2.95016 534.88C7.29016 534.88 10.5302 537.92 10.5302 541.98C10.5302 546.06 7.29016 549.16 2.95016 549.16C-1.36984 549.16 -4.60984 546.08 -4.60984 541.98C-4.60984 537.9 -1.36984 534.88 2.95016 534.88ZM2.99016 537.86C0.830156 537.86 -0.969843 539.64 -0.969843 542C-0.969843 544.36 0.850157 546.18 2.99016 546.18C5.15016 546.18 6.87016 544.36 6.87016 542C6.87016 539.64 5.15016 537.86 2.99016 537.86ZM12.4039 535H18.4239C22.8239 535 25.8639 537.84 25.8639 542C25.8639 546.14 22.7839 549 18.2839 549H12.4039V535ZM15.9639 537.84V546.16H18.5039C20.6839 546.16 22.2439 544.48 22.2439 542.02C22.2439 539.54 20.6039 537.84 18.3439 537.84H15.9639Z" fill="#B9B9B9"/>
<path d="M85 519.5H178C189.874 519.5 199.5 529.126 199.5 541C199.5 552.874 189.874 562.5 178 562.5H85C73.1259 562.5 63.5 552.874 63.5 541C63.5 529.126 73.1259 519.5 85 519.5Z" stroke="url(#paint30_linear_162_1388)"/>
<path d="M83.96 549H80.4V535H83.96V549ZM99.6872 549H96.5472L90.1072 540.38V549H86.7672V535H89.9072L96.3672 543.64V535H99.6872V549ZM107.87 534.84C109.89 534.84 111.95 535.46 113.39 536.4L112.05 539.18C110.57 538.32 108.71 537.72 107.57 537.72C106.65 537.72 106.03 538.06 106.03 538.74C106.03 541.16 113.43 539.78 113.43 544.84C113.43 547.64 110.95 549.12 107.83 549.12C105.49 549.12 103.09 548.24 101.43 546.88L102.81 544.14C104.25 545.4 106.41 546.24 107.87 546.24C108.99 546.24 109.69 545.82 109.69 545.02C109.69 542.54 102.29 544.02 102.29 539.06C102.29 536.48 104.51 534.84 107.87 534.84ZM126.061 537.86H121.841V549H118.281V537.86H114.101V534.98H126.061V537.86ZM135.384 546.42H129.264L128.244 549H124.584L130.624 535H134.284L140.184 549H136.384L135.384 546.42ZM134.344 543.72L132.344 538.54L130.304 543.72H134.344ZM154.394 549H151.254L144.814 540.38V549H141.474V535H144.614L151.074 543.64V535H154.394V549ZM163.757 534.88C165.837 534.88 167.997 535.8 169.397 537.24L167.337 539.68C166.417 538.56 165.057 537.86 163.817 537.86C161.597 537.86 159.917 539.62 159.917 541.92C159.917 544.26 161.597 546.04 163.817 546.04C164.997 546.04 166.357 545.4 167.337 544.4L169.417 546.6C167.917 548.14 165.697 549.16 163.637 549.16C159.417 549.16 156.277 546.06 156.277 541.96C156.277 537.92 159.497 534.88 163.757 534.88ZM182.005 537.8H174.605V540.58H181.285V543.38H174.605V546.2H182.225V549H171.045V535H182.005V537.8Z" fill="#B9B9B9"/>
<path d="M242 519.5H354C365.874 519.5 375.5 529.126 375.5 541C375.5 552.874 365.874 562.5 354 562.5H242C230.126 562.5 220.5 552.874 220.5 541C220.5 529.311 229.828 519.801 241.445 519.507L242 519.5Z" stroke="url(#paint31_linear_162_1388)"/>
<path d="M248.1 537.86H243.88V549H240.32V537.86H236.14V534.98H248.1V537.86ZM253.187 549H249.627V535H253.187V549ZM271.374 549H268.234L268.214 539.9L264.854 547.6H262.534L259.174 539.9V549H255.994V534.98H259.894L263.694 543.32L267.494 534.98H271.374V549ZM285.157 537.8H277.757V540.58H284.437V543.38H277.757V546.2H285.377V549H274.197V535H285.157V537.8ZM298.053 537.8H291.233V541.04H297.513V543.84H291.233V549H287.673V535H298.053V537.8ZM308.184 549L306.104 545.06H306.004H303.304V549H299.744V535H306.004C309.704 535 311.824 536.76 311.824 539.88C311.824 542.02 310.924 543.56 309.284 544.38L312.224 549H308.184ZM303.304 542.26H306.004C307.544 542.26 308.444 541.48 308.444 540C308.444 538.54 307.544 537.8 306.004 537.8H303.304V542.26ZM323.516 546.42H317.396L316.376 549H312.716L318.756 535H322.416L328.316 549H324.516L323.516 546.42ZM322.476 543.72L320.476 538.54L318.436 543.72H322.476ZM344.987 549H341.847L341.827 539.9L338.467 547.6H336.147L332.787 539.9V549H329.607V534.98H333.507L337.307 543.32L341.107 534.98H344.987V549ZM358.77 537.8H351.37V540.58H358.05V543.38H351.37V546.2H358.99V549H347.81V535H358.77V537.8Z" fill="#B9B9B9"/>
<path d="M-51 583.5H49C60.8741 583.5 70.5 593.126 70.5 605C70.5 616.874 60.8741 626.5 49 626.5H-51C-62.8741 626.5 -72.5 616.874 -72.5 605C-72.5 593.126 -62.8741 583.5 -51 583.5Z" stroke="url(#paint32_linear_162_1388)"/>
<path d="M-50.22 598.84C-48.2 598.84 -46.14 599.46 -44.7 600.4L-46.04 603.18C-47.52 602.32 -49.38 601.72 -50.52 601.72C-51.44 601.72 -52.06 602.06 -52.06 602.74C-52.06 605.16 -44.66 603.78 -44.66 608.84C-44.66 611.64 -47.14 613.12 -50.26 613.12C-52.6 613.12 -55 612.24 -56.66 610.88L-55.28 608.14C-53.84 609.4 -51.68 610.24 -50.22 610.24C-49.1 610.24 -48.4 609.82 -48.4 609.02C-48.4 606.54 -55.8 608.02 -55.8 603.06C-55.8 600.48 -53.58 598.84 -50.22 598.84ZM-36.1689 598.88C-34.0889 598.88 -31.9289 599.8 -30.5289 601.24L-32.5889 603.68C-33.5089 602.56 -34.8689 601.86 -36.1089 601.86C-38.3289 601.86 -40.0089 603.62 -40.0089 605.92C-40.0089 608.26 -38.3289 610.04 -36.1089 610.04C-34.9289 610.04 -33.5689 609.4 -32.5889 608.4L-30.5089 610.6C-32.0089 612.14 -34.2289 613.16 -36.2889 613.16C-40.5089 613.16 -43.6489 610.06 -43.6489 605.96C-43.6489 601.92 -40.4289 598.88 -36.1689 598.88ZM-15.9612 613H-19.5212V607.56H-25.3212V613H-28.8812V599H-25.3212V604.76H-19.5212V599H-15.9612V613ZM-2.19859 601.8H-9.59859V604.58H-2.91859V607.38H-9.59859V610.2H-1.97859V613H-13.1586V599H-2.19859V601.8ZM0.317969 599H6.33797C10.738 599 13.778 601.84 13.778 606C13.778 610.14 10.698 613 6.19797 613H0.317969V599ZM3.87797 601.84V610.16H6.41797C8.59797 610.16 10.158 608.48 10.158 606.02C10.158 603.54 8.51797 601.84 6.25797 601.84H3.87797ZM28.25 599V607.12C28.25 610.82 25.79 613.16 21.87 613.16C17.93 613.16 15.41 610.82 15.41 607.12V599H18.97V607.12C18.97 609.02 20.19 610.18 21.89 610.18C23.57 610.18 24.71 609.02 24.71 607.12V599H28.25ZM34.3663 610.02H40.3063V613H30.8063V599H34.3663V610.02ZM52.9577 601.8H45.5577V604.58H52.2377V607.38H45.5577V610.2H53.1777V613H41.9977V599H52.9577V601.8Z" fill="#B9B9B9"/>
<path d="M113 583.5H199C210.874 583.5 220.5 593.126 220.5 605C220.5 616.874 210.874 626.5 199 626.5H113C101.126 626.5 91.5 616.874 91.5 605C91.5 593.126 101.126 583.5 113 583.5Z" stroke="url(#paint33_linear_162_1388)"/>
<path d="M119.1 601.86H114.88V613H111.32V601.86H107.14V598.98H119.1V601.86ZM124.187 613H120.627V599H124.187V613ZM142.374 613H139.234L139.214 603.9L135.854 611.6H133.534L130.174 603.9V613H126.994V598.98H130.894L134.694 607.32L138.494 598.98H142.374V613ZM156.157 601.8H148.757V604.58H155.437V607.38H148.757V610.2H156.377V613H145.197V599H156.157V601.8ZM162.233 610.02H168.173V613H158.673V599H162.233V610.02ZM173.425 613H169.865V599H173.425V613ZM189.152 613H186.012L179.572 604.38V613H176.232V599H179.372L185.832 607.64V599H189.152V613ZM202.915 601.8H195.515V604.58H202.195V607.38H195.515V610.2H203.135V613H191.955V599H202.915V601.8Z" fill="#B9B9B9"/>
<path d="M263 583.5H322C333.874 583.5 343.5 593.126 343.5 605C343.5 616.874 333.874 626.5 322 626.5H263C251.126 626.5 241.5 616.874 241.5 605C241.5 593.126 251.126 583.5 263 583.5Z" stroke="url(#paint34_linear_162_1388)"/>
<path d="M258.4 599H264.5C268.08 599 270.14 600.76 270.14 603.88C270.14 607.16 268.08 609.06 264.5 609.06H261.96V613H258.4V599ZM261.96 601.8V606.26H264.32C265.88 606.26 266.78 605.48 266.78 604C266.78 602.54 265.88 601.8 264.32 601.8H261.96ZM284.914 613H281.354V607.56H275.554V613H271.994V599H275.554V604.76H281.354V599H284.914V613ZM297.016 610.42H290.896L289.876 613H286.216L292.256 599H295.916L301.816 613H298.016L297.016 610.42ZM295.976 607.72L293.976 602.54L291.936 607.72H295.976ZM308.428 598.84C310.448 598.84 312.508 599.46 313.948 600.4L312.608 603.18C311.128 602.32 309.268 601.72 308.128 601.72C307.208 601.72 306.588 602.06 306.588 602.74C306.588 605.16 313.988 603.78 313.988 608.84C313.988 611.64 311.508 613.12 308.388 613.12C306.048 613.12 303.648 612.24 301.988 610.88L303.368 608.14C304.808 609.4 306.968 610.24 308.428 610.24C309.548 610.24 310.248 609.82 310.248 609.02C310.248 606.54 302.848 608.02 302.848 603.06C302.848 600.48 305.068 598.84 308.428 598.84ZM326.88 601.8H319.48V604.58H326.16V607.38H319.48V610.2H327.1V613H315.92V599H326.88V601.8Z" fill="#B9B9B9"/>
<path d="M386 583.5H484C495.874 583.5 505.5 593.126 505.5 605C505.5 616.874 495.874 626.5 484 626.5H386C374.126 626.5 364.5 616.874 364.5 605C364.5 593.311 373.828 583.801 385.445 583.507L386 583.5Z" stroke="url(#paint35_linear_162_1388)"/>
<path d="M-74 647.5H17C28.8741 647.5 38.5 657.126 38.5 669C38.5 680.874 28.8741 690.5 17 690.5H-74C-85.8741 690.5 -95.5 680.874 -95.5 669C-95.5 657.126 -85.8741 647.5 -74 647.5Z" stroke="url(#paint36_linear_162_1388)"/>
<path d="M-75.04 677H-78.6V663H-75.04V677ZM-59.3128 677H-62.4528L-68.8928 668.38V677H-72.2328V663H-69.0928L-62.6328 671.64V663H-59.3128V677ZM-45.8102 665.86H-50.0302V677H-53.5902V665.86H-57.7702V662.98H-45.8102V665.86ZM-33.3236 665.8H-40.7236V668.58H-34.0436V671.38H-40.7236V674.2H-33.1036V677H-44.2836V663H-33.3236V665.8ZM-22.367 677L-24.447 673.06H-24.547H-27.247V677H-30.807V663H-24.547C-20.847 663 -18.727 664.76 -18.727 667.88C-18.727 670.02 -19.627 671.56 -21.267 672.38L-18.327 677H-22.367ZM-27.247 670.26H-24.547C-23.007 670.26 -22.107 669.48 -22.107 668C-22.107 666.54 -23.007 665.8 -24.547 665.8H-27.247V670.26ZM-8.77109 677H-12.4511L-17.8911 663H-14.0911L-10.5111 673.3L-6.93109 663H-3.27109L-8.77109 677ZM6.325 674.42H0.205L-0.815 677H-4.475L1.565 663H5.225L11.125 677H7.325L6.325 674.42ZM5.285 671.72L3.285 666.54L1.245 671.72H5.285ZM15.9756 674.02H21.9156V677H12.4156V663H15.9756V674.02Z" fill="#B9B9B9"/>
<path d="M81 647.5H140C151.874 647.5 161.5 657.126 161.5 669C161.5 680.874 151.874 690.5 140 690.5H81C69.1259 690.5 59.5 680.874 59.5 669C59.5 657.126 69.1259 647.5 81 647.5Z" stroke="url(#paint37_linear_162_1388)"/>
<path d="M76.4 663H82.5C86.08 663 88.14 664.76 88.14 667.88C88.14 671.16 86.08 673.06 82.5 673.06H79.96V677H76.4V663ZM79.96 665.8V670.26H82.32C83.88 670.26 84.78 669.48 84.78 668C84.78 666.54 83.88 665.8 82.32 665.8H79.96ZM102.914 677H99.3538V671.56H93.5538V677H89.9938V663H93.5538V668.76H99.3538V663H102.914V677ZM115.016 674.42H108.896L107.876 677H104.216L110.256 663H113.916L119.816 677H116.016L115.016 674.42ZM113.976 671.72L111.976 666.54L109.936 671.72H113.976ZM126.428 662.84C128.448 662.84 130.508 663.46 131.948 664.4L130.608 667.18C129.128 666.32 127.268 665.72 126.128 665.72C125.208 665.72 124.588 666.06 124.588 666.74C124.588 669.16 131.988 667.78 131.988 672.84C131.988 675.64 129.508 677.12 126.388 677.12C124.048 677.12 121.648 676.24 119.988 674.88L121.368 672.14C122.808 673.4 124.968 674.24 126.428 674.24C127.548 674.24 128.248 673.82 128.248 673.02C128.248 670.54 120.848 672.02 120.848 667.06C120.848 664.48 123.068 662.84 126.428 662.84ZM144.88 665.8H137.48V668.58H144.16V671.38H137.48V674.2H145.1V677H133.92V663H144.88V665.8Z" fill="#B9B9B9"/>
<path d="M204 647.5H244C255.874 647.5 265.5 657.126 265.5 669C265.5 680.874 255.874 690.5 244 690.5H204C192.126 690.5 182.5 680.874 182.5 669C182.5 657.126 192.126 647.5 204 647.5Z" stroke="url(#paint38_linear_162_1388)"/>
<path d="M204.78 662.84C206.8 662.84 208.86 663.46 210.3 664.4L208.96 667.18C207.48 666.32 205.62 665.72 204.48 665.72C203.56 665.72 202.94 666.06 202.94 666.74C202.94 669.16 210.34 667.78 210.34 672.84C210.34 675.64 207.86 677.12 204.74 677.12C202.4 677.12 200 676.24 198.34 674.88L199.72 672.14C201.16 673.4 203.32 674.24 204.78 674.24C205.9 674.24 206.6 673.82 206.6 673.02C206.6 670.54 199.2 672.02 199.2 667.06C199.2 664.48 201.42 662.84 204.78 662.84ZM215.831 674.02H221.771V677H212.271V663H215.831V674.02ZM230.103 662.88C234.443 662.88 237.683 665.92 237.683 669.98C237.683 674.06 234.443 677.16 230.103 677.16C225.783 677.16 222.543 674.08 222.543 669.98C222.543 665.9 225.783 662.88 230.103 662.88ZM230.143 665.86C227.983 665.86 226.183 667.64 226.183 670C226.183 672.36 228.003 674.18 230.143 674.18C232.303 674.18 234.023 672.36 234.023 670C234.023 667.64 232.303 665.86 230.143 665.86ZM249.788 665.86H245.568V677H242.008V665.86H237.828V662.98H249.788V665.86Z" fill="#B9B9B9"/>
<path d="M308 647.5H390C401.874 647.5 411.5 657.126 411.5 669C411.5 680.874 401.874 690.5 390 690.5H308C296.126 690.5 286.5 680.874 286.5 669C286.5 657.311 295.828 647.801 307.445 647.507L308 647.5Z" stroke="url(#paint39_linear_162_1388)"/>
<path d="M318.78 677H315.64L315.62 667.9L312.26 675.6H309.94L306.58 667.9V677H303.4V662.98H307.3L311.1 671.32L314.9 662.98H318.78V677ZM328.243 662.88C332.583 662.88 335.823 665.92 335.823 669.98C335.823 674.06 332.583 677.16 328.243 677.16C323.923 677.16 320.683 674.08 320.683 669.98C320.683 665.9 323.923 662.88 328.243 662.88ZM328.283 665.86C326.123 665.86 324.323 667.64 324.323 670C324.323 672.36 326.143 674.18 328.283 674.18C330.443 674.18 332.163 672.36 332.163 670C332.163 667.64 330.443 665.86 328.283 665.86ZM353.077 677H349.937L349.917 667.9L346.557 675.6H344.237L340.877 667.9V677H337.697V662.98H341.597L345.397 671.32L349.197 662.98H353.077V677ZM366.86 665.8H359.46V668.58H366.14V671.38H359.46V674.2H367.08V677H355.9V663H366.86V665.8ZM382.297 677H379.157L372.717 668.38V677H369.377V663H372.517L378.977 671.64V663H382.297V677ZM395.799 665.86H391.579V677H388.019V665.86H383.839V662.98H395.799V665.86Z" fill="#B9B9B9"/>
<path d="M-114 711.5H-19C-7.12588 711.5 2.5 721.126 2.5 733C2.5 744.874 -7.12588 754.5 -19 754.5H-114C-125.874 754.5 -135.5 744.874 -135.5 733C-135.5 721.311 -126.172 711.801 -114.555 711.507L-114 711.5Z" stroke="url(#paint40_linear_162_1388)"/>
<path d="M45 711.5H88C99.8741 711.5 109.5 721.126 109.5 733C109.5 744.874 99.8741 754.5 88 754.5H45C33.1259 754.5 23.5 744.874 23.5 733C23.5 721.126 33.1259 711.5 45 711.5Z" stroke="url(#paint41_linear_162_1388)"/>
<path d="M40.4 727H46.42C50.82 727 53.86 729.84 53.86 734C53.86 738.14 50.78 741 46.28 741H40.4V727ZM43.96 729.84V738.16H46.5C48.68 738.16 50.24 736.48 50.24 734.02C50.24 731.54 48.6 729.84 46.34 729.84H43.96ZM64.6609 738.42H58.5409L57.5209 741H53.8609L59.9009 727H63.5609L69.4609 741H65.6609L64.6609 738.42ZM63.6209 735.72L61.6209 730.54L59.5809 735.72H63.6209ZM79.9477 729.86H75.7277V741H72.1677V729.86H67.9877V726.98H79.9477V729.86ZM92.4342 729.8H85.0342V732.58H91.7142V735.38H85.0342V738.2H92.6542V741H81.4742V727H92.4342V729.8Z" fill="#B9B9B9"/>
<path d="M152 711.5H202C213.874 711.5 223.5 721.126 223.5 733C223.5 744.874 213.874 754.5 202 754.5H152C140.126 754.5 130.5 744.874 130.5 733C130.5 721.126 140.126 711.5 152 711.5Z" stroke="url(#paint42_linear_162_1388)"/>
<path d="M160.32 741H156.76V735.56H150.96V741H147.4V727H150.96V732.76H156.76V727H160.32V741ZM169.763 726.88C174.103 726.88 177.343 729.92 177.343 733.98C177.343 738.06 174.103 741.16 169.763 741.16C165.443 741.16 162.203 738.08 162.203 733.98C162.203 729.9 165.443 726.88 169.763 726.88ZM169.803 729.86C167.643 729.86 165.843 731.64 165.843 734C165.843 736.36 167.663 738.18 169.803 738.18C171.963 738.18 173.683 736.36 173.683 734C173.683 731.64 171.963 729.86 169.803 729.86ZM191.816 727V735.12C191.816 738.82 189.356 741.16 185.436 741.16C181.496 741.16 178.976 738.82 178.976 735.12V727H182.536V735.12C182.536 737.02 183.756 738.18 185.456 738.18C187.136 738.18 188.276 737.02 188.276 735.12V727H191.816ZM202.813 741L200.733 737.06H200.633H197.933V741H194.373V727H200.633C204.333 727 206.453 728.76 206.453 731.88C206.453 734.02 205.553 735.56 203.913 736.38L206.853 741H202.813ZM197.933 734.26H200.633C202.173 734.26 203.073 733.48 203.073 732C203.073 730.54 202.173 729.8 200.633 729.8H197.933V734.26Z" fill="#B9B9B9"/>
<path d="M266 711.5H359C370.874 711.5 380.5 721.126 380.5 733C380.5 744.874 370.874 754.5 359 754.5H266C254.126 754.5 244.5 744.874 244.5 733C244.5 721.126 254.126 711.5 266 711.5Z" stroke="url(#paint43_linear_162_1388)"/>
<path d="M264.96 741H261.4V727H264.96V741ZM280.687 741H277.547L271.107 732.38V741H267.767V727H270.907L277.367 735.64V727H280.687V741ZM288.87 726.84C290.89 726.84 292.95 727.46 294.39 728.4L293.05 731.18C291.57 730.32 289.71 729.72 288.57 729.72C287.65 729.72 287.03 730.06 287.03 730.74C287.03 733.16 294.43 731.78 294.43 736.84C294.43 739.64 291.95 741.12 288.83 741.12C286.49 741.12 284.09 740.24 282.43 738.88L283.81 736.14C285.25 737.4 287.41 738.24 288.87 738.24C289.99 738.24 290.69 737.82 290.69 737.02C290.69 734.54 283.29 736.02 283.29 731.06C283.29 728.48 285.51 726.84 288.87 726.84ZM307.061 729.86H302.841V741H299.281V729.86H295.101V726.98H307.061V729.86ZM316.384 738.42H310.264L309.244 741H305.584L311.624 727H315.284L321.184 741H317.384L316.384 738.42ZM315.344 735.72L313.344 730.54L311.304 735.72H315.344ZM335.394 741H332.254L325.814 732.38V741H322.474V727H325.614L332.074 735.64V727H335.394V741ZM344.757 726.88C346.837 726.88 348.997 727.8 350.397 729.24L348.337 731.68C347.417 730.56 346.057 729.86 344.817 729.86C342.597 729.86 340.917 731.62 340.917 733.92C340.917 736.26 342.597 738.04 344.817 738.04C345.997 738.04 347.357 737.4 348.337 736.4L350.417 738.6C348.917 740.14 346.697 741.16 344.637 741.16C340.417 741.16 337.277 738.06 337.277 733.96C337.277 729.92 340.497 726.88 344.757 726.88ZM363.005 729.8H355.605V732.58H362.285V735.38H355.605V738.2H363.225V741H352.045V727H363.005V729.8Z" fill="#B9B9B9"/>
<path d="M-98 775.5H-16C-4.12588 775.5 5.5 785.126 5.5 797C5.5 808.874 -4.12588 818.5 -16 818.5H-98C-109.874 818.5 -119.5 808.874 -119.5 797C-119.5 785.311 -110.172 775.801 -98.5547 775.507L-98 775.5Z" stroke="url(#paint44_linear_162_1388)"/>
<path d="M48 775.5H110C121.874 775.5 131.5 785.126 131.5 797C131.5 808.874 121.874 818.5 110 818.5H48C36.1259 818.5 26.5 808.874 26.5 797C26.5 785.311 35.8275 775.801 47.4453 775.507L48 775.5Z" stroke="url(#paint45_linear_162_1388)"/>
<path d="M54.1 793.86H49.88V805H46.32V793.86H42.14V790.98H54.1V793.86ZM59.1866 805H55.6266V791H59.1866V805ZM77.3738 805H74.2338L74.2138 795.9L70.8538 803.6H68.5338L65.1738 795.9V805H61.9938V790.98H65.8938L69.6938 799.32L73.4938 790.98H77.3738V805ZM83.7569 805H80.1969V791H83.7569V805ZM99.4841 805H96.3441L89.9041 796.38V805H86.5641V791H89.7041L96.1641 799.64V791H99.4841V805ZM111.587 797.88H114.667V803.34C113.167 804.4 110.807 805.16 108.847 805.16C104.587 805.16 101.367 802.08 101.367 798C101.367 793.94 104.667 790.88 109.087 790.88C111.167 790.88 113.367 791.68 114.807 792.96L112.807 795.38C111.787 794.44 110.367 793.86 109.067 793.86C106.767 793.86 105.007 795.66 105.007 798C105.007 800.38 106.787 802.18 109.107 802.18C109.827 802.18 110.747 801.92 111.587 801.5V797.88Z" fill="#B9B9B9"/>
<path d="M174 775.5H283C294.874 775.5 304.5 785.126 304.5 797C304.5 808.874 294.874 818.5 283 818.5H174C162.126 818.5 152.5 808.874 152.5 797C152.5 785.126 162.126 775.5 174 775.5Z" stroke="url(#paint46_linear_162_1388)"/>
<path d="M175.96 790.88C178.04 790.88 180.2 791.8 181.6 793.24L179.54 795.68C178.62 794.56 177.26 793.86 176.02 793.86C173.8 793.86 172.12 795.62 172.12 797.92C172.12 800.26 173.8 802.04 176.02 802.04C177.2 802.04 178.56 801.4 179.54 800.4L181.62 802.6C180.12 804.14 177.9 805.16 175.84 805.16C171.62 805.16 168.48 802.06 168.48 797.96C168.48 793.92 171.7 790.88 175.96 790.88ZM196.168 805H192.608V799.56H186.808V805H183.248V791H186.808V796.76H192.608V791H196.168V805ZM207.41 805L205.33 801.06H205.23H202.53V805H198.97V791H205.23C208.93 791 211.05 792.76 211.05 795.88C211.05 798.02 210.15 799.56 208.51 800.38L211.45 805H207.41ZM202.53 798.26H205.23C206.77 798.26 207.67 797.48 207.67 796C207.67 794.54 206.77 793.8 205.23 793.8H202.53V798.26ZM220.083 790.88C224.423 790.88 227.663 793.92 227.663 797.98C227.663 802.06 224.423 805.16 220.083 805.16C215.763 805.16 212.523 802.08 212.523 797.98C212.523 793.9 215.763 790.88 220.083 790.88ZM220.123 793.86C217.963 793.86 216.163 795.64 216.163 798C216.163 800.36 217.983 802.18 220.123 802.18C222.283 802.18 224.003 800.36 224.003 798C224.003 795.64 222.283 793.86 220.123 793.86ZM242.457 805H239.317L232.877 796.38V805H229.537V791H232.677L239.137 799.64V791H242.457V805ZM248.819 805H245.259V791H248.819V805ZM258.187 790.88C260.267 790.88 262.427 791.8 263.827 793.24L261.767 795.68C260.847 794.56 259.487 793.86 258.247 793.86C256.027 793.86 254.347 795.62 254.347 797.92C254.347 800.26 256.027 802.04 258.247 802.04C259.427 802.04 260.787 801.4 261.767 800.4L263.847 802.6C262.347 804.14 260.127 805.16 258.067 805.16C253.847 805.16 250.707 802.06 250.707 797.96C250.707 793.92 253.927 790.88 258.187 790.88ZM269.034 802.02H274.974V805H265.474V791H269.034V802.02ZM287.626 793.8H280.226V796.58H286.906V799.38H280.226V802.2H287.846V805H276.666V791H287.626V793.8Z" fill="#B9B9B9"/>
<path d="M347 775.5H379C390.874 775.5 400.5 785.126 400.5 797C400.5 808.874 390.874 818.5 379 818.5H347C335.126 818.5 325.5 808.874 325.5 797C325.5 785.126 335.126 775.5 347 775.5Z" stroke="url(#paint47_linear_162_1388)"/>
<path d="M353.36 793.8H345.96V796.58H352.64V799.38H345.96V802.2H353.58V805H342.4V791H353.36V793.8ZM364.317 805L362.237 801.06H362.137H359.437V805H355.877V791H362.137C365.837 791 367.957 792.76 367.957 795.88C367.957 798.02 367.057 799.56 365.417 800.38L368.357 805H364.317ZM359.437 798.26H362.137C363.677 798.26 364.577 797.48 364.577 796C364.577 794.54 363.677 793.8 362.137 793.8H359.437V798.26ZM379.649 802.42H373.529L372.509 805H368.849L374.889 791H378.549L384.449 805H380.649L379.649 802.42ZM378.609 799.72L376.609 794.54L374.569 799.72H378.609Z" fill="#B9B9B9"/>
</g>
<defs>
<filter id="filter0_d_162_1388" x="104" y="357" width="174" height="98" filterUnits="userSpaceOnUse" color-interpolation-filters="sRGB">
<feFlood flood-opacity="0" result="BackgroundImageFix"/>
<feColorMatrix in="SourceAlpha" type="matrix" values="0 0 0 0 0 0 0 0 0 0 0 0 0 0 0 0 0 0 127 0" result="hardAlpha"/>
<feOffset/>
<feGaussianBlur stdDeviation="10"/>
<feComposite in2="hardAlpha" operator="out"/>
<feColorMatrix type="matrix" values="0 0 0 0 1 0 0 0 0 1 0 0 0 0 1 0 0 0 1 0"/>
<feBlend mode="normal" in2="BackgroundImageFix" result="effect1_dropShadow_162_1388"/>
<feBlend mode="normal" in="SourceGraphic" in2="effect1_dropShadow_162_1388" result="shape"/>
</filter>
<filter id="filter1_d_162_1388" x="135.968" y="392.568" width="109.361" height="30.4319" filterUnits="userSpaceOnUse" color-interpolation-filters="sRGB">
<feFlood flood-opacity="0" result="BackgroundImageFix"/>
<feColorMatrix in="SourceAlpha" type="matrix" values="0 0 0 0 0 0 0 0 0 0 0 0 0 0 0 0 0 0 127 0" result="hardAlpha"/>
<feOffset/>
<feGaussianBlur stdDeviation="2"/>
<feComposite in2="hardAlpha" operator="out"/>
<feColorMatrix type="matrix" values="0 0 0 0 1 0 0 0 0 1 0 0 0 0 1 0 0 0 0.65 0"/>
<feBlend mode="normal" in2="BackgroundImageFix" result="effect1_dropShadow_162_1388"/>
<feBlend mode="normal" in="SourceGraphic" in2="effect1_dropShadow_162_1388" result="shape"/>
</filter>
<linearGradient id="paint0_linear_162_1388" x1="16" y1="1.00001" x2="-89" y2="0.999993" gradientUnits="userSpaceOnUse">
<stop stop-color="white" stop-opacity="0"/>
<stop offset="0.5" stop-color="white"/>
<stop offset="1" stop-color="white" stop-opacity="0"/>
</linearGradient>
<linearGradient id="paint1_linear_162_1388" x1="123" y1="1.00001" x2="36" y2="0.999997" gradientUnits="userSpaceOnUse">
<stop stop-color="white" stop-opacity="0"/>
<stop offset="0.5" stop-color="white"/>
<stop offset="1" stop-color="white" stop-opacity="0"/>
</linearGradient>
<linearGradient id="paint2_linear_162_1388" x1="237" y1="1.00001" x2="143" y2="0.999996" gradientUnits="userSpaceOnUse">
<stop stop-color="white" stop-opacity="0"/>
<stop offset="0.5" stop-color="white"/>
<stop offset="1" stop-color="white" stop-opacity="0"/>
</linearGradient>
<linearGradient id="paint3_linear_162_1388" x1="394" y1="1.00001" x2="257" y2="0.999983" gradientUnits="userSpaceOnUse">
<stop stop-color="white" stop-opacity="0"/>
<stop offset="0.5" stop-color="white"/>
<stop offset="1" stop-color="white" stop-opacity="0"/>
</linearGradient>
<linearGradient id="paint4_linear_162_1388" x1="6" y1="72" x2="-120" y2="72" gradientUnits="userSpaceOnUse">
<stop stop-color="white" stop-opacity="0"/>
<stop offset="0.5" stop-color="white"/>
<stop offset="1" stop-color="white" stop-opacity="0"/>
</linearGradient>
<linearGradient id="paint5_linear_162_1388" x1="132" y1="72" x2="26" y2="72" gradientUnits="userSpaceOnUse">
<stop stop-color="white" stop-opacity="0"/>
<stop offset="0.5" stop-color="white"/>
<stop offset="1" stop-color="white" stop-opacity="0"/>
</linearGradient>
<linearGradient id="paint6_linear_162_1388" x1="305" y1="72" x2="152" y2="72" gradientUnits="userSpaceOnUse">
<stop stop-color="white" stop-opacity="0"/>
<stop offset="0.5" stop-color="white"/>
<stop offset="1" stop-color="white" stop-opacity="0"/>
</linearGradient>
<linearGradient id="paint7_linear_162_1388" x1="401" y1="72" x2="325" y2="72" gradientUnits="userSpaceOnUse">
<stop stop-color="white" stop-opacity="0"/>
<stop offset="0.5" stop-color="white"/>
<stop offset="1" stop-color="white" stop-opacity="0"/>
</linearGradient>
<linearGradient id="paint8_linear_162_1388" x1="64" y1="143" x2="-66" y2="143" gradientUnits="userSpaceOnUse">
<stop stop-color="white" stop-opacity="0"/>
<stop offset="0.5" stop-color="white"/>
<stop offset="1" stop-color="white" stop-opacity="0"/>
</linearGradient>
<linearGradient id="paint9_linear_162_1388" x1="187" y1="143" x2="84" y2="143" gradientUnits="userSpaceOnUse">
<stop stop-color="white" stop-opacity="0"/>
<stop offset="0.5" stop-color="white"/>
<stop offset="1" stop-color="white" stop-opacity="0"/>
</linearGradient>
<linearGradient id="paint10_linear_162_1388" x1="349" y1="143" x2="207" y2="143" gradientUnits="userSpaceOnUse">
<stop stop-color="white" stop-opacity="0"/>
<stop offset="0.5" stop-color="white"/>
<stop offset="1" stop-color="white" stop-opacity="0"/>
</linearGradient>
<linearGradient id="paint11_linear_162_1388" x1="504" y1="143" x2="369" y2="143" gradientUnits="userSpaceOnUse">
<stop stop-color="white" stop-opacity="0"/>
<stop offset="0.5" stop-color="white"/>
<stop offset="1" stop-color="white" stop-opacity="0"/>
</linearGradient>
<linearGradient id="paint12_linear_162_1388" x1="45" y1="207" x2="-39" y2="207" gradientUnits="userSpaceOnUse">
<stop stop-color="white" stop-opacity="0"/>
<stop offset="0.5" stop-color="white"/>
<stop offset="1" stop-color="white" stop-opacity="0"/>
</linearGradient>
<linearGradient id="paint13_linear_162_1388" x1="191" y1="207" x2="65" y2="207" gradientUnits="userSpaceOnUse">
<stop stop-color="white" stop-opacity="0"/>
<stop offset="0.5" stop-color="white"/>
<stop offset="1" stop-color="white" stop-opacity="0"/>
</linearGradient>
<linearGradient id="paint14_linear_162_1388" x1="353" y1="207" x2="211" y2="207" gradientUnits="userSpaceOnUse">
<stop stop-color="white" stop-opacity="0"/>
<stop offset="0.5" stop-color="white"/>
<stop offset="1" stop-color="white" stop-opacity="0"/>
</linearGradient>
<linearGradient id="paint15_linear_162_1388" x1="460" y1="207" x2="373" y2="207" gradientUnits="userSpaceOnUse">
<stop stop-color="white" stop-opacity="0"/>
<stop offset="0.5" stop-color="white"/>
<stop offset="1" stop-color="white" stop-opacity="0"/>
</linearGradient>
<linearGradient id="paint16_linear_162_1388" x1="81" y1="271" x2="-13" y2="271" gradientUnits="userSpaceOnUse">
<stop stop-color="white" stop-opacity="0"/>
<stop offset="0.5" stop-color="white"/>
<stop offset="1" stop-color="white" stop-opacity="0"/>
</linearGradient>
<linearGradient id="paint17_linear_162_1388" x1="238" y1="271" x2="101" y2="271" gradientUnits="userSpaceOnUse">
<stop stop-color="white" stop-opacity="0"/>
<stop offset="0.5" stop-color="white"/>
<stop offset="1" stop-color="white" stop-opacity="0"/>
</linearGradient>
<linearGradient id="paint18_linear_162_1388" x1="370" y1="271" x2="258" y2="271" gradientUnits="userSpaceOnUse">
<stop stop-color="white" stop-opacity="0"/>
<stop offset="0.5" stop-color="white"/>
<stop offset="1" stop-color="white" stop-opacity="0"/>
</linearGradient>
<linearGradient id="paint19_linear_162_1388" x1="100" y1="335" x2="-53" y2="335" gradientUnits="userSpaceOnUse">
<stop stop-color="white" stop-opacity="0"/>
<stop offset="0.5" stop-color="white"/>
<stop offset="1" stop-color="white" stop-opacity="0"/>
</linearGradient>
<linearGradient id="paint20_linear_162_1388" x1="196" y1="335" x2="120" y2="335" gradientUnits="userSpaceOnUse">
<stop stop-color="white" stop-opacity="0"/>
<stop offset="0.5" stop-color="white"/>
<stop offset="1" stop-color="white" stop-opacity="0"/>
</linearGradient>
<linearGradient id="paint21_linear_162_1388" x1="321" y1="335" x2="216" y2="335" gradientUnits="userSpaceOnUse">
<stop stop-color="white" stop-opacity="0"/>
<stop offset="0.5" stop-color="white"/>
<stop offset="1" stop-color="white" stop-opacity="0"/>
</linearGradient>
<linearGradient id="paint22_linear_162_1388" x1="488" y1="335" x2="341" y2="335" gradientUnits="userSpaceOnUse">
<stop stop-color="white" stop-opacity="0"/>
<stop offset="0.5" stop-color="white"/>
<stop offset="1" stop-color="white" stop-opacity="0"/>
</linearGradient>
<linearGradient id="paint23_linear_162_1388" x1="104" y1="406" x2="-22" y2="406" gradientUnits="userSpaceOnUse">
<stop stop-color="white" stop-opacity="0"/>
<stop offset="0.5" stop-color="white"/>
<stop offset="1" stop-color="white" stop-opacity="0"/>
</linearGradient>
<linearGradient id="paint24_linear_162_1388" x1="258" y1="406" x2="124" y2="406" gradientUnits="userSpaceOnUse">
<stop stop-color="white" stop-opacity="0"/>
<stop offset="0.5" stop-color="white"/>
<stop offset="1" stop-color="white" stop-opacity="0"/>
</linearGradient>
<linearGradient id="paint25_linear_162_1388" x1="463" y1="406" x2="278" y2="406" gradientUnits="userSpaceOnUse">
<stop stop-color="white" stop-opacity="0"/>
<stop offset="0.5" stop-color="white"/>
<stop offset="1" stop-color="white" stop-opacity="0"/>
</linearGradient>
<linearGradient id="paint26_linear_162_1388" x1="79" y1="477" x2="-44" y2="477" gradientUnits="userSpaceOnUse">
<stop stop-color="white" stop-opacity="0"/>
<stop offset="0.5" stop-color="white"/>
<stop offset="1" stop-color="white" stop-opacity="0"/>
</linearGradient>
<linearGradient id="paint27_linear_162_1388" x1="284" y1="477" x2="99" y2="477" gradientUnits="userSpaceOnUse">
<stop stop-color="white" stop-opacity="0"/>
<stop offset="0.5" stop-color="white"/>
<stop offset="1" stop-color="white" stop-opacity="0"/>
</linearGradient>
<linearGradient id="paint28_linear_162_1388" x1="443" y1="477" x2="304" y2="477" gradientUnits="userSpaceOnUse">
<stop stop-color="white" stop-opacity="0"/>
<stop offset="0.5" stop-color="white"/>
<stop offset="1" stop-color="white" stop-opacity="0"/>
</linearGradient>
<linearGradient id="paint29_linear_162_1388" x1="43" y1="541" x2="-69" y2="541" gradientUnits="userSpaceOnUse">
<stop stop-color="white" stop-opacity="0"/>
<stop offset="0.5" stop-color="white"/>
<stop offset="1" stop-color="white" stop-opacity="0"/>
</linearGradient>
<linearGradient id="paint30_linear_162_1388" x1="200" y1="541" x2="63" y2="541" gradientUnits="userSpaceOnUse">
<stop stop-color="white" stop-opacity="0"/>
<stop offset="0.5" stop-color="white"/>
<stop offset="1" stop-color="white" stop-opacity="0"/>
</linearGradient>
<linearGradient id="paint31_linear_162_1388" x1="376" y1="541" x2="220" y2="541" gradientUnits="userSpaceOnUse">
<stop stop-color="white" stop-opacity="0"/>
<stop offset="0.5" stop-color="white"/>
<stop offset="1" stop-color="white" stop-opacity="0"/>
</linearGradient>
<linearGradient id="paint32_linear_162_1388" x1="71" y1="605" x2="-73" y2="605" gradientUnits="userSpaceOnUse">
<stop stop-color="white" stop-opacity="0"/>
<stop offset="0.5" stop-color="white"/>
<stop offset="1" stop-color="white" stop-opacity="0"/>
</linearGradient>
<linearGradient id="paint33_linear_162_1388" x1="221" y1="605" x2="91" y2="605" gradientUnits="userSpaceOnUse">
<stop stop-color="white" stop-opacity="0"/>
<stop offset="0.5" stop-color="white"/>
<stop offset="1" stop-color="white" stop-opacity="0"/>
</linearGradient>
<linearGradient id="paint34_linear_162_1388" x1="344" y1="605" x2="241" y2="605" gradientUnits="userSpaceOnUse">
<stop stop-color="white" stop-opacity="0"/>
<stop offset="0.5" stop-color="white"/>
<stop offset="1" stop-color="white" stop-opacity="0"/>
</linearGradient>
<linearGradient id="paint35_linear_162_1388" x1="506" y1="605" x2="364" y2="605" gradientUnits="userSpaceOnUse">
<stop stop-color="white" stop-opacity="0"/>
<stop offset="0.5" stop-color="white"/>
<stop offset="1" stop-color="white" stop-opacity="0"/>
</linearGradient>
<linearGradient id="paint36_linear_162_1388" x1="39" y1="669" x2="-96" y2="669" gradientUnits="userSpaceOnUse">
<stop stop-color="white" stop-opacity="0"/>
<stop offset="0.5" stop-color="white"/>
<stop offset="1" stop-color="white" stop-opacity="0"/>
</linearGradient>
<linearGradient id="paint37_linear_162_1388" x1="162" y1="669" x2="59" y2="669" gradientUnits="userSpaceOnUse">
<stop stop-color="white" stop-opacity="0"/>
<stop offset="0.5" stop-color="white"/>
<stop offset="1" stop-color="white" stop-opacity="0"/>
</linearGradient>
<linearGradient id="paint38_linear_162_1388" x1="266" y1="669" x2="182" y2="669" gradientUnits="userSpaceOnUse">
<stop stop-color="white" stop-opacity="0"/>
<stop offset="0.5" stop-color="white"/>
<stop offset="1" stop-color="white" stop-opacity="0"/>
</linearGradient>
<linearGradient id="paint39_linear_162_1388" x1="412" y1="669" x2="286" y2="669" gradientUnits="userSpaceOnUse">
<stop stop-color="white" stop-opacity="0"/>
<stop offset="0.5" stop-color="white"/>
<stop offset="1" stop-color="white" stop-opacity="0"/>
</linearGradient>
<linearGradient id="paint40_linear_162_1388" x1="3" y1="733" x2="-136" y2="733" gradientUnits="userSpaceOnUse">
<stop stop-color="white" stop-opacity="0"/>
<stop offset="0.5" stop-color="white"/>
<stop offset="1" stop-color="white" stop-opacity="0"/>
</linearGradient>
<linearGradient id="paint41_linear_162_1388" x1="110" y1="733" x2="23" y2="733" gradientUnits="userSpaceOnUse">
<stop stop-color="white" stop-opacity="0"/>
<stop offset="0.5" stop-color="white"/>
<stop offset="1" stop-color="white" stop-opacity="0"/>
</linearGradient>
<linearGradient id="paint42_linear_162_1388" x1="224" y1="733" x2="130" y2="733" gradientUnits="userSpaceOnUse">
<stop stop-color="white" stop-opacity="0"/>
<stop offset="0.5" stop-color="white"/>
<stop offset="1" stop-color="white" stop-opacity="0"/>
</linearGradient>
<linearGradient id="paint43_linear_162_1388" x1="381" y1="733" x2="244" y2="733" gradientUnits="userSpaceOnUse">
<stop stop-color="white" stop-opacity="0"/>
<stop offset="0.5" stop-color="white"/>
<stop offset="1" stop-color="white" stop-opacity="0"/>
</linearGradient>
<linearGradient id="paint44_linear_162_1388" x1="6" y1="797" x2="-120" y2="797" gradientUnits="userSpaceOnUse">
<stop stop-color="white" stop-opacity="0"/>
<stop offset="0.5" stop-color="white"/>
<stop offset="1" stop-color="white" stop-opacity="0"/>
</linearGradient>
<linearGradient id="paint45_linear_162_1388" x1="132" y1="797" x2="26" y2="797" gradientUnits="userSpaceOnUse">
<stop stop-color="white" stop-opacity="0"/>
<stop offset="0.5" stop-color="white"/>
<stop offset="1" stop-color="white" stop-opacity="0"/>
</linearGradient>
<linearGradient id="paint46_linear_162_1388" x1="305" y1="797" x2="152" y2="797" gradientUnits="userSpaceOnUse">
<stop stop-color="white" stop-opacity="0"/>
<stop offset="0.5" stop-color="white"/>
<stop offset="1" stop-color="white" stop-opacity="0"/>
</linearGradient>
<linearGradient id="paint47_linear_162_1388" x1="401" y1="797" x2="325" y2="797" gradientUnits="userSpaceOnUse">
<stop stop-color="white" stop-opacity="0"/>
<stop offset="0.5" stop-color="white"/>
<stop offset="1" stop-color="white" stop-opacity="0"/>
</linearGradient>
<clipPath id="clip0_162_1388">
<rect width="375" height="812" fill="white"/>
</clipPath>
</defs>
</svg>
