<svg width="375" height="812" viewBox="0 0 375 812" fill="none" xmlns="http://www.w3.org/2000/svg">
<g clip-path="url(#clip0_162_695)">
<rect width="375" height="812" fill="#111111"/>
<path d="M18 -4.5H127C138.874 -4.5 148.5 5.12588 148.5 17C148.5 28.8741 138.874 38.5 127 38.5H18C6.12588 38.5 -3.5 28.8741 -3.5 17C-3.5 5.12588 6.12588 -4.5 18 -4.5Z" stroke="url(#paint0_linear_162_695)"/>
<path d="M19.96 10.88C22.04 10.88 24.2 11.8 25.6 13.24L23.54 15.68C22.62 14.56 21.26 13.86 20.02 13.86C17.8 13.86 16.12 15.62 16.12 17.92C16.12 20.26 17.8 22.04 20.02 22.04C21.2 22.04 22.56 21.4 23.54 20.4L25.62 22.6C24.12 24.14 21.9 25.16 19.84 25.16C15.62 25.16 12.48 22.06 12.48 17.96C12.48 13.92 15.7 10.88 19.96 10.88ZM40.1677 25H36.6077V19.56H30.8077V25H27.2477V11H30.8077V16.76H36.6077V11H40.1677V25ZM51.4103 25L49.3303 21.06H49.2303H46.5303V25H42.9703V11H49.2303C52.9303 11 55.0503 12.76 55.0503 15.88C55.0503 18.02 54.1503 19.56 52.5103 20.38L55.4503 25H51.4103ZM46.5303 18.26H49.2303C50.7703 18.26 51.6703 17.48 51.6703 16C51.6703 14.54 50.7703 13.8 49.2303 13.8H46.5303V18.26ZM64.083 10.88C68.423 10.88 71.663 13.92 71.663 17.98C71.663 22.06 68.423 25.16 64.083 25.16C59.763 25.16 56.523 22.08 56.523 17.98C56.523 13.9 59.763 10.88 64.083 10.88ZM64.123 13.86C61.963 13.86 60.163 15.64 60.163 18C60.163 20.36 61.983 22.18 64.123 22.18C66.283 22.18 68.003 20.36 68.003 18C68.003 15.64 66.283 13.86 64.123 13.86ZM86.4567 25H83.3167L76.8767 16.38V25H73.5367V11H76.6767L83.1367 19.64V11H86.4567V25ZM92.8194 25H89.2594V11H92.8194V25ZM102.187 10.88C104.267 10.88 106.427 11.8 107.827 13.24L105.767 15.68C104.847 14.56 103.487 13.86 102.247 13.86C100.027 13.86 98.3466 15.62 98.3466 17.92C98.3466 20.26 100.027 22.04 102.247 22.04C103.427 22.04 104.787 21.4 105.767 20.4L107.847 22.6C106.347 24.14 104.127 25.16 102.067 25.16C97.8466 25.16 94.7066 22.06 94.7066 17.96C94.7066 13.92 97.9266 10.88 102.187 10.88ZM113.034 22.02H118.974V25H109.474V11H113.034V22.02ZM131.626 13.8H124.226V16.58H130.906V19.38H124.226V22.2H131.846V25H120.666V11H131.626V13.8Z" fill="#B9B9B9"/>
<path d="M191 -4.5H223C234.874 -4.5 244.5 5.12588 244.5 17C244.5 28.8741 234.874 38.5 223 38.5H191C179.126 38.5 169.5 28.8741 169.5 17C169.5 5.12588 179.126 -4.5 191 -4.5Z" stroke="url(#paint1_linear_162_695)"/>
<path d="M197.36 13.8H189.96V16.58H196.64V19.38H189.96V22.2H197.58V25H186.4V11H197.36V13.8ZM208.317 25L206.237 21.06H206.137H203.437V25H199.877V11H206.137C209.837 11 211.957 12.76 211.957 15.88C211.957 18.02 211.057 19.56 209.417 20.38L212.357 25H208.317ZM203.437 18.26H206.137C207.677 18.26 208.577 17.48 208.577 16C208.577 14.54 207.677 13.8 206.137 13.8H203.437V18.26ZM223.649 22.42H217.529L216.509 25H212.849L218.889 11H222.549L228.449 25H224.649L223.649 22.42ZM222.609 19.72L220.609 14.54L218.569 19.72H222.609Z" fill="#B9B9B9"/>
<path d="M287 -4.5H348C359.874 -4.5 369.5 5.12588 369.5 17C369.5 28.8741 359.874 38.5 348 38.5H287C275.126 38.5 265.5 28.8741 265.5 17C265.5 5.12588 275.126 -4.5 287 -4.5Z" stroke="url(#paint2_linear_162_695)"/>
<path d="M293.36 13.8H285.96V16.58H292.64V19.38H285.96V22.2H293.58V25H282.4V11H293.36V13.8ZM295.877 11H301.977C305.557 11 307.617 12.76 307.617 15.88C307.617 19.16 305.557 21.06 301.977 21.06H299.437V25H295.877V11ZM299.437 13.8V18.26H301.797C303.357 18.26 304.257 17.48 304.257 16C304.257 14.54 303.357 13.8 301.797 13.8H299.437ZM316.11 10.88C320.45 10.88 323.69 13.92 323.69 17.98C323.69 22.06 320.45 25.16 316.11 25.16C311.79 25.16 308.55 22.08 308.55 17.98C308.55 13.9 311.79 10.88 316.11 10.88ZM316.15 13.86C313.99 13.86 312.19 15.64 312.19 18C312.19 20.36 314.01 22.18 316.15 22.18C318.31 22.18 320.03 20.36 320.03 18C320.03 15.64 318.31 13.86 316.15 13.86ZM331.87 10.88C333.95 10.88 336.11 11.8 337.51 13.24L335.45 15.68C334.53 14.56 333.17 13.86 331.93 13.86C329.71 13.86 328.03 15.62 328.03 17.92C328.03 20.26 329.71 22.04 331.93 22.04C333.11 22.04 334.47 21.4 335.45 20.4L337.53 22.6C336.03 24.14 333.81 25.16 331.75 25.16C327.53 25.16 324.39 22.06 324.39 17.96C324.39 13.92 327.61 10.88 331.87 10.88ZM352.078 25H348.518V19.56H342.718V25H339.158V11H342.718V16.76H348.518V11H352.078V25Z" fill="#B9B9B9"/>
<path d="M-58 59.5H24C35.8741 59.5 45.5 69.1259 45.5 81C45.5 92.8741 35.8741 102.5 24 102.5H-58C-69.8741 102.5 -79.5 92.8741 -79.5 81C-79.5 69.3113 -70.1725 59.801 -58.5547 59.5068L-58 59.5Z" stroke="url(#paint3_linear_162_695)"/>
<path d="M-47.22 89H-50.36L-50.38 79.9L-53.74 87.6H-56.06L-59.42 79.9V89H-62.6V74.98H-58.7L-54.9 83.32L-51.1 74.98H-47.22V89ZM-37.7569 74.88C-33.4169 74.88 -30.1769 77.92 -30.1769 81.98C-30.1769 86.06 -33.4169 89.16 -37.7569 89.16C-42.0769 89.16 -45.3169 86.08 -45.3169 81.98C-45.3169 77.9 -42.0769 74.88 -37.7569 74.88ZM-37.7169 77.86C-39.8769 77.86 -41.6769 79.64 -41.6769 82C-41.6769 84.36 -39.8569 86.18 -37.7169 86.18C-35.5569 86.18 -33.8369 84.36 -33.8369 82C-33.8369 79.64 -35.5569 77.86 -37.7169 77.86ZM-12.9231 89H-16.0631L-16.0831 79.9L-19.4431 87.6H-21.7631L-25.1231 79.9V89H-28.3031V74.98H-24.4031L-20.6031 83.32L-16.8031 74.98H-12.9231V89ZM0.860001 77.8H-6.54V80.58H0.14V83.38H-6.54V86.2H1.08V89H-10.1V75H0.860001V77.8ZM16.2966 89H13.1566L6.71656 80.38V89H3.37656V75H6.51656L12.9766 83.64V75H16.2966V89ZM29.7992 77.86H25.5792V89H22.0192V77.86H17.8392V74.98H29.7992V77.86Z" fill="#B9B9B9"/>
<path d="M88 59.5H167C178.874 59.5 188.5 69.1259 188.5 81C188.5 92.8741 178.874 102.5 167 102.5H88C76.1259 102.5 66.5 92.8741 66.5 81C66.5 69.1259 76.1259 59.5 88 59.5Z" stroke="url(#paint4_linear_162_695)"/>
<path d="M88.78 74.84C90.8 74.84 92.86 75.46 94.3 76.4L92.96 79.18C91.48 78.32 89.62 77.72 88.48 77.72C87.56 77.72 86.94 78.06 86.94 78.74C86.94 81.16 94.34 79.78 94.34 84.84C94.34 87.64 91.86 89.12 88.74 89.12C86.4 89.12 84 88.24 82.34 86.88L83.72 84.14C85.16 85.4 87.32 86.24 88.78 86.24C89.9 86.24 90.6 85.82 90.6 85.02C90.6 82.54 83.2 84.02 83.2 79.06C83.2 76.48 85.42 74.84 88.78 74.84ZM107.231 77.8H99.8311V80.58H106.511V83.38H99.8311V86.2H107.451V89H96.2711V75H107.231V77.8ZM115.128 74.84C117.148 74.84 119.208 75.46 120.648 76.4L119.308 79.18C117.828 78.32 115.968 77.72 114.828 77.72C113.908 77.72 113.288 78.06 113.288 78.74C113.288 81.16 120.688 79.78 120.688 84.84C120.688 87.64 118.208 89.12 115.088 89.12C112.748 89.12 110.348 88.24 108.688 86.88L110.068 84.14C111.508 85.4 113.668 86.24 115.128 86.24C116.248 86.24 116.948 85.82 116.948 85.02C116.948 82.54 109.548 84.02 109.548 79.06C109.548 76.48 111.768 74.84 115.128 74.84ZM127.999 74.84C130.019 74.84 132.079 75.46 133.519 76.4L132.179 79.18C130.699 78.32 128.839 77.72 127.699 77.72C126.779 77.72 126.159 78.06 126.159 78.74C126.159 81.16 133.559 79.78 133.559 84.84C133.559 87.64 131.079 89.12 127.959 89.12C125.619 89.12 123.219 88.24 121.559 86.88L122.939 84.14C124.379 85.4 126.539 86.24 127.999 86.24C129.119 86.24 129.819 85.82 129.819 85.02C129.819 82.54 122.419 84.02 122.419 79.06C122.419 76.48 124.639 74.84 127.999 74.84ZM139.05 89H135.49V75H139.05V89ZM148.497 74.88C152.837 74.88 156.077 77.92 156.077 81.98C156.077 86.06 152.837 89.16 148.497 89.16C144.177 89.16 140.937 86.08 140.937 81.98C140.937 77.9 144.177 74.88 148.497 74.88ZM148.537 77.86C146.377 77.86 144.577 79.64 144.577 82C144.577 84.36 146.397 86.18 148.537 86.18C150.697 86.18 152.417 84.36 152.417 82C152.417 79.64 150.697 77.86 148.537 77.86ZM170.871 89H167.731L161.291 80.38V89H157.951V75H161.091L167.551 83.64V75H170.871V89Z" fill="#B9B9B9"/>
<path d="M231 59.5H372C383.874 59.5 393.5 69.1259 393.5 81C393.5 92.8741 383.874 102.5 372 102.5H231C219.126 102.5 209.5 92.8741 209.5 81C209.5 69.1259 219.126 59.5 231 59.5Z" stroke="url(#paint5_linear_162_695)"/>
<path d="M235.7 86.42H229.58L228.56 89H224.9L230.94 75H234.6L240.5 89H236.7L235.7 86.42ZM234.66 83.72L232.66 78.54L230.62 83.72H234.66ZM241.791 75H247.891C251.471 75 253.531 76.76 253.531 79.88C253.531 83.16 251.471 85.06 247.891 85.06H245.351V89H241.791V75ZM245.351 77.8V82.26H247.711C249.271 82.26 250.171 81.48 250.171 80C250.171 78.54 249.271 77.8 247.711 77.8H245.351ZM255.384 75H261.484C265.064 75 267.124 76.76 267.124 79.88C267.124 83.16 265.064 85.06 261.484 85.06H258.944V89H255.384V75ZM258.944 77.8V82.26H261.304C262.864 82.26 263.764 81.48 263.764 80C263.764 78.54 262.864 77.8 261.304 77.8H258.944ZM275.618 74.88C279.958 74.88 283.198 77.92 283.198 81.98C283.198 86.06 279.958 89.16 275.618 89.16C271.298 89.16 268.058 86.08 268.058 81.98C268.058 77.9 271.298 74.88 275.618 74.88ZM275.658 77.86C273.498 77.86 271.698 79.64 271.698 82C271.698 84.36 273.518 86.18 275.658 86.18C277.818 86.18 279.538 84.36 279.538 82C279.538 79.64 277.818 77.86 275.658 77.86ZM288.632 89H285.072V75H288.632V89ZM304.359 89H301.219L294.779 80.38V89H291.439V75H294.579L301.039 83.64V75H304.359V89ZM317.862 77.86H313.642V89H310.082V77.86H305.902V74.98H317.862V77.86ZM334.768 89H331.628L331.608 79.9L328.248 87.6H325.928L322.568 79.9V89H319.388V74.98H323.288L327.088 83.32L330.888 74.98H334.768V89ZM348.551 77.8H341.151V80.58H347.831V83.38H341.151V86.2H348.771V89H337.591V75H348.551V77.8ZM363.988 89H360.848L354.408 80.38V89H351.068V75H354.208L360.668 83.64V75H363.988V89ZM377.491 77.86H373.271V89H369.711V77.86H365.531V74.98H377.491V77.86Z" fill="#B9B9B9"/>
<path d="M-19 123.5H122C133.874 123.5 143.5 133.126 143.5 145C143.5 156.874 133.874 166.5 122 166.5H-19C-30.8741 166.5 -40.5 156.874 -40.5 145C-40.5 133.126 -30.8741 123.5 -19 123.5Z" stroke="url(#paint6_linear_162_695)"/>
<path d="M-14.3 150.42H-20.42L-21.44 153H-25.1L-19.06 139H-15.4L-9.5 153H-13.3L-14.3 150.42ZM-15.34 147.72L-17.34 142.54L-19.38 147.72H-15.34ZM-8.20937 139H-2.10937C1.47063 139 3.53063 140.76 3.53063 143.88C3.53063 147.16 1.47063 149.06 -2.10937 149.06H-4.64937V153H-8.20937V139ZM-4.64937 141.8V146.26H-2.28937C-0.729374 146.26 0.170625 145.48 0.170625 144C0.170625 142.54 -0.729374 141.8 -2.28937 141.8H-4.64937ZM5.38438 139H11.4844C15.0644 139 17.1244 140.76 17.1244 143.88C17.1244 147.16 15.0644 149.06 11.4844 149.06H8.94438V153H5.38438V139ZM8.94438 141.8V146.26H11.3044C12.8644 146.26 13.7644 145.48 13.7644 144C13.7644 142.54 12.8644 141.8 11.3044 141.8H8.94438ZM25.6181 138.88C29.9581 138.88 33.1981 141.92 33.1981 145.98C33.1981 150.06 29.9581 153.16 25.6181 153.16C21.2981 153.16 18.0581 150.08 18.0581 145.98C18.0581 141.9 21.2981 138.88 25.6181 138.88ZM25.6581 141.86C23.4981 141.86 21.6981 143.64 21.6981 146C21.6981 148.36 23.5181 150.18 25.6581 150.18C27.8181 150.18 29.5381 148.36 29.5381 146C29.5381 143.64 27.8181 141.86 25.6581 141.86ZM38.6319 153H35.0719V139H38.6319V153ZM54.3591 153H51.2191L44.7791 144.38V153H41.4391V139H44.5791L51.0391 147.64V139H54.3591V153ZM67.8617 141.86H63.6417V153H60.0817V141.86H55.9017V138.98H67.8617V141.86ZM84.7683 153H81.6283L81.6083 143.9L78.2483 151.6H75.9283L72.5683 143.9V153H69.3883V138.98H73.2883L77.0883 147.32L80.8883 138.98H84.7683V153ZM98.5514 141.8H91.1514V144.58H97.8314V147.38H91.1514V150.2H98.7714V153H87.5914V139H98.5514V141.8ZM113.988 153H110.848L104.408 144.38V153H101.068V139H104.208L110.668 147.64V139H113.988V153ZM127.491 141.86H123.271V153H119.711V141.86H115.531V138.98H127.491V141.86Z" fill="#B9B9B9"/>
<path d="M186 123.5H281C292.874 123.5 302.5 133.126 302.5 145C302.5 156.874 292.874 166.5 281 166.5H186C174.126 166.5 164.5 156.874 164.5 145C164.5 133.311 173.828 123.801 185.445 123.507L186 123.5Z" stroke="url(#paint7_linear_162_695)"/>
<path d="M181.4 139H187.42C191.82 139 194.86 141.84 194.86 146C194.86 150.14 191.78 153 187.28 153H181.4V139ZM184.96 141.84V150.16H187.5C189.68 150.16 191.24 148.48 191.24 146.02C191.24 143.54 189.6 141.84 187.34 141.84H184.96ZM207.692 141.8H200.292V144.58H206.972V147.38H200.292V150.2H207.912V153H196.732V139H207.692V141.8ZM219.509 150.42H213.389L212.369 153H208.709L214.749 139H218.409L224.309 153H220.509L219.509 150.42ZM218.469 147.72L216.469 142.54L214.429 147.72H218.469ZM225.599 139H231.619C236.019 139 239.059 141.84 239.059 146C239.059 150.14 235.979 153 231.479 153H225.599V139ZM229.159 141.84V150.16H231.699C233.879 150.16 235.439 148.48 235.439 146.02C235.439 143.54 233.799 141.84 231.539 141.84H229.159ZM244.491 150.02H250.431V153H240.931V139H244.491V150.02ZM255.683 153H252.123V139H255.683V153ZM271.41 153H268.27L261.83 144.38V153H258.49V139H261.63L268.09 147.64V139H271.41V153ZM285.173 141.8H277.773V144.58H284.453V147.38H277.773V150.2H285.393V153H274.213V139H285.173V141.8Z" fill="#B9B9B9"/>
<path d="M345 123.5H427C438.874 123.5 448.5 133.126 448.5 145C448.5 156.874 438.874 166.5 427 166.5H345C333.126 166.5 323.5 156.874 323.5 145C323.5 133.311 332.828 123.801 344.445 123.507L345 123.5Z" stroke="url(#paint8_linear_162_695)"/>
<path d="M355.78 153H352.64L352.62 143.9L349.26 151.6H346.94L343.58 143.9V153H340.4V138.98H344.3L348.1 147.32L351.9 138.98H355.78V153ZM365.243 138.88C369.583 138.88 372.823 141.92 372.823 145.98C372.823 150.06 369.583 153.16 365.243 153.16C360.923 153.16 357.683 150.08 357.683 145.98C357.683 141.9 360.923 138.88 365.243 138.88ZM365.283 141.86C363.123 141.86 361.323 143.64 361.323 146C361.323 148.36 363.143 150.18 365.283 150.18C367.443 150.18 369.163 148.36 369.163 146C369.163 143.64 367.443 141.86 365.283 141.86ZM390.077 153H386.937L386.917 143.9L383.557 151.6H381.237L377.877 143.9V153H374.697V138.98H378.597L382.397 147.32L386.197 138.98H390.077V153ZM403.86 141.8H396.46V144.58H403.14V147.38H396.46V150.2H404.08V153H392.9V139H403.86V141.8ZM419.297 153H416.157L409.717 144.38V153H406.377V139H409.517L415.977 147.64V139H419.297V153ZM432.799 141.86H428.579V153H425.019V141.86H420.839V138.98H432.799V141.86Z" fill="#B9B9B9"/>
<path d="M13 187.5H106C117.874 187.5 127.5 197.126 127.5 209C127.5 220.874 117.874 230.5 106 230.5H13C1.12588 230.5 -8.5 220.874 -8.5 209C-8.5 197.126 1.12588 187.5 13 187.5Z" stroke="url(#paint9_linear_162_695)"/>
<path d="M11.96 217H8.4V203H11.96V217ZM27.6872 217H24.5472L18.1072 208.38V217H14.7672V203H17.9072L24.3672 211.64V203H27.6872V217ZM35.8698 202.84C37.8898 202.84 39.9498 203.46 41.3898 204.4L40.0498 207.18C38.5698 206.32 36.7098 205.72 35.5698 205.72C34.6498 205.72 34.0298 206.06 34.0298 206.74C34.0298 209.16 41.4298 207.78 41.4298 212.84C41.4298 215.64 38.9498 217.12 35.8298 217.12C33.4898 217.12 31.0898 216.24 29.4298 214.88L30.8098 212.14C32.2498 213.4 34.4098 214.24 35.8698 214.24C36.9898 214.24 37.6898 213.82 37.6898 213.02C37.6898 210.54 30.2898 212.02 30.2898 207.06C30.2898 204.48 32.5098 202.84 35.8698 202.84ZM54.0609 205.86H49.8409V217H46.2809V205.86H42.1009V202.98H54.0609V205.86ZM63.3836 214.42H57.2636L56.2436 217H52.5836L58.6236 203H62.2836L68.1836 217H64.3836L63.3836 214.42ZM62.3436 211.72L60.3436 206.54L58.3036 211.72H62.3436ZM82.3942 217H79.2542L72.8142 208.38V217H69.4742V203H72.6142L79.0742 211.64V203H82.3942V217ZM91.7569 202.88C93.8369 202.88 95.9969 203.8 97.3969 205.24L95.3369 207.68C94.4169 206.56 93.0569 205.86 91.8169 205.86C89.5969 205.86 87.9169 207.62 87.9169 209.92C87.9169 212.26 89.5969 214.04 91.8169 214.04C92.9969 214.04 94.3569 213.4 95.3369 212.4L97.4169 214.6C95.9169 216.14 93.6969 217.16 91.6369 217.16C87.4169 217.16 84.2769 214.06 84.2769 209.96C84.2769 205.92 87.4969 202.88 91.7569 202.88ZM110.005 205.8H102.605V208.58H109.285V211.38H102.605V214.2H110.225V217H99.0445V203H110.005V205.8Z" fill="#B9B9B9"/>
<path d="M170 187.5H282C293.874 187.5 303.5 197.126 303.5 209C303.5 220.874 293.874 230.5 282 230.5H170C158.126 230.5 148.5 220.874 148.5 209C148.5 197.311 157.828 187.801 169.445 187.507L170 187.5Z" stroke="url(#paint10_linear_162_695)"/>
<path d="M176.1 205.86H171.88V217H168.32V205.86H164.14V202.98H176.1V205.86ZM181.187 217H177.627V203H181.187V217ZM199.374 217H196.234L196.214 207.9L192.854 215.6H190.534L187.174 207.9V217H183.994V202.98H187.894L191.694 211.32L195.494 202.98H199.374V217ZM213.157 205.8H205.757V208.58H212.437V211.38H205.757V214.2H213.377V217H202.197V203H213.157V205.8ZM226.053 205.8H219.233V209.04H225.513V211.84H219.233V217H215.673V203H226.053V205.8ZM236.184 217L234.104 213.06H234.004H231.304V217H227.744V203H234.004C237.704 203 239.824 204.76 239.824 207.88C239.824 210.02 238.924 211.56 237.284 212.38L240.224 217H236.184ZM231.304 210.26H234.004C235.544 210.26 236.444 209.48 236.444 208C236.444 206.54 235.544 205.8 234.004 205.8H231.304V210.26ZM251.516 214.42H245.396L244.376 217H240.716L246.756 203H250.416L256.316 217H252.516L251.516 214.42ZM250.476 211.72L248.476 206.54L246.436 211.72H250.476ZM272.987 217H269.847L269.827 207.9L266.467 215.6H264.147L260.787 207.9V217H257.607V202.98H261.507L265.307 211.32L269.107 202.98H272.987V217ZM286.77 205.8H279.37V208.58H286.05V211.38H279.37V214.2H286.99V217H275.81V203H286.77V205.8Z" fill="#B9B9B9"/>
<path d="M346 187.5H446C457.874 187.5 467.5 197.126 467.5 209C467.5 220.874 457.874 230.5 446 230.5H346C334.126 230.5 324.5 220.874 324.5 209C324.5 197.126 334.126 187.5 346 187.5Z" stroke="url(#paint11_linear_162_695)"/>
<path d="M346.78 202.84C348.8 202.84 350.86 203.46 352.3 204.4L350.96 207.18C349.48 206.32 347.62 205.72 346.48 205.72C345.56 205.72 344.94 206.06 344.94 206.74C344.94 209.16 352.34 207.78 352.34 212.84C352.34 215.64 349.86 217.12 346.74 217.12C344.4 217.12 342 216.24 340.34 214.88L341.72 212.14C343.16 213.4 345.32 214.24 346.78 214.24C347.9 214.24 348.6 213.82 348.6 213.02C348.6 210.54 341.2 212.02 341.2 207.06C341.2 204.48 343.42 202.84 346.78 202.84ZM360.831 202.88C362.911 202.88 365.071 203.8 366.471 205.24L364.411 207.68C363.491 206.56 362.131 205.86 360.891 205.86C358.671 205.86 356.991 207.62 356.991 209.92C356.991 212.26 358.671 214.04 360.891 214.04C362.071 214.04 363.431 213.4 364.411 212.4L366.491 214.6C364.991 216.14 362.771 217.16 360.711 217.16C356.491 217.16 353.351 214.06 353.351 209.96C353.351 205.92 356.571 202.88 360.831 202.88ZM381.039 217H377.479V211.56H371.679V217H368.119V203H371.679V208.76H377.479V203H381.039V217ZM394.801 205.8H387.401V208.58H394.081V211.38H387.401V214.2H395.021V217H383.841V203H394.801V205.8ZM397.318 203H403.338C407.738 203 410.778 205.84 410.778 210C410.778 214.14 407.698 217 403.198 217H397.318V203ZM400.878 205.84V214.16H403.418C405.598 214.16 407.158 212.48 407.158 210.02C407.158 207.54 405.518 205.84 403.258 205.84H400.878ZM425.25 203V211.12C425.25 214.82 422.79 217.16 418.87 217.16C414.93 217.16 412.41 214.82 412.41 211.12V203H415.97V211.12C415.97 213.02 417.19 214.18 418.89 214.18C420.57 214.18 421.71 213.02 421.71 211.12V203H425.25ZM431.366 214.02H437.306V217H427.806V203H431.366V214.02ZM449.958 205.8H442.558V208.58H449.238V211.38H442.558V214.2H450.178V217H438.998V203H449.958V205.8Z" fill="#B9B9B9"/>
<path d="M-41 251.5H18C29.8741 251.5 39.5 261.126 39.5 273C39.5 284.874 29.8741 294.5 18 294.5H-41C-52.8741 294.5 -62.5 284.874 -62.5 273C-62.5 261.126 -52.8741 251.5 -41 251.5Z" stroke="url(#paint12_linear_162_695)"/>
<path d="M-45.6 267H-39.5C-35.92 267 -33.86 268.76 -33.86 271.88C-33.86 275.16 -35.92 277.06 -39.5 277.06H-42.04V281H-45.6V267ZM-42.04 269.8V274.26H-39.68C-38.12 274.26 -37.22 273.48 -37.22 272C-37.22 270.54 -38.12 269.8 -39.68 269.8H-42.04ZM-19.0862 281H-22.6462V275.56H-28.4462V281H-32.0062V267H-28.4462V272.76H-22.6462V267H-19.0862V281ZM-6.98359 278.42H-13.1036L-14.1236 281H-17.7836L-11.7436 267H-8.08359L-2.18359 281H-5.98359L-6.98359 278.42ZM-8.02359 275.72L-10.0236 270.54L-12.0636 275.72H-8.02359ZM4.42844 266.84C6.44844 266.84 8.50844 267.46 9.94844 268.4L8.60844 271.18C7.12844 270.32 5.26844 269.72 4.12844 269.72C3.20844 269.72 2.58844 270.06 2.58844 270.74C2.58844 273.16 9.98844 271.78 9.98844 276.84C9.98844 279.64 7.50844 281.12 4.38844 281.12C2.04844 281.12 -0.351562 280.24 -2.01156 278.88L-0.631562 276.14C0.808438 277.4 2.96844 278.24 4.42844 278.24C5.54844 278.24 6.24844 277.82 6.24844 277.02C6.24844 274.54 -1.15156 276.02 -1.15156 271.06C-1.15156 268.48 1.06844 266.84 4.42844 266.84ZM22.8795 269.8H15.4795V272.58H22.1595V275.38H15.4795V278.2H23.0995V281H11.9195V267H22.8795V269.8Z" fill="#B9B9B9"/>
<path d="M82 251.5H122C133.874 251.5 143.5 261.126 143.5 273C143.5 284.874 133.874 294.5 122 294.5H82C70.1259 294.5 60.5 284.874 60.5 273C60.5 261.126 70.1259 251.5 82 251.5Z" stroke="url(#paint13_linear_162_695)"/>
<path d="M82.78 266.84C84.8 266.84 86.86 267.46 88.3 268.4L86.96 271.18C85.48 270.32 83.62 269.72 82.48 269.72C81.56 269.72 80.94 270.06 80.94 270.74C80.94 273.16 88.34 271.78 88.34 276.84C88.34 279.64 85.86 281.12 82.74 281.12C80.4 281.12 78 280.24 76.34 278.88L77.72 276.14C79.16 277.4 81.32 278.24 82.78 278.24C83.9 278.24 84.6 277.82 84.6 277.02C84.6 274.54 77.2 276.02 77.2 271.06C77.2 268.48 79.42 266.84 82.78 266.84ZM93.8311 278.02H99.7711V281H90.2711V267H93.8311V278.02ZM108.103 266.88C112.443 266.88 115.683 269.92 115.683 273.98C115.683 278.06 112.443 281.16 108.103 281.16C103.783 281.16 100.543 278.08 100.543 273.98C100.543 269.9 103.783 266.88 108.103 266.88ZM108.143 269.86C105.983 269.86 104.183 271.64 104.183 274C104.183 276.36 106.003 278.18 108.143 278.18C110.303 278.18 112.023 276.36 112.023 274C112.023 271.64 110.303 269.86 108.143 269.86ZM127.788 269.86H123.568V281H120.008V269.86H115.828V266.98H127.788V269.86Z" fill="#B9B9B9"/>
<path d="M186 251.5H248C259.874 251.5 269.5 261.126 269.5 273C269.5 284.874 259.874 294.5 248 294.5H186C174.126 294.5 164.5 284.874 164.5 273C164.5 261.311 173.828 251.801 185.445 251.507L186 251.5Z" stroke="url(#paint14_linear_162_695)"/>
<path d="M192.1 269.86H187.88V281H184.32V269.86H180.14V266.98H192.1V269.86ZM197.187 281H193.627V267H197.187V281ZM215.374 281H212.234L212.214 271.9L208.854 279.6H206.534L203.174 271.9V281H199.994V266.98H203.894L207.694 275.32L211.494 266.98H215.374V281ZM221.757 281H218.197V267H221.757V281ZM237.484 281H234.344L227.904 272.38V281H224.564V267H227.704L234.164 275.64V267H237.484V281ZM249.587 273.88H252.667V279.34C251.167 280.4 248.807 281.16 246.847 281.16C242.587 281.16 239.367 278.08 239.367 274C239.367 269.94 242.667 266.88 247.087 266.88C249.167 266.88 251.367 267.68 252.807 268.96L250.807 271.38C249.787 270.44 248.367 269.86 247.067 269.86C244.767 269.86 243.007 271.66 243.007 274C243.007 276.38 244.787 278.18 247.107 278.18C247.827 278.18 248.747 277.92 249.587 277.5V273.88Z" fill="#B9B9B9"/>
<path d="M312 251.5H421C432.874 251.5 442.5 261.126 442.5 273C442.5 284.874 432.874 294.5 421 294.5H312C300.126 294.5 290.5 284.874 290.5 273C290.5 261.126 300.126 251.5 312 251.5Z" stroke="url(#paint15_linear_162_695)"/>
<path d="M313.96 266.88C316.04 266.88 318.2 267.8 319.6 269.24L317.54 271.68C316.62 270.56 315.26 269.86 314.02 269.86C311.8 269.86 310.12 271.62 310.12 273.92C310.12 276.26 311.8 278.04 314.02 278.04C315.2 278.04 316.56 277.4 317.54 276.4L319.62 278.6C318.12 280.14 315.9 281.16 313.84 281.16C309.62 281.16 306.48 278.06 306.48 273.96C306.48 269.92 309.7 266.88 313.96 266.88ZM334.168 281H330.608V275.56H324.808V281H321.248V267H324.808V272.76H330.608V267H334.168V281ZM345.41 281L343.33 277.06H343.23H340.53V281H336.97V267H343.23C346.93 267 349.05 268.76 349.05 271.88C349.05 274.02 348.15 275.56 346.51 276.38L349.45 281H345.41ZM340.53 274.26H343.23C344.77 274.26 345.67 273.48 345.67 272C345.67 270.54 344.77 269.8 343.23 269.8H340.53V274.26ZM358.083 266.88C362.423 266.88 365.663 269.92 365.663 273.98C365.663 278.06 362.423 281.16 358.083 281.16C353.763 281.16 350.523 278.08 350.523 273.98C350.523 269.9 353.763 266.88 358.083 266.88ZM358.123 269.86C355.963 269.86 354.163 271.64 354.163 274C354.163 276.36 355.983 278.18 358.123 278.18C360.283 278.18 362.003 276.36 362.003 274C362.003 271.64 360.283 269.86 358.123 269.86ZM380.457 281H377.317L370.877 272.38V281H367.537V267H370.677L377.137 275.64V267H380.457V281ZM386.819 281H383.259V267H386.819V281ZM396.187 266.88C398.267 266.88 400.427 267.8 401.827 269.24L399.767 271.68C398.847 270.56 397.487 269.86 396.247 269.86C394.027 269.86 392.347 271.62 392.347 273.92C392.347 276.26 394.027 278.04 396.247 278.04C397.427 278.04 398.787 277.4 399.767 276.4L401.847 278.6C400.347 280.14 398.127 281.16 396.067 281.16C391.847 281.16 388.707 278.06 388.707 273.96C388.707 269.92 391.927 266.88 396.187 266.88ZM407.034 278.02H412.974V281H403.474V267H407.034V278.02ZM425.626 269.8H418.226V272.58H424.906V275.38H418.226V278.2H425.846V281H414.666V267H425.626V269.8Z" fill="#B9B9B9"/>
<path d="M-18 315.5H50C61.8741 315.5 71.5 325.126 71.5 337C71.5 348.874 61.8741 358.5 50 358.5H-18C-29.8741 358.5 -39.5 348.874 -39.5 337C-39.5 325.126 -29.8741 315.5 -18 315.5Z" stroke="url(#paint16_linear_162_695)"/>
<path d="M-22.6 331H-16.5C-12.92 331 -10.86 332.76 -10.86 335.88C-10.86 339.16 -12.92 341.06 -16.5 341.06H-19.04V345H-22.6V331ZM-19.04 333.8V338.26H-16.68C-15.12 338.26 -14.22 337.48 -14.22 336C-14.22 334.54 -15.12 333.8 -16.68 333.8H-19.04ZM1.95375 333.8H-5.44625V336.58H1.23375V339.38H-5.44625V342.2H2.17375V345H-9.00625V331H1.95375V333.8ZM12.9103 345L10.8303 341.06H10.7303H8.03031V345H4.47031V331H10.7303C14.4303 331 16.5503 332.76 16.5503 335.88C16.5503 338.02 15.6503 339.56 14.0103 340.38L16.9503 345H12.9103ZM8.03031 338.26H10.7303C12.2703 338.26 13.1703 337.48 13.1703 336C13.1703 334.54 12.2703 333.8 10.7303 333.8H8.03031V338.26ZM22.503 345H18.943V331H22.503V345ZM31.9502 330.88C36.2902 330.88 39.5302 333.92 39.5302 337.98C39.5302 342.06 36.2902 345.16 31.9502 345.16C27.6302 345.16 24.3902 342.08 24.3902 337.98C24.3902 333.9 27.6302 330.88 31.9502 330.88ZM31.9902 333.86C29.8302 333.86 28.0302 335.64 28.0302 338C28.0302 340.36 29.8502 342.18 31.9902 342.18C34.1502 342.18 35.8702 340.36 35.8702 338C35.8702 335.64 34.1502 333.86 31.9902 333.86ZM41.4039 331H47.4239C51.8239 331 54.8639 333.84 54.8639 338C54.8639 342.14 51.7839 345 47.2839 345H41.4039V331ZM44.9639 333.84V342.16H47.5039C49.6839 342.16 51.2439 340.48 51.2439 338.02C51.2439 335.54 49.6039 333.84 47.3439 333.84H44.9639Z" fill="#B9B9B9"/>
<path d="M114 315.5H172C183.874 315.5 193.5 325.126 193.5 337C193.5 348.874 183.874 358.5 172 358.5H114C102.126 358.5 92.5 348.874 92.5 337C92.5 325.311 101.828 315.801 113.445 315.507L114 315.5Z" stroke="url(#paint17_linear_162_695)"/>
<path d="M120.36 333.8H112.96V336.58H119.64V339.38H112.96V342.2H120.58V345H109.4V331H120.36V333.8ZM130.577 345H126.897L121.457 331H125.257L128.837 341.3L132.417 331H136.077L130.577 345ZM148.407 333.8H141.007V336.58H147.687V339.38H141.007V342.2H148.627V345H137.447V331H148.407V333.8ZM163.843 345H160.703L154.263 336.38V345H150.923V331H154.063L160.523 339.64V331H163.843V345ZM177.346 333.86H173.126V345H169.566V333.86H165.386V330.98H177.346V333.86Z" fill="#B9B9B9"/>
<path d="M236 315.5H336C347.874 315.5 357.5 325.126 357.5 337C357.5 348.874 347.874 358.5 336 358.5H236C224.126 358.5 214.5 348.874 214.5 337C214.5 325.126 224.126 315.5 236 315.5Z" stroke="url(#paint18_linear_162_695)"/>
<path d="M236.78 330.84C238.8 330.84 240.86 331.46 242.3 332.4L240.96 335.18C239.48 334.32 237.62 333.72 236.48 333.72C235.56 333.72 234.94 334.06 234.94 334.74C234.94 337.16 242.34 335.78 242.34 340.84C242.34 343.64 239.86 345.12 236.74 345.12C234.4 345.12 232 344.24 230.34 342.88L231.72 340.14C233.16 341.4 235.32 342.24 236.78 342.24C237.9 342.24 238.6 341.82 238.6 341.02C238.6 338.54 231.2 340.02 231.2 335.06C231.2 332.48 233.42 330.84 236.78 330.84ZM250.831 330.88C252.911 330.88 255.071 331.8 256.471 333.24L254.411 335.68C253.491 334.56 252.131 333.86 250.891 333.86C248.671 333.86 246.991 335.62 246.991 337.92C246.991 340.26 248.671 342.04 250.891 342.04C252.071 342.04 253.431 341.4 254.411 340.4L256.491 342.6C254.991 344.14 252.771 345.16 250.711 345.16C246.491 345.16 243.351 342.06 243.351 337.96C243.351 333.92 246.571 330.88 250.831 330.88ZM271.039 345H267.479V339.56H261.679V345H258.119V331H261.679V336.76H267.479V331H271.039V345ZM284.801 333.8H277.401V336.58H284.081V339.38H277.401V342.2H285.021V345H273.841V331H284.801V333.8ZM287.318 331H293.338C297.738 331 300.778 333.84 300.778 338C300.778 342.14 297.698 345 293.198 345H287.318V331ZM290.878 333.84V342.16H293.418C295.598 342.16 297.158 340.48 297.158 338.02C297.158 335.54 295.518 333.84 293.258 333.84H290.878ZM315.25 331V339.12C315.25 342.82 312.79 345.16 308.87 345.16C304.93 345.16 302.41 342.82 302.41 339.12V331H305.97V339.12C305.97 341.02 307.19 342.18 308.89 342.18C310.57 342.18 311.71 341.02 311.71 339.12V331H315.25ZM321.366 342.02H327.306V345H317.806V331H321.366V342.02ZM339.958 333.8H332.558V336.58H339.238V339.38H332.558V342.2H340.178V345H328.998V331H339.958V333.8Z" fill="#B9B9B9"/>
<path d="M-11 386.5H92C103.874 386.5 113.5 396.126 113.5 408C113.5 419.874 103.874 429.5 92 429.5H-11C-22.8741 429.5 -32.5 419.874 -32.5 408C-32.5 396.126 -22.8741 386.5 -11 386.5Z" stroke="url(#paint19_linear_162_695)"/>
<path d="M-10.22 401.84C-8.2 401.84 -6.14 402.46 -4.7 403.4L-6.04 406.18C-7.52 405.32 -9.38 404.72 -10.52 404.72C-11.44 404.72 -12.06 405.06 -12.06 405.74C-12.06 408.16 -4.66 406.78 -4.66 411.84C-4.66 414.64 -7.14 416.12 -10.26 416.12C-12.6 416.12 -15 415.24 -16.66 413.88L-15.28 411.14C-13.84 412.4 -11.68 413.24 -10.22 413.24C-9.1 413.24 -8.4 412.82 -8.4 412.02C-8.4 409.54 -15.8 411.02 -15.8 406.06C-15.8 403.48 -13.58 401.84 -10.22 401.84ZM8.23109 404.8H0.831094V407.58H7.51109V410.38H0.831094V413.2H8.45109V416H-2.72891V402H8.23109V404.8ZM24.4077 415.56L25.6677 417.76C24.5877 418.72 23.0077 419.3 21.6077 419.3C19.6677 419.3 18.0277 418.1 17.1077 416.16C12.9277 416.02 9.82766 413 9.82766 408.98C9.82766 404.9 13.0677 401.88 17.3877 401.88C21.7277 401.88 24.9677 404.92 24.9677 408.98C24.9677 412.08 23.1077 414.62 20.3077 415.66C20.7877 416.26 21.3677 416.62 22.0077 416.62C22.6477 416.62 23.5477 416.22 24.4077 415.56ZM13.4677 409C13.4677 411.36 15.2877 413.18 17.4277 413.18C19.5877 413.18 21.3077 411.36 21.3077 409C21.3077 406.64 19.5877 404.86 17.4277 404.86C15.2677 404.86 13.4677 406.64 13.4677 409ZM39.5391 402V410.12C39.5391 413.82 37.0791 416.16 33.1591 416.16C29.2191 416.16 26.6991 413.82 26.6991 410.12V402H30.2591V410.12C30.2591 412.02 31.4791 413.18 33.1791 413.18C34.8591 413.18 35.9991 412.02 35.9991 410.12V402H39.5391ZM53.0553 404.8H45.6553V407.58H52.3353V410.38H45.6553V413.2H53.2753V416H42.0953V402H53.0553V404.8ZM68.4919 416H65.3519L58.9119 407.38V416H55.5719V402H58.7119L65.1719 410.64V402H68.4919V416ZM77.8545 401.88C79.9345 401.88 82.0945 402.8 83.4945 404.24L81.4345 406.68C80.5145 405.56 79.1545 404.86 77.9145 404.86C75.6945 404.86 74.0145 406.62 74.0145 408.92C74.0145 411.26 75.6945 413.04 77.9145 413.04C79.0945 413.04 80.4545 412.4 81.4345 411.4L83.5145 413.6C82.0145 415.14 79.7945 416.16 77.7345 416.16C73.5145 416.16 70.3745 413.06 70.3745 408.96C70.3745 404.92 73.5945 401.88 77.8545 401.88ZM96.1022 404.8H88.7022V407.58H95.3822V410.38H88.7022V413.2H96.3222V416H85.1422V402H96.1022V404.8Z" fill="#B9B9B9"/>
<g filter="url(#filter0_d_162_695)">
<path d="M163 379.5H202C217.74 379.5 230.5 392.26 230.5 408C230.5 423.74 217.74 436.5 202 436.5H163C147.26 436.5 134.5 423.74 134.5 408C134.5 392.26 147.26 379.5 163 379.5Z" stroke="url(#paint20_linear_162_695)" shape-rendering="crispEdges"/>
<g filter="url(#filter1_d_162_695)">
<path d="M167.12 409.608H172.048V418.344C169.648 420.04 165.872 421.256 162.736 421.256C155.92 421.256 150.768 416.328 150.768 409.8C150.768 403.304 156.048 398.408 163.12 398.408C166.448 398.408 169.968 399.688 172.272 401.736L169.072 405.608C167.44 404.104 165.168 403.176 163.088 403.176C159.408 403.176 156.592 406.056 156.592 409.8C156.592 413.608 159.44 416.488 163.152 416.488C164.304 416.488 165.776 416.072 167.12 415.4V409.608ZM193.557 403.08H181.717V407.528H192.405V412.008H181.717V416.52H193.909V421H176.021V398.6H193.557V403.08ZM214.704 403.176H207.952V421H202.256V403.176H195.568V398.568H214.704V403.176Z" fill="white"/>
</g>
</g>
<path d="M273 386.5H332C343.874 386.5 353.5 396.126 353.5 408C353.5 419.874 343.874 429.5 332 429.5H273C261.126 429.5 251.5 419.874 251.5 408C251.5 396.126 261.126 386.5 273 386.5Z" stroke="url(#paint21_linear_162_695)"/>
<path d="M268.4 402H274.5C278.08 402 280.14 403.76 280.14 406.88C280.14 410.16 278.08 412.06 274.5 412.06H271.96V416H268.4V402ZM271.96 404.8V409.26H274.32C275.88 409.26 276.78 408.48 276.78 407C276.78 405.54 275.88 404.8 274.32 404.8H271.96ZM294.914 416H291.354V410.56H285.554V416H281.994V402H285.554V407.76H291.354V402H294.914V416ZM307.016 413.42H300.896L299.876 416H296.216L302.256 402H305.916L311.816 416H308.016L307.016 413.42ZM305.976 410.72L303.976 405.54L301.936 410.72H305.976ZM318.428 401.84C320.448 401.84 322.508 402.46 323.948 403.4L322.608 406.18C321.128 405.32 319.268 404.72 318.128 404.72C317.208 404.72 316.588 405.06 316.588 405.74C316.588 408.16 323.988 406.78 323.988 411.84C323.988 414.64 321.508 416.12 318.388 416.12C316.048 416.12 313.648 415.24 311.988 413.88L313.368 411.14C314.808 412.4 316.968 413.24 318.428 413.24C319.548 413.24 320.248 412.82 320.248 412.02C320.248 409.54 312.848 411.02 312.848 406.06C312.848 403.48 315.068 401.84 318.428 401.84ZM336.88 404.8H329.48V407.58H336.16V410.38H329.48V413.2H337.1V416H325.92V402H336.88V404.8Z" fill="#B9B9B9"/>
<path d="M396 386.5H436C447.874 386.5 457.5 396.126 457.5 408C457.5 419.874 447.874 429.5 436 429.5H396C384.126 429.5 374.5 419.874 374.5 408C374.5 396.126 384.126 386.5 396 386.5Z" stroke="url(#paint22_linear_162_695)"/>
<path d="M-63 457.5H28C39.8741 457.5 49.5 467.126 49.5 479C49.5 490.874 39.8741 500.5 28 500.5H-63C-74.8741 500.5 -84.5 490.874 -84.5 479C-84.5 467.126 -74.8741 457.5 -63 457.5Z" stroke="url(#paint23_linear_162_695)"/>
<path d="M-64.04 487H-67.6V473H-64.04V487ZM-48.3128 487H-51.4528L-57.8928 478.38V487H-61.2328V473H-58.0928L-51.6328 481.64V473H-48.3128V487ZM-34.8102 475.86H-39.0302V487H-42.5902V475.86H-46.7702V472.98H-34.8102V475.86ZM-22.3236 475.8H-29.7236V478.58H-23.0436V481.38H-29.7236V484.2H-22.1036V487H-33.2836V473H-22.3236V475.8ZM-11.367 487L-13.447 483.06H-13.547H-16.247V487H-19.807V473H-13.547C-9.84703 473 -7.72703 474.76 -7.72703 477.88C-7.72703 480.02 -8.62703 481.56 -10.267 482.38L-7.32703 487H-11.367ZM-16.247 480.26H-13.547C-12.007 480.26 -11.107 479.48 -11.107 478C-11.107 476.54 -12.007 475.8 -13.547 475.8H-16.247V480.26ZM2.22891 487H-1.45109L-6.89109 473H-3.09109L0.488907 483.3L4.06891 473H7.72891L2.22891 487ZM17.325 484.42H11.205L10.185 487H6.525L12.565 473H16.225L22.125 487H18.325L17.325 484.42ZM16.285 481.72L14.285 476.54L12.245 481.72H16.285ZM26.9756 484.02H32.9156V487H23.4156V473H26.9756V484.02Z" fill="#B9B9B9"/>
<path d="M92 457.5H171C182.874 457.5 192.5 467.126 192.5 479C192.5 490.874 182.874 500.5 171 500.5H92C80.1259 500.5 70.5 490.874 70.5 479C70.5 467.126 80.1259 457.5 92 457.5Z" stroke="url(#paint24_linear_162_695)"/>
<path d="M92.78 472.84C94.8 472.84 96.86 473.46 98.3 474.4L96.96 477.18C95.48 476.32 93.62 475.72 92.48 475.72C91.56 475.72 90.94 476.06 90.94 476.74C90.94 479.16 98.34 477.78 98.34 482.84C98.34 485.64 95.86 487.12 92.74 487.12C90.4 487.12 88 486.24 86.34 484.88L87.72 482.14C89.16 483.4 91.32 484.24 92.78 484.24C93.9 484.24 94.6 483.82 94.6 483.02C94.6 480.54 87.2 482.02 87.2 477.06C87.2 474.48 89.42 472.84 92.78 472.84ZM111.231 475.8H103.831V478.58H110.511V481.38H103.831V484.2H111.451V487H100.271V473H111.231V475.8ZM119.128 472.84C121.148 472.84 123.208 473.46 124.648 474.4L123.308 477.18C121.828 476.32 119.968 475.72 118.828 475.72C117.908 475.72 117.288 476.06 117.288 476.74C117.288 479.16 124.688 477.78 124.688 482.84C124.688 485.64 122.208 487.12 119.088 487.12C116.748 487.12 114.348 486.24 112.688 484.88L114.068 482.14C115.508 483.4 117.668 484.24 119.128 484.24C120.248 484.24 120.948 483.82 120.948 483.02C120.948 480.54 113.548 482.02 113.548 477.06C113.548 474.48 115.768 472.84 119.128 472.84ZM131.999 472.84C134.019 472.84 136.079 473.46 137.519 474.4L136.179 477.18C134.699 476.32 132.839 475.72 131.699 475.72C130.779 475.72 130.159 476.06 130.159 476.74C130.159 479.16 137.559 477.78 137.559 482.84C137.559 485.64 135.079 487.12 131.959 487.12C129.619 487.12 127.219 486.24 125.559 484.88L126.939 482.14C128.379 483.4 130.539 484.24 131.999 484.24C133.119 484.24 133.819 483.82 133.819 483.02C133.819 480.54 126.419 482.02 126.419 477.06C126.419 474.48 128.639 472.84 131.999 472.84ZM143.05 487H139.49V473H143.05V487ZM152.497 472.88C156.837 472.88 160.077 475.92 160.077 479.98C160.077 484.06 156.837 487.16 152.497 487.16C148.177 487.16 144.937 484.08 144.937 479.98C144.937 475.9 148.177 472.88 152.497 472.88ZM152.537 475.86C150.377 475.86 148.577 477.64 148.577 480C148.577 482.36 150.397 484.18 152.537 484.18C154.697 484.18 156.417 482.36 156.417 480C156.417 477.64 154.697 475.86 152.537 475.86ZM174.871 487H171.731L165.291 478.38V487H161.951V473H165.091L171.551 481.64V473H174.871V487Z" fill="#B9B9B9"/>
<path d="M235 457.5H376C387.874 457.5 397.5 467.126 397.5 479C397.5 490.874 387.874 500.5 376 500.5H235C223.126 500.5 213.5 490.874 213.5 479C213.5 467.126 223.126 457.5 235 457.5Z" stroke="url(#paint25_linear_162_695)"/>
<path d="M239.7 484.42H233.58L232.56 487H228.9L234.94 473H238.6L244.5 487H240.7L239.7 484.42ZM238.66 481.72L236.66 476.54L234.62 481.72H238.66ZM245.791 473H251.891C255.471 473 257.531 474.76 257.531 477.88C257.531 481.16 255.471 483.06 251.891 483.06H249.351V487H245.791V473ZM249.351 475.8V480.26H251.711C253.271 480.26 254.171 479.48 254.171 478C254.171 476.54 253.271 475.8 251.711 475.8H249.351ZM259.384 473H265.484C269.064 473 271.124 474.76 271.124 477.88C271.124 481.16 269.064 483.06 265.484 483.06H262.944V487H259.384V473ZM262.944 475.8V480.26H265.304C266.864 480.26 267.764 479.48 267.764 478C267.764 476.54 266.864 475.8 265.304 475.8H262.944ZM279.618 472.88C283.958 472.88 287.198 475.92 287.198 479.98C287.198 484.06 283.958 487.16 279.618 487.16C275.298 487.16 272.058 484.08 272.058 479.98C272.058 475.9 275.298 472.88 279.618 472.88ZM279.658 475.86C277.498 475.86 275.698 477.64 275.698 480C275.698 482.36 277.518 484.18 279.658 484.18C281.818 484.18 283.538 482.36 283.538 480C283.538 477.64 281.818 475.86 279.658 475.86ZM292.632 487H289.072V473H292.632V487ZM308.359 487H305.219L298.779 478.38V487H295.439V473H298.579L305.039 481.64V473H308.359V487ZM321.862 475.86H317.642V487H314.082V475.86H309.902V472.98H321.862V475.86ZM338.768 487H335.628L335.608 477.9L332.248 485.6H329.928L326.568 477.9V487H323.388V472.98H327.288L331.088 481.32L334.888 472.98H338.768V487ZM352.551 475.8H345.151V478.58H351.831V481.38H345.151V484.2H352.771V487H341.591V473H352.551V475.8ZM367.988 487H364.848L358.408 478.38V487H355.068V473H358.208L364.668 481.64V473H367.988V487ZM381.491 475.86H377.271V487H373.711V475.86H369.531V472.98H381.491V475.86Z" fill="#B9B9B9"/>
<path d="M-59 521.5H-16C-4.12588 521.5 5.5 531.126 5.5 543C5.5 554.874 -4.12588 564.5 -16 564.5H-59C-70.8741 564.5 -80.5 554.874 -80.5 543C-80.5 531.126 -70.8741 521.5 -59 521.5Z" stroke="url(#paint26_linear_162_695)"/>
<path d="M48 521.5H116C127.874 521.5 137.5 531.126 137.5 543C137.5 554.874 127.874 564.5 116 564.5H48C36.1259 564.5 26.5 554.874 26.5 543C26.5 531.126 36.1259 521.5 48 521.5Z" stroke="url(#paint27_linear_162_695)"/>
<path d="M43.4 537H49.5C53.08 537 55.14 538.76 55.14 541.88C55.14 545.16 53.08 547.06 49.5 547.06H46.96V551H43.4V537ZM46.96 539.8V544.26H49.32C50.88 544.26 51.78 543.48 51.78 542C51.78 540.54 50.88 539.8 49.32 539.8H46.96ZM67.9538 539.8H60.5538V542.58H67.2338V545.38H60.5538V548.2H68.1738V551H56.9938V537H67.9538V539.8ZM78.9103 551L76.8303 547.06H76.7303H74.0303V551H70.4703V537H76.7303C80.4303 537 82.5503 538.76 82.5503 541.88C82.5503 544.02 81.6503 545.56 80.0103 546.38L82.9503 551H78.9103ZM74.0303 544.26H76.7303C78.2703 544.26 79.1703 543.48 79.1703 542C79.1703 540.54 78.2703 539.8 76.7303 539.8H74.0303V544.26ZM88.503 551H84.943V537H88.503V551ZM97.9502 536.88C102.29 536.88 105.53 539.92 105.53 543.98C105.53 548.06 102.29 551.16 97.9502 551.16C93.6302 551.16 90.3902 548.08 90.3902 543.98C90.3902 539.9 93.6302 536.88 97.9502 536.88ZM97.9902 539.86C95.8302 539.86 94.0302 541.64 94.0302 544C94.0302 546.36 95.8502 548.18 97.9902 548.18C100.15 548.18 101.87 546.36 101.87 544C101.87 541.64 100.15 539.86 97.9902 539.86ZM107.404 537H113.424C117.824 537 120.864 539.84 120.864 544C120.864 548.14 117.784 551 113.284 551H107.404V537ZM110.964 539.84V548.16H113.504C115.684 548.16 117.244 546.48 117.244 544.02C117.244 541.54 115.604 539.84 113.344 539.84H110.964Z" fill="#B9B9B9"/>
<path d="M180 521.5H273C284.874 521.5 294.5 531.126 294.5 543C294.5 554.874 284.874 564.5 273 564.5H180C168.126 564.5 158.5 554.874 158.5 543C158.5 531.126 168.126 521.5 180 521.5Z" stroke="url(#paint28_linear_162_695)"/>
<path d="M178.96 551H175.4V537H178.96V551ZM194.687 551H191.547L185.107 542.38V551H181.767V537H184.907L191.367 545.64V537H194.687V551ZM202.87 536.84C204.89 536.84 206.95 537.46 208.39 538.4L207.05 541.18C205.57 540.32 203.71 539.72 202.57 539.72C201.65 539.72 201.03 540.06 201.03 540.74C201.03 543.16 208.43 541.78 208.43 546.84C208.43 549.64 205.95 551.12 202.83 551.12C200.49 551.12 198.09 550.24 196.43 548.88L197.81 546.14C199.25 547.4 201.41 548.24 202.87 548.24C203.99 548.24 204.69 547.82 204.69 547.02C204.69 544.54 197.29 546.02 197.29 541.06C197.29 538.48 199.51 536.84 202.87 536.84ZM221.061 539.86H216.841V551H213.281V539.86H209.101V536.98H221.061V539.86ZM230.384 548.42H224.264L223.244 551H219.584L225.624 537H229.284L235.184 551H231.384L230.384 548.42ZM229.344 545.72L227.344 540.54L225.304 545.72H229.344ZM249.394 551H246.254L239.814 542.38V551H236.474V537H239.614L246.074 545.64V537H249.394V551ZM258.757 536.88C260.837 536.88 262.997 537.8 264.397 539.24L262.337 541.68C261.417 540.56 260.057 539.86 258.817 539.86C256.597 539.86 254.917 541.62 254.917 543.92C254.917 546.26 256.597 548.04 258.817 548.04C259.997 548.04 261.357 547.4 262.337 546.4L264.417 548.6C262.917 550.14 260.697 551.16 258.637 551.16C254.417 551.16 251.277 548.06 251.277 543.96C251.277 539.92 254.497 536.88 258.757 536.88ZM277.005 539.8H269.605V542.58H276.285V545.38H269.605V548.2H277.225V551H266.045V537H277.005V539.8Z" fill="#B9B9B9"/>
<path d="M337 521.5H449C460.874 521.5 470.5 531.126 470.5 543C470.5 554.874 460.874 564.5 449 564.5H337C325.126 564.5 315.5 554.874 315.5 543C315.5 531.311 324.828 521.801 336.445 521.507L337 521.5Z" stroke="url(#paint29_linear_162_695)"/>
<path d="M343.1 539.86H338.88V551H335.32V539.86H331.14V536.98H343.1V539.86ZM348.187 551H344.627V537H348.187V551ZM366.374 551H363.234L363.214 541.9L359.854 549.6H357.534L354.174 541.9V551H350.994V536.98H354.894L358.694 545.32L362.494 536.98H366.374V551ZM380.157 539.8H372.757V542.58H379.437V545.38H372.757V548.2H380.377V551H369.197V537H380.157V539.8ZM393.053 539.8H386.233V543.04H392.513V545.84H386.233V551H382.673V537H393.053V539.8ZM403.184 551L401.104 547.06H401.004H398.304V551H394.744V537H401.004C404.704 537 406.824 538.76 406.824 541.88C406.824 544.02 405.924 545.56 404.284 546.38L407.224 551H403.184ZM398.304 544.26H401.004C402.544 544.26 403.444 543.48 403.444 542C403.444 540.54 402.544 539.8 401.004 539.8H398.304V544.26ZM418.516 548.42H412.396L411.376 551H407.716L413.756 537H417.416L423.316 551H419.516L418.516 548.42ZM417.476 545.72L415.476 540.54L413.436 545.72H417.476ZM439.987 551H436.847L436.827 541.9L433.467 549.6H431.147L427.787 541.9V551H424.607V536.98H428.507L432.307 545.32L436.107 536.98H439.987V551ZM453.77 539.8H446.37V542.58H453.05V545.38H446.37V548.2H453.99V551H442.81V537H453.77V539.8Z" fill="#B9B9B9"/>
<path d="M-42 585.5H16C27.8741 585.5 37.5 595.126 37.5 607C37.5 618.874 27.8741 628.5 16 628.5H-42C-53.8741 628.5 -63.5 618.874 -63.5 607C-63.5 595.311 -54.1725 585.801 -42.5547 585.507L-42 585.5Z" stroke="url(#paint30_linear_162_695)"/>
<path d="M-35.64 603.8H-43.04V606.58H-36.36V609.38H-43.04V612.2H-35.42V615H-46.6V601H-35.64V603.8ZM-25.4234 615H-29.1034L-34.5434 601H-30.7434L-27.1634 611.3L-23.5834 601H-19.9234L-25.4234 615ZM-7.59312 603.8H-14.9931V606.58H-8.31312V609.38H-14.9931V612.2H-7.37312V615H-18.5531V601H-7.59312V603.8ZM7.84344 615H4.70344L-1.73656 606.38V615H-5.07656V601H-1.93656L4.52344 609.64V601H7.84344V615ZM21.3461 603.86H17.1261V615H13.5661V603.86H9.38609V600.98H21.3461V603.86Z" fill="#B9B9B9"/>
<path d="M80 585.5H180C191.874 585.5 201.5 595.126 201.5 607C201.5 618.874 191.874 628.5 180 628.5H80C68.1259 628.5 58.5 618.874 58.5 607C58.5 595.126 68.1259 585.5 80 585.5Z" stroke="url(#paint31_linear_162_695)"/>
<path d="M80.78 600.84C82.8 600.84 84.86 601.46 86.3 602.4L84.96 605.18C83.48 604.32 81.62 603.72 80.48 603.72C79.56 603.72 78.94 604.06 78.94 604.74C78.94 607.16 86.34 605.78 86.34 610.84C86.34 613.64 83.86 615.12 80.74 615.12C78.4 615.12 76 614.24 74.34 612.88L75.72 610.14C77.16 611.4 79.32 612.24 80.78 612.24C81.9 612.24 82.6 611.82 82.6 611.02C82.6 608.54 75.2 610.02 75.2 605.06C75.2 602.48 77.42 600.84 80.78 600.84ZM94.8311 600.88C96.9111 600.88 99.0711 601.8 100.471 603.24L98.4111 605.68C97.4911 604.56 96.1311 603.86 94.8911 603.86C92.6711 603.86 90.9911 605.62 90.9911 607.92C90.9911 610.26 92.6711 612.04 94.8911 612.04C96.0711 612.04 97.4311 611.4 98.4111 610.4L100.491 612.6C98.9911 614.14 96.7711 615.16 94.7111 615.16C90.4911 615.16 87.3511 612.06 87.3511 607.96C87.3511 603.92 90.5711 600.88 94.8311 600.88ZM115.039 615H111.479V609.56H105.679V615H102.119V601H105.679V606.76H111.479V601H115.039V615ZM128.801 603.8H121.401V606.58H128.081V609.38H121.401V612.2H129.021V615H117.841V601H128.801V603.8ZM131.318 601H137.338C141.738 601 144.778 603.84 144.778 608C144.778 612.14 141.698 615 137.198 615H131.318V601ZM134.878 603.84V612.16H137.418C139.598 612.16 141.158 610.48 141.158 608.02C141.158 605.54 139.518 603.84 137.258 603.84H134.878ZM159.25 601V609.12C159.25 612.82 156.79 615.16 152.87 615.16C148.93 615.16 146.41 612.82 146.41 609.12V601H149.97V609.12C149.97 611.02 151.19 612.18 152.89 612.18C154.57 612.18 155.71 611.02 155.71 609.12V601H159.25ZM165.366 612.02H171.306V615H161.806V601H165.366V612.02ZM183.958 603.8H176.558V606.58H183.238V609.38H176.558V612.2H184.178V615H172.998V601H183.958V603.8Z" fill="#B9B9B9"/>
<path d="M244 585.5H330C341.874 585.5 351.5 595.126 351.5 607C351.5 618.874 341.874 628.5 330 628.5H244C232.126 628.5 222.5 618.874 222.5 607C222.5 595.126 232.126 585.5 244 585.5Z" stroke="url(#paint32_linear_162_695)"/>
<path d="M250.1 603.86H245.88V615H242.32V603.86H238.14V600.98H250.1V603.86ZM255.187 615H251.627V601H255.187V615ZM273.374 615H270.234L270.214 605.9L266.854 613.6H264.534L261.174 605.9V615H257.994V600.98H261.894L265.694 609.32L269.494 600.98H273.374V615ZM287.157 603.8H279.757V606.58H286.437V609.38H279.757V612.2H287.377V615H276.197V601H287.157V603.8ZM293.233 612.02H299.173V615H289.673V601H293.233V612.02ZM304.425 615H300.865V601H304.425V615ZM320.152 615H317.012L310.572 606.38V615H307.232V601H310.372L316.832 609.64V601H320.152V615ZM333.915 603.8H326.515V606.58H333.195V609.38H326.515V612.2H334.135V615H322.955V601H333.915V603.8Z" fill="#B9B9B9"/>
<path d="M394 585.5H453C464.874 585.5 474.5 595.126 474.5 607C474.5 618.874 464.874 628.5 453 628.5H394C382.126 628.5 372.5 618.874 372.5 607C372.5 595.126 382.126 585.5 394 585.5Z" stroke="url(#paint33_linear_162_695)"/>
<path d="M-91 649.5H12C23.8741 649.5 33.5 659.126 33.5 671C33.5 682.874 23.8741 692.5 12 692.5H-91C-102.874 692.5 -112.5 682.874 -112.5 671C-112.5 659.126 -102.874 649.5 -91 649.5Z" stroke="url(#paint34_linear_162_695)"/>
<path d="M-90.22 664.84C-88.2 664.84 -86.14 665.46 -84.7 666.4L-86.04 669.18C-87.52 668.32 -89.38 667.72 -90.52 667.72C-91.44 667.72 -92.06 668.06 -92.06 668.74C-92.06 671.16 -84.66 669.78 -84.66 674.84C-84.66 677.64 -87.14 679.12 -90.26 679.12C-92.6 679.12 -95 678.24 -96.66 676.88L-95.28 674.14C-93.84 675.4 -91.68 676.24 -90.22 676.24C-89.1 676.24 -88.4 675.82 -88.4 675.02C-88.4 672.54 -95.8 674.02 -95.8 669.06C-95.8 666.48 -93.58 664.84 -90.22 664.84ZM-71.7689 667.8H-79.1689V670.58H-72.4889V673.38H-79.1689V676.2H-71.5489V679H-82.7289V665H-71.7689V667.8ZM-55.5923 678.56L-54.3323 680.76C-55.4123 681.72 -56.9923 682.3 -58.3923 682.3C-60.3323 682.3 -61.9723 681.1 -62.8923 679.16C-67.0723 679.02 -70.1723 676 -70.1723 671.98C-70.1723 667.9 -66.9323 664.88 -62.6123 664.88C-58.2723 664.88 -55.0323 667.92 -55.0323 671.98C-55.0323 675.08 -56.8923 677.62 -59.6923 678.66C-59.2123 679.26 -58.6323 679.62 -57.9923 679.62C-57.3523 679.62 -56.4523 679.22 -55.5923 678.56ZM-66.5323 672C-66.5323 674.36 -64.7123 676.18 -62.5723 676.18C-60.4123 676.18 -58.6923 674.36 -58.6923 672C-58.6923 669.64 -60.4123 667.86 -62.5723 667.86C-64.7323 667.86 -66.5323 669.64 -66.5323 672ZM-40.4609 665V673.12C-40.4609 676.82 -42.9209 679.16 -46.8409 679.16C-50.7809 679.16 -53.3009 676.82 -53.3009 673.12V665H-49.7409V673.12C-49.7409 675.02 -48.5209 676.18 -46.8209 676.18C-45.1409 676.18 -44.0009 675.02 -44.0009 673.12V665H-40.4609ZM-26.9447 667.8H-34.3447V670.58H-27.6647V673.38H-34.3447V676.2H-26.7247V679H-37.9047V665H-26.9447V667.8ZM-11.5081 679H-14.6481L-21.0881 670.38V679H-24.4281V665H-21.2881L-14.8281 673.64V665H-11.5081V679ZM-2.14547 664.88C-0.0654681 664.88 2.09453 665.8 3.49453 667.24L1.43453 669.68C0.514532 668.56 -0.845468 667.86 -2.08547 667.86C-4.30547 667.86 -5.98547 669.62 -5.98547 671.92C-5.98547 674.26 -4.30547 676.04 -2.08547 676.04C-0.905469 676.04 0.454531 675.4 1.43453 674.4L3.51453 676.6C2.01453 678.14 -0.205468 679.16 -2.26547 679.16C-6.48547 679.16 -9.62547 676.06 -9.62547 671.96C-9.62547 667.92 -6.40547 664.88 -2.14547 664.88ZM16.1022 667.8H8.70219V670.58H15.3822V673.38H8.70219V676.2H16.3222V679H5.14219V665H16.1022V667.8Z" fill="#B9B9B9"/>
<path d="M76 649.5H167C178.874 649.5 188.5 659.126 188.5 671C188.5 682.874 178.874 692.5 167 692.5H76C64.1259 692.5 54.5 682.874 54.5 671C54.5 659.126 64.1259 649.5 76 649.5Z" stroke="url(#paint35_linear_162_695)"/>
<path d="M74.96 679H71.4V665H74.96V679ZM90.6872 679H87.5472L81.1072 670.38V679H77.7672V665H80.9072L87.3672 673.64V665H90.6872V679ZM104.19 667.86H99.9698V679H96.4098V667.86H92.2298V664.98H104.19V667.86ZM116.676 667.8H109.276V670.58H115.956V673.38H109.276V676.2H116.896V679H105.716V665H116.676V667.8ZM127.633 679L125.553 675.06H125.453H122.753V679H119.193V665H125.453C129.153 665 131.273 666.76 131.273 669.88C131.273 672.02 130.373 673.56 128.733 674.38L131.673 679H127.633ZM122.753 672.26H125.453C126.993 672.26 127.893 671.48 127.893 670C127.893 668.54 126.993 667.8 125.453 667.8H122.753V672.26ZM141.229 679H137.549L132.109 665H135.909L139.489 675.3L143.069 665H146.729L141.229 679ZM156.325 676.42H150.205L149.185 679H145.525L151.565 665H155.225L161.125 679H157.325L156.325 676.42ZM155.285 673.72L153.285 668.54L151.245 673.72H155.285ZM165.976 676.02H171.916V679H162.416V665H165.976V676.02Z" fill="#B9B9B9"/>
<path d="M231 649.5H290C301.874 649.5 311.5 659.126 311.5 671C311.5 682.874 301.874 692.5 290 692.5H231C219.126 692.5 209.5 682.874 209.5 671C209.5 659.126 219.126 649.5 231 649.5Z" stroke="url(#paint36_linear_162_695)"/>
<path d="M226.4 665H232.5C236.08 665 238.14 666.76 238.14 669.88C238.14 673.16 236.08 675.06 232.5 675.06H229.96V679H226.4V665ZM229.96 667.8V672.26H232.32C233.88 672.26 234.78 671.48 234.78 670C234.78 668.54 233.88 667.8 232.32 667.8H229.96ZM252.914 679H249.354V673.56H243.554V679H239.994V665H243.554V670.76H249.354V665H252.914V679ZM265.016 676.42H258.896L257.876 679H254.216L260.256 665H263.916L269.816 679H266.016L265.016 676.42ZM263.976 673.72L261.976 668.54L259.936 673.72H263.976ZM276.428 664.84C278.448 664.84 280.508 665.46 281.948 666.4L280.608 669.18C279.128 668.32 277.268 667.72 276.128 667.72C275.208 667.72 274.588 668.06 274.588 668.74C274.588 671.16 281.988 669.78 281.988 674.84C281.988 677.64 279.508 679.12 276.388 679.12C274.048 679.12 271.648 678.24 269.988 676.88L271.368 674.14C272.808 675.4 274.968 676.24 276.428 676.24C277.548 676.24 278.248 675.82 278.248 675.02C278.248 672.54 270.848 674.02 270.848 669.06C270.848 666.48 273.068 664.84 276.428 664.84ZM294.88 667.8H287.48V670.58H294.16V673.38H287.48V676.2H295.1V679H283.92V665H294.88V667.8Z" fill="#B9B9B9"/>
<path d="M354 649.5H394C405.874 649.5 415.5 659.126 415.5 671C415.5 682.874 405.874 692.5 394 692.5H354C342.126 692.5 332.5 682.874 332.5 671C332.5 659.126 342.126 649.5 354 649.5Z" stroke="url(#paint37_linear_162_695)"/>
<path d="M354.78 664.84C356.8 664.84 358.86 665.46 360.3 666.4L358.96 669.18C357.48 668.32 355.62 667.72 354.48 667.72C353.56 667.72 352.94 668.06 352.94 668.74C352.94 671.16 360.34 669.78 360.34 674.84C360.34 677.64 357.86 679.12 354.74 679.12C352.4 679.12 350 678.24 348.34 676.88L349.72 674.14C351.16 675.4 353.32 676.24 354.78 676.24C355.9 676.24 356.6 675.82 356.6 675.02C356.6 672.54 349.2 674.02 349.2 669.06C349.2 666.48 351.42 664.84 354.78 664.84ZM365.831 676.02H371.771V679H362.271V665H365.831V676.02ZM380.103 664.88C384.443 664.88 387.683 667.92 387.683 671.98C387.683 676.06 384.443 679.16 380.103 679.16C375.783 679.16 372.543 676.08 372.543 671.98C372.543 667.9 375.783 664.88 380.103 664.88ZM380.143 667.86C377.983 667.86 376.183 669.64 376.183 672C376.183 674.36 378.003 676.18 380.143 676.18C382.303 676.18 384.023 674.36 384.023 672C384.023 669.64 382.303 667.86 380.143 667.86ZM399.788 667.86H395.568V679H392.008V667.86H387.828V664.98H399.788V667.86Z" fill="#B9B9B9"/>
<path d="M40 713.5H135C146.874 713.5 156.5 723.126 156.5 735C156.5 746.874 146.874 756.5 135 756.5H40C28.1259 756.5 18.5 746.874 18.5 735C18.5 723.311 27.8275 713.801 39.4453 713.507L40 713.5Z" stroke="url(#paint38_linear_162_695)"/>
<path d="M35.4 729H41.42C45.82 729 48.86 731.84 48.86 736C48.86 740.14 45.78 743 41.28 743H35.4V729ZM38.96 731.84V740.16H41.5C43.68 740.16 45.24 738.48 45.24 736.02C45.24 733.54 43.6 731.84 41.34 731.84H38.96ZM61.692 731.8H54.292V734.58H60.972V737.38H54.292V740.2H61.912V743H50.732V729H61.692V731.8ZM73.5086 740.42H67.3886L66.3686 743H62.7086L68.7486 729H72.4086L78.3086 743H74.5086L73.5086 740.42ZM72.4686 737.72L70.4686 732.54L68.4286 737.72H72.4686ZM79.5992 729H85.6192C90.0192 729 93.0592 731.84 93.0592 736C93.0592 740.14 89.9792 743 85.4792 743H79.5992V729ZM83.1592 731.84V740.16H85.6992C87.8792 740.16 89.4392 738.48 89.4392 736.02C89.4392 733.54 87.7992 731.84 85.5392 731.84H83.1592ZM98.4913 740.02H104.431V743H94.9313V729H98.4913V740.02ZM109.683 743H106.123V729H109.683V743ZM125.41 743H122.27L115.83 734.38V743H112.49V729H115.63L122.09 737.64V729H125.41V743ZM139.173 731.8H131.773V734.58H138.453V737.38H131.773V740.2H139.393V743H128.213V729H139.173V731.8Z" fill="#B9B9B9"/>
<path d="M199 713.5H242C253.874 713.5 263.5 723.126 263.5 735C263.5 746.874 253.874 756.5 242 756.5H199C187.126 756.5 177.5 746.874 177.5 735C177.5 723.126 187.126 713.5 199 713.5Z" stroke="url(#paint39_linear_162_695)"/>
<path d="M194.4 729H200.42C204.82 729 207.86 731.84 207.86 736C207.86 740.14 204.78 743 200.28 743H194.4V729ZM197.96 731.84V740.16H200.5C202.68 740.16 204.24 738.48 204.24 736.02C204.24 733.54 202.6 731.84 200.34 731.84H197.96ZM218.661 740.42H212.541L211.521 743H207.861L213.901 729H217.561L223.461 743H219.661L218.661 740.42ZM217.621 737.72L215.621 732.54L213.581 737.72H217.621ZM233.948 731.86H229.728V743H226.168V731.86H221.988V728.98H233.948V731.86ZM246.434 731.8H239.034V734.58H245.714V737.38H239.034V740.2H246.654V743H235.474V729H246.434V731.8Z" fill="#B9B9B9"/>
<path d="M306 713.5H356C367.874 713.5 377.5 723.126 377.5 735C377.5 746.874 367.874 756.5 356 756.5H306C294.126 756.5 284.5 746.874 284.5 735C284.5 723.126 294.126 713.5 306 713.5Z" stroke="url(#paint40_linear_162_695)"/>
<path d="M314.32 743H310.76V737.56H304.96V743H301.4V729H304.96V734.76H310.76V729H314.32V743ZM323.763 728.88C328.103 728.88 331.343 731.92 331.343 735.98C331.343 740.06 328.103 743.16 323.763 743.16C319.443 743.16 316.203 740.08 316.203 735.98C316.203 731.9 319.443 728.88 323.763 728.88ZM323.803 731.86C321.643 731.86 319.843 733.64 319.843 736C319.843 738.36 321.663 740.18 323.803 740.18C325.963 740.18 327.683 738.36 327.683 736C327.683 733.64 325.963 731.86 323.803 731.86ZM345.816 729V737.12C345.816 740.82 343.356 743.16 339.436 743.16C335.496 743.16 332.976 740.82 332.976 737.12V729H336.536V737.12C336.536 739.02 337.756 740.18 339.456 740.18C341.136 740.18 342.276 739.02 342.276 737.12V729H345.816ZM356.813 743L354.733 739.06H354.633H351.933V743H348.373V729H354.633C358.333 729 360.453 730.76 360.453 733.88C360.453 736.02 359.553 737.56 357.913 738.38L360.853 743H356.813ZM351.933 736.26H354.633C356.173 736.26 357.073 735.48 357.073 734C357.073 732.54 356.173 731.8 354.633 731.8H351.933V736.26Z" fill="#B9B9B9"/>
<path d="M-92 777.5H-10C1.87412 777.5 11.5 787.126 11.5 799C11.5 810.874 1.87412 820.5 -10 820.5H-92C-103.874 820.5 -113.5 810.874 -113.5 799C-113.5 787.311 -104.172 777.801 -92.5547 777.507L-92 777.5Z" stroke="url(#paint41_linear_162_695)"/>
<path d="M54 777.5H116C127.874 777.5 137.5 787.126 137.5 799C137.5 810.874 127.874 820.5 116 820.5H54C42.1259 820.5 32.5 810.874 32.5 799C32.5 787.311 41.8275 777.801 53.4453 777.507L54 777.5Z" stroke="url(#paint42_linear_162_695)"/>
<path d="M60.1 795.86H55.88V807H52.32V795.86H48.14V792.98H60.1V795.86ZM65.1866 807H61.6266V793H65.1866V807ZM83.3738 807H80.2338L80.2138 797.9L76.8538 805.6H74.5338L71.1738 797.9V807H67.9938V792.98H71.8938L75.6938 801.32L79.4938 792.98H83.3738V807ZM89.7569 807H86.1969V793H89.7569V807ZM105.484 807H102.344L95.9041 798.38V807H92.5641V793H95.7041L102.164 801.64V793H105.484V807ZM117.587 799.88H120.667V805.34C119.167 806.4 116.807 807.16 114.847 807.16C110.587 807.16 107.367 804.08 107.367 800C107.367 795.94 110.667 792.88 115.087 792.88C117.167 792.88 119.367 793.68 120.807 794.96L118.807 797.38C117.787 796.44 116.367 795.86 115.067 795.86C112.767 795.86 111.007 797.66 111.007 800C111.007 802.38 112.787 804.18 115.107 804.18C115.827 804.18 116.747 803.92 117.587 803.5V799.88Z" fill="#B9B9B9"/>
<path d="M180 777.5H289C300.874 777.5 310.5 787.126 310.5 799C310.5 810.874 300.874 820.5 289 820.5H180C168.126 820.5 158.5 810.874 158.5 799C158.5 787.126 168.126 777.5 180 777.5Z" stroke="url(#paint43_linear_162_695)"/>
<path d="M181.96 792.88C184.04 792.88 186.2 793.8 187.6 795.24L185.54 797.68C184.62 796.56 183.26 795.86 182.02 795.86C179.8 795.86 178.12 797.62 178.12 799.92C178.12 802.26 179.8 804.04 182.02 804.04C183.2 804.04 184.56 803.4 185.54 802.4L187.62 804.6C186.12 806.14 183.9 807.16 181.84 807.16C177.62 807.16 174.48 804.06 174.48 799.96C174.48 795.92 177.7 792.88 181.96 792.88ZM202.168 807H198.608V801.56H192.808V807H189.248V793H192.808V798.76H198.608V793H202.168V807ZM213.41 807L211.33 803.06H211.23H208.53V807H204.97V793H211.23C214.93 793 217.05 794.76 217.05 797.88C217.05 800.02 216.15 801.56 214.51 802.38L217.45 807H213.41ZM208.53 800.26H211.23C212.77 800.26 213.67 799.48 213.67 798C213.67 796.54 212.77 795.8 211.23 795.8H208.53V800.26ZM226.083 792.88C230.423 792.88 233.663 795.92 233.663 799.98C233.663 804.06 230.423 807.16 226.083 807.16C221.763 807.16 218.523 804.08 218.523 799.98C218.523 795.9 221.763 792.88 226.083 792.88ZM226.123 795.86C223.963 795.86 222.163 797.64 222.163 800C222.163 802.36 223.983 804.18 226.123 804.18C228.283 804.18 230.003 802.36 230.003 800C230.003 797.64 228.283 795.86 226.123 795.86ZM248.457 807H245.317L238.877 798.38V807H235.537V793H238.677L245.137 801.64V793H248.457V807ZM254.819 807H251.259V793H254.819V807ZM264.187 792.88C266.267 792.88 268.427 793.8 269.827 795.24L267.767 797.68C266.847 796.56 265.487 795.86 264.247 795.86C262.027 795.86 260.347 797.62 260.347 799.92C260.347 802.26 262.027 804.04 264.247 804.04C265.427 804.04 266.787 803.4 267.767 802.4L269.847 804.6C268.347 806.14 266.127 807.16 264.067 807.16C259.847 807.16 256.707 804.06 256.707 799.96C256.707 795.92 259.927 792.88 264.187 792.88ZM275.034 804.02H280.974V807H271.474V793H275.034V804.02ZM293.626 795.8H286.226V798.58H292.906V801.38H286.226V804.2H293.846V807H282.666V793H293.626V795.8Z" fill="#B9B9B9"/>
<path d="M353 777.5H385C396.874 777.5 406.5 787.126 406.5 799C406.5 810.874 396.874 820.5 385 820.5H353C341.126 820.5 331.5 810.874 331.5 799C331.5 787.126 341.126 777.5 353 777.5Z" stroke="url(#paint44_linear_162_695)"/>
<path d="M359.36 795.8H351.96V798.58H358.64V801.38H351.96V804.2H359.58V807H348.4V793H359.36V795.8ZM370.317 807L368.237 803.06H368.137H365.437V807H361.877V793H368.137C371.837 793 373.957 794.76 373.957 797.88C373.957 800.02 373.057 801.56 371.417 802.38L374.357 807H370.317ZM365.437 800.26H368.137C369.677 800.26 370.577 799.48 370.577 798C370.577 796.54 369.677 795.8 368.137 795.8H365.437V800.26ZM385.649 804.42H379.529L378.509 807H374.849L380.889 793H384.549L390.449 807H386.649L385.649 804.42ZM384.609 801.72L382.609 796.54L380.569 801.72H384.609Z" fill="#B9B9B9"/>
</g>
<defs>
<filter id="filter0_d_162_695" x="114" y="359" width="137" height="98" filterUnits="userSpaceOnUse" color-interpolation-filters="sRGB">
<feFlood flood-opacity="0" result="BackgroundImageFix"/>
<feColorMatrix in="SourceAlpha" type="matrix" values="0 0 0 0 0 0 0 0 0 0 0 0 0 0 0 0 0 0 127 0" result="hardAlpha"/>
<feOffset/>
<feGaussianBlur stdDeviation="10"/>
<feComposite in2="hardAlpha" operator="out"/>
<feColorMatrix type="matrix" values="0 0 0 0 1 0 0 0 0 1 0 0 0 0 1 0 0 0 1 0"/>
<feBlend mode="normal" in2="BackgroundImageFix" result="effect1_dropShadow_162_695"/>
<feBlend mode="normal" in="SourceGraphic" in2="effect1_dropShadow_162_695" result="shape"/>
</filter>
<filter id="filter1_d_162_695" x="146.768" y="394.408" width="71.9357" height="30.8481" filterUnits="userSpaceOnUse" color-interpolation-filters="sRGB">
<feFlood flood-opacity="0" result="BackgroundImageFix"/>
<feColorMatrix in="SourceAlpha" type="matrix" values="0 0 0 0 0 0 0 0 0 0 0 0 0 0 0 0 0 0 127 0" result="hardAlpha"/>
<feOffset/>
<feGaussianBlur stdDeviation="2"/>
<feComposite in2="hardAlpha" operator="out"/>
<feColorMatrix type="matrix" values="0 0 0 0 1 0 0 0 0 1 0 0 0 0 1 0 0 0 0.65 0"/>
<feBlend mode="normal" in2="BackgroundImageFix" result="effect1_dropShadow_162_695"/>
<feBlend mode="normal" in="SourceGraphic" in2="effect1_dropShadow_162_695" result="shape"/>
</filter>
<linearGradient id="paint0_linear_162_695" x1="149" y1="17" x2="-4" y2="17" gradientUnits="userSpaceOnUse">
<stop stop-color="white" stop-opacity="0"/>
<stop offset="0.5" stop-color="white"/>
<stop offset="1" stop-color="white" stop-opacity="0"/>
</linearGradient>
<linearGradient id="paint1_linear_162_695" x1="245" y1="17" x2="169" y2="17" gradientUnits="userSpaceOnUse">
<stop stop-color="white" stop-opacity="0"/>
<stop offset="0.5" stop-color="white"/>
<stop offset="1" stop-color="white" stop-opacity="0"/>
</linearGradient>
<linearGradient id="paint2_linear_162_695" x1="370" y1="17" x2="265" y2="17" gradientUnits="userSpaceOnUse">
<stop stop-color="white" stop-opacity="0"/>
<stop offset="0.5" stop-color="white"/>
<stop offset="1" stop-color="white" stop-opacity="0"/>
</linearGradient>
<linearGradient id="paint3_linear_162_695" x1="46" y1="81" x2="-80" y2="81" gradientUnits="userSpaceOnUse">
<stop stop-color="white" stop-opacity="0"/>
<stop offset="0.5" stop-color="white"/>
<stop offset="1" stop-color="white" stop-opacity="0"/>
</linearGradient>
<linearGradient id="paint4_linear_162_695" x1="189" y1="81" x2="66" y2="81" gradientUnits="userSpaceOnUse">
<stop stop-color="white" stop-opacity="0"/>
<stop offset="0.5" stop-color="white"/>
<stop offset="1" stop-color="white" stop-opacity="0"/>
</linearGradient>
<linearGradient id="paint5_linear_162_695" x1="394" y1="81" x2="209" y2="81" gradientUnits="userSpaceOnUse">
<stop stop-color="white" stop-opacity="0"/>
<stop offset="0.5" stop-color="white"/>
<stop offset="1" stop-color="white" stop-opacity="0"/>
</linearGradient>
<linearGradient id="paint6_linear_162_695" x1="144" y1="145" x2="-41" y2="145" gradientUnits="userSpaceOnUse">
<stop stop-color="white" stop-opacity="0"/>
<stop offset="0.5" stop-color="white"/>
<stop offset="1" stop-color="white" stop-opacity="0"/>
</linearGradient>
<linearGradient id="paint7_linear_162_695" x1="303" y1="145" x2="164" y2="145" gradientUnits="userSpaceOnUse">
<stop stop-color="white" stop-opacity="0"/>
<stop offset="0.5" stop-color="white"/>
<stop offset="1" stop-color="white" stop-opacity="0"/>
</linearGradient>
<linearGradient id="paint8_linear_162_695" x1="449" y1="145" x2="323" y2="145" gradientUnits="userSpaceOnUse">
<stop stop-color="white" stop-opacity="0"/>
<stop offset="0.5" stop-color="white"/>
<stop offset="1" stop-color="white" stop-opacity="0"/>
</linearGradient>
<linearGradient id="paint9_linear_162_695" x1="128" y1="209" x2="-9" y2="209" gradientUnits="userSpaceOnUse">
<stop stop-color="white" stop-opacity="0"/>
<stop offset="0.5" stop-color="white"/>
<stop offset="1" stop-color="white" stop-opacity="0"/>
</linearGradient>
<linearGradient id="paint10_linear_162_695" x1="304" y1="209" x2="148" y2="209" gradientUnits="userSpaceOnUse">
<stop stop-color="white" stop-opacity="0"/>
<stop offset="0.5" stop-color="white"/>
<stop offset="1" stop-color="white" stop-opacity="0"/>
</linearGradient>
<linearGradient id="paint11_linear_162_695" x1="468" y1="209" x2="324" y2="209" gradientUnits="userSpaceOnUse">
<stop stop-color="white" stop-opacity="0"/>
<stop offset="0.5" stop-color="white"/>
<stop offset="1" stop-color="white" stop-opacity="0"/>
</linearGradient>
<linearGradient id="paint12_linear_162_695" x1="40" y1="273" x2="-63" y2="273" gradientUnits="userSpaceOnUse">
<stop stop-color="white" stop-opacity="0"/>
<stop offset="0.5" stop-color="white"/>
<stop offset="1" stop-color="white" stop-opacity="0"/>
</linearGradient>
<linearGradient id="paint13_linear_162_695" x1="144" y1="273" x2="60" y2="273" gradientUnits="userSpaceOnUse">
<stop stop-color="white" stop-opacity="0"/>
<stop offset="0.5" stop-color="white"/>
<stop offset="1" stop-color="white" stop-opacity="0"/>
</linearGradient>
<linearGradient id="paint14_linear_162_695" x1="270" y1="273" x2="164" y2="273" gradientUnits="userSpaceOnUse">
<stop stop-color="white" stop-opacity="0"/>
<stop offset="0.5" stop-color="white"/>
<stop offset="1" stop-color="white" stop-opacity="0"/>
</linearGradient>
<linearGradient id="paint15_linear_162_695" x1="443" y1="273" x2="290" y2="273" gradientUnits="userSpaceOnUse">
<stop stop-color="white" stop-opacity="0"/>
<stop offset="0.5" stop-color="white"/>
<stop offset="1" stop-color="white" stop-opacity="0"/>
</linearGradient>
<linearGradient id="paint16_linear_162_695" x1="72" y1="337" x2="-40" y2="337" gradientUnits="userSpaceOnUse">
<stop stop-color="white" stop-opacity="0"/>
<stop offset="0.5" stop-color="white"/>
<stop offset="1" stop-color="white" stop-opacity="0"/>
</linearGradient>
<linearGradient id="paint17_linear_162_695" x1="194" y1="337" x2="92" y2="337" gradientUnits="userSpaceOnUse">
<stop stop-color="white" stop-opacity="0"/>
<stop offset="0.5" stop-color="white"/>
<stop offset="1" stop-color="white" stop-opacity="0"/>
</linearGradient>
<linearGradient id="paint18_linear_162_695" x1="358" y1="337" x2="214" y2="337" gradientUnits="userSpaceOnUse">
<stop stop-color="white" stop-opacity="0"/>
<stop offset="0.5" stop-color="white"/>
<stop offset="1" stop-color="white" stop-opacity="0"/>
</linearGradient>
<linearGradient id="paint19_linear_162_695" x1="114" y1="408" x2="-33" y2="408" gradientUnits="userSpaceOnUse">
<stop stop-color="white" stop-opacity="0"/>
<stop offset="0.5" stop-color="white"/>
<stop offset="1" stop-color="white" stop-opacity="0"/>
</linearGradient>
<linearGradient id="paint20_linear_162_695" x1="231" y1="408" x2="134" y2="408" gradientUnits="userSpaceOnUse">
<stop stop-color="white" stop-opacity="0"/>
<stop offset="0.5" stop-color="white"/>
<stop offset="1" stop-color="white" stop-opacity="0"/>
</linearGradient>
<linearGradient id="paint21_linear_162_695" x1="354" y1="408" x2="251" y2="408" gradientUnits="userSpaceOnUse">
<stop stop-color="white" stop-opacity="0"/>
<stop offset="0.5" stop-color="white"/>
<stop offset="1" stop-color="white" stop-opacity="0"/>
</linearGradient>
<linearGradient id="paint22_linear_162_695" x1="458" y1="408" x2="374" y2="408" gradientUnits="userSpaceOnUse">
<stop stop-color="white" stop-opacity="0"/>
<stop offset="0.5" stop-color="white"/>
<stop offset="1" stop-color="white" stop-opacity="0"/>
</linearGradient>
<linearGradient id="paint23_linear_162_695" x1="50" y1="479" x2="-85" y2="479" gradientUnits="userSpaceOnUse">
<stop stop-color="white" stop-opacity="0"/>
<stop offset="0.5" stop-color="white"/>
<stop offset="1" stop-color="white" stop-opacity="0"/>
</linearGradient>
<linearGradient id="paint24_linear_162_695" x1="193" y1="479" x2="70" y2="479" gradientUnits="userSpaceOnUse">
<stop stop-color="white" stop-opacity="0"/>
<stop offset="0.5" stop-color="white"/>
<stop offset="1" stop-color="white" stop-opacity="0"/>
</linearGradient>
<linearGradient id="paint25_linear_162_695" x1="398" y1="479" x2="213" y2="479" gradientUnits="userSpaceOnUse">
<stop stop-color="white" stop-opacity="0"/>
<stop offset="0.5" stop-color="white"/>
<stop offset="1" stop-color="white" stop-opacity="0"/>
</linearGradient>
<linearGradient id="paint26_linear_162_695" x1="6" y1="543" x2="-81" y2="543" gradientUnits="userSpaceOnUse">
<stop stop-color="white" stop-opacity="0"/>
<stop offset="0.5" stop-color="white"/>
<stop offset="1" stop-color="white" stop-opacity="0"/>
</linearGradient>
<linearGradient id="paint27_linear_162_695" x1="138" y1="543" x2="26" y2="543" gradientUnits="userSpaceOnUse">
<stop stop-color="white" stop-opacity="0"/>
<stop offset="0.5" stop-color="white"/>
<stop offset="1" stop-color="white" stop-opacity="0"/>
</linearGradient>
<linearGradient id="paint28_linear_162_695" x1="295" y1="543" x2="158" y2="543" gradientUnits="userSpaceOnUse">
<stop stop-color="white" stop-opacity="0"/>
<stop offset="0.5" stop-color="white"/>
<stop offset="1" stop-color="white" stop-opacity="0"/>
</linearGradient>
<linearGradient id="paint29_linear_162_695" x1="471" y1="543" x2="315" y2="543" gradientUnits="userSpaceOnUse">
<stop stop-color="white" stop-opacity="0"/>
<stop offset="0.5" stop-color="white"/>
<stop offset="1" stop-color="white" stop-opacity="0"/>
</linearGradient>
<linearGradient id="paint30_linear_162_695" x1="38" y1="607" x2="-64" y2="607" gradientUnits="userSpaceOnUse">
<stop stop-color="white" stop-opacity="0"/>
<stop offset="0.5" stop-color="white"/>
<stop offset="1" stop-color="white" stop-opacity="0"/>
</linearGradient>
<linearGradient id="paint31_linear_162_695" x1="202" y1="607" x2="58" y2="607" gradientUnits="userSpaceOnUse">
<stop stop-color="white" stop-opacity="0"/>
<stop offset="0.5" stop-color="white"/>
<stop offset="1" stop-color="white" stop-opacity="0"/>
</linearGradient>
<linearGradient id="paint32_linear_162_695" x1="352" y1="607" x2="222" y2="607" gradientUnits="userSpaceOnUse">
<stop stop-color="white" stop-opacity="0"/>
<stop offset="0.5" stop-color="white"/>
<stop offset="1" stop-color="white" stop-opacity="0"/>
</linearGradient>
<linearGradient id="paint33_linear_162_695" x1="475" y1="607" x2="372" y2="607" gradientUnits="userSpaceOnUse">
<stop stop-color="white" stop-opacity="0"/>
<stop offset="0.5" stop-color="white"/>
<stop offset="1" stop-color="white" stop-opacity="0"/>
</linearGradient>
<linearGradient id="paint34_linear_162_695" x1="34" y1="671" x2="-113" y2="671" gradientUnits="userSpaceOnUse">
<stop stop-color="white" stop-opacity="0"/>
<stop offset="0.5" stop-color="white"/>
<stop offset="1" stop-color="white" stop-opacity="0"/>
</linearGradient>
<linearGradient id="paint35_linear_162_695" x1="189" y1="671" x2="54" y2="671" gradientUnits="userSpaceOnUse">
<stop stop-color="white" stop-opacity="0"/>
<stop offset="0.5" stop-color="white"/>
<stop offset="1" stop-color="white" stop-opacity="0"/>
</linearGradient>
<linearGradient id="paint36_linear_162_695" x1="312" y1="671" x2="209" y2="671" gradientUnits="userSpaceOnUse">
<stop stop-color="white" stop-opacity="0"/>
<stop offset="0.5" stop-color="white"/>
<stop offset="1" stop-color="white" stop-opacity="0"/>
</linearGradient>
<linearGradient id="paint37_linear_162_695" x1="416" y1="671" x2="332" y2="671" gradientUnits="userSpaceOnUse">
<stop stop-color="white" stop-opacity="0"/>
<stop offset="0.5" stop-color="white"/>
<stop offset="1" stop-color="white" stop-opacity="0"/>
</linearGradient>
<linearGradient id="paint38_linear_162_695" x1="157" y1="735" x2="18" y2="735" gradientUnits="userSpaceOnUse">
<stop stop-color="white" stop-opacity="0"/>
<stop offset="0.5" stop-color="white"/>
<stop offset="1" stop-color="white" stop-opacity="0"/>
</linearGradient>
<linearGradient id="paint39_linear_162_695" x1="264" y1="735" x2="177" y2="735" gradientUnits="userSpaceOnUse">
<stop stop-color="white" stop-opacity="0"/>
<stop offset="0.5" stop-color="white"/>
<stop offset="1" stop-color="white" stop-opacity="0"/>
</linearGradient>
<linearGradient id="paint40_linear_162_695" x1="378" y1="735" x2="284" y2="735" gradientUnits="userSpaceOnUse">
<stop stop-color="white" stop-opacity="0"/>
<stop offset="0.5" stop-color="white"/>
<stop offset="1" stop-color="white" stop-opacity="0"/>
</linearGradient>
<linearGradient id="paint41_linear_162_695" x1="12" y1="799" x2="-114" y2="799" gradientUnits="userSpaceOnUse">
<stop stop-color="white" stop-opacity="0"/>
<stop offset="0.5" stop-color="white"/>
<stop offset="1" stop-color="white" stop-opacity="0"/>
</linearGradient>
<linearGradient id="paint42_linear_162_695" x1="138" y1="799" x2="32" y2="799" gradientUnits="userSpaceOnUse">
<stop stop-color="white" stop-opacity="0"/>
<stop offset="0.5" stop-color="white"/>
<stop offset="1" stop-color="white" stop-opacity="0"/>
</linearGradient>
<linearGradient id="paint43_linear_162_695" x1="311" y1="799" x2="158" y2="799" gradientUnits="userSpaceOnUse">
<stop stop-color="white" stop-opacity="0"/>
<stop offset="0.5" stop-color="white"/>
<stop offset="1" stop-color="white" stop-opacity="0"/>
</linearGradient>
<linearGradient id="paint44_linear_162_695" x1="407" y1="799" x2="331" y2="799" gradientUnits="userSpaceOnUse">
<stop stop-color="white" stop-opacity="0"/>
<stop offset="0.5" stop-color="white"/>
<stop offset="1" stop-color="white" stop-opacity="0"/>
</linearGradient>
<clipPath id="clip0_162_695">
<rect width="375" height="812" fill="white"/>
</clipPath>
</defs>
</svg>
