<svg width="375" height="812" viewBox="0 0 375 812" fill="none" xmlns="http://www.w3.org/2000/svg">
<g clip-path="url(#clip0_162_3)">
<rect width="375" height="812" fill="#111111"/>
<path d="M-3 19.5H100C111.874 19.5 121.5 29.1259 121.5 41C121.5 52.8741 111.874 62.5 100 62.5H-3C-14.8741 62.5 -24.5 52.8741 -24.5 41C-24.5 29.1259 -14.8741 19.5 -3 19.5Z" stroke="url(#paint0_linear_162_3)"/>
<path d="M-2.22 34.84C-0.199999 34.84 1.86 35.46 3.3 36.4L1.96 39.18C0.480001 38.32 -1.38 37.72 -2.52 37.72C-3.44 37.72 -4.06 38.06 -4.06 38.74C-4.06 41.16 3.34 39.78 3.34 44.84C3.34 47.64 0.860001 49.12 -2.26 49.12C-4.6 49.12 -7 48.24 -8.66 46.88L-7.28 44.14C-5.84 45.4 -3.68 46.24 -2.22 46.24C-1.1 46.24 -0.4 45.82 -0.4 45.02C-0.4 42.54 -7.8 44.02 -7.8 39.06C-7.8 36.48 -5.58 34.84 -2.22 34.84ZM16.2311 37.8H8.83109V40.58H15.5111V43.38H8.83109V46.2H16.4511V49H5.27109V35H16.2311V37.8ZM32.4077 48.56L33.6677 50.76C32.5877 51.72 31.0077 52.3 29.6077 52.3C27.6677 52.3 26.0277 51.1 25.1077 49.16C20.9277 49.02 17.8277 46 17.8277 41.98C17.8277 37.9 21.0677 34.88 25.3877 34.88C29.7277 34.88 32.9677 37.92 32.9677 41.98C32.9677 45.08 31.1077 47.62 28.3077 48.66C28.7877 49.26 29.3677 49.62 30.0077 49.62C30.6477 49.62 31.5477 49.22 32.4077 48.56ZM21.4677 42C21.4677 44.36 23.2877 46.18 25.4277 46.18C27.5877 46.18 29.3077 44.36 29.3077 42C29.3077 39.64 27.5877 37.86 25.4277 37.86C23.2677 37.86 21.4677 39.64 21.4677 42ZM47.5391 35V43.12C47.5391 46.82 45.0791 49.16 41.1591 49.16C37.2191 49.16 34.6991 46.82 34.6991 43.12V35H38.2591V43.12C38.2591 45.02 39.4791 46.18 41.1791 46.18C42.8591 46.18 43.9991 45.02 43.9991 43.12V35H47.5391ZM61.0553 37.8H53.6553V40.58H60.3353V43.38H53.6553V46.2H61.2753V49H50.0953V35H61.0553V37.8ZM76.4919 49H73.3519L66.9119 40.38V49H63.5719V35H66.7119L73.1719 43.64V35H76.4919V49ZM85.8545 34.88C87.9345 34.88 90.0945 35.8 91.4945 37.24L89.4345 39.68C88.5145 38.56 87.1545 37.86 85.9145 37.86C83.6945 37.86 82.0145 39.62 82.0145 41.92C82.0145 44.26 83.6945 46.04 85.9145 46.04C87.0945 46.04 88.4545 45.4 89.4345 44.4L91.5145 46.6C90.0145 48.14 87.7945 49.16 85.7345 49.16C81.5145 49.16 78.3745 46.06 78.3745 41.96C78.3745 37.92 81.5945 34.88 85.8545 34.88ZM104.102 37.8H96.7022V40.58H103.382V43.38H96.7022V46.2H104.322V49H93.1422V35H104.102V37.8Z" fill="#B9B9B9"/>
<path d="M164 19.5H255C266.874 19.5 276.5 29.1259 276.5 41C276.5 52.8741 266.874 62.5 255 62.5H164C152.126 62.5 142.5 52.8741 142.5 41C142.5 29.1259 152.126 19.5 164 19.5Z" stroke="url(#paint1_linear_162_3)"/>
<path d="M162.96 49H159.4V35H162.96V49ZM178.687 49H175.547L169.107 40.38V49H165.767V35H168.907L175.367 43.64V35H178.687V49ZM192.19 37.86H187.97V49H184.41V37.86H180.23V34.98H192.19V37.86ZM204.676 37.8H197.276V40.58H203.956V43.38H197.276V46.2H204.896V49H193.716V35H204.676V37.8ZM215.633 49L213.553 45.06H213.453H210.753V49H207.193V35H213.453C217.153 35 219.273 36.76 219.273 39.88C219.273 42.02 218.373 43.56 216.733 44.38L219.673 49H215.633ZM210.753 42.26H213.453C214.993 42.26 215.893 41.48 215.893 40C215.893 38.54 214.993 37.8 213.453 37.8H210.753V42.26ZM229.229 49H225.549L220.109 35H223.909L227.489 45.3L231.069 35H234.729L229.229 49ZM244.325 46.42H238.205L237.185 49H233.525L239.565 35H243.225L249.125 49H245.325L244.325 46.42ZM243.285 43.72L241.285 38.54L239.245 43.72H243.285ZM253.976 46.02H259.916V49H250.416V35H253.976V46.02Z" fill="#B9B9B9"/>
<path d="M319 19.5H378C389.874 19.5 399.5 29.1259 399.5 41C399.5 52.8741 389.874 62.5 378 62.5H319C307.126 62.5 297.5 52.8741 297.5 41C297.5 29.1259 307.126 19.5 319 19.5Z" stroke="url(#paint2_linear_162_3)"/>
<path d="M314.4 35H320.5C324.08 35 326.14 36.76 326.14 39.88C326.14 43.16 324.08 45.06 320.5 45.06H317.96V49H314.4V35ZM317.96 37.8V42.26H320.32C321.88 42.26 322.78 41.48 322.78 40C322.78 38.54 321.88 37.8 320.32 37.8H317.96ZM340.914 49H337.354V43.56H331.554V49H327.994V35H331.554V40.76H337.354V35H340.914V49ZM353.016 46.42H346.896L345.876 49H342.216L348.256 35H351.916L357.816 49H354.016L353.016 46.42ZM351.976 43.72L349.976 38.54L347.936 43.72H351.976ZM364.428 34.84C366.448 34.84 368.508 35.46 369.948 36.4L368.608 39.18C367.128 38.32 365.268 37.72 364.128 37.72C363.208 37.72 362.588 38.06 362.588 38.74C362.588 41.16 369.988 39.78 369.988 44.84C369.988 47.64 367.508 49.12 364.388 49.12C362.048 49.12 359.648 48.24 357.988 46.88L359.368 44.14C360.808 45.4 362.968 46.24 364.428 46.24C365.548 46.24 366.248 45.82 366.248 45.02C366.248 42.54 358.848 44.02 358.848 39.06C358.848 36.48 361.068 34.84 364.428 34.84ZM382.88 37.8H375.48V40.58H382.16V43.38H375.48V46.2H383.1V49H371.92V35H382.88V37.8Z" fill="#B9B9B9"/>
<path d="M-77 83.5H64C75.8741 83.5 85.5 93.1259 85.5 105C85.5 116.874 75.8741 126.5 64 126.5H-77C-88.8741 126.5 -98.5 116.874 -98.5 105C-98.5 93.1259 -88.8741 83.5 -77 83.5Z" stroke="url(#paint3_linear_162_3)"/>
<path d="M-72.3 110.42H-78.42L-79.44 113H-83.1L-77.06 99H-73.4L-67.5 113H-71.3L-72.3 110.42ZM-73.34 107.72L-75.34 102.54L-77.38 107.72H-73.34ZM-66.2094 99H-60.1094C-56.5294 99 -54.4694 100.76 -54.4694 103.88C-54.4694 107.16 -56.5294 109.06 -60.1094 109.06H-62.6494V113H-66.2094V99ZM-62.6494 101.8V106.26H-60.2894C-58.7294 106.26 -57.8294 105.48 -57.8294 104C-57.8294 102.54 -58.7294 101.8 -60.2894 101.8H-62.6494ZM-52.6156 99H-46.5156C-42.9356 99 -40.8756 100.76 -40.8756 103.88C-40.8756 107.16 -42.9356 109.06 -46.5156 109.06H-49.0556V113H-52.6156V99ZM-49.0556 101.8V106.26H-46.6956C-45.1356 106.26 -44.2356 105.48 -44.2356 104C-44.2356 102.54 -45.1356 101.8 -46.6956 101.8H-49.0556ZM-32.3819 98.88C-28.0419 98.88 -24.8019 101.92 -24.8019 105.98C-24.8019 110.06 -28.0419 113.16 -32.3819 113.16C-36.7019 113.16 -39.9419 110.08 -39.9419 105.98C-39.9419 101.9 -36.7019 98.88 -32.3819 98.88ZM-32.3419 101.86C-34.5019 101.86 -36.3019 103.64 -36.3019 106C-36.3019 108.36 -34.4819 110.18 -32.3419 110.18C-30.1819 110.18 -28.4619 108.36 -28.4619 106C-28.4619 103.64 -30.1819 101.86 -32.3419 101.86ZM-19.3681 113H-22.9281V99H-19.3681V113ZM-3.64094 113H-6.78094L-13.2209 104.38V113H-16.5609V99H-13.4209L-6.96094 107.64V99H-3.64094V113ZM9.86172 101.86H5.64172V113H2.08172V101.86H-2.09828V98.98H9.86172V101.86ZM26.7683 113H23.6283L23.6083 103.9L20.2483 111.6H17.9283L14.5683 103.9V113H11.3883V98.98H15.2883L19.0883 107.32L22.8883 98.98H26.7683V113ZM40.5514 101.8H33.1514V104.58H39.8314V107.38H33.1514V110.2H40.7714V113H29.5914V99H40.5514V101.8ZM55.988 113H52.848L46.408 104.38V113H43.068V99H46.208L52.668 107.64V99H55.988V113ZM69.4906 101.86H65.2706V113H61.7106V101.86H57.5306V98.98H69.4906V101.86Z" fill="#B9B9B9"/>
<path d="M128 83.5H223C234.874 83.5 244.5 93.1259 244.5 105C244.5 116.874 234.874 126.5 223 126.5H128C116.126 126.5 106.5 116.874 106.5 105C106.5 93.3113 115.828 83.801 127.445 83.5068L128 83.5Z" stroke="url(#paint4_linear_162_3)"/>
<path d="M123.4 99H129.42C133.82 99 136.86 101.84 136.86 106C136.86 110.14 133.78 113 129.28 113H123.4V99ZM126.96 101.84V110.16H129.5C131.68 110.16 133.24 108.48 133.24 106.02C133.24 103.54 131.6 101.84 129.34 101.84H126.96ZM149.692 101.8H142.292V104.58H148.972V107.38H142.292V110.2H149.912V113H138.732V99H149.692V101.8ZM161.509 110.42H155.389L154.369 113H150.709L156.749 99H160.409L166.309 113H162.509L161.509 110.42ZM160.469 107.72L158.469 102.54L156.429 107.72H160.469ZM167.599 99H173.619C178.019 99 181.059 101.84 181.059 106C181.059 110.14 177.979 113 173.479 113H167.599V99ZM171.159 101.84V110.16H173.699C175.879 110.16 177.439 108.48 177.439 106.02C177.439 103.54 175.799 101.84 173.539 101.84H171.159ZM186.491 110.02H192.431V113H182.931V99H186.491V110.02ZM197.683 113H194.123V99H197.683V113ZM213.41 113H210.27L203.83 104.38V113H200.49V99H203.63L210.09 107.64V99H213.41V113ZM227.173 101.8H219.773V104.58H226.453V107.38H219.773V110.2H227.393V113H216.213V99H227.173V101.8Z" fill="#B9B9B9"/>
<path d="M287 83.5H330C341.874 83.5 351.5 93.1259 351.5 105C351.5 116.874 341.874 126.5 330 126.5H287C275.126 126.5 265.5 116.874 265.5 105C265.5 93.1259 275.126 83.5 287 83.5Z" stroke="url(#paint5_linear_162_3)"/>
<path d="M282.4 99H288.42C292.82 99 295.86 101.84 295.86 106C295.86 110.14 292.78 113 288.28 113H282.4V99ZM285.96 101.84V110.16H288.5C290.68 110.16 292.24 108.48 292.24 106.02C292.24 103.54 290.6 101.84 288.34 101.84H285.96ZM306.661 110.42H300.541L299.521 113H295.861L301.901 99H305.561L311.461 113H307.661L306.661 110.42ZM305.621 107.72L303.621 102.54L301.581 107.72H305.621ZM321.948 101.86H317.728V113H314.168V101.86H309.988V98.98H321.948V101.86ZM334.434 101.8H327.034V104.58H333.714V107.38H327.034V110.2H334.654V113H323.474V99H334.434V101.8Z" fill="#B9B9B9"/>
<path d="M394 83.5H444C455.874 83.5 465.5 93.1259 465.5 105C465.5 116.874 455.874 126.5 444 126.5H394C382.126 126.5 372.5 116.874 372.5 105C372.5 93.1259 382.126 83.5 394 83.5Z" stroke="url(#paint6_linear_162_3)"/>
<path d="M-4 147.5H78C89.8741 147.5 99.5 157.126 99.5 169C99.5 180.874 89.8741 190.5 78 190.5H-4C-15.8741 190.5 -25.5 180.874 -25.5 169C-25.5 157.311 -16.1725 147.801 -4.55469 147.507L-4 147.5Z" stroke="url(#paint7_linear_162_3)"/>
<path d="M6.78 177H3.64L3.62 167.9L0.26 175.6H-2.06L-5.42 167.9V177H-8.6V162.98H-4.7L-0.9 171.32L2.9 162.98H6.78V177ZM16.2431 162.88C20.5831 162.88 23.8231 165.92 23.8231 169.98C23.8231 174.06 20.5831 177.16 16.2431 177.16C11.9231 177.16 8.68313 174.08 8.68313 169.98C8.68313 165.9 11.9231 162.88 16.2431 162.88ZM16.2831 165.86C14.1231 165.86 12.3231 167.64 12.3231 170C12.3231 172.36 14.1431 174.18 16.2831 174.18C18.4431 174.18 20.1631 172.36 20.1631 170C20.1631 167.64 18.4431 165.86 16.2831 165.86ZM41.0769 177H37.9369L37.9169 167.9L34.5569 175.6H32.2369L28.8769 167.9V177H25.6969V162.98H29.5969L33.3969 171.32L37.1969 162.98H41.0769V177ZM54.86 165.8H47.46V168.58H54.14V171.38H47.46V174.2H55.08V177H43.9V163H54.86V165.8ZM70.2966 177H67.1566L60.7166 168.38V177H57.3766V163H60.5166L66.9766 171.64V163H70.2966V177ZM83.7992 165.86H79.5792V177H76.0192V165.86H71.8392V162.98H83.7992V165.86Z" fill="#B9B9B9"/>
<path d="M142 147.5H204C215.874 147.5 225.5 157.126 225.5 169C225.5 180.874 215.874 190.5 204 190.5H142C130.126 190.5 120.5 180.874 120.5 169C120.5 157.311 129.828 147.801 141.445 147.507L142 147.5Z" stroke="url(#paint8_linear_162_3)"/>
<path d="M148.1 165.86H143.88V177H140.32V165.86H136.14V162.98H148.1V165.86ZM153.187 177H149.627V163H153.187V177ZM171.374 177H168.234L168.214 167.9L164.854 175.6H162.534L159.174 167.9V177H155.994V162.98H159.894L163.694 171.32L167.494 162.98H171.374V177ZM177.757 177H174.197V163H177.757V177ZM193.484 177H190.344L183.904 168.38V177H180.564V163H183.704L190.164 171.64V163H193.484V177ZM205.587 169.88H208.667V175.34C207.167 176.4 204.807 177.16 202.847 177.16C198.587 177.16 195.367 174.08 195.367 170C195.367 165.94 198.667 162.88 203.087 162.88C205.167 162.88 207.367 163.68 208.807 164.96L206.807 167.38C205.787 166.44 204.367 165.86 203.067 165.86C200.767 165.86 199.007 167.66 199.007 170C199.007 172.38 200.787 174.18 203.107 174.18C203.827 174.18 204.747 173.92 205.587 173.5V169.88Z" fill="#B9B9B9"/>
<path d="M268 147.5H377C388.874 147.5 398.5 157.126 398.5 169C398.5 180.874 388.874 190.5 377 190.5H268C256.126 190.5 246.5 180.874 246.5 169C246.5 157.126 256.126 147.5 268 147.5Z" stroke="url(#paint9_linear_162_3)"/>
<path d="M269.96 162.88C272.04 162.88 274.2 163.8 275.6 165.24L273.54 167.68C272.62 166.56 271.26 165.86 270.02 165.86C267.8 165.86 266.12 167.62 266.12 169.92C266.12 172.26 267.8 174.04 270.02 174.04C271.2 174.04 272.56 173.4 273.54 172.4L275.62 174.6C274.12 176.14 271.9 177.16 269.84 177.16C265.62 177.16 262.48 174.06 262.48 169.96C262.48 165.92 265.7 162.88 269.96 162.88ZM290.168 177H286.608V171.56H280.808V177H277.248V163H280.808V168.76H286.608V163H290.168V177ZM301.41 177L299.33 173.06H299.23H296.53V177H292.97V163H299.23C302.93 163 305.05 164.76 305.05 167.88C305.05 170.02 304.15 171.56 302.51 172.38L305.45 177H301.41ZM296.53 170.26H299.23C300.77 170.26 301.67 169.48 301.67 168C301.67 166.54 300.77 165.8 299.23 165.8H296.53V170.26ZM314.083 162.88C318.423 162.88 321.663 165.92 321.663 169.98C321.663 174.06 318.423 177.16 314.083 177.16C309.763 177.16 306.523 174.08 306.523 169.98C306.523 165.9 309.763 162.88 314.083 162.88ZM314.123 165.86C311.963 165.86 310.163 167.64 310.163 170C310.163 172.36 311.983 174.18 314.123 174.18C316.283 174.18 318.003 172.36 318.003 170C318.003 167.64 316.283 165.86 314.123 165.86ZM336.457 177H333.317L326.877 168.38V177H323.537V163H326.677L333.137 171.64V163H336.457V177ZM342.819 177H339.259V163H342.819V177ZM352.187 162.88C354.267 162.88 356.427 163.8 357.827 165.24L355.767 167.68C354.847 166.56 353.487 165.86 352.247 165.86C350.027 165.86 348.347 167.62 348.347 169.92C348.347 172.26 350.027 174.04 352.247 174.04C353.427 174.04 354.787 173.4 355.767 172.4L357.847 174.6C356.347 176.14 354.127 177.16 352.067 177.16C347.847 177.16 344.707 174.06 344.707 169.96C344.707 165.92 347.927 162.88 352.187 162.88ZM363.034 174.02H368.974V177H359.474V163H363.034V174.02ZM381.626 165.8H374.226V168.58H380.906V171.38H374.226V174.2H381.846V177H370.666V163H381.626V165.8Z" fill="#B9B9B9"/>
<path d="M-94 211.5H6C17.8741 211.5 27.5 221.126 27.5 233C27.5 244.874 17.8741 254.5 6 254.5H-94C-105.874 254.5 -115.5 244.874 -115.5 233C-115.5 221.126 -105.874 211.5 -94 211.5Z" stroke="url(#paint10_linear_162_3)"/>
<path d="M-93.22 226.84C-91.2 226.84 -89.14 227.46 -87.7 228.4L-89.04 231.18C-90.52 230.32 -92.38 229.72 -93.52 229.72C-94.44 229.72 -95.06 230.06 -95.06 230.74C-95.06 233.16 -87.66 231.78 -87.66 236.84C-87.66 239.64 -90.14 241.12 -93.26 241.12C-95.6 241.12 -98 240.24 -99.66 238.88L-98.28 236.14C-96.84 237.4 -94.68 238.24 -93.22 238.24C-92.1 238.24 -91.4 237.82 -91.4 237.02C-91.4 234.54 -98.8 236.02 -98.8 231.06C-98.8 228.48 -96.58 226.84 -93.22 226.84ZM-79.1689 226.88C-77.0889 226.88 -74.9289 227.8 -73.5289 229.24L-75.5889 231.68C-76.5089 230.56 -77.8689 229.86 -79.1089 229.86C-81.3289 229.86 -83.0089 231.62 -83.0089 233.92C-83.0089 236.26 -81.3289 238.04 -79.1089 238.04C-77.9289 238.04 -76.5689 237.4 -75.5889 236.4L-73.5089 238.6C-75.0089 240.14 -77.2289 241.16 -79.2889 241.16C-83.5089 241.16 -86.6489 238.06 -86.6489 233.96C-86.6489 229.92 -83.4289 226.88 -79.1689 226.88ZM-58.9612 241H-62.5212V235.56H-68.3212V241H-71.8812V227H-68.3212V232.76H-62.5212V227H-58.9612V241ZM-45.1986 229.8H-52.5986V232.58H-45.9186V235.38H-52.5986V238.2H-44.9786V241H-56.1586V227H-45.1986V229.8ZM-42.682 227H-36.662C-32.262 227 -29.222 229.84 -29.222 234C-29.222 238.14 -32.302 241 -36.802 241H-42.682V227ZM-39.122 229.84V238.16H-36.582C-34.402 238.16 -32.842 236.48 -32.842 234.02C-32.842 231.54 -34.482 229.84 -36.742 229.84H-39.122ZM-14.75 227V235.12C-14.75 238.82 -17.21 241.16 -21.13 241.16C-25.07 241.16 -27.59 238.82 -27.59 235.12V227H-24.03V235.12C-24.03 237.02 -22.81 238.18 -21.11 238.18C-19.43 238.18 -18.29 237.02 -18.29 235.12V227H-14.75ZM-8.63375 238.02H-2.69375V241H-12.1937V227H-8.63375V238.02ZM9.95766 229.8H2.55766V232.58H9.23766V235.38H2.55766V238.2H10.1777V241H-1.00234V227H9.95766V229.8Z" fill="#B9B9B9"/>
<path d="M70 211.5H128C139.874 211.5 149.5 221.126 149.5 233C149.5 244.874 139.874 254.5 128 254.5H70C58.1259 254.5 48.5 244.874 48.5 233C48.5 221.311 57.8275 211.801 69.4453 211.507L70 211.5Z" stroke="url(#paint11_linear_162_3)"/>
<path d="M76.36 229.8H68.96V232.58H75.64V235.38H68.96V238.2H76.58V241H65.4V227H76.36V229.8ZM86.5766 241H82.8966L77.4566 227H81.2566L84.8366 237.3L88.4166 227H92.0766L86.5766 241ZM104.407 229.8H97.0069V232.58H103.687V235.38H97.0069V238.2H104.627V241H93.4469V227H104.407V229.8ZM119.843 241H116.703L110.263 232.38V241H106.923V227H110.063L116.523 235.64V227H119.843V241ZM133.346 229.86H129.126V241H125.566V229.86H121.386V226.98H133.346V229.86Z" fill="#B9B9B9"/>
<path d="M192 211.5H274C285.874 211.5 295.5 221.126 295.5 233C295.5 244.874 285.874 254.5 274 254.5H192C180.126 254.5 170.5 244.874 170.5 233C170.5 221.311 179.828 211.801 191.445 211.507L192 211.5Z" stroke="url(#paint12_linear_162_3)"/>
<path d="M202.78 241H199.64L199.62 231.9L196.26 239.6H193.94L190.58 231.9V241H187.4V226.98H191.3L195.1 235.32L198.9 226.98H202.78V241ZM212.243 226.88C216.583 226.88 219.823 229.92 219.823 233.98C219.823 238.06 216.583 241.16 212.243 241.16C207.923 241.16 204.683 238.08 204.683 233.98C204.683 229.9 207.923 226.88 212.243 226.88ZM212.283 229.86C210.123 229.86 208.323 231.64 208.323 234C208.323 236.36 210.143 238.18 212.283 238.18C214.443 238.18 216.163 236.36 216.163 234C216.163 231.64 214.443 229.86 212.283 229.86ZM237.077 241H233.937L233.917 231.9L230.557 239.6H228.237L224.877 231.9V241H221.697V226.98H225.597L229.397 235.32L233.197 226.98H237.077V241ZM250.86 229.8H243.46V232.58H250.14V235.38H243.46V238.2H251.08V241H239.9V227H250.86V229.8ZM266.297 241H263.157L256.717 232.38V241H253.377V227H256.517L262.977 235.64V227H266.297V241ZM279.799 229.86H275.579V241H272.019V229.86H267.839V226.98H279.799V229.86Z" fill="#B9B9B9"/>
<path d="M338 211.5H417C428.874 211.5 438.5 221.126 438.5 233C438.5 244.874 428.874 254.5 417 254.5H338C326.126 254.5 316.5 244.874 316.5 233C316.5 221.126 326.126 211.5 338 211.5Z" stroke="url(#paint13_linear_162_3)"/>
<path d="M338.78 226.84C340.8 226.84 342.86 227.46 344.3 228.4L342.96 231.18C341.48 230.32 339.62 229.72 338.48 229.72C337.56 229.72 336.94 230.06 336.94 230.74C336.94 233.16 344.34 231.78 344.34 236.84C344.34 239.64 341.86 241.12 338.74 241.12C336.4 241.12 334 240.24 332.34 238.88L333.72 236.14C335.16 237.4 337.32 238.24 338.78 238.24C339.9 238.24 340.6 237.82 340.6 237.02C340.6 234.54 333.2 236.02 333.2 231.06C333.2 228.48 335.42 226.84 338.78 226.84ZM357.231 229.8H349.831V232.58H356.511V235.38H349.831V238.2H357.451V241H346.271V227H357.231V229.8ZM365.128 226.84C367.148 226.84 369.208 227.46 370.648 228.4L369.308 231.18C367.828 230.32 365.968 229.72 364.828 229.72C363.908 229.72 363.288 230.06 363.288 230.74C363.288 233.16 370.688 231.78 370.688 236.84C370.688 239.64 368.208 241.12 365.088 241.12C362.748 241.12 360.348 240.24 358.688 238.88L360.068 236.14C361.508 237.4 363.668 238.24 365.128 238.24C366.248 238.24 366.948 237.82 366.948 237.02C366.948 234.54 359.548 236.02 359.548 231.06C359.548 228.48 361.768 226.84 365.128 226.84ZM377.999 226.84C380.019 226.84 382.079 227.46 383.519 228.4L382.179 231.18C380.699 230.32 378.839 229.72 377.699 229.72C376.779 229.72 376.159 230.06 376.159 230.74C376.159 233.16 383.559 231.78 383.559 236.84C383.559 239.64 381.079 241.12 377.959 241.12C375.619 241.12 373.219 240.24 371.559 238.88L372.939 236.14C374.379 237.4 376.539 238.24 377.999 238.24C379.119 238.24 379.819 237.82 379.819 237.02C379.819 234.54 372.419 236.02 372.419 231.06C372.419 228.48 374.639 226.84 377.999 226.84ZM389.05 241H385.49V227H389.05V241ZM398.497 226.88C402.837 226.88 406.077 229.92 406.077 233.98C406.077 238.06 402.837 241.16 398.497 241.16C394.177 241.16 390.937 238.08 390.937 233.98C390.937 229.9 394.177 226.88 398.497 226.88ZM398.537 229.86C396.377 229.86 394.577 231.64 394.577 234C394.577 236.36 396.397 238.18 398.537 238.18C400.697 238.18 402.417 236.36 402.417 234C402.417 231.64 400.697 229.86 398.537 229.86ZM420.871 241H417.731L411.291 232.38V241H407.951V227H411.091L417.551 235.64V227H420.871V241Z" fill="#B9B9B9"/>
<path d="M-107 275.5H-16C-4.12588 275.5 5.5 285.126 5.5 297C5.5 308.874 -4.12588 318.5 -16 318.5H-107C-118.874 318.5 -128.5 308.874 -128.5 297C-128.5 285.126 -118.874 275.5 -107 275.5Z" stroke="url(#paint14_linear_162_3)"/>
<path d="M48 275.5H127C138.874 275.5 148.5 285.126 148.5 297C148.5 308.874 138.874 318.5 127 318.5H48C36.1259 318.5 26.5 308.874 26.5 297C26.5 285.126 36.1259 275.5 48 275.5Z" stroke="url(#paint15_linear_162_3)"/>
<path d="M48.78 290.84C50.8 290.84 52.86 291.46 54.3 292.4L52.96 295.18C51.48 294.32 49.62 293.72 48.48 293.72C47.56 293.72 46.94 294.06 46.94 294.74C46.94 297.16 54.34 295.78 54.34 300.84C54.34 303.64 51.86 305.12 48.74 305.12C46.4 305.12 44 304.24 42.34 302.88L43.72 300.14C45.16 301.4 47.32 302.24 48.78 302.24C49.9 302.24 50.6 301.82 50.6 301.02C50.6 298.54 43.2 300.02 43.2 295.06C43.2 292.48 45.42 290.84 48.78 290.84ZM67.2311 293.8H59.8311V296.58H66.5111V299.38H59.8311V302.2H67.4511V305H56.2711V291H67.2311V293.8ZM75.1277 290.84C77.1477 290.84 79.2077 291.46 80.6477 292.4L79.3077 295.18C77.8277 294.32 75.9677 293.72 74.8277 293.72C73.9077 293.72 73.2877 294.06 73.2877 294.74C73.2877 297.16 80.6877 295.78 80.6877 300.84C80.6877 303.64 78.2077 305.12 75.0877 305.12C72.7477 305.12 70.3477 304.24 68.6877 302.88L70.0677 300.14C71.5077 301.4 73.6677 302.24 75.1277 302.24C76.2477 302.24 76.9477 301.82 76.9477 301.02C76.9477 298.54 69.5477 300.02 69.5477 295.06C69.5477 292.48 71.7677 290.84 75.1277 290.84ZM87.9988 290.84C90.0188 290.84 92.0788 291.46 93.5188 292.4L92.1788 295.18C90.6988 294.32 88.8388 293.72 87.6988 293.72C86.7788 293.72 86.1588 294.06 86.1588 294.74C86.1588 297.16 93.5588 295.78 93.5588 300.84C93.5588 303.64 91.0788 305.12 87.9588 305.12C85.6188 305.12 83.2188 304.24 81.5588 302.88L82.9388 300.14C84.3788 301.4 86.5388 302.24 87.9988 302.24C89.1188 302.24 89.8188 301.82 89.8188 301.02C89.8188 298.54 82.4188 300.02 82.4188 295.06C82.4188 292.48 84.6388 290.84 87.9988 290.84ZM99.0498 305H95.4898V291H99.0498V305ZM108.497 290.88C112.837 290.88 116.077 293.92 116.077 297.98C116.077 302.06 112.837 305.16 108.497 305.16C104.177 305.16 100.937 302.08 100.937 297.98C100.937 293.9 104.177 290.88 108.497 290.88ZM108.537 293.86C106.377 293.86 104.577 295.64 104.577 298C104.577 300.36 106.397 302.18 108.537 302.18C110.697 302.18 112.417 300.36 112.417 298C112.417 295.64 110.697 293.86 108.537 293.86ZM130.871 305H127.731L121.291 296.38V305H117.951V291H121.091L127.551 299.64V291H130.871V305Z" fill="#B9B9B9"/>
<path d="M191 275.5H332C343.874 275.5 353.5 285.126 353.5 297C353.5 308.874 343.874 318.5 332 318.5H191C179.126 318.5 169.5 308.874 169.5 297C169.5 285.126 179.126 275.5 191 275.5Z" stroke="url(#paint16_linear_162_3)"/>
<path d="M195.7 302.42H189.58L188.56 305H184.9L190.94 291H194.6L200.5 305H196.7L195.7 302.42ZM194.66 299.72L192.66 294.54L190.62 299.72H194.66ZM201.791 291H207.891C211.471 291 213.531 292.76 213.531 295.88C213.531 299.16 211.471 301.06 207.891 301.06H205.351V305H201.791V291ZM205.351 293.8V298.26H207.711C209.271 298.26 210.171 297.48 210.171 296C210.171 294.54 209.271 293.8 207.711 293.8H205.351ZM215.384 291H221.484C225.064 291 227.124 292.76 227.124 295.88C227.124 299.16 225.064 301.06 221.484 301.06H218.944V305H215.384V291ZM218.944 293.8V298.26H221.304C222.864 298.26 223.764 297.48 223.764 296C223.764 294.54 222.864 293.8 221.304 293.8H218.944ZM235.618 290.88C239.958 290.88 243.198 293.92 243.198 297.98C243.198 302.06 239.958 305.16 235.618 305.16C231.298 305.16 228.058 302.08 228.058 297.98C228.058 293.9 231.298 290.88 235.618 290.88ZM235.658 293.86C233.498 293.86 231.698 295.64 231.698 298C231.698 300.36 233.518 302.18 235.658 302.18C237.818 302.18 239.538 300.36 239.538 298C239.538 295.64 237.818 293.86 235.658 293.86ZM248.632 305H245.072V291H248.632V305ZM264.359 305H261.219L254.779 296.38V305H251.439V291H254.579L261.039 299.64V291H264.359V305ZM277.862 293.86H273.642V305H270.082V293.86H265.902V290.98H277.862V293.86ZM294.768 305H291.628L291.608 295.9L288.248 303.6H285.928L282.568 295.9V305H279.388V290.98H283.288L287.088 299.32L290.888 290.98H294.768V305ZM308.551 293.8H301.151V296.58H307.831V299.38H301.151V302.2H308.771V305H297.591V291H308.551V293.8ZM323.988 305H320.848L314.408 296.38V305H311.068V291H314.208L320.668 299.64V291H323.988V305ZM337.491 293.86H333.271V305H329.711V293.86H325.531V290.98H337.491V293.86Z" fill="#B9B9B9"/>
<path d="M396 275.5H491C502.874 275.5 512.5 285.126 512.5 297C512.5 308.874 502.874 318.5 491 318.5H396C384.126 318.5 374.5 308.874 374.5 297C374.5 285.311 383.828 275.801 395.445 275.507L396 275.5Z" stroke="url(#paint17_linear_162_3)"/>
<path d="M29 339.5H72C83.8741 339.5 93.5 349.126 93.5 361C93.5 372.874 83.8741 382.5 72 382.5H29C17.1259 382.5 7.5 372.874 7.5 361C7.5 349.126 17.1259 339.5 29 339.5Z" stroke="url(#paint18_linear_162_3)"/>
<path d="M24.4 355H30.42C34.82 355 37.86 357.84 37.86 362C37.86 366.14 34.78 369 30.28 369H24.4V355ZM27.96 357.84V366.16H30.5C32.68 366.16 34.24 364.48 34.24 362.02C34.24 359.54 32.6 357.84 30.34 357.84H27.96ZM48.6609 366.42H42.5409L41.5209 369H37.8609L43.9009 355H47.5609L53.4609 369H49.6609L48.6609 366.42ZM47.6209 363.72L45.6209 358.54L43.5809 363.72H47.6209ZM63.9477 357.86H59.7277V369H56.1677V357.86H51.9877V354.98H63.9477V357.86ZM76.4342 357.8H69.0342V360.58H75.7142V363.38H69.0342V366.2H76.6542V369H65.4742V355H76.4342V357.8Z" fill="#B9B9B9"/>
<path d="M136 339.5H204C215.874 339.5 225.5 349.126 225.5 361C225.5 372.874 215.874 382.5 204 382.5H136C124.126 382.5 114.5 372.874 114.5 361C114.5 349.126 124.126 339.5 136 339.5Z" stroke="url(#paint19_linear_162_3)"/>
<path d="M131.4 355H137.5C141.08 355 143.14 356.76 143.14 359.88C143.14 363.16 141.08 365.06 137.5 365.06H134.96V369H131.4V355ZM134.96 357.8V362.26H137.32C138.88 362.26 139.78 361.48 139.78 360C139.78 358.54 138.88 357.8 137.32 357.8H134.96ZM155.954 357.8H148.554V360.58H155.234V363.38H148.554V366.2H156.174V369H144.994V355H155.954V357.8ZM166.91 369L164.83 365.06H164.73H162.03V369H158.47V355H164.73C168.43 355 170.55 356.76 170.55 359.88C170.55 362.02 169.65 363.56 168.01 364.38L170.95 369H166.91ZM162.03 362.26H164.73C166.27 362.26 167.17 361.48 167.17 360C167.17 358.54 166.27 357.8 164.73 357.8H162.03V362.26ZM176.503 369H172.943V355H176.503V369ZM185.95 354.88C190.29 354.88 193.53 357.92 193.53 361.98C193.53 366.06 190.29 369.16 185.95 369.16C181.63 369.16 178.39 366.08 178.39 361.98C178.39 357.9 181.63 354.88 185.95 354.88ZM185.99 357.86C183.83 357.86 182.03 359.64 182.03 362C182.03 364.36 183.85 366.18 185.99 366.18C188.15 366.18 189.87 364.36 189.87 362C189.87 359.64 188.15 357.86 185.99 357.86ZM195.404 355H201.424C205.824 355 208.864 357.84 208.864 362C208.864 366.14 205.784 369 201.284 369H195.404V355ZM198.964 357.84V366.16H201.504C203.684 366.16 205.244 364.48 205.244 362.02C205.244 359.54 203.604 357.84 201.344 357.84H198.964Z" fill="#B9B9B9"/>
<path d="M268 339.5H361C372.874 339.5 382.5 349.126 382.5 361C382.5 372.874 372.874 382.5 361 382.5H268C256.126 382.5 246.5 372.874 246.5 361C246.5 349.126 256.126 339.5 268 339.5Z" stroke="url(#paint20_linear_162_3)"/>
<path d="M266.96 369H263.4V355H266.96V369ZM282.687 369H279.547L273.107 360.38V369H269.767V355H272.907L279.367 363.64V355H282.687V369ZM290.87 354.84C292.89 354.84 294.95 355.46 296.39 356.4L295.05 359.18C293.57 358.32 291.71 357.72 290.57 357.72C289.65 357.72 289.03 358.06 289.03 358.74C289.03 361.16 296.43 359.78 296.43 364.84C296.43 367.64 293.95 369.12 290.83 369.12C288.49 369.12 286.09 368.24 284.43 366.88L285.81 364.14C287.25 365.4 289.41 366.24 290.87 366.24C291.99 366.24 292.69 365.82 292.69 365.02C292.69 362.54 285.29 364.02 285.29 359.06C285.29 356.48 287.51 354.84 290.87 354.84ZM309.061 357.86H304.841V369H301.281V357.86H297.101V354.98H309.061V357.86ZM318.384 366.42H312.264L311.244 369H307.584L313.624 355H317.284L323.184 369H319.384L318.384 366.42ZM317.344 363.72L315.344 358.54L313.304 363.72H317.344ZM337.394 369H334.254L327.814 360.38V369H324.474V355H327.614L334.074 363.64V355H337.394V369ZM346.757 354.88C348.837 354.88 350.997 355.8 352.397 357.24L350.337 359.68C349.417 358.56 348.057 357.86 346.817 357.86C344.597 357.86 342.917 359.62 342.917 361.92C342.917 364.26 344.597 366.04 346.817 366.04C347.997 366.04 349.357 365.4 350.337 364.4L352.417 366.6C350.917 368.14 348.697 369.16 346.637 369.16C342.417 369.16 339.277 366.06 339.277 361.96C339.277 357.92 342.497 354.88 346.757 354.88ZM365.005 357.8H357.605V360.58H364.285V363.38H357.605V366.2H365.225V369H354.045V355H365.005V357.8Z" fill="#B9B9B9"/>
<path d="M-86 403.5H-18C-6.12588 403.5 3.5 413.126 3.5 425C3.5 436.874 -6.12588 446.5 -18 446.5H-86C-97.8741 446.5 -107.5 436.874 -107.5 425C-107.5 413.126 -97.8741 403.5 -86 403.5Z" stroke="url(#paint21_linear_162_3)"/>
<path d="M46 403.5H104C115.874 403.5 125.5 413.126 125.5 425C125.5 436.874 115.874 446.5 104 446.5H46C34.1259 446.5 24.5 436.874 24.5 425C24.5 413.311 33.8275 403.801 45.4453 403.507L46 403.5Z" stroke="url(#paint22_linear_162_3)"/>
<path d="M52.36 421.8H44.96V424.58H51.64V427.38H44.96V430.2H52.58V433H41.4V419H52.36V421.8ZM62.5766 433H58.8966L53.4566 419H57.2566L60.8366 429.3L64.4166 419H68.0766L62.5766 433ZM80.4069 421.8H73.0069V424.58H79.6869V427.38H73.0069V430.2H80.6269V433H69.4469V419H80.4069V421.8ZM95.8434 433H92.7034L86.2634 424.38V433H82.9234V419H86.0634L92.5234 427.64V419H95.8434V433ZM109.346 421.86H105.126V433H101.566V421.86H97.3861V418.98H109.346V421.86Z" fill="#B9B9B9"/>
<path d="M168 403.5H268C279.874 403.5 289.5 413.126 289.5 425C289.5 436.874 279.874 446.5 268 446.5H168C156.126 446.5 146.5 436.874 146.5 425C146.5 413.126 156.126 403.5 168 403.5Z" stroke="url(#paint23_linear_162_3)"/>
<path d="M168.78 418.84C170.8 418.84 172.86 419.46 174.3 420.4L172.96 423.18C171.48 422.32 169.62 421.72 168.48 421.72C167.56 421.72 166.94 422.06 166.94 422.74C166.94 425.16 174.34 423.78 174.34 428.84C174.34 431.64 171.86 433.12 168.74 433.12C166.4 433.12 164 432.24 162.34 430.88L163.72 428.14C165.16 429.4 167.32 430.24 168.78 430.24C169.9 430.24 170.6 429.82 170.6 429.02C170.6 426.54 163.2 428.02 163.2 423.06C163.2 420.48 165.42 418.84 168.78 418.84ZM182.831 418.88C184.911 418.88 187.071 419.8 188.471 421.24L186.411 423.68C185.491 422.56 184.131 421.86 182.891 421.86C180.671 421.86 178.991 423.62 178.991 425.92C178.991 428.26 180.671 430.04 182.891 430.04C184.071 430.04 185.431 429.4 186.411 428.4L188.491 430.6C186.991 432.14 184.771 433.16 182.711 433.16C178.491 433.16 175.351 430.06 175.351 425.96C175.351 421.92 178.571 418.88 182.831 418.88ZM203.039 433H199.479V427.56H193.679V433H190.119V419H193.679V424.76H199.479V419H203.039V433ZM216.801 421.8H209.401V424.58H216.081V427.38H209.401V430.2H217.021V433H205.841V419H216.801V421.8ZM219.318 419H225.338C229.738 419 232.778 421.84 232.778 426C232.778 430.14 229.698 433 225.198 433H219.318V419ZM222.878 421.84V430.16H225.418C227.598 430.16 229.158 428.48 229.158 426.02C229.158 423.54 227.518 421.84 225.258 421.84H222.878ZM247.25 419V427.12C247.25 430.82 244.79 433.16 240.87 433.16C236.93 433.16 234.41 430.82 234.41 427.12V419H237.97V427.12C237.97 429.02 239.19 430.18 240.89 430.18C242.57 430.18 243.71 429.02 243.71 427.12V419H247.25ZM253.366 430.02H259.306V433H249.806V419H253.366V430.02ZM271.958 421.8H264.558V424.58H271.238V427.38H264.558V430.2H272.178V433H260.998V419H271.958V421.8Z" fill="#B9B9B9"/>
<path d="M332 403.5H418C429.874 403.5 439.5 413.126 439.5 425C439.5 436.874 429.874 446.5 418 446.5H332C320.126 446.5 310.5 436.874 310.5 425C310.5 413.126 320.126 403.5 332 403.5Z" stroke="url(#paint24_linear_162_3)"/>
<path d="M338.1 421.86H333.88V433H330.32V421.86H326.14V418.98H338.1V421.86ZM343.187 433H339.627V419H343.187V433ZM361.374 433H358.234L358.214 423.9L354.854 431.6H352.534L349.174 423.9V433H345.994V418.98H349.894L353.694 427.32L357.494 418.98H361.374V433ZM375.157 421.8H367.757V424.58H374.437V427.38H367.757V430.2H375.377V433H364.197V419H375.157V421.8ZM381.233 430.02H387.173V433H377.673V419H381.233V430.02ZM392.425 433H388.865V419H392.425V433ZM408.152 433H405.012L398.572 424.38V433H395.232V419H398.372L404.832 427.64V419H408.152V433ZM421.915 421.8H414.515V424.58H421.195V427.38H414.515V430.2H422.135V433H410.955V419H421.915V421.8Z" fill="#B9B9B9"/>
<path d="M-3 467.5H100C111.874 467.5 121.5 477.126 121.5 489C121.5 500.874 111.874 510.5 100 510.5H-3C-14.8741 510.5 -24.5 500.874 -24.5 489C-24.5 477.126 -14.8741 467.5 -3 467.5Z" stroke="url(#paint25_linear_162_3)"/>
<path d="M-2.22 482.84C-0.199999 482.84 1.86 483.46 3.3 484.4L1.96 487.18C0.480001 486.32 -1.38 485.72 -2.52 485.72C-3.44 485.72 -4.06 486.06 -4.06 486.74C-4.06 489.16 3.34 487.78 3.34 492.84C3.34 495.64 0.860001 497.12 -2.26 497.12C-4.6 497.12 -7 496.24 -8.66 494.88L-7.28 492.14C-5.84 493.4 -3.68 494.24 -2.22 494.24C-1.1 494.24 -0.4 493.82 -0.4 493.02C-0.4 490.54 -7.8 492.02 -7.8 487.06C-7.8 484.48 -5.58 482.84 -2.22 482.84ZM16.2311 485.8H8.83109V488.58H15.5111V491.38H8.83109V494.2H16.4511V497H5.27109V483H16.2311V485.8ZM32.4077 496.56L33.6677 498.76C32.5877 499.72 31.0077 500.3 29.6077 500.3C27.6677 500.3 26.0277 499.1 25.1077 497.16C20.9277 497.02 17.8277 494 17.8277 489.98C17.8277 485.9 21.0677 482.88 25.3877 482.88C29.7277 482.88 32.9677 485.92 32.9677 489.98C32.9677 493.08 31.1077 495.62 28.3077 496.66C28.7877 497.26 29.3677 497.62 30.0077 497.62C30.6477 497.62 31.5477 497.22 32.4077 496.56ZM21.4677 490C21.4677 492.36 23.2877 494.18 25.4277 494.18C27.5877 494.18 29.3077 492.36 29.3077 490C29.3077 487.64 27.5877 485.86 25.4277 485.86C23.2677 485.86 21.4677 487.64 21.4677 490ZM47.5391 483V491.12C47.5391 494.82 45.0791 497.16 41.1591 497.16C37.2191 497.16 34.6991 494.82 34.6991 491.12V483H38.2591V491.12C38.2591 493.02 39.4791 494.18 41.1791 494.18C42.8591 494.18 43.9991 493.02 43.9991 491.12V483H47.5391ZM61.0553 485.8H53.6553V488.58H60.3353V491.38H53.6553V494.2H61.2753V497H50.0953V483H61.0553V485.8ZM76.4919 497H73.3519L66.9119 488.38V497H63.5719V483H66.7119L73.1719 491.64V483H76.4919V497ZM85.8545 482.88C87.9345 482.88 90.0945 483.8 91.4945 485.24L89.4345 487.68C88.5145 486.56 87.1545 485.86 85.9145 485.86C83.6945 485.86 82.0145 487.62 82.0145 489.92C82.0145 492.26 83.6945 494.04 85.9145 494.04C87.0945 494.04 88.4545 493.4 89.4345 492.4L91.5145 494.6C90.0145 496.14 87.7945 497.16 85.7345 497.16C81.5145 497.16 78.3745 494.06 78.3745 489.96C78.3745 485.92 81.5945 482.88 85.8545 482.88ZM104.102 485.8H96.7022V488.58H103.382V491.38H96.7022V494.2H104.322V497H93.1422V483H104.102V485.8Z" fill="#B9B9B9"/>
<path d="M164 467.5H255C266.874 467.5 276.5 477.126 276.5 489C276.5 500.874 266.874 510.5 255 510.5H164C152.126 510.5 142.5 500.874 142.5 489C142.5 477.126 152.126 467.5 164 467.5Z" stroke="url(#paint26_linear_162_3)"/>
<path d="M162.96 497H159.4V483H162.96V497ZM178.687 497H175.547L169.107 488.38V497H165.767V483H168.907L175.367 491.64V483H178.687V497ZM192.19 485.86H187.97V497H184.41V485.86H180.23V482.98H192.19V485.86ZM204.676 485.8H197.276V488.58H203.956V491.38H197.276V494.2H204.896V497H193.716V483H204.676V485.8ZM215.633 497L213.553 493.06H213.453H210.753V497H207.193V483H213.453C217.153 483 219.273 484.76 219.273 487.88C219.273 490.02 218.373 491.56 216.733 492.38L219.673 497H215.633ZM210.753 490.26H213.453C214.993 490.26 215.893 489.48 215.893 488C215.893 486.54 214.993 485.8 213.453 485.8H210.753V490.26ZM229.229 497H225.549L220.109 483H223.909L227.489 493.3L231.069 483H234.729L229.229 497ZM244.325 494.42H238.205L237.185 497H233.525L239.565 483H243.225L249.125 497H245.325L244.325 494.42ZM243.285 491.72L241.285 486.54L239.245 491.72H243.285ZM253.976 494.02H259.916V497H250.416V483H253.976V494.02Z" fill="#B9B9B9"/>
<path d="M319 467.5H378C389.874 467.5 399.5 477.126 399.5 489C399.5 500.874 389.874 510.5 378 510.5H319C307.126 510.5 297.5 500.874 297.5 489C297.5 477.126 307.126 467.5 319 467.5Z" stroke="url(#paint27_linear_162_3)"/>
<path d="M314.4 483H320.5C324.08 483 326.14 484.76 326.14 487.88C326.14 491.16 324.08 493.06 320.5 493.06H317.96V497H314.4V483ZM317.96 485.8V490.26H320.32C321.88 490.26 322.78 489.48 322.78 488C322.78 486.54 321.88 485.8 320.32 485.8H317.96ZM340.914 497H337.354V491.56H331.554V497H327.994V483H331.554V488.76H337.354V483H340.914V497ZM353.016 494.42H346.896L345.876 497H342.216L348.256 483H351.916L357.816 497H354.016L353.016 494.42ZM351.976 491.72L349.976 486.54L347.936 491.72H351.976ZM364.428 482.84C366.448 482.84 368.508 483.46 369.948 484.4L368.608 487.18C367.128 486.32 365.268 485.72 364.128 485.72C363.208 485.72 362.588 486.06 362.588 486.74C362.588 489.16 369.988 487.78 369.988 492.84C369.988 495.64 367.508 497.12 364.388 497.12C362.048 497.12 359.648 496.24 357.988 494.88L359.368 492.14C360.808 493.4 362.968 494.24 364.428 494.24C365.548 494.24 366.248 493.82 366.248 493.02C366.248 490.54 358.848 492.02 358.848 487.06C358.848 484.48 361.068 482.84 364.428 482.84ZM382.88 485.8H375.48V488.58H382.16V491.38H375.48V494.2H383.1V497H371.92V483H382.88V485.8Z" fill="#B9B9B9"/>
<path d="M-77 531.5H64C75.8741 531.5 85.5 541.126 85.5 553C85.5 564.874 75.8741 574.5 64 574.5H-77C-88.8741 574.5 -98.5 564.874 -98.5 553C-98.5 541.126 -88.8741 531.5 -77 531.5Z" stroke="url(#paint28_linear_162_3)"/>
<path d="M-72.3 558.42H-78.42L-79.44 561H-83.1L-77.06 547H-73.4L-67.5 561H-71.3L-72.3 558.42ZM-73.34 555.72L-75.34 550.54L-77.38 555.72H-73.34ZM-66.2094 547H-60.1094C-56.5294 547 -54.4694 548.76 -54.4694 551.88C-54.4694 555.16 -56.5294 557.06 -60.1094 557.06H-62.6494V561H-66.2094V547ZM-62.6494 549.8V554.26H-60.2894C-58.7294 554.26 -57.8294 553.48 -57.8294 552C-57.8294 550.54 -58.7294 549.8 -60.2894 549.8H-62.6494ZM-52.6156 547H-46.5156C-42.9356 547 -40.8756 548.76 -40.8756 551.88C-40.8756 555.16 -42.9356 557.06 -46.5156 557.06H-49.0556V561H-52.6156V547ZM-49.0556 549.8V554.26H-46.6956C-45.1356 554.26 -44.2356 553.48 -44.2356 552C-44.2356 550.54 -45.1356 549.8 -46.6956 549.8H-49.0556ZM-32.3819 546.88C-28.0419 546.88 -24.8019 549.92 -24.8019 553.98C-24.8019 558.06 -28.0419 561.16 -32.3819 561.16C-36.7019 561.16 -39.9419 558.08 -39.9419 553.98C-39.9419 549.9 -36.7019 546.88 -32.3819 546.88ZM-32.3419 549.86C-34.5019 549.86 -36.3019 551.64 -36.3019 554C-36.3019 556.36 -34.4819 558.18 -32.3419 558.18C-30.1819 558.18 -28.4619 556.36 -28.4619 554C-28.4619 551.64 -30.1819 549.86 -32.3419 549.86ZM-19.3681 561H-22.9281V547H-19.3681V561ZM-3.64094 561H-6.78094L-13.2209 552.38V561H-16.5609V547H-13.4209L-6.96094 555.64V547H-3.64094V561ZM9.86172 549.86H5.64172V561H2.08172V549.86H-2.09828V546.98H9.86172V549.86ZM26.7683 561H23.6283L23.6083 551.9L20.2483 559.6H17.9283L14.5683 551.9V561H11.3883V546.98H15.2883L19.0883 555.32L22.8883 546.98H26.7683V561ZM40.5514 549.8H33.1514V552.58H39.8314V555.38H33.1514V558.2H40.7714V561H29.5914V547H40.5514V549.8ZM55.988 561H52.848L46.408 552.38V561H43.068V547H46.208L52.668 555.64V547H55.988V561ZM69.4906 549.86H65.2706V561H61.7106V549.86H57.5306V546.98H69.4906V549.86Z" fill="#B9B9B9"/>
<path d="M128 531.5H223C234.874 531.5 244.5 541.126 244.5 553C244.5 564.874 234.874 574.5 223 574.5H128C116.126 574.5 106.5 564.874 106.5 553C106.5 541.311 115.828 531.801 127.445 531.507L128 531.5Z" stroke="url(#paint29_linear_162_3)"/>
<path d="M123.4 547H129.42C133.82 547 136.86 549.84 136.86 554C136.86 558.14 133.78 561 129.28 561H123.4V547ZM126.96 549.84V558.16H129.5C131.68 558.16 133.24 556.48 133.24 554.02C133.24 551.54 131.6 549.84 129.34 549.84H126.96ZM149.692 549.8H142.292V552.58H148.972V555.38H142.292V558.2H149.912V561H138.732V547H149.692V549.8ZM161.509 558.42H155.389L154.369 561H150.709L156.749 547H160.409L166.309 561H162.509L161.509 558.42ZM160.469 555.72L158.469 550.54L156.429 555.72H160.469ZM167.599 547H173.619C178.019 547 181.059 549.84 181.059 554C181.059 558.14 177.979 561 173.479 561H167.599V547ZM171.159 549.84V558.16H173.699C175.879 558.16 177.439 556.48 177.439 554.02C177.439 551.54 175.799 549.84 173.539 549.84H171.159ZM186.491 558.02H192.431V561H182.931V547H186.491V558.02ZM197.683 561H194.123V547H197.683V561ZM213.41 561H210.27L203.83 552.38V561H200.49V547H203.63L210.09 555.64V547H213.41V561ZM227.173 549.8H219.773V552.58H226.453V555.38H219.773V558.2H227.393V561H216.213V547H227.173V549.8Z" fill="#B9B9B9"/>
<path d="M287 531.5H330C341.874 531.5 351.5 541.126 351.5 553C351.5 564.874 341.874 574.5 330 574.5H287C275.126 574.5 265.5 564.874 265.5 553C265.5 541.126 275.126 531.5 287 531.5Z" stroke="url(#paint30_linear_162_3)"/>
<path d="M282.4 547H288.42C292.82 547 295.86 549.84 295.86 554C295.86 558.14 292.78 561 288.28 561H282.4V547ZM285.96 549.84V558.16H288.5C290.68 558.16 292.24 556.48 292.24 554.02C292.24 551.54 290.6 549.84 288.34 549.84H285.96ZM306.661 558.42H300.541L299.521 561H295.861L301.901 547H305.561L311.461 561H307.661L306.661 558.42ZM305.621 555.72L303.621 550.54L301.581 555.72H305.621ZM321.948 549.86H317.728V561H314.168V549.86H309.988V546.98H321.948V549.86ZM334.434 549.8H327.034V552.58H333.714V555.38H327.034V558.2H334.654V561H323.474V547H334.434V549.8Z" fill="#B9B9B9"/>
<path d="M394 531.5H444C455.874 531.5 465.5 541.126 465.5 553C465.5 564.874 455.874 574.5 444 574.5H394C382.126 574.5 372.5 564.874 372.5 553C372.5 541.126 382.126 531.5 394 531.5Z" stroke="url(#paint31_linear_162_3)"/>
<path d="M-4 595.5H78C89.8741 595.5 99.5 605.126 99.5 617C99.5 628.874 89.8741 638.5 78 638.5H-4C-15.8741 638.5 -25.5 628.874 -25.5 617C-25.5 605.311 -16.1725 595.801 -4.55469 595.507L-4 595.5Z" stroke="url(#paint32_linear_162_3)"/>
<path d="M6.78 625H3.64L3.62 615.9L0.26 623.6H-2.06L-5.42 615.9V625H-8.6V610.98H-4.7L-0.9 619.32L2.9 610.98H6.78V625ZM16.2431 610.88C20.5831 610.88 23.8231 613.92 23.8231 617.98C23.8231 622.06 20.5831 625.16 16.2431 625.16C11.9231 625.16 8.68313 622.08 8.68313 617.98C8.68313 613.9 11.9231 610.88 16.2431 610.88ZM16.2831 613.86C14.1231 613.86 12.3231 615.64 12.3231 618C12.3231 620.36 14.1431 622.18 16.2831 622.18C18.4431 622.18 20.1631 620.36 20.1631 618C20.1631 615.64 18.4431 613.86 16.2831 613.86ZM41.0769 625H37.9369L37.9169 615.9L34.5569 623.6H32.2369L28.8769 615.9V625H25.6969V610.98H29.5969L33.3969 619.32L37.1969 610.98H41.0769V625ZM54.86 613.8H47.46V616.58H54.14V619.38H47.46V622.2H55.08V625H43.9V611H54.86V613.8ZM70.2966 625H67.1566L60.7166 616.38V625H57.3766V611H60.5166L66.9766 619.64V611H70.2966V625ZM83.7992 613.86H79.5792V625H76.0192V613.86H71.8392V610.98H83.7992V613.86Z" fill="#B9B9B9"/>
<path d="M142 595.5H204C215.874 595.5 225.5 605.126 225.5 617C225.5 628.874 215.874 638.5 204 638.5H142C130.126 638.5 120.5 628.874 120.5 617C120.5 605.311 129.828 595.801 141.445 595.507L142 595.5Z" stroke="url(#paint33_linear_162_3)"/>
<path d="M148.1 613.86H143.88V625H140.32V613.86H136.14V610.98H148.1V613.86ZM153.187 625H149.627V611H153.187V625ZM171.374 625H168.234L168.214 615.9L164.854 623.6H162.534L159.174 615.9V625H155.994V610.98H159.894L163.694 619.32L167.494 610.98H171.374V625ZM177.757 625H174.197V611H177.757V625ZM193.484 625H190.344L183.904 616.38V625H180.564V611H183.704L190.164 619.64V611H193.484V625ZM205.587 617.88H208.667V623.34C207.167 624.4 204.807 625.16 202.847 625.16C198.587 625.16 195.367 622.08 195.367 618C195.367 613.94 198.667 610.88 203.087 610.88C205.167 610.88 207.367 611.68 208.807 612.96L206.807 615.38C205.787 614.44 204.367 613.86 203.067 613.86C200.767 613.86 199.007 615.66 199.007 618C199.007 620.38 200.787 622.18 203.107 622.18C203.827 622.18 204.747 621.92 205.587 621.5V617.88Z" fill="#B9B9B9"/>
<path d="M268 595.5H377C388.874 595.5 398.5 605.126 398.5 617C398.5 628.874 388.874 638.5 377 638.5H268C256.126 638.5 246.5 628.874 246.5 617C246.5 605.126 256.126 595.5 268 595.5Z" stroke="url(#paint34_linear_162_3)"/>
<path d="M269.96 610.88C272.04 610.88 274.2 611.8 275.6 613.24L273.54 615.68C272.62 614.56 271.26 613.86 270.02 613.86C267.8 613.86 266.12 615.62 266.12 617.92C266.12 620.26 267.8 622.04 270.02 622.04C271.2 622.04 272.56 621.4 273.54 620.4L275.62 622.6C274.12 624.14 271.9 625.16 269.84 625.16C265.62 625.16 262.48 622.06 262.48 617.96C262.48 613.92 265.7 610.88 269.96 610.88ZM290.168 625H286.608V619.56H280.808V625H277.248V611H280.808V616.76H286.608V611H290.168V625ZM301.41 625L299.33 621.06H299.23H296.53V625H292.97V611H299.23C302.93 611 305.05 612.76 305.05 615.88C305.05 618.02 304.15 619.56 302.51 620.38L305.45 625H301.41ZM296.53 618.26H299.23C300.77 618.26 301.67 617.48 301.67 616C301.67 614.54 300.77 613.8 299.23 613.8H296.53V618.26ZM314.083 610.88C318.423 610.88 321.663 613.92 321.663 617.98C321.663 622.06 318.423 625.16 314.083 625.16C309.763 625.16 306.523 622.08 306.523 617.98C306.523 613.9 309.763 610.88 314.083 610.88ZM314.123 613.86C311.963 613.86 310.163 615.64 310.163 618C310.163 620.36 311.983 622.18 314.123 622.18C316.283 622.18 318.003 620.36 318.003 618C318.003 615.64 316.283 613.86 314.123 613.86ZM336.457 625H333.317L326.877 616.38V625H323.537V611H326.677L333.137 619.64V611H336.457V625ZM342.819 625H339.259V611H342.819V625ZM352.187 610.88C354.267 610.88 356.427 611.8 357.827 613.24L355.767 615.68C354.847 614.56 353.487 613.86 352.247 613.86C350.027 613.86 348.347 615.62 348.347 617.92C348.347 620.26 350.027 622.04 352.247 622.04C353.427 622.04 354.787 621.4 355.767 620.4L357.847 622.6C356.347 624.14 354.127 625.16 352.067 625.16C347.847 625.16 344.707 622.06 344.707 617.96C344.707 613.92 347.927 610.88 352.187 610.88ZM363.034 622.02H368.974V625H359.474V611H363.034V622.02ZM381.626 613.8H374.226V616.58H380.906V619.38H374.226V622.2H381.846V625H370.666V611H381.626V613.8Z" fill="#B9B9B9"/>
<path d="M-94 659.5H6C17.8741 659.5 27.5 669.126 27.5 681C27.5 692.874 17.8741 702.5 6 702.5H-94C-105.874 702.5 -115.5 692.874 -115.5 681C-115.5 669.126 -105.874 659.5 -94 659.5Z" stroke="url(#paint35_linear_162_3)"/>
<path d="M-93.22 674.84C-91.2 674.84 -89.14 675.46 -87.7 676.4L-89.04 679.18C-90.52 678.32 -92.38 677.72 -93.52 677.72C-94.44 677.72 -95.06 678.06 -95.06 678.74C-95.06 681.16 -87.66 679.78 -87.66 684.84C-87.66 687.64 -90.14 689.12 -93.26 689.12C-95.6 689.12 -98 688.24 -99.66 686.88L-98.28 684.14C-96.84 685.4 -94.68 686.24 -93.22 686.24C-92.1 686.24 -91.4 685.82 -91.4 685.02C-91.4 682.54 -98.8 684.02 -98.8 679.06C-98.8 676.48 -96.58 674.84 -93.22 674.84ZM-79.1689 674.88C-77.0889 674.88 -74.9289 675.8 -73.5289 677.24L-75.5889 679.68C-76.5089 678.56 -77.8689 677.86 -79.1089 677.86C-81.3289 677.86 -83.0089 679.62 -83.0089 681.92C-83.0089 684.26 -81.3289 686.04 -79.1089 686.04C-77.9289 686.04 -76.5689 685.4 -75.5889 684.4L-73.5089 686.6C-75.0089 688.14 -77.2289 689.16 -79.2889 689.16C-83.5089 689.16 -86.6489 686.06 -86.6489 681.96C-86.6489 677.92 -83.4289 674.88 -79.1689 674.88ZM-58.9612 689H-62.5212V683.56H-68.3212V689H-71.8812V675H-68.3212V680.76H-62.5212V675H-58.9612V689ZM-45.1986 677.8H-52.5986V680.58H-45.9186V683.38H-52.5986V686.2H-44.9786V689H-56.1586V675H-45.1986V677.8ZM-42.682 675H-36.662C-32.262 675 -29.222 677.84 -29.222 682C-29.222 686.14 -32.302 689 -36.802 689H-42.682V675ZM-39.122 677.84V686.16H-36.582C-34.402 686.16 -32.842 684.48 -32.842 682.02C-32.842 679.54 -34.482 677.84 -36.742 677.84H-39.122ZM-14.75 675V683.12C-14.75 686.82 -17.21 689.16 -21.13 689.16C-25.07 689.16 -27.59 686.82 -27.59 683.12V675H-24.03V683.12C-24.03 685.02 -22.81 686.18 -21.11 686.18C-19.43 686.18 -18.29 685.02 -18.29 683.12V675H-14.75ZM-8.63375 686.02H-2.69375V689H-12.1937V675H-8.63375V686.02ZM9.95766 677.8H2.55766V680.58H9.23766V683.38H2.55766V686.2H10.1777V689H-1.00234V675H9.95766V677.8Z" fill="#B9B9B9"/>
<path d="M70 659.5H128C139.874 659.5 149.5 669.126 149.5 681C149.5 692.874 139.874 702.5 128 702.5H70C58.1259 702.5 48.5 692.874 48.5 681C48.5 669.311 57.8275 659.801 69.4453 659.507L70 659.5Z" stroke="url(#paint36_linear_162_3)"/>
<path d="M76.36 677.8H68.96V680.58H75.64V683.38H68.96V686.2H76.58V689H65.4V675H76.36V677.8ZM86.5766 689H82.8966L77.4566 675H81.2566L84.8366 685.3L88.4166 675H92.0766L86.5766 689ZM104.407 677.8H97.0069V680.58H103.687V683.38H97.0069V686.2H104.627V689H93.4469V675H104.407V677.8ZM119.843 689H116.703L110.263 680.38V689H106.923V675H110.063L116.523 683.64V675H119.843V689ZM133.346 677.86H129.126V689H125.566V677.86H121.386V674.98H133.346V677.86Z" fill="#B9B9B9"/>
<path d="M192 659.5H274C285.874 659.5 295.5 669.126 295.5 681C295.5 692.874 285.874 702.5 274 702.5H192C180.126 702.5 170.5 692.874 170.5 681C170.5 669.311 179.828 659.801 191.445 659.507L192 659.5Z" stroke="url(#paint37_linear_162_3)"/>
<path d="M202.78 689H199.64L199.62 679.9L196.26 687.6H193.94L190.58 679.9V689H187.4V674.98H191.3L195.1 683.32L198.9 674.98H202.78V689ZM212.243 674.88C216.583 674.88 219.823 677.92 219.823 681.98C219.823 686.06 216.583 689.16 212.243 689.16C207.923 689.16 204.683 686.08 204.683 681.98C204.683 677.9 207.923 674.88 212.243 674.88ZM212.283 677.86C210.123 677.86 208.323 679.64 208.323 682C208.323 684.36 210.143 686.18 212.283 686.18C214.443 686.18 216.163 684.36 216.163 682C216.163 679.64 214.443 677.86 212.283 677.86ZM237.077 689H233.937L233.917 679.9L230.557 687.6H228.237L224.877 679.9V689H221.697V674.98H225.597L229.397 683.32L233.197 674.98H237.077V689ZM250.86 677.8H243.46V680.58H250.14V683.38H243.46V686.2H251.08V689H239.9V675H250.86V677.8ZM266.297 689H263.157L256.717 680.38V689H253.377V675H256.517L262.977 683.64V675H266.297V689ZM279.799 677.86H275.579V689H272.019V677.86H267.839V674.98H279.799V677.86Z" fill="#B9B9B9"/>
<path d="M338 659.5H417C428.874 659.5 438.5 669.126 438.5 681C438.5 692.874 428.874 702.5 417 702.5H338C326.126 702.5 316.5 692.874 316.5 681C316.5 669.126 326.126 659.5 338 659.5Z" stroke="url(#paint38_linear_162_3)"/>
<path d="M338.78 674.84C340.8 674.84 342.86 675.46 344.3 676.4L342.96 679.18C341.48 678.32 339.62 677.72 338.48 677.72C337.56 677.72 336.94 678.06 336.94 678.74C336.94 681.16 344.34 679.78 344.34 684.84C344.34 687.64 341.86 689.12 338.74 689.12C336.4 689.12 334 688.24 332.34 686.88L333.72 684.14C335.16 685.4 337.32 686.24 338.78 686.24C339.9 686.24 340.6 685.82 340.6 685.02C340.6 682.54 333.2 684.02 333.2 679.06C333.2 676.48 335.42 674.84 338.78 674.84ZM357.231 677.8H349.831V680.58H356.511V683.38H349.831V686.2H357.451V689H346.271V675H357.231V677.8ZM365.128 674.84C367.148 674.84 369.208 675.46 370.648 676.4L369.308 679.18C367.828 678.32 365.968 677.72 364.828 677.72C363.908 677.72 363.288 678.06 363.288 678.74C363.288 681.16 370.688 679.78 370.688 684.84C370.688 687.64 368.208 689.12 365.088 689.12C362.748 689.12 360.348 688.24 358.688 686.88L360.068 684.14C361.508 685.4 363.668 686.24 365.128 686.24C366.248 686.24 366.948 685.82 366.948 685.02C366.948 682.54 359.548 684.02 359.548 679.06C359.548 676.48 361.768 674.84 365.128 674.84ZM377.999 674.84C380.019 674.84 382.079 675.46 383.519 676.4L382.179 679.18C380.699 678.32 378.839 677.72 377.699 677.72C376.779 677.72 376.159 678.06 376.159 678.74C376.159 681.16 383.559 679.78 383.559 684.84C383.559 687.64 381.079 689.12 377.959 689.12C375.619 689.12 373.219 688.24 371.559 686.88L372.939 684.14C374.379 685.4 376.539 686.24 377.999 686.24C379.119 686.24 379.819 685.82 379.819 685.02C379.819 682.54 372.419 684.02 372.419 679.06C372.419 676.48 374.639 674.84 377.999 674.84ZM389.05 689H385.49V675H389.05V689ZM398.497 674.88C402.837 674.88 406.077 677.92 406.077 681.98C406.077 686.06 402.837 689.16 398.497 689.16C394.177 689.16 390.937 686.08 390.937 681.98C390.937 677.9 394.177 674.88 398.497 674.88ZM398.537 677.86C396.377 677.86 394.577 679.64 394.577 682C394.577 684.36 396.397 686.18 398.537 686.18C400.697 686.18 402.417 684.36 402.417 682C402.417 679.64 400.697 677.86 398.537 677.86ZM420.871 689H417.731L411.291 680.38V689H407.951V675H411.091L417.551 683.64V675H420.871V689Z" fill="#B9B9B9"/>
<path d="M-107 723.5H-16C-4.12588 723.5 5.5 733.126 5.5 745C5.5 756.874 -4.12588 766.5 -16 766.5H-107C-118.874 766.5 -128.5 756.874 -128.5 745C-128.5 733.126 -118.874 723.5 -107 723.5Z" stroke="url(#paint39_linear_162_3)"/>
<path d="M48 723.5H127C138.874 723.5 148.5 733.126 148.5 745C148.5 756.874 138.874 766.5 127 766.5H48C36.1259 766.5 26.5 756.874 26.5 745C26.5 733.126 36.1259 723.5 48 723.5Z" stroke="url(#paint40_linear_162_3)"/>
<path d="M48.78 738.84C50.8 738.84 52.86 739.46 54.3 740.4L52.96 743.18C51.48 742.32 49.62 741.72 48.48 741.72C47.56 741.72 46.94 742.06 46.94 742.74C46.94 745.16 54.34 743.78 54.34 748.84C54.34 751.64 51.86 753.12 48.74 753.12C46.4 753.12 44 752.24 42.34 750.88L43.72 748.14C45.16 749.4 47.32 750.24 48.78 750.24C49.9 750.24 50.6 749.82 50.6 749.02C50.6 746.54 43.2 748.02 43.2 743.06C43.2 740.48 45.42 738.84 48.78 738.84ZM67.2311 741.8H59.8311V744.58H66.5111V747.38H59.8311V750.2H67.4511V753H56.2711V739H67.2311V741.8ZM75.1277 738.84C77.1477 738.84 79.2077 739.46 80.6477 740.4L79.3077 743.18C77.8277 742.32 75.9677 741.72 74.8277 741.72C73.9077 741.72 73.2877 742.06 73.2877 742.74C73.2877 745.16 80.6877 743.78 80.6877 748.84C80.6877 751.64 78.2077 753.12 75.0877 753.12C72.7477 753.12 70.3477 752.24 68.6877 750.88L70.0677 748.14C71.5077 749.4 73.6677 750.24 75.1277 750.24C76.2477 750.24 76.9477 749.82 76.9477 749.02C76.9477 746.54 69.5477 748.02 69.5477 743.06C69.5477 740.48 71.7677 738.84 75.1277 738.84ZM87.9988 738.84C90.0188 738.84 92.0788 739.46 93.5188 740.4L92.1788 743.18C90.6988 742.32 88.8388 741.72 87.6988 741.72C86.7788 741.72 86.1588 742.06 86.1588 742.74C86.1588 745.16 93.5588 743.78 93.5588 748.84C93.5588 751.64 91.0788 753.12 87.9588 753.12C85.6188 753.12 83.2188 752.24 81.5588 750.88L82.9388 748.14C84.3788 749.4 86.5388 750.24 87.9988 750.24C89.1188 750.24 89.8188 749.82 89.8188 749.02C89.8188 746.54 82.4188 748.02 82.4188 743.06C82.4188 740.48 84.6388 738.84 87.9988 738.84ZM99.0498 753H95.4898V739H99.0498V753ZM108.497 738.88C112.837 738.88 116.077 741.92 116.077 745.98C116.077 750.06 112.837 753.16 108.497 753.16C104.177 753.16 100.937 750.08 100.937 745.98C100.937 741.9 104.177 738.88 108.497 738.88ZM108.537 741.86C106.377 741.86 104.577 743.64 104.577 746C104.577 748.36 106.397 750.18 108.537 750.18C110.697 750.18 112.417 748.36 112.417 746C112.417 743.64 110.697 741.86 108.537 741.86ZM130.871 753H127.731L121.291 744.38V753H117.951V739H121.091L127.551 747.64V739H130.871V753Z" fill="#B9B9B9"/>
<path d="M191 723.5H332C343.874 723.5 353.5 733.126 353.5 745C353.5 756.874 343.874 766.5 332 766.5H191C179.126 766.5 169.5 756.874 169.5 745C169.5 733.126 179.126 723.5 191 723.5Z" stroke="url(#paint41_linear_162_3)"/>
<path d="M195.7 750.42H189.58L188.56 753H184.9L190.94 739H194.6L200.5 753H196.7L195.7 750.42ZM194.66 747.72L192.66 742.54L190.62 747.72H194.66ZM201.791 739H207.891C211.471 739 213.531 740.76 213.531 743.88C213.531 747.16 211.471 749.06 207.891 749.06H205.351V753H201.791V739ZM205.351 741.8V746.26H207.711C209.271 746.26 210.171 745.48 210.171 744C210.171 742.54 209.271 741.8 207.711 741.8H205.351ZM215.384 739H221.484C225.064 739 227.124 740.76 227.124 743.88C227.124 747.16 225.064 749.06 221.484 749.06H218.944V753H215.384V739ZM218.944 741.8V746.26H221.304C222.864 746.26 223.764 745.48 223.764 744C223.764 742.54 222.864 741.8 221.304 741.8H218.944ZM235.618 738.88C239.958 738.88 243.198 741.92 243.198 745.98C243.198 750.06 239.958 753.16 235.618 753.16C231.298 753.16 228.058 750.08 228.058 745.98C228.058 741.9 231.298 738.88 235.618 738.88ZM235.658 741.86C233.498 741.86 231.698 743.64 231.698 746C231.698 748.36 233.518 750.18 235.658 750.18C237.818 750.18 239.538 748.36 239.538 746C239.538 743.64 237.818 741.86 235.658 741.86ZM248.632 753H245.072V739H248.632V753ZM264.359 753H261.219L254.779 744.38V753H251.439V739H254.579L261.039 747.64V739H264.359V753ZM277.862 741.86H273.642V753H270.082V741.86H265.902V738.98H277.862V741.86ZM294.768 753H291.628L291.608 743.9L288.248 751.6H285.928L282.568 743.9V753H279.388V738.98H283.288L287.088 747.32L290.888 738.98H294.768V753ZM308.551 741.8H301.151V744.58H307.831V747.38H301.151V750.2H308.771V753H297.591V739H308.551V741.8ZM323.988 753H320.848L314.408 744.38V753H311.068V739H314.208L320.668 747.64V739H323.988V753ZM337.491 741.86H333.271V753H329.711V741.86H325.531V738.98H337.491V741.86Z" fill="#B9B9B9"/>
<path d="M396 723.5H491C502.874 723.5 512.5 733.126 512.5 745C512.5 756.874 502.874 766.5 491 766.5H396C384.126 766.5 374.5 756.874 374.5 745C374.5 733.311 383.828 723.801 395.445 723.507L396 723.5Z" stroke="url(#paint42_linear_162_3)"/>
</g>
<defs>
<linearGradient id="paint0_linear_162_3" x1="122" y1="41" x2="-25" y2="41" gradientUnits="userSpaceOnUse">
<stop stop-color="white" stop-opacity="0"/>
<stop offset="0.5" stop-color="white"/>
<stop offset="1" stop-color="white" stop-opacity="0"/>
</linearGradient>
<linearGradient id="paint1_linear_162_3" x1="277" y1="41" x2="142" y2="41" gradientUnits="userSpaceOnUse">
<stop stop-color="white" stop-opacity="0"/>
<stop offset="0.5" stop-color="white"/>
<stop offset="1" stop-color="white" stop-opacity="0"/>
</linearGradient>
<linearGradient id="paint2_linear_162_3" x1="400" y1="41" x2="297" y2="41" gradientUnits="userSpaceOnUse">
<stop stop-color="white" stop-opacity="0"/>
<stop offset="0.5" stop-color="white"/>
<stop offset="1" stop-color="white" stop-opacity="0"/>
</linearGradient>
<linearGradient id="paint3_linear_162_3" x1="86" y1="105" x2="-99" y2="105" gradientUnits="userSpaceOnUse">
<stop stop-color="white" stop-opacity="0"/>
<stop offset="0.5" stop-color="white"/>
<stop offset="1" stop-color="white" stop-opacity="0"/>
</linearGradient>
<linearGradient id="paint4_linear_162_3" x1="245" y1="105" x2="106" y2="105" gradientUnits="userSpaceOnUse">
<stop stop-color="white" stop-opacity="0"/>
<stop offset="0.5" stop-color="white"/>
<stop offset="1" stop-color="white" stop-opacity="0"/>
</linearGradient>
<linearGradient id="paint5_linear_162_3" x1="352" y1="105" x2="265" y2="105" gradientUnits="userSpaceOnUse">
<stop stop-color="white" stop-opacity="0"/>
<stop offset="0.5" stop-color="white"/>
<stop offset="1" stop-color="white" stop-opacity="0"/>
</linearGradient>
<linearGradient id="paint6_linear_162_3" x1="466" y1="105" x2="372" y2="105" gradientUnits="userSpaceOnUse">
<stop stop-color="white" stop-opacity="0"/>
<stop offset="0.5" stop-color="white"/>
<stop offset="1" stop-color="white" stop-opacity="0"/>
</linearGradient>
<linearGradient id="paint7_linear_162_3" x1="100" y1="169" x2="-26" y2="169" gradientUnits="userSpaceOnUse">
<stop stop-color="white" stop-opacity="0"/>
<stop offset="0.5" stop-color="white"/>
<stop offset="1" stop-color="white" stop-opacity="0"/>
</linearGradient>
<linearGradient id="paint8_linear_162_3" x1="226" y1="169" x2="120" y2="169" gradientUnits="userSpaceOnUse">
<stop stop-color="white" stop-opacity="0"/>
<stop offset="0.5" stop-color="white"/>
<stop offset="1" stop-color="white" stop-opacity="0"/>
</linearGradient>
<linearGradient id="paint9_linear_162_3" x1="399" y1="169" x2="246" y2="169" gradientUnits="userSpaceOnUse">
<stop stop-color="white" stop-opacity="0"/>
<stop offset="0.5" stop-color="white"/>
<stop offset="1" stop-color="white" stop-opacity="0"/>
</linearGradient>
<linearGradient id="paint10_linear_162_3" x1="28" y1="233" x2="-116" y2="233" gradientUnits="userSpaceOnUse">
<stop stop-color="white" stop-opacity="0"/>
<stop offset="0.5" stop-color="white"/>
<stop offset="1" stop-color="white" stop-opacity="0"/>
</linearGradient>
<linearGradient id="paint11_linear_162_3" x1="150" y1="233" x2="48" y2="233" gradientUnits="userSpaceOnUse">
<stop stop-color="white" stop-opacity="0"/>
<stop offset="0.5" stop-color="white"/>
<stop offset="1" stop-color="white" stop-opacity="0"/>
</linearGradient>
<linearGradient id="paint12_linear_162_3" x1="296" y1="233" x2="170" y2="233" gradientUnits="userSpaceOnUse">
<stop stop-color="white" stop-opacity="0"/>
<stop offset="0.5" stop-color="white"/>
<stop offset="1" stop-color="white" stop-opacity="0"/>
</linearGradient>
<linearGradient id="paint13_linear_162_3" x1="439" y1="233" x2="316" y2="233" gradientUnits="userSpaceOnUse">
<stop stop-color="white" stop-opacity="0"/>
<stop offset="0.5" stop-color="white"/>
<stop offset="1" stop-color="white" stop-opacity="0"/>
</linearGradient>
<linearGradient id="paint14_linear_162_3" x1="6" y1="297" x2="-129" y2="297" gradientUnits="userSpaceOnUse">
<stop stop-color="white" stop-opacity="0"/>
<stop offset="0.5" stop-color="white"/>
<stop offset="1" stop-color="white" stop-opacity="0"/>
</linearGradient>
<linearGradient id="paint15_linear_162_3" x1="149" y1="297" x2="26" y2="297" gradientUnits="userSpaceOnUse">
<stop stop-color="white" stop-opacity="0"/>
<stop offset="0.5" stop-color="white"/>
<stop offset="1" stop-color="white" stop-opacity="0"/>
</linearGradient>
<linearGradient id="paint16_linear_162_3" x1="354" y1="297" x2="169" y2="297" gradientUnits="userSpaceOnUse">
<stop stop-color="white" stop-opacity="0"/>
<stop offset="0.5" stop-color="white"/>
<stop offset="1" stop-color="white" stop-opacity="0"/>
</linearGradient>
<linearGradient id="paint17_linear_162_3" x1="513" y1="297" x2="374" y2="297" gradientUnits="userSpaceOnUse">
<stop stop-color="white" stop-opacity="0"/>
<stop offset="0.5" stop-color="white"/>
<stop offset="1" stop-color="white" stop-opacity="0"/>
</linearGradient>
<linearGradient id="paint18_linear_162_3" x1="94" y1="361" x2="7" y2="361" gradientUnits="userSpaceOnUse">
<stop stop-color="white" stop-opacity="0"/>
<stop offset="0.5" stop-color="white"/>
<stop offset="1" stop-color="white" stop-opacity="0"/>
</linearGradient>
<linearGradient id="paint19_linear_162_3" x1="226" y1="361" x2="114" y2="361" gradientUnits="userSpaceOnUse">
<stop stop-color="white" stop-opacity="0"/>
<stop offset="0.5" stop-color="white"/>
<stop offset="1" stop-color="white" stop-opacity="0"/>
</linearGradient>
<linearGradient id="paint20_linear_162_3" x1="383" y1="361" x2="246" y2="361" gradientUnits="userSpaceOnUse">
<stop stop-color="white" stop-opacity="0"/>
<stop offset="0.5" stop-color="white"/>
<stop offset="1" stop-color="white" stop-opacity="0"/>
</linearGradient>
<linearGradient id="paint21_linear_162_3" x1="4" y1="425" x2="-108" y2="425" gradientUnits="userSpaceOnUse">
<stop stop-color="white" stop-opacity="0"/>
<stop offset="0.5" stop-color="white"/>
<stop offset="1" stop-color="white" stop-opacity="0"/>
</linearGradient>
<linearGradient id="paint22_linear_162_3" x1="126" y1="425" x2="24" y2="425" gradientUnits="userSpaceOnUse">
<stop stop-color="white" stop-opacity="0"/>
<stop offset="0.5" stop-color="white"/>
<stop offset="1" stop-color="white" stop-opacity="0"/>
</linearGradient>
<linearGradient id="paint23_linear_162_3" x1="290" y1="425" x2="146" y2="425" gradientUnits="userSpaceOnUse">
<stop stop-color="white" stop-opacity="0"/>
<stop offset="0.5" stop-color="white"/>
<stop offset="1" stop-color="white" stop-opacity="0"/>
</linearGradient>
<linearGradient id="paint24_linear_162_3" x1="440" y1="425" x2="310" y2="425" gradientUnits="userSpaceOnUse">
<stop stop-color="white" stop-opacity="0"/>
<stop offset="0.5" stop-color="white"/>
<stop offset="1" stop-color="white" stop-opacity="0"/>
</linearGradient>
<linearGradient id="paint25_linear_162_3" x1="122" y1="489" x2="-25" y2="489" gradientUnits="userSpaceOnUse">
<stop stop-color="white" stop-opacity="0"/>
<stop offset="0.5" stop-color="white"/>
<stop offset="1" stop-color="white" stop-opacity="0"/>
</linearGradient>
<linearGradient id="paint26_linear_162_3" x1="277" y1="489" x2="142" y2="489" gradientUnits="userSpaceOnUse">
<stop stop-color="white" stop-opacity="0"/>
<stop offset="0.5" stop-color="white"/>
<stop offset="1" stop-color="white" stop-opacity="0"/>
</linearGradient>
<linearGradient id="paint27_linear_162_3" x1="400" y1="489" x2="297" y2="489" gradientUnits="userSpaceOnUse">
<stop stop-color="white" stop-opacity="0"/>
<stop offset="0.5" stop-color="white"/>
<stop offset="1" stop-color="white" stop-opacity="0"/>
</linearGradient>
<linearGradient id="paint28_linear_162_3" x1="86" y1="553" x2="-99" y2="553" gradientUnits="userSpaceOnUse">
<stop stop-color="white" stop-opacity="0"/>
<stop offset="0.5" stop-color="white"/>
<stop offset="1" stop-color="white" stop-opacity="0"/>
</linearGradient>
<linearGradient id="paint29_linear_162_3" x1="245" y1="553" x2="106" y2="553" gradientUnits="userSpaceOnUse">
<stop stop-color="white" stop-opacity="0"/>
<stop offset="0.5" stop-color="white"/>
<stop offset="1" stop-color="white" stop-opacity="0"/>
</linearGradient>
<linearGradient id="paint30_linear_162_3" x1="352" y1="553" x2="265" y2="553" gradientUnits="userSpaceOnUse">
<stop stop-color="white" stop-opacity="0"/>
<stop offset="0.5" stop-color="white"/>
<stop offset="1" stop-color="white" stop-opacity="0"/>
</linearGradient>
<linearGradient id="paint31_linear_162_3" x1="466" y1="553" x2="372" y2="553" gradientUnits="userSpaceOnUse">
<stop stop-color="white" stop-opacity="0"/>
<stop offset="0.5" stop-color="white"/>
<stop offset="1" stop-color="white" stop-opacity="0"/>
</linearGradient>
<linearGradient id="paint32_linear_162_3" x1="100" y1="617" x2="-26" y2="617" gradientUnits="userSpaceOnUse">
<stop stop-color="white" stop-opacity="0"/>
<stop offset="0.5" stop-color="white"/>
<stop offset="1" stop-color="white" stop-opacity="0"/>
</linearGradient>
<linearGradient id="paint33_linear_162_3" x1="226" y1="617" x2="120" y2="617" gradientUnits="userSpaceOnUse">
<stop stop-color="white" stop-opacity="0"/>
<stop offset="0.5" stop-color="white"/>
<stop offset="1" stop-color="white" stop-opacity="0"/>
</linearGradient>
<linearGradient id="paint34_linear_162_3" x1="399" y1="617" x2="246" y2="617" gradientUnits="userSpaceOnUse">
<stop stop-color="white" stop-opacity="0"/>
<stop offset="0.5" stop-color="white"/>
<stop offset="1" stop-color="white" stop-opacity="0"/>
</linearGradient>
<linearGradient id="paint35_linear_162_3" x1="28" y1="681" x2="-116" y2="681" gradientUnits="userSpaceOnUse">
<stop stop-color="white" stop-opacity="0"/>
<stop offset="0.5" stop-color="white"/>
<stop offset="1" stop-color="white" stop-opacity="0"/>
</linearGradient>
<linearGradient id="paint36_linear_162_3" x1="150" y1="681" x2="48" y2="681" gradientUnits="userSpaceOnUse">
<stop stop-color="white" stop-opacity="0"/>
<stop offset="0.5" stop-color="white"/>
<stop offset="1" stop-color="white" stop-opacity="0"/>
</linearGradient>
<linearGradient id="paint37_linear_162_3" x1="296" y1="681" x2="170" y2="681" gradientUnits="userSpaceOnUse">
<stop stop-color="white" stop-opacity="0"/>
<stop offset="0.5" stop-color="white"/>
<stop offset="1" stop-color="white" stop-opacity="0"/>
</linearGradient>
<linearGradient id="paint38_linear_162_3" x1="439" y1="681" x2="316" y2="681" gradientUnits="userSpaceOnUse">
<stop stop-color="white" stop-opacity="0"/>
<stop offset="0.5" stop-color="white"/>
<stop offset="1" stop-color="white" stop-opacity="0"/>
</linearGradient>
<linearGradient id="paint39_linear_162_3" x1="6" y1="745" x2="-129" y2="745" gradientUnits="userSpaceOnUse">
<stop stop-color="white" stop-opacity="0"/>
<stop offset="0.5" stop-color="white"/>
<stop offset="1" stop-color="white" stop-opacity="0"/>
</linearGradient>
<linearGradient id="paint40_linear_162_3" x1="149" y1="745" x2="26" y2="745" gradientUnits="userSpaceOnUse">
<stop stop-color="white" stop-opacity="0"/>
<stop offset="0.5" stop-color="white"/>
<stop offset="1" stop-color="white" stop-opacity="0"/>
</linearGradient>
<linearGradient id="paint41_linear_162_3" x1="354" y1="745" x2="169" y2="745" gradientUnits="userSpaceOnUse">
<stop stop-color="white" stop-opacity="0"/>
<stop offset="0.5" stop-color="white"/>
<stop offset="1" stop-color="white" stop-opacity="0"/>
</linearGradient>
<linearGradient id="paint42_linear_162_3" x1="513" y1="745" x2="374" y2="745" gradientUnits="userSpaceOnUse">
<stop stop-color="white" stop-opacity="0"/>
<stop offset="0.5" stop-color="white"/>
<stop offset="1" stop-color="white" stop-opacity="0"/>
</linearGradient>
<clipPath id="clip0_162_3">
<rect width="375" height="812" fill="white"/>
</clipPath>
</defs>
</svg>
