<svg width="375" height="812" viewBox="0 0 375 812" fill="none" xmlns="http://www.w3.org/2000/svg">
<g clip-path="url(#clip0_162_2774)">
<rect width="375" height="812" fill="#111111"/>
<path d="M11 -6.5H106C117.874 -6.5 127.5 3.12588 127.5 15C127.5 26.8741 117.874 36.5 106 36.5H11C-0.874121 36.5 -10.5 26.8741 -10.5 15C-10.5 3.31133 -1.17246 -6.19895 10.4453 -6.49316L11 -6.5Z" stroke="url(#paint0_linear_162_2774)"/>
<path d="M6.4 9H12.42C16.82 9 19.86 11.84 19.86 16C19.86 20.14 16.78 23 12.28 23H6.4V9ZM9.96 11.84V20.16H12.5C14.68 20.16 16.24 18.48 16.24 16.02C16.24 13.54 14.6 11.84 12.34 11.84H9.96ZM32.692 11.8H25.292V14.58H31.972V17.38H25.292V20.2H32.912V23H21.732V9H32.692V11.8ZM44.5086 20.42H38.3886L37.3686 23H33.7086L39.7486 9H43.4086L49.3086 23H45.5086L44.5086 20.42ZM43.4686 17.72L41.4686 12.54L39.4286 17.72H43.4686ZM50.5992 9H56.6192C61.0192 9 64.0592 11.84 64.0592 16C64.0592 20.14 60.9792 23 56.4792 23H50.5992V9ZM54.1592 11.84V20.16H56.6992C58.8792 20.16 60.4392 18.48 60.4392 16.02C60.4392 13.54 58.7992 11.84 56.5392 11.84H54.1592ZM69.4913 20.02H75.4313V23H65.9313V9H69.4913V20.02ZM80.6827 23H77.1227V9H80.6827V23ZM96.4098 23H93.2698L86.8298 14.38V23H83.4898V9H86.6298L93.0898 17.64V9H96.4098V23ZM110.173 11.8H102.773V14.58H109.453V17.38H102.773V20.2H110.393V23H99.2125V9H110.173V11.8Z" fill="#B9B9B9"/>
<path d="M170 -6.5H252C263.874 -6.5 273.5 3.12588 273.5 15C273.5 26.8741 263.874 36.5 252 36.5H170C158.126 36.5 148.5 26.8741 148.5 15C148.5 3.31133 157.828 -6.19895 169.445 -6.49316L170 -6.5Z" stroke="url(#paint1_linear_162_2774)"/>
<path d="M180.78 23H177.64L177.62 13.9L174.26 21.6H171.94L168.58 13.9V23H165.4V8.98H169.3L173.1 17.32L176.9 8.98H180.78V23ZM190.243 8.88C194.583 8.88 197.823 11.92 197.823 15.98C197.823 20.06 194.583 23.16 190.243 23.16C185.923 23.16 182.683 20.08 182.683 15.98C182.683 11.9 185.923 8.88 190.243 8.88ZM190.283 11.86C188.123 11.86 186.323 13.64 186.323 16C186.323 18.36 188.143 20.18 190.283 20.18C192.443 20.18 194.163 18.36 194.163 16C194.163 13.64 192.443 11.86 190.283 11.86ZM215.077 23H211.937L211.917 13.9L208.557 21.6H206.237L202.877 13.9V23H199.697V8.98H203.597L207.397 17.32L211.197 8.98H215.077V23ZM228.86 11.8H221.46V14.58H228.14V17.38H221.46V20.2H229.08V23H217.9V9H228.86V11.8ZM244.297 23H241.157L234.717 14.38V23H231.377V9H234.517L240.977 17.64V9H244.297V23ZM257.799 11.86H253.579V23H250.019V11.86H245.839V8.98H257.799V11.86Z" fill="#B9B9B9"/>
<path d="M316 -6.5H378C389.874 -6.5 399.5 3.12588 399.5 15C399.5 26.8741 389.874 36.5 378 36.5H316C304.126 36.5 294.5 26.8741 294.5 15C294.5 3.31133 303.828 -6.19895 315.445 -6.49316L316 -6.5Z" stroke="url(#paint2_linear_162_2774)"/>
<path d="M322.1 11.86H317.88V23H314.32V11.86H310.14V8.98H322.1V11.86ZM327.187 23H323.627V9H327.187V23ZM345.374 23H342.234L342.214 13.9L338.854 21.6H336.534L333.174 13.9V23H329.994V8.98H333.894L337.694 17.32L341.494 8.98H345.374V23ZM351.757 23H348.197V9H351.757V23ZM367.484 23H364.344L357.904 14.38V23H354.564V9H357.704L364.164 17.64V9H367.484V23ZM379.587 15.88H382.667V21.34C381.167 22.4 378.807 23.16 376.847 23.16C372.587 23.16 369.367 20.08 369.367 16C369.367 11.94 372.667 8.88 377.087 8.88C379.167 8.88 381.367 9.68 382.807 10.96L380.807 13.38C379.787 12.44 378.367 11.86 377.067 11.86C374.767 11.86 373.007 13.66 373.007 16C373.007 18.38 374.787 20.18 377.107 20.18C377.827 20.18 378.747 19.92 379.587 19.5V15.88Z" fill="#B9B9B9"/>
<path d="M-96 57.5H16C27.8741 57.5 37.5 67.1259 37.5 79C37.5 90.8741 27.8741 100.5 16 100.5H-96C-107.874 100.5 -117.5 90.8741 -117.5 79C-117.5 67.3113 -108.172 57.801 -96.5547 57.5068L-96 57.5Z" stroke="url(#paint3_linear_162_2774)"/>
<path d="M-89.9 75.86H-94.12V87H-97.68V75.86H-101.86V72.98H-89.9V75.86ZM-84.8134 87H-88.3734V73H-84.8134V87ZM-66.6262 87H-69.7662L-69.7862 77.9L-73.1462 85.6H-75.4662L-78.8262 77.9V87H-82.0062V72.98H-78.1062L-74.3062 81.32L-70.5062 72.98H-66.6262V87ZM-52.8431 75.8H-60.2431V78.58H-53.5631V81.38H-60.2431V84.2H-52.6231V87H-63.8031V73H-52.8431V75.8ZM-39.9466 75.8H-46.7666V79.04H-40.4866V81.84H-46.7666V87H-50.3266V73H-39.9466V75.8ZM-29.8162 87L-31.8962 83.06H-31.9962H-34.6962V87H-38.2562V73H-31.9962C-28.2962 73 -26.1762 74.76 -26.1762 77.88C-26.1762 80.02 -27.0762 81.56 -28.7162 82.38L-25.7762 87H-29.8162ZM-34.6962 80.26H-31.9962C-30.4562 80.26 -29.5563 79.48 -29.5563 78C-29.5563 76.54 -30.4562 75.8 -31.9962 75.8H-34.6962V80.26ZM-14.4836 84.42H-20.6036L-21.6236 87H-25.2836L-19.2436 73H-15.5836L-9.68359 87H-13.4836L-14.4836 84.42ZM-15.5236 81.72L-17.5236 76.54L-19.5636 81.72H-15.5236ZM6.98703 87H3.84703L3.82703 77.9L0.467031 85.6H-1.85297L-5.21297 77.9V87H-8.39297V72.98H-4.49297L-0.692968 81.32L3.10703 72.98H6.98703V87ZM20.7702 75.8H13.3702V78.58H20.0502V81.38H13.3702V84.2H20.9902V87H9.81016V73H20.7702V75.8Z" fill="#B9B9B9"/>
<path d="M80 57.5H180C191.874 57.5 201.5 67.1259 201.5 79C201.5 90.8741 191.874 100.5 180 100.5H80C68.1259 100.5 58.5 90.8741 58.5 79C58.5 67.1259 68.1259 57.5 80 57.5Z" stroke="url(#paint4_linear_162_2774)"/>
<path d="M80.78 72.84C82.8 72.84 84.86 73.46 86.3 74.4L84.96 77.18C83.48 76.32 81.62 75.72 80.48 75.72C79.56 75.72 78.94 76.06 78.94 76.74C78.94 79.16 86.34 77.78 86.34 82.84C86.34 85.64 83.86 87.12 80.74 87.12C78.4 87.12 76 86.24 74.34 84.88L75.72 82.14C77.16 83.4 79.32 84.24 80.78 84.24C81.9 84.24 82.6 83.82 82.6 83.02C82.6 80.54 75.2 82.02 75.2 77.06C75.2 74.48 77.42 72.84 80.78 72.84ZM94.8311 72.88C96.9111 72.88 99.0711 73.8 100.471 75.24L98.4111 77.68C97.4911 76.56 96.1311 75.86 94.8911 75.86C92.6711 75.86 90.9911 77.62 90.9911 79.92C90.9911 82.26 92.6711 84.04 94.8911 84.04C96.0711 84.04 97.4311 83.4 98.4111 82.4L100.491 84.6C98.9911 86.14 96.7711 87.16 94.7111 87.16C90.4911 87.16 87.3511 84.06 87.3511 79.96C87.3511 75.92 90.5711 72.88 94.8311 72.88ZM115.039 87H111.479V81.56H105.679V87H102.119V73H105.679V78.76H111.479V73H115.039V87ZM128.801 75.8H121.401V78.58H128.081V81.38H121.401V84.2H129.021V87H117.841V73H128.801V75.8ZM131.318 73H137.338C141.738 73 144.778 75.84 144.778 80C144.778 84.14 141.698 87 137.198 87H131.318V73ZM134.878 75.84V84.16H137.418C139.598 84.16 141.158 82.48 141.158 80.02C141.158 77.54 139.518 75.84 137.258 75.84H134.878ZM159.25 73V81.12C159.25 84.82 156.79 87.16 152.87 87.16C148.93 87.16 146.41 84.82 146.41 81.12V73H149.97V81.12C149.97 83.02 151.19 84.18 152.89 84.18C154.57 84.18 155.71 83.02 155.71 81.12V73H159.25ZM165.366 84.02H171.306V87H161.806V73H165.366V84.02ZM183.958 75.8H176.558V78.58H183.238V81.38H176.558V84.2H184.178V87H172.998V73H183.958V75.8Z" fill="#B9B9B9"/>
<path d="M244 57.5H302C313.874 57.5 323.5 67.1259 323.5 79C323.5 90.8741 313.874 100.5 302 100.5H244C232.126 100.5 222.5 90.8741 222.5 79C222.5 67.3113 231.828 57.801 243.445 57.5068L244 57.5Z" stroke="url(#paint5_linear_162_2774)"/>
<path d="M250.36 75.8H242.96V78.58H249.64V81.38H242.96V84.2H250.58V87H239.4V73H250.36V75.8ZM260.577 87H256.897L251.457 73H255.257L258.837 83.3L262.417 73H266.077L260.577 87ZM278.407 75.8H271.007V78.58H277.687V81.38H271.007V84.2H278.627V87H267.447V73H278.407V75.8ZM293.843 87H290.703L284.263 78.38V87H280.923V73H284.063L290.523 81.64V73H293.843V87ZM307.346 75.86H303.126V87H299.566V75.86H295.386V72.98H307.346V75.86Z" fill="#B9B9B9"/>
<path d="M366 57.5H448C459.874 57.5 469.5 67.1259 469.5 79C469.5 90.8741 459.874 100.5 448 100.5H366C354.126 100.5 344.5 90.8741 344.5 79C344.5 67.3113 353.828 57.801 365.445 57.5068L366 57.5Z" stroke="url(#paint6_linear_162_2774)"/>
<path d="M376.78 87H373.64L373.62 77.9L370.26 85.6H367.94L364.58 77.9V87H361.4V72.98H365.3L369.1 81.32L372.9 72.98H376.78V87ZM386.243 72.88C390.583 72.88 393.823 75.92 393.823 79.98C393.823 84.06 390.583 87.16 386.243 87.16C381.923 87.16 378.683 84.08 378.683 79.98C378.683 75.9 381.923 72.88 386.243 72.88ZM386.283 75.86C384.123 75.86 382.323 77.64 382.323 80C382.323 82.36 384.143 84.18 386.283 84.18C388.443 84.18 390.163 82.36 390.163 80C390.163 77.64 388.443 75.86 386.283 75.86ZM411.077 87H407.937L407.917 77.9L404.557 85.6H402.237L398.877 77.9V87H395.697V72.98H399.597L403.397 81.32L407.197 72.98H411.077V87ZM424.86 75.8H417.46V78.58H424.14V81.38H417.46V84.2H425.08V87H413.9V73H424.86V75.8ZM440.297 87H437.157L430.717 78.38V87H427.377V73H430.517L436.977 81.64V73H440.297V87ZM453.799 75.86H449.579V87H446.019V75.86H441.839V72.98H453.799V75.86Z" fill="#B9B9B9"/>
<path d="M-55 121.5H43C54.8741 121.5 64.5 131.126 64.5 143C64.5 154.874 54.8741 164.5 43 164.5H-55C-66.8741 164.5 -76.5 154.874 -76.5 143C-76.5 131.311 -67.1725 121.801 -55.5547 121.507L-55 121.5Z" stroke="url(#paint7_linear_162_2774)"/>
<path d="M-59.6 137H-53.58C-49.18 137 -46.14 139.84 -46.14 144C-46.14 148.14 -49.22 151 -53.72 151H-59.6V137ZM-56.04 139.84V148.16H-53.5C-51.32 148.16 -49.76 146.48 -49.76 144.02C-49.76 141.54 -51.4 139.84 -53.66 139.84H-56.04ZM-31.668 137V145.12C-31.668 148.82 -34.128 151.16 -38.048 151.16C-41.988 151.16 -44.508 148.82 -44.508 145.12V137H-40.948V145.12C-40.948 147.02 -39.728 148.18 -38.028 148.18C-36.348 148.18 -35.208 147.02 -35.208 145.12V137H-31.668ZM-20.6717 151L-22.7517 147.06H-22.8517H-25.5517V151H-29.1117V137H-22.8517C-19.1517 137 -17.0317 138.76 -17.0317 141.88C-17.0317 144.02 -17.9317 145.56 -19.5717 146.38L-16.6317 151H-20.6717ZM-25.5517 144.26H-22.8517C-21.3117 144.26 -20.4117 143.48 -20.4117 142C-20.4117 140.54 -21.3117 139.8 -22.8517 139.8H-25.5517V144.26ZM-5.33906 148.42H-11.4591L-12.4791 151H-16.1391L-10.0991 137H-6.43906L-0.539062 151H-4.33906L-5.33906 148.42ZM-6.37906 145.72L-8.37906 140.54L-10.4191 145.72H-6.37906ZM9.94766 139.86H5.72766V151H2.16766V139.86H-2.01234V136.98H9.94766V139.86ZM15.0342 151H11.4742V137H15.0342V151ZM24.4814 136.88C28.8214 136.88 32.0614 139.92 32.0614 143.98C32.0614 148.06 28.8214 151.16 24.4814 151.16C20.1614 151.16 16.9214 148.08 16.9214 143.98C16.9214 139.9 20.1614 136.88 24.4814 136.88ZM24.5214 139.86C22.3614 139.86 20.5614 141.64 20.5614 144C20.5614 146.36 22.3814 148.18 24.5214 148.18C26.6814 148.18 28.4014 146.36 28.4014 144C28.4014 141.64 26.6814 139.86 24.5214 139.86ZM46.8552 151H43.7152L37.2752 142.38V151H33.9352V137H37.0752L43.5352 145.64V137H46.8552V151Z" fill="#B9B9B9"/>
<path d="M107 121.5H198C209.874 121.5 219.5 131.126 219.5 143C219.5 154.874 209.874 164.5 198 164.5H107C95.1259 164.5 85.5 154.874 85.5 143C85.5 131.126 95.1259 121.5 107 121.5Z" stroke="url(#paint8_linear_162_2774)"/>
<path d="M105.96 151H102.4V137H105.96V151ZM121.687 151H118.547L112.107 142.38V151H108.767V137H111.907L118.367 145.64V137H121.687V151ZM135.19 139.86H130.97V151H127.41V139.86H123.23V136.98H135.19V139.86ZM147.676 139.8H140.276V142.58H146.956V145.38H140.276V148.2H147.896V151H136.716V137H147.676V139.8ZM158.633 151L156.553 147.06H156.453H153.753V151H150.193V137H156.453C160.153 137 162.273 138.76 162.273 141.88C162.273 144.02 161.373 145.56 159.733 146.38L162.673 151H158.633ZM153.753 144.26H156.453C157.993 144.26 158.893 143.48 158.893 142C158.893 140.54 157.993 139.8 156.453 139.8H153.753V144.26ZM172.229 151H168.549L163.109 137H166.909L170.489 147.3L174.069 137H177.729L172.229 151ZM187.325 148.42H181.205L180.185 151H176.525L182.565 137H186.225L192.125 151H188.325L187.325 148.42ZM186.285 145.72L184.285 140.54L182.245 145.72H186.285ZM196.976 148.02H202.916V151H193.416V137H196.976V148.02Z" fill="#B9B9B9"/>
<path d="M262 121.5H341C352.874 121.5 362.5 131.126 362.5 143C362.5 154.874 352.874 164.5 341 164.5H262C250.126 164.5 240.5 154.874 240.5 143C240.5 131.126 250.126 121.5 262 121.5Z" stroke="url(#paint9_linear_162_2774)"/>
<path d="M262.78 136.84C264.8 136.84 266.86 137.46 268.3 138.4L266.96 141.18C265.48 140.32 263.62 139.72 262.48 139.72C261.56 139.72 260.94 140.06 260.94 140.74C260.94 143.16 268.34 141.78 268.34 146.84C268.34 149.64 265.86 151.12 262.74 151.12C260.4 151.12 258 150.24 256.34 148.88L257.72 146.14C259.16 147.4 261.32 148.24 262.78 148.24C263.9 148.24 264.6 147.82 264.6 147.02C264.6 144.54 257.2 146.02 257.2 141.06C257.2 138.48 259.42 136.84 262.78 136.84ZM281.231 139.8H273.831V142.58H280.511V145.38H273.831V148.2H281.451V151H270.271V137H281.231V139.8ZM289.128 136.84C291.148 136.84 293.208 137.46 294.648 138.4L293.308 141.18C291.828 140.32 289.968 139.72 288.828 139.72C287.908 139.72 287.288 140.06 287.288 140.74C287.288 143.16 294.688 141.78 294.688 146.84C294.688 149.64 292.208 151.12 289.088 151.12C286.748 151.12 284.348 150.24 282.688 148.88L284.068 146.14C285.508 147.4 287.668 148.24 289.128 148.24C290.248 148.24 290.948 147.82 290.948 147.02C290.948 144.54 283.548 146.02 283.548 141.06C283.548 138.48 285.768 136.84 289.128 136.84ZM301.999 136.84C304.019 136.84 306.079 137.46 307.519 138.4L306.179 141.18C304.699 140.32 302.839 139.72 301.699 139.72C300.779 139.72 300.159 140.06 300.159 140.74C300.159 143.16 307.559 141.78 307.559 146.84C307.559 149.64 305.079 151.12 301.959 151.12C299.619 151.12 297.219 150.24 295.559 148.88L296.939 146.14C298.379 147.4 300.539 148.24 301.999 148.24C303.119 148.24 303.819 147.82 303.819 147.02C303.819 144.54 296.419 146.02 296.419 141.06C296.419 138.48 298.639 136.84 301.999 136.84ZM313.05 151H309.49V137H313.05V151ZM322.497 136.88C326.837 136.88 330.077 139.92 330.077 143.98C330.077 148.06 326.837 151.16 322.497 151.16C318.177 151.16 314.937 148.08 314.937 143.98C314.937 139.9 318.177 136.88 322.497 136.88ZM322.537 139.86C320.377 139.86 318.577 141.64 318.577 144C318.577 146.36 320.397 148.18 322.537 148.18C324.697 148.18 326.417 146.36 326.417 144C326.417 141.64 324.697 139.86 322.537 139.86ZM344.871 151H341.731L335.291 142.38V151H331.951V137H335.091L341.551 145.64V137H344.871V151Z" fill="#B9B9B9"/>
<path d="M36 185.5H134C145.874 185.5 155.5 195.126 155.5 207C155.5 218.874 145.874 228.5 134 228.5H36C24.1259 228.5 14.5 218.874 14.5 207C14.5 195.311 23.8275 185.801 35.4453 185.507L36 185.5Z" stroke="url(#paint10_linear_162_2774)"/>
<path d="M38.04 200.88C42.38 200.88 45.62 203.92 45.62 207.98C45.62 212.06 42.38 215.16 38.04 215.16C33.72 215.16 30.48 212.08 30.48 207.98C30.48 203.9 33.72 200.88 38.04 200.88ZM38.08 203.86C35.92 203.86 34.12 205.64 34.12 208C34.12 210.36 35.94 212.18 38.08 212.18C40.24 212.18 41.96 210.36 41.96 208C41.96 205.64 40.24 203.86 38.08 203.86ZM53.7998 200.88C55.8798 200.88 58.0398 201.8 59.4398 203.24L57.3798 205.68C56.4598 204.56 55.0998 203.86 53.8598 203.86C51.6398 203.86 49.9598 205.62 49.9598 207.92C49.9598 210.26 51.6398 212.04 53.8598 212.04C55.0398 212.04 56.3998 211.4 57.3798 210.4L59.4598 212.6C57.9598 214.14 55.7398 215.16 53.6798 215.16C49.4598 215.16 46.3198 212.06 46.3198 207.96C46.3198 203.92 49.5398 200.88 53.7998 200.88ZM67.4131 200.88C69.4931 200.88 71.6531 201.8 73.0531 203.24L70.9931 205.68C70.0731 204.56 68.7131 203.86 67.4731 203.86C65.2531 203.86 63.5731 205.62 63.5731 207.92C63.5731 210.26 65.2531 212.04 67.4731 212.04C68.6531 212.04 70.0131 211.4 70.9931 210.4L73.0731 212.6C71.5731 214.14 69.3531 215.16 67.2931 215.16C63.0731 215.16 59.9331 212.06 59.9331 207.96C59.9331 203.92 63.1531 200.88 67.4131 200.88ZM83.8641 212.42H77.7441L76.7241 215H73.0641L79.1041 201H82.7641L88.6641 215H84.8641L83.8641 212.42ZM82.8241 209.72L80.8241 204.54L78.7841 209.72H82.8241ZM95.2761 200.84C97.2961 200.84 99.3561 201.46 100.796 202.4L99.4561 205.18C97.9761 204.32 96.1161 203.72 94.9761 203.72C94.0561 203.72 93.4361 204.06 93.4361 204.74C93.4361 207.16 100.836 205.78 100.836 210.84C100.836 213.64 98.3561 215.12 95.2361 215.12C92.8961 215.12 90.4961 214.24 88.8361 212.88L90.2161 210.14C91.6561 211.4 93.8161 212.24 95.2761 212.24C96.3961 212.24 97.0961 211.82 97.0961 211.02C97.0961 208.54 89.6961 210.02 89.6961 205.06C89.6961 202.48 91.9161 200.84 95.2761 200.84ZM106.327 215H102.767V201H106.327V215ZM115.774 200.88C120.114 200.88 123.354 203.92 123.354 207.98C123.354 212.06 120.114 215.16 115.774 215.16C111.454 215.16 108.214 212.08 108.214 207.98C108.214 203.9 111.454 200.88 115.774 200.88ZM115.814 203.86C113.654 203.86 111.854 205.64 111.854 208C111.854 210.36 113.674 212.18 115.814 212.18C117.974 212.18 119.694 210.36 119.694 208C119.694 205.64 117.974 203.86 115.814 203.86ZM138.148 215H135.008L128.568 206.38V215H125.228V201H128.368L134.828 209.64V201H138.148V215Z" fill="#B9B9B9"/>
<path d="M198 185.5H241C252.874 185.5 262.5 195.126 262.5 207C262.5 218.874 252.874 228.5 241 228.5H198C186.126 228.5 176.5 218.874 176.5 207C176.5 195.126 186.126 185.5 198 185.5Z" stroke="url(#paint11_linear_162_2774)"/>
<path d="M193.4 201H199.42C203.82 201 206.86 203.84 206.86 208C206.86 212.14 203.78 215 199.28 215H193.4V201ZM196.96 203.84V212.16H199.5C201.68 212.16 203.24 210.48 203.24 208.02C203.24 205.54 201.6 203.84 199.34 203.84H196.96ZM217.661 212.42H211.541L210.521 215H206.861L212.901 201H216.561L222.461 215H218.661L217.661 212.42ZM216.621 209.72L214.621 204.54L212.581 209.72H216.621ZM232.948 203.86H228.728V215H225.168V203.86H220.988V200.98H232.948V203.86ZM245.434 203.8H238.034V206.58H244.714V209.38H238.034V212.2H245.654V215H234.474V201H245.434V203.8Z" fill="#B9B9B9"/>
<path d="M305 185.5H373C384.874 185.5 394.5 195.126 394.5 207C394.5 218.874 384.874 228.5 373 228.5H305C293.126 228.5 283.5 218.874 283.5 207C283.5 195.126 293.126 185.5 305 185.5Z" stroke="url(#paint12_linear_162_2774)"/>
<path d="M300.4 201H306.5C310.08 201 312.14 202.76 312.14 205.88C312.14 209.16 310.08 211.06 306.5 211.06H303.96V215H300.4V201ZM303.96 203.8V208.26H306.32C307.88 208.26 308.78 207.48 308.78 206C308.78 204.54 307.88 203.8 306.32 203.8H303.96ZM324.954 203.8H317.554V206.58H324.234V209.38H317.554V212.2H325.174V215H313.994V201H324.954V203.8ZM335.91 215L333.83 211.06H333.73H331.03V215H327.47V201H333.73C337.43 201 339.55 202.76 339.55 205.88C339.55 208.02 338.65 209.56 337.01 210.38L339.95 215H335.91ZM331.03 208.26H333.73C335.27 208.26 336.17 207.48 336.17 206C336.17 204.54 335.27 203.8 333.73 203.8H331.03V208.26ZM345.503 215H341.943V201H345.503V215ZM354.95 200.88C359.29 200.88 362.53 203.92 362.53 207.98C362.53 212.06 359.29 215.16 354.95 215.16C350.63 215.16 347.39 212.08 347.39 207.98C347.39 203.9 350.63 200.88 354.95 200.88ZM354.99 203.86C352.83 203.86 351.03 205.64 351.03 208C351.03 210.36 352.85 212.18 354.99 212.18C357.15 212.18 358.87 210.36 358.87 208C358.87 205.64 357.15 203.86 354.99 203.86ZM364.404 201H370.424C374.824 201 377.864 203.84 377.864 208C377.864 212.14 374.784 215 370.284 215H364.404V201ZM367.964 203.84V212.16H370.504C372.684 212.16 374.244 210.48 374.244 208.02C374.244 205.54 372.604 203.84 370.344 203.84H367.964Z" fill="#B9B9B9"/>
<path d="M-64 249.5H-3C8.87412 249.5 18.5 259.126 18.5 271C18.5 282.874 8.87412 292.5 -3 292.5H-64C-75.8741 292.5 -85.5 282.874 -85.5 271C-85.5 259.126 -75.8741 249.5 -64 249.5Z" stroke="url(#paint13_linear_162_2774)"/>
<path d="M-57.64 267.8H-65.04V270.58H-58.36V273.38H-65.04V276.2H-57.42V279H-68.6V265H-57.64V267.8ZM-55.1234 265H-49.0234C-45.4434 265 -43.3834 266.76 -43.3834 269.88C-43.3834 273.16 -45.4434 275.06 -49.0234 275.06H-51.5634V279H-55.1234V265ZM-51.5634 267.8V272.26H-49.2034C-47.6434 272.26 -46.7434 271.48 -46.7434 270C-46.7434 268.54 -47.6434 267.8 -49.2034 267.8H-51.5634ZM-34.8897 264.88C-30.5497 264.88 -27.3097 267.92 -27.3097 271.98C-27.3097 276.06 -30.5497 279.16 -34.8897 279.16C-39.2097 279.16 -42.4497 276.08 -42.4497 271.98C-42.4497 267.9 -39.2097 264.88 -34.8897 264.88ZM-34.8497 267.86C-37.0097 267.86 -38.8097 269.64 -38.8097 272C-38.8097 274.36 -36.9897 276.18 -34.8497 276.18C-32.6897 276.18 -30.9697 274.36 -30.9697 272C-30.9697 269.64 -32.6897 267.86 -34.8497 267.86ZM-19.1298 264.88C-17.0498 264.88 -14.8898 265.8 -13.4898 267.24L-15.5498 269.68C-16.4698 268.56 -17.8298 267.86 -19.0698 267.86C-21.2898 267.86 -22.9698 269.62 -22.9698 271.92C-22.9698 274.26 -21.2898 276.04 -19.0698 276.04C-17.8898 276.04 -16.5298 275.4 -15.5498 274.4L-13.4698 276.6C-14.9698 278.14 -17.1898 279.16 -19.2498 279.16C-23.4698 279.16 -26.6098 276.06 -26.6098 271.96C-26.6098 267.92 -23.3898 264.88 -19.1298 264.88ZM1.07781 279H-2.48219V273.56H-8.28219V279H-11.8422V265H-8.28219V270.76H-2.48219V265H1.07781V279Z" fill="#B9B9B9"/>
<path d="M61 249.5H164C175.874 249.5 185.5 259.126 185.5 271C185.5 282.874 175.874 292.5 164 292.5H61C49.1259 292.5 39.5 282.874 39.5 271C39.5 259.126 49.1259 249.5 61 249.5Z" stroke="url(#paint14_linear_162_2774)"/>
<path d="M61.78 264.84C63.8 264.84 65.86 265.46 67.3 266.4L65.96 269.18C64.48 268.32 62.62 267.72 61.48 267.72C60.56 267.72 59.94 268.06 59.94 268.74C59.94 271.16 67.34 269.78 67.34 274.84C67.34 277.64 64.86 279.12 61.74 279.12C59.4 279.12 57 278.24 55.34 276.88L56.72 274.14C58.16 275.4 60.32 276.24 61.78 276.24C62.9 276.24 63.6 275.82 63.6 275.02C63.6 272.54 56.2 274.02 56.2 269.06C56.2 266.48 58.42 264.84 61.78 264.84ZM80.2311 267.8H72.8311V270.58H79.5111V273.38H72.8311V276.2H80.4511V279H69.2711V265H80.2311V267.8ZM96.4077 278.56L97.6677 280.76C96.5877 281.72 95.0077 282.3 93.6077 282.3C91.6677 282.3 90.0277 281.1 89.1077 279.16C84.9277 279.02 81.8277 276 81.8277 271.98C81.8277 267.9 85.0677 264.88 89.3877 264.88C93.7277 264.88 96.9677 267.92 96.9677 271.98C96.9677 275.08 95.1077 277.62 92.3077 278.66C92.7877 279.26 93.3677 279.62 94.0077 279.62C94.6477 279.62 95.5477 279.22 96.4077 278.56ZM85.4677 272C85.4677 274.36 87.2877 276.18 89.4277 276.18C91.5877 276.18 93.3077 274.36 93.3077 272C93.3077 269.64 91.5877 267.86 89.4277 267.86C87.2677 267.86 85.4677 269.64 85.4677 272ZM111.539 265V273.12C111.539 276.82 109.079 279.16 105.159 279.16C101.219 279.16 98.6991 276.82 98.6991 273.12V265H102.259V273.12C102.259 275.02 103.479 276.18 105.179 276.18C106.859 276.18 107.999 275.02 107.999 273.12V265H111.539ZM125.055 267.8H117.655V270.58H124.335V273.38H117.655V276.2H125.275V279H114.095V265H125.055V267.8ZM140.492 279H137.352L130.912 270.38V279H127.572V265H130.712L137.172 273.64V265H140.492V279ZM149.855 264.88C151.935 264.88 154.095 265.8 155.495 267.24L153.435 269.68C152.515 268.56 151.155 267.86 149.915 267.86C147.695 267.86 146.015 269.62 146.015 271.92C146.015 274.26 147.695 276.04 149.915 276.04C151.095 276.04 152.455 275.4 153.435 274.4L155.515 276.6C154.015 278.14 151.795 279.16 149.735 279.16C145.515 279.16 142.375 276.06 142.375 271.96C142.375 267.92 145.595 264.88 149.855 264.88ZM168.102 267.8H160.702V270.58H167.382V273.38H160.702V276.2H168.322V279H157.142V265H168.102V267.8Z" fill="#B9B9B9"/>
<path d="M228 249.5H319C330.874 249.5 340.5 259.126 340.5 271C340.5 282.874 330.874 292.5 319 292.5H228C216.126 292.5 206.5 282.874 206.5 271C206.5 259.126 216.126 249.5 228 249.5Z" stroke="url(#paint15_linear_162_2774)"/>
<path d="M226.96 279H223.4V265H226.96V279ZM242.687 279H239.547L233.107 270.38V279H229.767V265H232.907L239.367 273.64V265H242.687V279ZM256.19 267.86H251.97V279H248.41V267.86H244.23V264.98H256.19V267.86ZM268.676 267.8H261.276V270.58H267.956V273.38H261.276V276.2H268.896V279H257.716V265H268.676V267.8ZM279.633 279L277.553 275.06H277.453H274.753V279H271.193V265H277.453C281.153 265 283.273 266.76 283.273 269.88C283.273 272.02 282.373 273.56 280.733 274.38L283.673 279H279.633ZM274.753 272.26H277.453C278.993 272.26 279.893 271.48 279.893 270C279.893 268.54 278.993 267.8 277.453 267.8H274.753V272.26ZM293.229 279H289.549L284.109 265H287.909L291.489 275.3L295.069 265H298.729L293.229 279ZM308.325 276.42H302.205L301.185 279H297.525L303.565 265H307.225L313.125 279H309.325L308.325 276.42ZM307.285 273.72L305.285 268.54L303.245 273.72H307.285ZM317.976 276.02H323.916V279H314.416V265H317.976V276.02Z" fill="#B9B9B9"/>
<path d="M383 249.5H442C453.874 249.5 463.5 259.126 463.5 271C463.5 282.874 453.874 292.5 442 292.5H383C371.126 292.5 361.5 282.874 361.5 271C361.5 259.126 371.126 249.5 383 249.5Z" stroke="url(#paint16_linear_162_2774)"/>
<path d="M28 313.5H71C82.8741 313.5 92.5 323.126 92.5 335C92.5 346.874 82.8741 356.5 71 356.5H28C16.1259 356.5 6.5 346.874 6.5 335C6.5 323.126 16.1259 313.5 28 313.5Z" stroke="url(#paint17_linear_162_2774)"/>
<path d="M23.4 329H29.42C33.82 329 36.86 331.84 36.86 336C36.86 340.14 33.78 343 29.28 343H23.4V329ZM26.96 331.84V340.16H29.5C31.68 340.16 33.24 338.48 33.24 336.02C33.24 333.54 31.6 331.84 29.34 331.84H26.96ZM47.6609 340.42H41.5409L40.5209 343H36.8609L42.9009 329H46.5609L52.4609 343H48.6609L47.6609 340.42ZM46.6209 337.72L44.6209 332.54L42.5809 337.72H46.6209ZM62.9477 331.86H58.7277V343H55.1677V331.86H50.9877V328.98H62.9477V331.86ZM75.4342 331.8H68.0342V334.58H74.7142V337.38H68.0342V340.2H75.6542V343H64.4742V329H75.4342V331.8Z" fill="#B9B9B9"/>
<path d="M135 313.5H185C196.874 313.5 206.5 323.126 206.5 335C206.5 346.874 196.874 356.5 185 356.5H135C123.126 356.5 113.5 346.874 113.5 335C113.5 323.126 123.126 313.5 135 313.5Z" stroke="url(#paint18_linear_162_2774)"/>
<path d="M143.32 343H139.76V337.56H133.96V343H130.4V329H133.96V334.76H139.76V329H143.32V343ZM152.763 328.88C157.103 328.88 160.343 331.92 160.343 335.98C160.343 340.06 157.103 343.16 152.763 343.16C148.443 343.16 145.203 340.08 145.203 335.98C145.203 331.9 148.443 328.88 152.763 328.88ZM152.803 331.86C150.643 331.86 148.843 333.64 148.843 336C148.843 338.36 150.663 340.18 152.803 340.18C154.963 340.18 156.683 338.36 156.683 336C156.683 333.64 154.963 331.86 152.803 331.86ZM174.816 329V337.12C174.816 340.82 172.356 343.16 168.436 343.16C164.496 343.16 161.976 340.82 161.976 337.12V329H165.536V337.12C165.536 339.02 166.756 340.18 168.456 340.18C170.136 340.18 171.276 339.02 171.276 337.12V329H174.816ZM185.813 343L183.733 339.06H183.633H180.933V343H177.373V329H183.633C187.333 329 189.453 330.76 189.453 333.88C189.453 336.02 188.553 337.56 186.913 338.38L189.853 343H185.813ZM180.933 336.26H183.633C185.173 336.26 186.073 335.48 186.073 334C186.073 332.54 185.173 331.8 183.633 331.8H180.933V336.26Z" fill="#B9B9B9"/>
<path d="M249 313.5H342C353.874 313.5 363.5 323.126 363.5 335C363.5 346.874 353.874 356.5 342 356.5H249C237.126 356.5 227.5 346.874 227.5 335C227.5 323.126 237.126 313.5 249 313.5Z" stroke="url(#paint19_linear_162_2774)"/>
<path d="M247.96 343H244.4V329H247.96V343ZM263.687 343H260.547L254.107 334.38V343H250.767V329H253.907L260.367 337.64V329H263.687V343ZM271.87 328.84C273.89 328.84 275.95 329.46 277.39 330.4L276.05 333.18C274.57 332.32 272.71 331.72 271.57 331.72C270.65 331.72 270.03 332.06 270.03 332.74C270.03 335.16 277.43 333.78 277.43 338.84C277.43 341.64 274.95 343.12 271.83 343.12C269.49 343.12 267.09 342.24 265.43 340.88L266.81 338.14C268.25 339.4 270.41 340.24 271.87 340.24C272.99 340.24 273.69 339.82 273.69 339.02C273.69 336.54 266.29 338.02 266.29 333.06C266.29 330.48 268.51 328.84 271.87 328.84ZM290.061 331.86H285.841V343H282.281V331.86H278.101V328.98H290.061V331.86ZM299.384 340.42H293.264L292.244 343H288.584L294.624 329H298.284L304.184 343H300.384L299.384 340.42ZM298.344 337.72L296.344 332.54L294.304 337.72H298.344ZM318.394 343H315.254L308.814 334.38V343H305.474V329H308.614L315.074 337.64V329H318.394V343ZM327.757 328.88C329.837 328.88 331.997 329.8 333.397 331.24L331.337 333.68C330.417 332.56 329.057 331.86 327.817 331.86C325.597 331.86 323.917 333.62 323.917 335.92C323.917 338.26 325.597 340.04 327.817 340.04C328.997 340.04 330.357 339.4 331.337 338.4L333.417 340.6C331.917 342.14 329.697 343.16 327.637 343.16C323.417 343.16 320.277 340.06 320.277 335.96C320.277 331.92 323.497 328.88 327.757 328.88ZM346.005 331.8H338.605V334.58H345.285V337.38H338.605V340.2H346.225V343H335.045V329H346.005V331.8Z" fill="#B9B9B9"/>
<path d="M18 384.5H80C91.8741 384.5 101.5 394.126 101.5 406C101.5 417.874 91.8741 427.5 80 427.5H18C6.12588 427.5 -3.5 417.874 -3.5 406C-3.5 394.311 5.82754 384.801 17.4453 384.507L18 384.5Z" stroke="url(#paint20_linear_162_2774)"/>
<path d="M24.1 402.86H19.88V414H16.32V402.86H12.14V399.98H24.1V402.86ZM29.1866 414H25.6266V400H29.1866V414ZM47.3738 414H44.2338L44.2138 404.9L40.8538 412.6H38.5338L35.1738 404.9V414H31.9938V399.98H35.8938L39.6938 408.32L43.4938 399.98H47.3738V414ZM53.7569 414H50.1969V400H53.7569V414ZM69.4841 414H66.3441L59.9041 405.38V414H56.5641V400H59.7041L66.1641 408.64V400H69.4841V414ZM81.5867 406.88H84.6667V412.34C83.1667 413.4 80.8067 414.16 78.8467 414.16C74.5867 414.16 71.3667 411.08 71.3667 407C71.3667 402.94 74.6667 399.88 79.0867 399.88C81.1667 399.88 83.3667 400.68 84.8067 401.96L82.8067 404.38C81.7867 403.44 80.3667 402.86 79.0667 402.86C76.7667 402.86 75.0067 404.66 75.0067 407C75.0067 409.38 76.7867 411.18 79.1067 411.18C79.8267 411.18 80.7467 410.92 81.5867 410.5V406.88Z" fill="#B9B9B9"/>
<g filter="url(#filter0_d_162_2774)">
<path d="M151 377.5H218C233.74 377.5 246.5 390.26 246.5 406C246.5 421.74 233.74 434.5 218 434.5H151C135.26 434.5 122.5 421.74 122.5 406C122.5 390.26 135.26 377.5 151 377.5Z" stroke="url(#paint21_linear_162_2774)" shape-rendering="crispEdges"/>
<g filter="url(#filter1_d_162_2774)">
<path d="M160.912 419H155.888L145.584 405.208V419H140.24V396.6H145.264L155.6 410.424V396.6H160.912V419ZM182.932 401.08H171.092V405.528H181.78V410.008H171.092V414.52H183.284V419H165.396V396.6H182.932V401.08ZM204.495 401.08H192.655V405.528H203.343V410.008H192.655V414.52H204.847V419H186.959V396.6H204.495V401.08ZM208.521 396.6H218.153C225.193 396.6 230.057 401.144 230.057 407.8C230.057 414.424 225.129 419 217.929 419H208.521V396.6ZM214.217 401.144V414.456H218.281C221.769 414.456 224.265 411.768 224.265 407.832C224.265 403.864 221.641 401.144 218.025 401.144H214.217Z" fill="white"/>
</g>
</g>
<path d="M289 384.5H321C332.874 384.5 342.5 394.126 342.5 406C342.5 417.874 332.874 427.5 321 427.5H289C277.126 427.5 267.5 417.874 267.5 406C267.5 394.126 277.126 384.5 289 384.5Z" stroke="url(#paint22_linear_162_2774)"/>
<path d="M295.36 402.8H287.96V405.58H294.64V408.38H287.96V411.2H295.58V414H284.4V400H295.36V402.8ZM306.317 414L304.237 410.06H304.137H301.437V414H297.877V400H304.137C307.837 400 309.957 401.76 309.957 404.88C309.957 407.02 309.057 408.56 307.417 409.38L310.357 414H306.317ZM301.437 407.26H304.137C305.677 407.26 306.577 406.48 306.577 405C306.577 403.54 305.677 402.8 304.137 402.8H301.437V407.26ZM321.649 411.42H315.529L314.509 414H310.849L316.889 400H320.549L326.449 414H322.649L321.649 411.42ZM320.609 408.72L318.609 403.54L316.569 408.72H320.609Z" fill="#B9B9B9"/>
<path d="M385 384.5H488C499.874 384.5 509.5 394.126 509.5 406C509.5 417.874 499.874 427.5 488 427.5H385C373.126 427.5 363.5 417.874 363.5 406C363.5 394.126 373.126 384.5 385 384.5Z" stroke="url(#paint23_linear_162_2774)"/>
<path d="M-74 455.5H12C23.8741 455.5 33.5 465.126 33.5 477C33.5 488.874 23.8741 498.5 12 498.5H-74C-85.8741 498.5 -95.5 488.874 -95.5 477C-95.5 465.126 -85.8741 455.5 -74 455.5Z" stroke="url(#paint24_linear_162_2774)"/>
<path d="M-67.9 473.86H-72.12V485H-75.68V473.86H-79.86V470.98H-67.9V473.86ZM-62.8134 485H-66.3734V471H-62.8134V485ZM-44.6262 485H-47.7662L-47.7862 475.9L-51.1462 483.6H-53.4662L-56.8262 475.9V485H-60.0062V470.98H-56.1062L-52.3062 479.32L-48.5062 470.98H-44.6262V485ZM-30.8431 473.8H-38.2431V476.58H-31.5631V479.38H-38.2431V482.2H-30.6231V485H-41.8031V471H-30.8431V473.8ZM-24.7666 482.02H-18.8266V485H-28.3266V471H-24.7666V482.02ZM-13.5752 485H-17.1352V471H-13.5752V485ZM2.15203 485H-0.987968L-7.42797 476.38V485H-10.768V471H-7.62797L-1.16797 479.64V471H2.15203V485ZM15.9147 473.8H8.51469V476.58H15.1947V479.38H8.51469V482.2H16.1347V485H4.95469V471H15.9147V473.8Z" fill="#B9B9B9"/>
<path d="M76 455.5H135C146.874 455.5 156.5 465.126 156.5 477C156.5 488.874 146.874 498.5 135 498.5H76C64.1259 498.5 54.5 488.874 54.5 477C54.5 465.126 64.1259 455.5 76 455.5Z" stroke="url(#paint25_linear_162_2774)"/>
<path d="M71.4 471H77.5C81.08 471 83.14 472.76 83.14 475.88C83.14 479.16 81.08 481.06 77.5 481.06H74.96V485H71.4V471ZM74.96 473.8V478.26H77.32C78.88 478.26 79.78 477.48 79.78 476C79.78 474.54 78.88 473.8 77.32 473.8H74.96ZM97.9138 485H94.3538V479.56H88.5538V485H84.9938V471H88.5538V476.76H94.3538V471H97.9138V485ZM110.016 482.42H103.896L102.876 485H99.2164L105.256 471H108.916L114.816 485H111.016L110.016 482.42ZM108.976 479.72L106.976 474.54L104.936 479.72H108.976ZM121.428 470.84C123.448 470.84 125.508 471.46 126.948 472.4L125.608 475.18C124.128 474.32 122.268 473.72 121.128 473.72C120.208 473.72 119.588 474.06 119.588 474.74C119.588 477.16 126.988 475.78 126.988 480.84C126.988 483.64 124.508 485.12 121.388 485.12C119.048 485.12 116.648 484.24 114.988 482.88L116.368 480.14C117.808 481.4 119.968 482.24 121.428 482.24C122.548 482.24 123.248 481.82 123.248 481.02C123.248 478.54 115.848 480.02 115.848 475.06C115.848 472.48 118.068 470.84 121.428 470.84ZM139.88 473.8H132.48V476.58H139.16V479.38H132.48V482.2H140.1V485H128.92V471H139.88V473.8Z" fill="#B9B9B9"/>
<path d="M199 455.5H297C308.874 455.5 318.5 465.126 318.5 477C318.5 488.874 308.874 498.5 297 498.5H199C187.126 498.5 177.5 488.874 177.5 477C177.5 465.311 186.828 455.801 198.445 455.507L199 455.5Z" stroke="url(#paint26_linear_162_2774)"/>
<path d="M194.4 471H200.42C204.82 471 207.86 473.84 207.86 478C207.86 482.14 204.78 485 200.28 485H194.4V471ZM197.96 473.84V482.16H200.5C202.68 482.16 204.24 480.48 204.24 478.02C204.24 475.54 202.6 473.84 200.34 473.84H197.96ZM222.332 471V479.12C222.332 482.82 219.872 485.16 215.952 485.16C212.012 485.16 209.492 482.82 209.492 479.12V471H213.052V479.12C213.052 481.02 214.272 482.18 215.972 482.18C217.652 482.18 218.792 481.02 218.792 479.12V471H222.332ZM233.328 485L231.248 481.06H231.148H228.448V485H224.888V471H231.148C234.848 471 236.968 472.76 236.968 475.88C236.968 478.02 236.068 479.56 234.428 480.38L237.368 485H233.328ZM228.448 478.26H231.148C232.688 478.26 233.588 477.48 233.588 476C233.588 474.54 232.688 473.8 231.148 473.8H228.448V478.26ZM248.661 482.42H242.541L241.521 485H237.861L243.901 471H247.561L253.461 485H249.661L248.661 482.42ZM247.621 479.72L245.621 474.54L243.581 479.72H247.621ZM263.948 473.86H259.728V485H256.168V473.86H251.988V470.98H263.948V473.86ZM269.034 485H265.474V471H269.034V485ZM278.481 470.88C282.821 470.88 286.061 473.92 286.061 477.98C286.061 482.06 282.821 485.16 278.481 485.16C274.161 485.16 270.921 482.08 270.921 477.98C270.921 473.9 274.161 470.88 278.481 470.88ZM278.521 473.86C276.361 473.86 274.561 475.64 274.561 478C274.561 480.36 276.381 482.18 278.521 482.18C280.681 482.18 282.401 480.36 282.401 478C282.401 475.64 280.681 473.86 278.521 473.86ZM300.855 485H297.715L291.275 476.38V485H287.935V471H291.075L297.535 479.64V471H300.855V485Z" fill="#B9B9B9"/>
<path d="M361 455.5H452C463.874 455.5 473.5 465.126 473.5 477C473.5 488.874 463.874 498.5 452 498.5H361C349.126 498.5 339.5 488.874 339.5 477C339.5 465.126 349.126 455.5 361 455.5Z" stroke="url(#paint27_linear_162_2774)"/>
<path d="M359.96 485H356.4V471H359.96V485ZM375.687 485H372.547L366.107 476.38V485H362.767V471H365.907L372.367 479.64V471H375.687V485ZM389.19 473.86H384.97V485H381.41V473.86H377.23V470.98H389.19V473.86ZM401.676 473.8H394.276V476.58H400.956V479.38H394.276V482.2H401.896V485H390.716V471H401.676V473.8ZM412.633 485L410.553 481.06H410.453H407.753V485H404.193V471H410.453C414.153 471 416.273 472.76 416.273 475.88C416.273 478.02 415.373 479.56 413.733 480.38L416.673 485H412.633ZM407.753 478.26H410.453C411.993 478.26 412.893 477.48 412.893 476C412.893 474.54 411.993 473.8 410.453 473.8H407.753V478.26ZM426.229 485H422.549L417.109 471H420.909L424.489 481.3L428.069 471H431.729L426.229 485ZM441.325 482.42H435.205L434.185 485H430.525L436.565 471H440.225L446.125 485H442.325L441.325 482.42ZM440.285 479.72L438.285 474.54L436.245 479.72H440.285ZM450.976 482.02H456.916V485H447.416V471H450.976V482.02Z" fill="#B9B9B9"/>
<path d="M-47 519.5H-7C4.87412 519.5 14.5 529.126 14.5 541C14.5 552.874 4.87412 562.5 -7 562.5H-47C-58.8741 562.5 -68.5 552.874 -68.5 541C-68.5 529.126 -58.8741 519.5 -47 519.5Z" stroke="url(#paint28_linear_162_2774)"/>
<path d="M57 519.5H139C150.874 519.5 160.5 529.126 160.5 541C160.5 552.874 150.874 562.5 139 562.5H57C45.1259 562.5 35.5 552.874 35.5 541C35.5 529.311 44.8275 519.801 56.4453 519.507L57 519.5Z" stroke="url(#paint29_linear_162_2774)"/>
<path d="M67.78 549H64.64L64.62 539.9L61.26 547.6H58.94L55.58 539.9V549H52.4V534.98H56.3L60.1 543.32L63.9 534.98H67.78V549ZM77.2431 534.88C81.5831 534.88 84.8231 537.92 84.8231 541.98C84.8231 546.06 81.5831 549.16 77.2431 549.16C72.9231 549.16 69.6831 546.08 69.6831 541.98C69.6831 537.9 72.9231 534.88 77.2431 534.88ZM77.2831 537.86C75.1231 537.86 73.3231 539.64 73.3231 542C73.3231 544.36 75.1431 546.18 77.2831 546.18C79.4431 546.18 81.1631 544.36 81.1631 542C81.1631 539.64 79.4431 537.86 77.2831 537.86ZM102.077 549H98.9369L98.9169 539.9L95.5569 547.6H93.2369L89.8769 539.9V549H86.6969V534.98H90.5969L94.3969 543.32L98.1969 534.98H102.077V549ZM115.86 537.8H108.46V540.58H115.14V543.38H108.46V546.2H116.08V549H104.9V535H115.86V537.8ZM131.297 549H128.157L121.717 540.38V549H118.377V535H121.517L127.977 543.64V535H131.297V549ZM144.799 537.86H140.579V549H137.019V537.86H132.839V534.98H144.799V537.86Z" fill="#B9B9B9"/>
<path d="M203 519.5H301C312.874 519.5 322.5 529.126 322.5 541C322.5 552.874 312.874 562.5 301 562.5H203C191.126 562.5 181.5 552.874 181.5 541C181.5 529.311 190.828 519.801 202.445 519.507L203 519.5Z" stroke="url(#paint30_linear_162_2774)"/>
<path d="M205.04 534.88C209.38 534.88 212.62 537.92 212.62 541.98C212.62 546.06 209.38 549.16 205.04 549.16C200.72 549.16 197.48 546.08 197.48 541.98C197.48 537.9 200.72 534.88 205.04 534.88ZM205.08 537.86C202.92 537.86 201.12 539.64 201.12 542C201.12 544.36 202.94 546.18 205.08 546.18C207.24 546.18 208.96 544.36 208.96 542C208.96 539.64 207.24 537.86 205.08 537.86ZM220.8 534.88C222.88 534.88 225.04 535.8 226.44 537.24L224.38 539.68C223.46 538.56 222.1 537.86 220.86 537.86C218.64 537.86 216.96 539.62 216.96 541.92C216.96 544.26 218.64 546.04 220.86 546.04C222.04 546.04 223.4 545.4 224.38 544.4L226.46 546.6C224.96 548.14 222.74 549.16 220.68 549.16C216.46 549.16 213.32 546.06 213.32 541.96C213.32 537.92 216.54 534.88 220.8 534.88ZM234.413 534.88C236.493 534.88 238.653 535.8 240.053 537.24L237.993 539.68C237.073 538.56 235.713 537.86 234.473 537.86C232.253 537.86 230.573 539.62 230.573 541.92C230.573 544.26 232.253 546.04 234.473 546.04C235.653 546.04 237.013 545.4 237.993 544.4L240.073 546.6C238.573 548.14 236.353 549.16 234.293 549.16C230.073 549.16 226.933 546.06 226.933 541.96C226.933 537.92 230.153 534.88 234.413 534.88ZM250.864 546.42H244.744L243.724 549H240.064L246.104 535H249.764L255.664 549H251.864L250.864 546.42ZM249.824 543.72L247.824 538.54L245.784 543.72H249.824ZM262.276 534.84C264.296 534.84 266.356 535.46 267.796 536.4L266.456 539.18C264.976 538.32 263.116 537.72 261.976 537.72C261.056 537.72 260.436 538.06 260.436 538.74C260.436 541.16 267.836 539.78 267.836 544.84C267.836 547.64 265.356 549.12 262.236 549.12C259.896 549.12 257.496 548.24 255.836 546.88L257.216 544.14C258.656 545.4 260.816 546.24 262.276 546.24C263.396 546.24 264.096 545.82 264.096 545.02C264.096 542.54 256.696 544.02 256.696 539.06C256.696 536.48 258.916 534.84 262.276 534.84ZM273.327 549H269.767V535H273.327V549ZM282.774 534.88C287.114 534.88 290.354 537.92 290.354 541.98C290.354 546.06 287.114 549.16 282.774 549.16C278.454 549.16 275.214 546.08 275.214 541.98C275.214 537.9 278.454 534.88 282.774 534.88ZM282.814 537.86C280.654 537.86 278.854 539.64 278.854 542C278.854 544.36 280.674 546.18 282.814 546.18C284.974 546.18 286.694 544.36 286.694 542C286.694 539.64 284.974 537.86 282.814 537.86ZM305.148 549H302.008L295.568 540.38V549H292.228V535H295.368L301.828 543.64V535H305.148V549Z" fill="#B9B9B9"/>
<path d="M365 519.5H408C419.874 519.5 429.5 529.126 429.5 541C429.5 552.874 419.874 562.5 408 562.5H365C353.126 562.5 343.5 552.874 343.5 541C343.5 529.126 353.126 519.5 365 519.5Z" stroke="url(#paint31_linear_162_2774)"/>
<path d="M360.4 535H366.42C370.82 535 373.86 537.84 373.86 542C373.86 546.14 370.78 549 366.28 549H360.4V535ZM363.96 537.84V546.16H366.5C368.68 546.16 370.24 544.48 370.24 542.02C370.24 539.54 368.6 537.84 366.34 537.84H363.96ZM384.661 546.42H378.541L377.521 549H373.861L379.901 535H383.561L389.461 549H385.661L384.661 546.42ZM383.621 543.72L381.621 538.54L379.581 543.72H383.621ZM399.948 537.86H395.728V549H392.168V537.86H387.988V534.98H399.948V537.86ZM412.434 537.8H405.034V540.58H411.714V543.38H405.034V546.2H412.654V549H401.474V535H412.434V537.8Z" fill="#B9B9B9"/>
<path d="M-21 583.5H29C40.8741 583.5 50.5 593.126 50.5 605C50.5 616.874 40.8741 626.5 29 626.5H-21C-32.8741 626.5 -42.5 616.874 -42.5 605C-42.5 593.126 -32.8741 583.5 -21 583.5Z" stroke="url(#paint32_linear_162_2774)"/>
<path d="M-12.68 613H-16.24V607.56H-22.04V613H-25.6V599H-22.04V604.76H-16.24V599H-12.68V613ZM-3.23734 598.88C1.10266 598.88 4.34266 601.92 4.34266 605.98C4.34266 610.06 1.10266 613.16 -3.23734 613.16C-7.55734 613.16 -10.7973 610.08 -10.7973 605.98C-10.7973 601.9 -7.55734 598.88 -3.23734 598.88ZM-3.19734 601.86C-5.35734 601.86 -7.15734 603.64 -7.15734 606C-7.15734 608.36 -5.33734 610.18 -3.19734 610.18C-1.03734 610.18 0.682657 608.36 0.682657 606C0.682657 603.64 -1.03734 601.86 -3.19734 601.86ZM18.8164 599V607.12C18.8164 610.82 16.3564 613.16 12.4364 613.16C8.49641 613.16 5.97641 610.82 5.97641 607.12V599H9.53641V607.12C9.53641 609.02 10.7564 610.18 12.4564 610.18C14.1364 610.18 15.2764 609.02 15.2764 607.12V599H18.8164ZM29.8127 613L27.7327 609.06H27.6327H24.9327V613H21.3727V599H27.6327C31.3327 599 33.4527 600.76 33.4527 603.88C33.4527 606.02 32.5527 607.56 30.9127 608.38L33.8527 613H29.8127ZM24.9327 606.26H27.6327C29.1727 606.26 30.0727 605.48 30.0727 604C30.0727 602.54 29.1727 601.8 27.6327 601.8H24.9327V606.26Z" fill="#B9B9B9"/>
<path d="M93 583.5H186C197.874 583.5 207.5 593.126 207.5 605C207.5 616.874 197.874 626.5 186 626.5H93C81.1259 626.5 71.5 616.874 71.5 605C71.5 593.126 81.1259 583.5 93 583.5Z" stroke="url(#paint33_linear_162_2774)"/>
<path d="M91.96 613H88.4V599H91.96V613ZM107.687 613H104.547L98.1072 604.38V613H94.7672V599H97.9072L104.367 607.64V599H107.687V613ZM115.87 598.84C117.89 598.84 119.95 599.46 121.39 600.4L120.05 603.18C118.57 602.32 116.71 601.72 115.57 601.72C114.65 601.72 114.03 602.06 114.03 602.74C114.03 605.16 121.43 603.78 121.43 608.84C121.43 611.64 118.95 613.12 115.83 613.12C113.49 613.12 111.09 612.24 109.43 610.88L110.81 608.14C112.25 609.4 114.41 610.24 115.87 610.24C116.99 610.24 117.69 609.82 117.69 609.02C117.69 606.54 110.29 608.02 110.29 603.06C110.29 600.48 112.51 598.84 115.87 598.84ZM134.061 601.86H129.841V613H126.281V601.86H122.101V598.98H134.061V601.86ZM143.384 610.42H137.264L136.244 613H132.584L138.624 599H142.284L148.184 613H144.384L143.384 610.42ZM142.344 607.72L140.344 602.54L138.304 607.72H142.344ZM162.394 613H159.254L152.814 604.38V613H149.474V599H152.614L159.074 607.64V599H162.394V613ZM171.757 598.88C173.837 598.88 175.997 599.8 177.397 601.24L175.337 603.68C174.417 602.56 173.057 601.86 171.817 601.86C169.597 601.86 167.917 603.62 167.917 605.92C167.917 608.26 169.597 610.04 171.817 610.04C172.997 610.04 174.357 609.4 175.337 608.4L177.417 610.6C175.917 612.14 173.697 613.16 171.637 613.16C167.417 613.16 164.277 610.06 164.277 605.96C164.277 601.92 167.497 598.88 171.757 598.88ZM190.005 601.8H182.605V604.58H189.285V607.38H182.605V610.2H190.225V613H179.045V599H190.005V601.8Z" fill="#B9B9B9"/>
<path d="M250 583.5H318C329.874 583.5 339.5 593.126 339.5 605C339.5 616.874 329.874 626.5 318 626.5H250C238.126 626.5 228.5 616.874 228.5 605C228.5 593.126 238.126 583.5 250 583.5Z" stroke="url(#paint34_linear_162_2774)"/>
<path d="M245.4 599H251.5C255.08 599 257.14 600.76 257.14 603.88C257.14 607.16 255.08 609.06 251.5 609.06H248.96V613H245.4V599ZM248.96 601.8V606.26H251.32C252.88 606.26 253.78 605.48 253.78 604C253.78 602.54 252.88 601.8 251.32 601.8H248.96ZM269.954 601.8H262.554V604.58H269.234V607.38H262.554V610.2H270.174V613H258.994V599H269.954V601.8ZM280.91 613L278.83 609.06H278.73H276.03V613H272.47V599H278.73C282.43 599 284.55 600.76 284.55 603.88C284.55 606.02 283.65 607.56 282.01 608.38L284.95 613H280.91ZM276.03 606.26H278.73C280.27 606.26 281.17 605.48 281.17 604C281.17 602.54 280.27 601.8 278.73 601.8H276.03V606.26ZM290.503 613H286.943V599H290.503V613ZM299.95 598.88C304.29 598.88 307.53 601.92 307.53 605.98C307.53 610.06 304.29 613.16 299.95 613.16C295.63 613.16 292.39 610.08 292.39 605.98C292.39 601.9 295.63 598.88 299.95 598.88ZM299.99 601.86C297.83 601.86 296.03 603.64 296.03 606C296.03 608.36 297.85 610.18 299.99 610.18C302.15 610.18 303.87 608.36 303.87 606C303.87 603.64 302.15 601.86 299.99 601.86ZM309.404 599H315.424C319.824 599 322.864 601.84 322.864 606C322.864 610.14 319.784 613 315.284 613H309.404V599ZM312.964 601.84V610.16H315.504C317.684 610.16 319.244 608.48 319.244 606.02C319.244 603.54 317.604 601.84 315.344 601.84H312.964Z" fill="#B9B9B9"/>
<path d="M382 583.5H440C451.874 583.5 461.5 593.126 461.5 605C461.5 616.874 451.874 626.5 440 626.5H382C370.126 626.5 360.5 616.874 360.5 605C360.5 593.311 369.828 583.801 381.445 583.507L382 583.5Z" stroke="url(#paint35_linear_162_2774)"/>
<path d="M-61 647.5H48C59.8741 647.5 69.5 657.126 69.5 669C69.5 680.874 59.8741 690.5 48 690.5H-61C-72.8741 690.5 -82.5 680.874 -82.5 669C-82.5 657.126 -72.8741 647.5 -61 647.5Z" stroke="url(#paint36_linear_162_2774)"/>
<path d="M-59.04 662.88C-56.96 662.88 -54.8 663.8 -53.4 665.24L-55.46 667.68C-56.38 666.56 -57.74 665.86 -58.98 665.86C-61.2 665.86 -62.88 667.62 -62.88 669.92C-62.88 672.26 -61.2 674.04 -58.98 674.04C-57.8 674.04 -56.44 673.4 -55.46 672.4L-53.38 674.6C-54.88 676.14 -57.1 677.16 -59.16 677.16C-63.38 677.16 -66.52 674.06 -66.52 669.96C-66.52 665.92 -63.3 662.88 -59.04 662.88ZM-38.8323 677H-42.3923V671.56H-48.1923V677H-51.7523V663H-48.1923V668.76H-42.3923V663H-38.8323V677ZM-27.5897 677L-29.6697 673.06H-29.7697H-32.4697V677H-36.0297V663H-29.7697C-26.0697 663 -23.9497 664.76 -23.9497 667.88C-23.9497 670.02 -24.8497 671.56 -26.4897 672.38L-23.5497 677H-27.5897ZM-32.4697 670.26H-29.7697C-28.2297 670.26 -27.3297 669.48 -27.3297 668C-27.3297 666.54 -28.2297 665.8 -29.7697 665.8H-32.4697V670.26ZM-14.917 662.88C-10.577 662.88 -7.33703 665.92 -7.33703 669.98C-7.33703 674.06 -10.577 677.16 -14.917 677.16C-19.237 677.16 -22.477 674.08 -22.477 669.98C-22.477 665.9 -19.237 662.88 -14.917 662.88ZM-14.877 665.86C-17.037 665.86 -18.837 667.64 -18.837 670C-18.837 672.36 -17.017 674.18 -14.877 674.18C-12.717 674.18 -10.997 672.36 -10.997 670C-10.997 667.64 -12.717 665.86 -14.877 665.86ZM7.45672 677H4.31672L-2.12328 668.38V677H-5.46328V663H-2.32328L4.13672 671.64V663H7.45672V677ZM13.8194 677H10.2594V663H13.8194V677ZM23.1866 662.88C25.2666 662.88 27.4266 663.8 28.8266 665.24L26.7666 667.68C25.8466 666.56 24.4866 665.86 23.2466 665.86C21.0266 665.86 19.3466 667.62 19.3466 669.92C19.3466 672.26 21.0266 674.04 23.2466 674.04C24.4266 674.04 25.7866 673.4 26.7666 672.4L28.8466 674.6C27.3466 676.14 25.1266 677.16 23.0666 677.16C18.8466 677.16 15.7066 674.06 15.7066 669.96C15.7066 665.92 18.9266 662.88 23.1866 662.88ZM34.0342 674.02H39.9742V677H30.4742V663H34.0342V674.02ZM52.6256 665.8H45.2256V668.58H51.9056V671.38H45.2256V674.2H52.8456V677H41.6656V663H52.6256V665.8Z" fill="#B9B9B9"/>
<path d="M112 647.5H144C155.874 647.5 165.5 657.126 165.5 669C165.5 680.874 155.874 690.5 144 690.5H112C100.126 690.5 90.5 680.874 90.5 669C90.5 657.126 100.126 647.5 112 647.5Z" stroke="url(#paint37_linear_162_2774)"/>
<path d="M118.36 665.8H110.96V668.58H117.64V671.38H110.96V674.2H118.58V677H107.4V663H118.36V665.8ZM129.317 677L127.237 673.06H127.137H124.437V677H120.877V663H127.137C130.837 663 132.957 664.76 132.957 667.88C132.957 670.02 132.057 671.56 130.417 672.38L133.357 677H129.317ZM124.437 670.26H127.137C128.677 670.26 129.577 669.48 129.577 668C129.577 666.54 128.677 665.8 127.137 665.8H124.437V670.26ZM144.649 674.42H138.529L137.509 677H133.849L139.889 663H143.549L149.449 677H145.649L144.649 674.42ZM143.609 671.72L141.609 666.54L139.569 671.72H143.609Z" fill="#B9B9B9"/>
<path d="M208 647.5H269C280.874 647.5 290.5 657.126 290.5 669C290.5 680.874 280.874 690.5 269 690.5H208C196.126 690.5 186.5 680.874 186.5 669C186.5 657.126 196.126 647.5 208 647.5Z" stroke="url(#paint38_linear_162_2774)"/>
<path d="M214.36 665.8H206.96V668.58H213.64V671.38H206.96V674.2H214.58V677H203.4V663H214.36V665.8ZM216.877 663H222.977C226.557 663 228.617 664.76 228.617 667.88C228.617 671.16 226.557 673.06 222.977 673.06H220.437V677H216.877V663ZM220.437 665.8V670.26H222.797C224.357 670.26 225.257 669.48 225.257 668C225.257 666.54 224.357 665.8 222.797 665.8H220.437ZM237.11 662.88C241.45 662.88 244.69 665.92 244.69 669.98C244.69 674.06 241.45 677.16 237.11 677.16C232.79 677.16 229.55 674.08 229.55 669.98C229.55 665.9 232.79 662.88 237.11 662.88ZM237.15 665.86C234.99 665.86 233.19 667.64 233.19 670C233.19 672.36 235.01 674.18 237.15 674.18C239.31 674.18 241.03 672.36 241.03 670C241.03 667.64 239.31 665.86 237.15 665.86ZM252.87 662.88C254.95 662.88 257.11 663.8 258.51 665.24L256.45 667.68C255.53 666.56 254.17 665.86 252.93 665.86C250.71 665.86 249.03 667.62 249.03 669.92C249.03 672.26 250.71 674.04 252.93 674.04C254.11 674.04 255.47 673.4 256.45 672.4L258.53 674.6C257.03 676.14 254.81 677.16 252.75 677.16C248.53 677.16 245.39 674.06 245.39 669.96C245.39 665.92 248.61 662.88 252.87 662.88ZM273.078 677H269.518V671.56H263.718V677H260.158V663H263.718V668.76H269.518V663H273.078V677Z" fill="#B9B9B9"/>
<path d="M333 647.5H436C447.874 647.5 457.5 657.126 457.5 669C457.5 680.874 447.874 690.5 436 690.5H333C321.126 690.5 311.5 680.874 311.5 669C311.5 657.126 321.126 647.5 333 647.5Z" stroke="url(#paint39_linear_162_2774)"/>
<path d="M333.78 662.84C335.8 662.84 337.86 663.46 339.3 664.4L337.96 667.18C336.48 666.32 334.62 665.72 333.48 665.72C332.56 665.72 331.94 666.06 331.94 666.74C331.94 669.16 339.34 667.78 339.34 672.84C339.34 675.64 336.86 677.12 333.74 677.12C331.4 677.12 329 676.24 327.34 674.88L328.72 672.14C330.16 673.4 332.32 674.24 333.78 674.24C334.9 674.24 335.6 673.82 335.6 673.02C335.6 670.54 328.2 672.02 328.2 667.06C328.2 664.48 330.42 662.84 333.78 662.84ZM352.231 665.8H344.831V668.58H351.511V671.38H344.831V674.2H352.451V677H341.271V663H352.231V665.8ZM368.408 676.56L369.668 678.76C368.588 679.72 367.008 680.3 365.608 680.3C363.668 680.3 362.028 679.1 361.108 677.16C356.928 677.02 353.828 674 353.828 669.98C353.828 665.9 357.068 662.88 361.388 662.88C365.728 662.88 368.968 665.92 368.968 669.98C368.968 673.08 367.108 675.62 364.308 676.66C364.788 677.26 365.368 677.62 366.008 677.62C366.648 677.62 367.548 677.22 368.408 676.56ZM357.468 670C357.468 672.36 359.288 674.18 361.428 674.18C363.588 674.18 365.308 672.36 365.308 670C365.308 667.64 363.588 665.86 361.428 665.86C359.268 665.86 357.468 667.64 357.468 670ZM383.539 663V671.12C383.539 674.82 381.079 677.16 377.159 677.16C373.219 677.16 370.699 674.82 370.699 671.12V663H374.259V671.12C374.259 673.02 375.479 674.18 377.179 674.18C378.859 674.18 379.999 673.02 379.999 671.12V663H383.539ZM397.055 665.8H389.655V668.58H396.335V671.38H389.655V674.2H397.275V677H386.095V663H397.055V665.8ZM412.492 677H409.352L402.912 668.38V677H399.572V663H402.712L409.172 671.64V663H412.492V677ZM421.855 662.88C423.935 662.88 426.095 663.8 427.495 665.24L425.435 667.68C424.515 666.56 423.155 665.86 421.915 665.86C419.695 665.86 418.015 667.62 418.015 669.92C418.015 672.26 419.695 674.04 421.915 674.04C423.095 674.04 424.455 673.4 425.435 672.4L427.515 674.6C426.015 676.14 423.795 677.16 421.735 677.16C417.515 677.16 414.375 674.06 414.375 669.96C414.375 665.92 417.595 662.88 421.855 662.88ZM440.102 665.8H432.702V668.58H439.382V671.38H432.702V674.2H440.322V677H429.142V663H440.102V665.8Z" fill="#B9B9B9"/>
<path d="M-30 718.5H52C63.8741 718.5 73.5 728.126 73.5 740C73.5 751.874 63.8741 761.5 52 761.5H-30C-41.8741 761.5 -51.5 751.874 -51.5 740C-51.5 728.311 -42.1725 718.801 -30.5547 718.507L-30 718.5Z" stroke="url(#paint40_linear_162_2774)"/>
<path d="M-19.22 748H-22.36L-22.38 738.9L-25.74 746.6H-28.06L-31.42 738.9V748H-34.6V733.98H-30.7L-26.9 742.32L-23.1 733.98H-19.22V748ZM-9.75687 733.88C-5.41687 733.88 -2.17687 736.92 -2.17687 740.98C-2.17687 745.06 -5.41687 748.16 -9.75687 748.16C-14.0769 748.16 -17.3169 745.08 -17.3169 740.98C-17.3169 736.9 -14.0769 733.88 -9.75687 733.88ZM-9.71687 736.86C-11.8769 736.86 -13.6769 738.64 -13.6769 741C-13.6769 743.36 -11.8569 745.18 -9.71687 745.18C-7.55687 745.18 -5.83687 743.36 -5.83687 741C-5.83687 738.64 -7.55687 736.86 -9.71687 736.86ZM15.0769 748H11.9369L11.9169 738.9L8.55688 746.6H6.23688L2.87688 738.9V748H-0.303125V733.98H3.59688L7.39688 742.32L11.1969 733.98H15.0769V748ZM28.86 736.8H21.46V739.58H28.14V742.38H21.46V745.2H29.08V748H17.9V734H28.86V736.8ZM44.2966 748H41.1566L34.7166 739.38V748H31.3766V734H34.5166L40.9766 742.64V734H44.2966V748ZM57.7992 736.86H53.5792V748H50.0192V736.86H45.8392V733.98H57.7992V736.86Z" fill="#B9B9B9"/>
<g filter="url(#filter2_d_162_2774)">
<path d="M123 711.5H199C214.74 711.5 227.5 724.26 227.5 740C227.5 755.74 214.74 768.5 199 768.5H123C107.26 768.5 94.5 755.74 94.5 740C94.5 724.26 107.26 711.5 123 711.5Z" stroke="url(#paint41_linear_162_2774)" shape-rendering="crispEdges"/>
<g filter="url(#filter3_d_162_2774)">
<path d="M137.424 753H131.568L127.408 737.512L123.184 753H117.296L109.968 730.6H116.048L120.432 747.08L124.72 730.6H130.288L134.672 747.08L138.992 730.6H144.816L137.424 753ZM167.506 753H161.81V744.296H152.53V753H146.834V730.6H152.53V739.816H161.81V730.6H167.506V753ZM186.87 748.872H177.078L175.446 753H169.59L179.254 730.6H185.11L194.55 753H188.47L186.87 748.872ZM185.206 744.552L182.006 736.264L178.742 744.552H185.206ZM211.329 735.176H204.577V753H198.881V735.176H192.193V730.568H211.329V735.176Z" fill="white"/>
</g>
</g>
<path d="M270 718.5H411C422.874 718.5 432.5 728.126 432.5 740C432.5 751.874 422.874 761.5 411 761.5H270C258.126 761.5 248.5 751.874 248.5 740C248.5 728.126 258.126 718.5 270 718.5Z" stroke="url(#paint42_linear_162_2774)"/>
<path d="M274.7 745.42H268.58L267.56 748H263.9L269.94 734H273.6L279.5 748H275.7L274.7 745.42ZM273.66 742.72L271.66 737.54L269.62 742.72H273.66ZM280.791 734H286.891C290.471 734 292.531 735.76 292.531 738.88C292.531 742.16 290.471 744.06 286.891 744.06H284.351V748H280.791V734ZM284.351 736.8V741.26H286.711C288.271 741.26 289.171 740.48 289.171 739C289.171 737.54 288.271 736.8 286.711 736.8H284.351ZM294.384 734H300.484C304.064 734 306.124 735.76 306.124 738.88C306.124 742.16 304.064 744.06 300.484 744.06H297.944V748H294.384V734ZM297.944 736.8V741.26H300.304C301.864 741.26 302.764 740.48 302.764 739C302.764 737.54 301.864 736.8 300.304 736.8H297.944ZM314.618 733.88C318.958 733.88 322.198 736.92 322.198 740.98C322.198 745.06 318.958 748.16 314.618 748.16C310.298 748.16 307.058 745.08 307.058 740.98C307.058 736.9 310.298 733.88 314.618 733.88ZM314.658 736.86C312.498 736.86 310.698 738.64 310.698 741C310.698 743.36 312.518 745.18 314.658 745.18C316.818 745.18 318.538 743.36 318.538 741C318.538 738.64 316.818 736.86 314.658 736.86ZM327.632 748H324.072V734H327.632V748ZM343.359 748H340.219L333.779 739.38V748H330.439V734H333.579L340.039 742.64V734H343.359V748ZM356.862 736.86H352.642V748H349.082V736.86H344.902V733.98H356.862V736.86ZM373.768 748H370.628L370.608 738.9L367.248 746.6H364.928L361.568 738.9V748H358.388V733.98H362.288L366.088 742.32L369.888 733.98H373.768V748ZM387.551 736.8H380.151V739.58H386.831V742.38H380.151V745.2H387.771V748H376.591V734H387.551V736.8ZM402.988 748H399.848L393.408 739.38V748H390.068V734H393.208L399.668 742.64V734H402.988V748ZM416.491 736.86H412.271V748H408.711V736.86H404.531V733.98H416.491V736.86Z" fill="#B9B9B9"/>
<path d="M-52 789.5H27C38.8741 789.5 48.5 799.126 48.5 811C48.5 822.874 38.8741 832.5 27 832.5H-52C-63.8741 832.5 -73.5 822.874 -73.5 811C-73.5 799.126 -63.8741 789.5 -52 789.5Z" stroke="url(#paint43_linear_162_2774)"/>
<path d="M-51.22 804.84C-49.2 804.84 -47.14 805.46 -45.7 806.4L-47.04 809.18C-48.52 808.32 -50.38 807.72 -51.52 807.72C-52.44 807.72 -53.06 808.06 -53.06 808.74C-53.06 811.16 -45.66 809.78 -45.66 814.84C-45.66 817.64 -48.14 819.12 -51.26 819.12C-53.6 819.12 -56 818.24 -57.66 816.88L-56.28 814.14C-54.84 815.4 -52.68 816.24 -51.22 816.24C-50.1 816.24 -49.4 815.82 -49.4 815.02C-49.4 812.54 -56.8 814.02 -56.8 809.06C-56.8 806.48 -54.58 804.84 -51.22 804.84ZM-32.7689 807.8H-40.1689V810.58H-33.4889V813.38H-40.1689V816.2H-32.5489V819H-43.7289V805H-32.7689V807.8ZM-24.8723 804.84C-22.8523 804.84 -20.7923 805.46 -19.3523 806.4L-20.6923 809.18C-22.1723 808.32 -24.0323 807.72 -25.1723 807.72C-26.0923 807.72 -26.7123 808.06 -26.7123 808.74C-26.7123 811.16 -19.3123 809.78 -19.3123 814.84C-19.3123 817.64 -21.7923 819.12 -24.9123 819.12C-27.2523 819.12 -29.6523 818.24 -31.3123 816.88L-29.9323 814.14C-28.4923 815.4 -26.3323 816.24 -24.8723 816.24C-23.7523 816.24 -23.0523 815.82 -23.0523 815.02C-23.0523 812.54 -30.4523 814.02 -30.4523 809.06C-30.4523 806.48 -28.2323 804.84 -24.8723 804.84ZM-12.0012 804.84C-9.98125 804.84 -7.92125 805.46 -6.48125 806.4L-7.82125 809.18C-9.30125 808.32 -11.1612 807.72 -12.3012 807.72C-13.2212 807.72 -13.8412 808.06 -13.8412 808.74C-13.8412 811.16 -6.44125 809.78 -6.44125 814.84C-6.44125 817.64 -8.92125 819.12 -12.0412 819.12C-14.3812 819.12 -16.7812 818.24 -18.4412 816.88L-17.0612 814.14C-15.6212 815.4 -13.4612 816.24 -12.0012 816.24C-10.8812 816.24 -10.1812 815.82 -10.1812 815.02C-10.1812 812.54 -17.5812 814.02 -17.5812 809.06C-17.5812 806.48 -15.3612 804.84 -12.0012 804.84ZM-0.950156 819H-4.51016V805H-0.950156V819ZM8.49703 804.88C12.837 804.88 16.077 807.92 16.077 811.98C16.077 816.06 12.837 819.16 8.49703 819.16C4.17703 819.16 0.937031 816.08 0.937031 811.98C0.937031 807.9 4.17703 804.88 8.49703 804.88ZM8.53703 807.86C6.37703 807.86 4.57703 809.64 4.57703 812C4.57703 814.36 6.39703 816.18 8.53703 816.18C10.697 816.18 12.417 814.36 12.417 812C12.417 809.64 10.697 807.86 8.53703 807.86ZM30.8708 819H27.7308L21.2908 810.38V819H17.9508V805H21.0908L27.5508 813.64V805H30.8708V819Z" fill="#B9B9B9"/>
<path d="M91 789.5H232C243.874 789.5 253.5 799.126 253.5 811C253.5 822.874 243.874 832.5 232 832.5H91C79.1259 832.5 69.5 822.874 69.5 811C69.5 799.126 79.1259 789.5 91 789.5Z" stroke="url(#paint44_linear_162_2774)"/>
<path d="M95.7 816.42H89.58L88.56 819H84.9L90.94 805H94.6L100.5 819H96.7L95.7 816.42ZM94.66 813.72L92.66 808.54L90.62 813.72H94.66ZM101.791 805H107.891C111.471 805 113.531 806.76 113.531 809.88C113.531 813.16 111.471 815.06 107.891 815.06H105.351V819H101.791V805ZM105.351 807.8V812.26H107.711C109.271 812.26 110.171 811.48 110.171 810C110.171 808.54 109.271 807.8 107.711 807.8H105.351ZM115.384 805H121.484C125.064 805 127.124 806.76 127.124 809.88C127.124 813.16 125.064 815.06 121.484 815.06H118.944V819H115.384V805ZM118.944 807.8V812.26H121.304C122.864 812.26 123.764 811.48 123.764 810C123.764 808.54 122.864 807.8 121.304 807.8H118.944ZM135.618 804.88C139.958 804.88 143.198 807.92 143.198 811.98C143.198 816.06 139.958 819.16 135.618 819.16C131.298 819.16 128.058 816.08 128.058 811.98C128.058 807.9 131.298 804.88 135.618 804.88ZM135.658 807.86C133.498 807.86 131.698 809.64 131.698 812C131.698 814.36 133.518 816.18 135.658 816.18C137.818 816.18 139.538 814.36 139.538 812C139.538 809.64 137.818 807.86 135.658 807.86ZM148.632 819H145.072V805H148.632V819ZM164.359 819H161.219L154.779 810.38V819H151.439V805H154.579L161.039 813.64V805H164.359V819ZM177.862 807.86H173.642V819H170.082V807.86H165.902V804.98H177.862V807.86ZM194.768 819H191.628L191.608 809.9L188.248 817.6H185.928L182.568 809.9V819H179.388V804.98H183.288L187.088 813.32L190.888 804.98H194.768V819ZM208.551 807.8H201.151V810.58H207.831V813.38H201.151V816.2H208.771V819H197.591V805H208.551V807.8ZM223.988 819H220.848L214.408 810.38V819H211.068V805H214.208L220.668 813.64V805H223.988V819ZM237.491 807.86H233.271V819H229.711V807.86H225.531V804.98H237.491V807.86Z" fill="#B9B9B9"/>
<path d="M296 789.5H391C402.874 789.5 412.5 799.126 412.5 811C412.5 822.874 402.874 832.5 391 832.5H296C284.126 832.5 274.5 822.874 274.5 811C274.5 799.311 283.828 789.801 295.445 789.507L296 789.5Z" stroke="url(#paint45_linear_162_2774)"/>
<path d="M291.4 805H297.42C301.82 805 304.86 807.84 304.86 812C304.86 816.14 301.78 819 297.28 819H291.4V805ZM294.96 807.84V816.16H297.5C299.68 816.16 301.24 814.48 301.24 812.02C301.24 809.54 299.6 807.84 297.34 807.84H294.96ZM317.692 807.8H310.292V810.58H316.972V813.38H310.292V816.2H317.912V819H306.732V805H317.692V807.8ZM329.509 816.42H323.389L322.369 819H318.709L324.749 805H328.409L334.309 819H330.509L329.509 816.42ZM328.469 813.72L326.469 808.54L324.429 813.72H328.469ZM335.599 805H341.619C346.019 805 349.059 807.84 349.059 812C349.059 816.14 345.979 819 341.479 819H335.599V805ZM339.159 807.84V816.16H341.699C343.879 816.16 345.439 814.48 345.439 812.02C345.439 809.54 343.799 807.84 341.539 807.84H339.159ZM354.491 816.02H360.431V819H350.931V805H354.491V816.02ZM365.683 819H362.123V805H365.683V819ZM381.41 819H378.27L371.83 810.38V819H368.49V805H371.63L378.09 813.64V805H381.41V819ZM395.173 807.8H387.773V810.58H394.453V813.38H387.773V816.2H395.393V819H384.213V805H395.173V807.8Z" fill="#B9B9B9"/>
</g>
<defs>
<filter id="filter0_d_162_2774" x="102" y="357" width="165" height="98" filterUnits="userSpaceOnUse" color-interpolation-filters="sRGB">
<feFlood flood-opacity="0" result="BackgroundImageFix"/>
<feColorMatrix in="SourceAlpha" type="matrix" values="0 0 0 0 0 0 0 0 0 0 0 0 0 0 0 0 0 0 127 0" result="hardAlpha"/>
<feOffset/>
<feGaussianBlur stdDeviation="10"/>
<feComposite in2="hardAlpha" operator="out"/>
<feColorMatrix type="matrix" values="0 0 0 0 1 0 0 0 0 1 0 0 0 0 1 0 0 0 1 0"/>
<feBlend mode="normal" in2="BackgroundImageFix" result="effect1_dropShadow_162_2774"/>
<feBlend mode="normal" in="SourceGraphic" in2="effect1_dropShadow_162_2774" result="shape"/>
</filter>
<filter id="filter1_d_162_2774" x="136.24" y="392.6" width="97.8174" height="30.3999" filterUnits="userSpaceOnUse" color-interpolation-filters="sRGB">
<feFlood flood-opacity="0" result="BackgroundImageFix"/>
<feColorMatrix in="SourceAlpha" type="matrix" values="0 0 0 0 0 0 0 0 0 0 0 0 0 0 0 0 0 0 127 0" result="hardAlpha"/>
<feOffset/>
<feGaussianBlur stdDeviation="2"/>
<feComposite in2="hardAlpha" operator="out"/>
<feColorMatrix type="matrix" values="0 0 0 0 1 0 0 0 0 1 0 0 0 0 1 0 0 0 0.65 0"/>
<feBlend mode="normal" in2="BackgroundImageFix" result="effect1_dropShadow_162_2774"/>
<feBlend mode="normal" in="SourceGraphic" in2="effect1_dropShadow_162_2774" result="shape"/>
</filter>
<filter id="filter2_d_162_2774" x="74" y="691" width="174" height="98" filterUnits="userSpaceOnUse" color-interpolation-filters="sRGB">
<feFlood flood-opacity="0" result="BackgroundImageFix"/>
<feColorMatrix in="SourceAlpha" type="matrix" values="0 0 0 0 0 0 0 0 0 0 0 0 0 0 0 0 0 0 127 0" result="hardAlpha"/>
<feOffset/>
<feGaussianBlur stdDeviation="10"/>
<feComposite in2="hardAlpha" operator="out"/>
<feColorMatrix type="matrix" values="0 0 0 0 1 0 0 0 0 1 0 0 0 0 1 0 0 0 1 0"/>
<feBlend mode="normal" in2="BackgroundImageFix" result="effect1_dropShadow_162_2774"/>
<feBlend mode="normal" in="SourceGraphic" in2="effect1_dropShadow_162_2774" result="shape"/>
</filter>
<filter id="filter3_d_162_2774" x="105.968" y="726.568" width="109.361" height="30.4319" filterUnits="userSpaceOnUse" color-interpolation-filters="sRGB">
<feFlood flood-opacity="0" result="BackgroundImageFix"/>
<feColorMatrix in="SourceAlpha" type="matrix" values="0 0 0 0 0 0 0 0 0 0 0 0 0 0 0 0 0 0 127 0" result="hardAlpha"/>
<feOffset/>
<feGaussianBlur stdDeviation="2"/>
<feComposite in2="hardAlpha" operator="out"/>
<feColorMatrix type="matrix" values="0 0 0 0 1 0 0 0 0 1 0 0 0 0 1 0 0 0 0.65 0"/>
<feBlend mode="normal" in2="BackgroundImageFix" result="effect1_dropShadow_162_2774"/>
<feBlend mode="normal" in="SourceGraphic" in2="effect1_dropShadow_162_2774" result="shape"/>
</filter>
<linearGradient id="paint0_linear_162_2774" x1="128" y1="15" x2="-11" y2="15" gradientUnits="userSpaceOnUse">
<stop stop-color="white" stop-opacity="0"/>
<stop offset="0.5" stop-color="white"/>
<stop offset="1" stop-color="white" stop-opacity="0"/>
</linearGradient>
<linearGradient id="paint1_linear_162_2774" x1="274" y1="15" x2="148" y2="15" gradientUnits="userSpaceOnUse">
<stop stop-color="white" stop-opacity="0"/>
<stop offset="0.5" stop-color="white"/>
<stop offset="1" stop-color="white" stop-opacity="0"/>
</linearGradient>
<linearGradient id="paint2_linear_162_2774" x1="400" y1="15" x2="294" y2="15" gradientUnits="userSpaceOnUse">
<stop stop-color="white" stop-opacity="0"/>
<stop offset="0.5" stop-color="white"/>
<stop offset="1" stop-color="white" stop-opacity="0"/>
</linearGradient>
<linearGradient id="paint3_linear_162_2774" x1="38" y1="79" x2="-118" y2="79" gradientUnits="userSpaceOnUse">
<stop stop-color="white" stop-opacity="0"/>
<stop offset="0.5" stop-color="white"/>
<stop offset="1" stop-color="white" stop-opacity="0"/>
</linearGradient>
<linearGradient id="paint4_linear_162_2774" x1="202" y1="79" x2="58" y2="79" gradientUnits="userSpaceOnUse">
<stop stop-color="white" stop-opacity="0"/>
<stop offset="0.5" stop-color="white"/>
<stop offset="1" stop-color="white" stop-opacity="0"/>
</linearGradient>
<linearGradient id="paint5_linear_162_2774" x1="324" y1="79" x2="222" y2="79" gradientUnits="userSpaceOnUse">
<stop stop-color="white" stop-opacity="0"/>
<stop offset="0.5" stop-color="white"/>
<stop offset="1" stop-color="white" stop-opacity="0"/>
</linearGradient>
<linearGradient id="paint6_linear_162_2774" x1="470" y1="79" x2="344" y2="79" gradientUnits="userSpaceOnUse">
<stop stop-color="white" stop-opacity="0"/>
<stop offset="0.5" stop-color="white"/>
<stop offset="1" stop-color="white" stop-opacity="0"/>
</linearGradient>
<linearGradient id="paint7_linear_162_2774" x1="65" y1="143" x2="-77" y2="143" gradientUnits="userSpaceOnUse">
<stop stop-color="white" stop-opacity="0"/>
<stop offset="0.5" stop-color="white"/>
<stop offset="1" stop-color="white" stop-opacity="0"/>
</linearGradient>
<linearGradient id="paint8_linear_162_2774" x1="220" y1="143" x2="85" y2="143" gradientUnits="userSpaceOnUse">
<stop stop-color="white" stop-opacity="0"/>
<stop offset="0.5" stop-color="white"/>
<stop offset="1" stop-color="white" stop-opacity="0"/>
</linearGradient>
<linearGradient id="paint9_linear_162_2774" x1="363" y1="143" x2="240" y2="143" gradientUnits="userSpaceOnUse">
<stop stop-color="white" stop-opacity="0"/>
<stop offset="0.5" stop-color="white"/>
<stop offset="1" stop-color="white" stop-opacity="0"/>
</linearGradient>
<linearGradient id="paint10_linear_162_2774" x1="156" y1="207" x2="14" y2="207" gradientUnits="userSpaceOnUse">
<stop stop-color="white" stop-opacity="0"/>
<stop offset="0.5" stop-color="white"/>
<stop offset="1" stop-color="white" stop-opacity="0"/>
</linearGradient>
<linearGradient id="paint11_linear_162_2774" x1="263" y1="207" x2="176" y2="207" gradientUnits="userSpaceOnUse">
<stop stop-color="white" stop-opacity="0"/>
<stop offset="0.5" stop-color="white"/>
<stop offset="1" stop-color="white" stop-opacity="0"/>
</linearGradient>
<linearGradient id="paint12_linear_162_2774" x1="395" y1="207" x2="283" y2="207" gradientUnits="userSpaceOnUse">
<stop stop-color="white" stop-opacity="0"/>
<stop offset="0.5" stop-color="white"/>
<stop offset="1" stop-color="white" stop-opacity="0"/>
</linearGradient>
<linearGradient id="paint13_linear_162_2774" x1="19" y1="271" x2="-86" y2="271" gradientUnits="userSpaceOnUse">
<stop stop-color="white" stop-opacity="0"/>
<stop offset="0.5" stop-color="white"/>
<stop offset="1" stop-color="white" stop-opacity="0"/>
</linearGradient>
<linearGradient id="paint14_linear_162_2774" x1="186" y1="271" x2="39" y2="271" gradientUnits="userSpaceOnUse">
<stop stop-color="white" stop-opacity="0"/>
<stop offset="0.5" stop-color="white"/>
<stop offset="1" stop-color="white" stop-opacity="0"/>
</linearGradient>
<linearGradient id="paint15_linear_162_2774" x1="341" y1="271" x2="206" y2="271" gradientUnits="userSpaceOnUse">
<stop stop-color="white" stop-opacity="0"/>
<stop offset="0.5" stop-color="white"/>
<stop offset="1" stop-color="white" stop-opacity="0"/>
</linearGradient>
<linearGradient id="paint16_linear_162_2774" x1="464" y1="271" x2="361" y2="271" gradientUnits="userSpaceOnUse">
<stop stop-color="white" stop-opacity="0"/>
<stop offset="0.5" stop-color="white"/>
<stop offset="1" stop-color="white" stop-opacity="0"/>
</linearGradient>
<linearGradient id="paint17_linear_162_2774" x1="93" y1="335" x2="6" y2="335" gradientUnits="userSpaceOnUse">
<stop stop-color="white" stop-opacity="0"/>
<stop offset="0.5" stop-color="white"/>
<stop offset="1" stop-color="white" stop-opacity="0"/>
</linearGradient>
<linearGradient id="paint18_linear_162_2774" x1="207" y1="335" x2="113" y2="335" gradientUnits="userSpaceOnUse">
<stop stop-color="white" stop-opacity="0"/>
<stop offset="0.5" stop-color="white"/>
<stop offset="1" stop-color="white" stop-opacity="0"/>
</linearGradient>
<linearGradient id="paint19_linear_162_2774" x1="364" y1="335" x2="227" y2="335" gradientUnits="userSpaceOnUse">
<stop stop-color="white" stop-opacity="0"/>
<stop offset="0.5" stop-color="white"/>
<stop offset="1" stop-color="white" stop-opacity="0"/>
</linearGradient>
<linearGradient id="paint20_linear_162_2774" x1="102" y1="406" x2="-4" y2="406" gradientUnits="userSpaceOnUse">
<stop stop-color="white" stop-opacity="0"/>
<stop offset="0.5" stop-color="white"/>
<stop offset="1" stop-color="white" stop-opacity="0"/>
</linearGradient>
<linearGradient id="paint21_linear_162_2774" x1="247" y1="406" x2="122" y2="406" gradientUnits="userSpaceOnUse">
<stop stop-color="white" stop-opacity="0"/>
<stop offset="0.5" stop-color="white"/>
<stop offset="1" stop-color="white" stop-opacity="0"/>
</linearGradient>
<linearGradient id="paint22_linear_162_2774" x1="343" y1="406" x2="267" y2="406" gradientUnits="userSpaceOnUse">
<stop stop-color="white" stop-opacity="0"/>
<stop offset="0.5" stop-color="white"/>
<stop offset="1" stop-color="white" stop-opacity="0"/>
</linearGradient>
<linearGradient id="paint23_linear_162_2774" x1="510" y1="406" x2="363" y2="406" gradientUnits="userSpaceOnUse">
<stop stop-color="white" stop-opacity="0"/>
<stop offset="0.5" stop-color="white"/>
<stop offset="1" stop-color="white" stop-opacity="0"/>
</linearGradient>
<linearGradient id="paint24_linear_162_2774" x1="34" y1="477" x2="-96" y2="477" gradientUnits="userSpaceOnUse">
<stop stop-color="white" stop-opacity="0"/>
<stop offset="0.5" stop-color="white"/>
<stop offset="1" stop-color="white" stop-opacity="0"/>
</linearGradient>
<linearGradient id="paint25_linear_162_2774" x1="157" y1="477" x2="54" y2="477" gradientUnits="userSpaceOnUse">
<stop stop-color="white" stop-opacity="0"/>
<stop offset="0.5" stop-color="white"/>
<stop offset="1" stop-color="white" stop-opacity="0"/>
</linearGradient>
<linearGradient id="paint26_linear_162_2774" x1="319" y1="477" x2="177" y2="477" gradientUnits="userSpaceOnUse">
<stop stop-color="white" stop-opacity="0"/>
<stop offset="0.5" stop-color="white"/>
<stop offset="1" stop-color="white" stop-opacity="0"/>
</linearGradient>
<linearGradient id="paint27_linear_162_2774" x1="474" y1="477" x2="339" y2="477" gradientUnits="userSpaceOnUse">
<stop stop-color="white" stop-opacity="0"/>
<stop offset="0.5" stop-color="white"/>
<stop offset="1" stop-color="white" stop-opacity="0"/>
</linearGradient>
<linearGradient id="paint28_linear_162_2774" x1="15" y1="541" x2="-69" y2="541" gradientUnits="userSpaceOnUse">
<stop stop-color="white" stop-opacity="0"/>
<stop offset="0.5" stop-color="white"/>
<stop offset="1" stop-color="white" stop-opacity="0"/>
</linearGradient>
<linearGradient id="paint29_linear_162_2774" x1="161" y1="541" x2="35" y2="541" gradientUnits="userSpaceOnUse">
<stop stop-color="white" stop-opacity="0"/>
<stop offset="0.5" stop-color="white"/>
<stop offset="1" stop-color="white" stop-opacity="0"/>
</linearGradient>
<linearGradient id="paint30_linear_162_2774" x1="323" y1="541" x2="181" y2="541" gradientUnits="userSpaceOnUse">
<stop stop-color="white" stop-opacity="0"/>
<stop offset="0.5" stop-color="white"/>
<stop offset="1" stop-color="white" stop-opacity="0"/>
</linearGradient>
<linearGradient id="paint31_linear_162_2774" x1="430" y1="541" x2="343" y2="541" gradientUnits="userSpaceOnUse">
<stop stop-color="white" stop-opacity="0"/>
<stop offset="0.5" stop-color="white"/>
<stop offset="1" stop-color="white" stop-opacity="0"/>
</linearGradient>
<linearGradient id="paint32_linear_162_2774" x1="51" y1="605" x2="-43" y2="605" gradientUnits="userSpaceOnUse">
<stop stop-color="white" stop-opacity="0"/>
<stop offset="0.5" stop-color="white"/>
<stop offset="1" stop-color="white" stop-opacity="0"/>
</linearGradient>
<linearGradient id="paint33_linear_162_2774" x1="208" y1="605" x2="71" y2="605" gradientUnits="userSpaceOnUse">
<stop stop-color="white" stop-opacity="0"/>
<stop offset="0.5" stop-color="white"/>
<stop offset="1" stop-color="white" stop-opacity="0"/>
</linearGradient>
<linearGradient id="paint34_linear_162_2774" x1="340" y1="605" x2="228" y2="605" gradientUnits="userSpaceOnUse">
<stop stop-color="white" stop-opacity="0"/>
<stop offset="0.5" stop-color="white"/>
<stop offset="1" stop-color="white" stop-opacity="0"/>
</linearGradient>
<linearGradient id="paint35_linear_162_2774" x1="462" y1="605" x2="360" y2="605" gradientUnits="userSpaceOnUse">
<stop stop-color="white" stop-opacity="0"/>
<stop offset="0.5" stop-color="white"/>
<stop offset="1" stop-color="white" stop-opacity="0"/>
</linearGradient>
<linearGradient id="paint36_linear_162_2774" x1="70" y1="669" x2="-83" y2="669" gradientUnits="userSpaceOnUse">
<stop stop-color="white" stop-opacity="0"/>
<stop offset="0.5" stop-color="white"/>
<stop offset="1" stop-color="white" stop-opacity="0"/>
</linearGradient>
<linearGradient id="paint37_linear_162_2774" x1="166" y1="669" x2="90" y2="669" gradientUnits="userSpaceOnUse">
<stop stop-color="white" stop-opacity="0"/>
<stop offset="0.5" stop-color="white"/>
<stop offset="1" stop-color="white" stop-opacity="0"/>
</linearGradient>
<linearGradient id="paint38_linear_162_2774" x1="291" y1="669" x2="186" y2="669" gradientUnits="userSpaceOnUse">
<stop stop-color="white" stop-opacity="0"/>
<stop offset="0.5" stop-color="white"/>
<stop offset="1" stop-color="white" stop-opacity="0"/>
</linearGradient>
<linearGradient id="paint39_linear_162_2774" x1="458" y1="669" x2="311" y2="669" gradientUnits="userSpaceOnUse">
<stop stop-color="white" stop-opacity="0"/>
<stop offset="0.5" stop-color="white"/>
<stop offset="1" stop-color="white" stop-opacity="0"/>
</linearGradient>
<linearGradient id="paint40_linear_162_2774" x1="74" y1="740" x2="-52" y2="740" gradientUnits="userSpaceOnUse">
<stop stop-color="white" stop-opacity="0"/>
<stop offset="0.5" stop-color="white"/>
<stop offset="1" stop-color="white" stop-opacity="0"/>
</linearGradient>
<linearGradient id="paint41_linear_162_2774" x1="228" y1="740" x2="94" y2="740" gradientUnits="userSpaceOnUse">
<stop stop-color="white" stop-opacity="0"/>
<stop offset="0.5" stop-color="white"/>
<stop offset="1" stop-color="white" stop-opacity="0"/>
</linearGradient>
<linearGradient id="paint42_linear_162_2774" x1="433" y1="740" x2="248" y2="740" gradientUnits="userSpaceOnUse">
<stop stop-color="white" stop-opacity="0"/>
<stop offset="0.5" stop-color="white"/>
<stop offset="1" stop-color="white" stop-opacity="0"/>
</linearGradient>
<linearGradient id="paint43_linear_162_2774" x1="49" y1="811" x2="-74" y2="811" gradientUnits="userSpaceOnUse">
<stop stop-color="white" stop-opacity="0"/>
<stop offset="0.5" stop-color="white"/>
<stop offset="1" stop-color="white" stop-opacity="0"/>
</linearGradient>
<linearGradient id="paint44_linear_162_2774" x1="254" y1="811" x2="69" y2="811" gradientUnits="userSpaceOnUse">
<stop stop-color="white" stop-opacity="0"/>
<stop offset="0.5" stop-color="white"/>
<stop offset="1" stop-color="white" stop-opacity="0"/>
</linearGradient>
<linearGradient id="paint45_linear_162_2774" x1="413" y1="811" x2="274" y2="811" gradientUnits="userSpaceOnUse">
<stop stop-color="white" stop-opacity="0"/>
<stop offset="0.5" stop-color="white"/>
<stop offset="1" stop-color="white" stop-opacity="0"/>
</linearGradient>
<clipPath id="clip0_162_2774">
<rect width="375" height="812" fill="white"/>
</clipPath>
</defs>
</svg>
