<svg width="18" height="18" viewBox="0 0 18 18" fill="none" xmlns="http://www.w3.org/2000/svg">
<path d="M7.85727 0.760334C8.10754 -0.253436 9.54871 -0.253436 9.79898 0.760335L11.0592 5.86534C11.1483 6.22595 11.4298 6.5075 11.7904 6.59652L16.8954 7.85678C17.9092 8.10705 17.9092 9.54822 16.8954 9.79849L11.7904 11.0587C11.4298 11.1478 11.1483 11.4293 11.0592 11.7899L9.79898 16.8949C9.54871 17.9087 8.10754 17.9087 7.85727 16.8949L6.59701 11.7899C6.50799 11.4293 6.22644 11.1478 5.86583 11.0587L0.760823 9.79849C-0.252948 9.54822 -0.252948 8.10705 0.760823 7.85678L5.86583 6.59652C6.22644 6.5075 6.50799 6.22595 6.59701 5.86534L7.85727 0.760334Z" fill="url(#paint0_linear_633_145)"/>
<defs>
<linearGradient id="paint0_linear_633_145" x1="8.82812" y1="-3.17236" x2="8.82812" y2="20.8276" gradientUnits="userSpaceOnUse">
<stop stop-color="#00A1E7"/>
<stop offset="1" stop-color="#0BB2BA"/>
</linearGradient>
</defs>
</svg>
